<?xml version="1.0" encoding="utf-8" standalone="no"?>
<!DOCTYPE svg PUBLIC "-//W3C//DTD SVG 1.1//EN"
  "http://www.w3.org/Graphics/SVG/1.1/DTD/svg11.dtd">
<svg xmlns:xlink="http://www.w3.org/1999/xlink" width="720pt" height="432pt" viewBox="0 0 720 432" xmlns="http://www.w3.org/2000/svg" version="1.1">
 <metadata>
  <rdf:RDF xmlns:dc="http://purl.org/dc/elements/1.1/" xmlns:cc="http://creativecommons.org/ns#" xmlns:rdf="http://www.w3.org/1999/02/22-rdf-syntax-ns#">
   <cc:Work>
    <dc:type rdf:resource="http://purl.org/dc/dcmitype/StillImage"/>
    <dc:date>2025-11-13T08:41:28.133933</dc:date>
    <dc:format>image/svg+xml</dc:format>
    <dc:creator>
     <cc:Agent>
      <dc:title>Matplotlib v3.9.4, https://matplotlib.org/</dc:title>
     </cc:Agent>
    </dc:creator>
   </cc:Work>
  </rdf:RDF>
 </metadata>
 <defs>
  <style type="text/css">*{stroke-linejoin: round; stroke-linecap: butt}</style>
 </defs>
 <g id="figure_1">
  <g id="patch_1">
   <path d="M 0 432 
L 720 432 
L 720 0 
L 0 0 
z
" style="fill: #ffffff"/>
  </g>
  <g id="axes_1">
   <g id="patch_2">
    <path d="M 90 384.48 
L 648 384.48 
L 648 51.84 
L 90 51.84 
z
" style="fill: #ffffff"/>
   </g>
   <g id="PolyCollection_1">
    <defs>
     <path id="m7c347d84b2" d="M 115.363636 -47.701635 
L 115.363636 -47.52 
L 117.912746 -47.52 
L 120.461855 -47.52 
L 123.010964 -47.52 
L 125.560073 -47.52 
L 128.109182 -47.52 
L 130.658291 -47.52 
L 133.207401 -47.52 
L 135.75651 -47.52 
L 138.305619 -47.52 
L 140.854728 -47.52 
L 143.403837 -47.52 
L 145.952947 -47.52 
L 148.502056 -47.52 
L 151.051165 -47.52 
L 153.600274 -47.52 
L 156.149383 -47.52 
L 158.698492 -47.52 
L 161.247602 -47.52 
L 163.796711 -47.52 
L 166.34582 -47.52 
L 168.894929 -47.52 
L 171.444038 -47.52 
L 173.993148 -47.52 
L 176.542257 -47.52 
L 179.091366 -47.52 
L 181.640475 -47.52 
L 184.189584 -47.52 
L 186.738693 -47.52 
L 189.287803 -47.52 
L 191.836912 -47.52 
L 194.386021 -47.52 
L 196.93513 -47.52 
L 199.484239 -47.52 
L 202.033349 -47.52 
L 204.582458 -47.52 
L 207.131567 -47.52 
L 209.680676 -47.52 
L 212.229785 -47.52 
L 214.778894 -47.52 
L 217.328004 -47.52 
L 219.877113 -47.52 
L 222.426222 -47.52 
L 224.975331 -47.52 
L 227.52444 -47.52 
L 230.07355 -47.52 
L 232.622659 -47.52 
L 235.171768 -47.52 
L 237.720877 -47.52 
L 240.269986 -47.52 
L 242.819095 -47.52 
L 245.368205 -47.52 
L 247.917314 -47.52 
L 250.466423 -47.52 
L 253.015532 -47.52 
L 255.564641 -47.52 
L 258.113751 -47.52 
L 260.66286 -47.52 
L 263.211969 -47.52 
L 265.761078 -47.52 
L 268.310187 -47.52 
L 270.859296 -47.52 
L 273.408406 -47.52 
L 275.957515 -47.52 
L 278.506624 -47.52 
L 281.055733 -47.52 
L 283.604842 -47.52 
L 286.153952 -47.52 
L 288.703061 -47.52 
L 291.25217 -47.52 
L 293.801279 -47.52 
L 296.350388 -47.52 
L 298.899497 -47.52 
L 301.448607 -47.52 
L 303.997716 -47.52 
L 306.546825 -47.52 
L 309.095934 -47.52 
L 311.645043 -47.52 
L 314.194153 -47.52 
L 316.743262 -47.52 
L 319.292371 -47.52 
L 321.84148 -47.52 
L 324.390589 -47.52 
L 326.939698 -47.52 
L 329.488808 -47.52 
L 332.037917 -47.52 
L 334.587026 -47.52 
L 337.136135 -47.52 
L 339.685244 -47.52 
L 342.234354 -47.52 
L 344.783463 -47.52 
L 347.332572 -47.52 
L 349.881681 -47.52 
L 352.43079 -47.52 
L 354.979899 -47.52 
L 357.529009 -47.52 
L 360.078118 -47.52 
L 362.627227 -47.52 
L 365.176336 -47.52 
L 367.725445 -47.52 
L 370.274555 -47.52 
L 372.823664 -47.52 
L 375.372773 -47.52 
L 377.921882 -47.52 
L 380.470991 -47.52 
L 383.020101 -47.52 
L 385.56921 -47.52 
L 388.118319 -47.52 
L 390.667428 -47.52 
L 393.216537 -47.52 
L 395.765646 -47.52 
L 398.314756 -47.52 
L 400.863865 -47.52 
L 403.412974 -47.52 
L 405.962083 -47.52 
L 408.511192 -47.52 
L 411.060302 -47.52 
L 413.609411 -47.52 
L 416.15852 -47.52 
L 418.707629 -47.52 
L 421.256738 -47.52 
L 423.805847 -47.52 
L 426.354957 -47.52 
L 428.904066 -47.52 
L 431.453175 -47.52 
L 434.002284 -47.52 
L 436.551393 -47.52 
L 439.100503 -47.52 
L 441.649612 -47.52 
L 444.198721 -47.52 
L 446.74783 -47.52 
L 449.296939 -47.52 
L 451.846048 -47.52 
L 454.395158 -47.52 
L 456.944267 -47.52 
L 459.493376 -47.52 
L 462.042485 -47.52 
L 464.591594 -47.52 
L 467.140704 -47.52 
L 469.689813 -47.52 
L 472.238922 -47.52 
L 474.788031 -47.52 
L 477.33714 -47.52 
L 479.886249 -47.52 
L 482.435359 -47.52 
L 484.984468 -47.52 
L 487.533577 -47.52 
L 490.082686 -47.52 
L 492.631795 -47.52 
L 495.180905 -47.52 
L 497.730014 -47.52 
L 500.279123 -47.52 
L 502.828232 -47.52 
L 505.377341 -47.52 
L 507.92645 -47.52 
L 510.47556 -47.52 
L 513.024669 -47.52 
L 515.573778 -47.52 
L 518.122887 -47.52 
L 520.671996 -47.52 
L 523.221106 -47.52 
L 525.770215 -47.52 
L 528.319324 -47.52 
L 530.868433 -47.52 
L 533.417542 -47.52 
L 535.966651 -47.52 
L 538.515761 -47.52 
L 541.06487 -47.52 
L 543.613979 -47.52 
L 546.163088 -47.52 
L 548.712197 -47.52 
L 551.261307 -47.52 
L 553.810416 -47.52 
L 556.359525 -47.52 
L 558.908634 -47.52 
L 561.457743 -47.52 
L 564.006852 -47.52 
L 566.555962 -47.52 
L 569.105071 -47.52 
L 571.65418 -47.52 
L 574.203289 -47.52 
L 576.752398 -47.52 
L 579.301508 -47.52 
L 581.850617 -47.52 
L 584.399726 -47.52 
L 586.948835 -47.52 
L 589.497944 -47.52 
L 592.047053 -47.52 
L 594.596163 -47.52 
L 597.145272 -47.52 
L 599.694381 -47.52 
L 602.24349 -47.52 
L 604.792599 -47.52 
L 607.341709 -47.52 
L 609.890818 -47.52 
L 612.439927 -47.52 
L 614.989036 -47.52 
L 617.538145 -47.52 
L 620.087254 -47.52 
L 622.636364 -47.52 
L 622.636364 -49.667602 
L 622.636364 -49.667602 
L 620.087254 -50.174982 
L 617.538145 -50.786228 
L 614.989036 -51.518616 
L 612.439927 -52.391382 
L 609.890818 -53.425754 
L 607.341709 -54.644928 
L 604.792599 -56.073994 
L 602.24349 -57.739791 
L 599.694381 -59.6707 
L 597.145272 -61.896336 
L 594.596163 -64.447172 
L 592.047053 -67.354055 
L 589.497944 -70.647638 
L 586.948835 -74.357714 
L 584.399726 -78.512466 
L 581.850617 -83.137639 
L 579.301508 -88.255647 
L 576.752398 -93.884631 
L 574.203289 -100.0375 
L 571.65418 -106.720968 
L 569.105071 -113.934624 
L 566.555962 -121.670072 
L 564.006852 -129.910162 
L 561.457743 -138.628366 
L 558.908634 -147.788312 
L 556.359525 -157.343526 
L 553.810416 -167.237406 
L 551.261307 -177.403443 
L 548.712197 -187.765717 
L 546.163088 -198.23967 
L 543.613979 -208.733164 
L 541.06487 -219.147798 
L 538.515761 -229.38049 
L 535.966651 -239.325267 
L 533.417542 -248.875243 
L 530.868433 -257.92473 
L 528.319324 -266.371427 
L 525.770215 -274.11863 
L 523.221106 -281.077396 
L 520.671996 -287.168593 
L 518.122887 -292.324784 
L 515.573778 -296.491865 
L 513.024669 -299.630428 
L 510.47556 -301.716776 
L 507.92645 -302.743571 
L 505.377341 -302.720091 
L 502.828232 -301.672068 
L 500.279123 -299.641125 
L 497.730014 -296.683814 
L 495.180905 -292.870286 
L 492.631795 -288.282634 
L 490.082686 -283.012944 
L 487.533577 -277.161131 
L 484.984468 -270.832601 
L 482.435359 -264.135824 
L 479.886249 -257.179876 
L 477.33714 -250.072024 
L 474.788031 -242.915417 
L 472.238922 -235.806951 
L 469.689813 -228.835349 
L 467.140704 -222.079521 
L 464.591594 -215.607227 
L 462.042485 -209.474075 
L 459.493376 -203.722877 
L 456.944267 -198.383356 
L 454.395158 -193.472213 
L 451.846048 -188.993531 
L 449.296939 -184.939494 
L 446.74783 -181.291393 
L 444.198721 -178.020872 
L 441.649612 -175.091375 
L 439.100503 -172.459748 
L 436.551393 -170.077936 
L 434.002284 -167.894733 
L 431.453175 -165.857521 
L 428.904066 -163.913967 
L 426.354957 -162.013609 
L 423.805847 -160.109313 
L 421.256738 -158.158546 
L 418.707629 -156.124454 
L 416.15852 -153.976712 
L 413.609411 -151.692127 
L 411.060302 -149.255017 
L 408.511192 -146.657324 
L 405.962083 -143.898512 
L 403.412974 -140.98524 
L 400.863865 -137.930836 
L 398.314756 -134.754613 
L 395.765646 -131.481028 
L 393.216537 -128.138753 
L 390.667428 -124.759664 
L 388.118319 -121.377792 
L 385.56921 -118.028275 
L 383.020101 -114.746339 
L 380.470991 -111.566328 
L 377.921882 -108.520829 
L 375.372773 -105.639894 
L 372.823664 -102.950381 
L 370.274555 -100.475438 
L 367.725445 -98.234116 
L 365.176336 -96.241137 
L 362.627227 -94.506786 
L 360.078118 -93.036959 
L 357.529009 -91.833314 
L 354.979899 -90.893548 
L 352.43079 -90.211758 
L 349.881681 -89.778887 
L 347.332572 -89.58322 
L 344.783463 -89.610923 
L 342.234354 -89.846589 
L 339.685244 -90.273793 
L 337.136135 -90.875613 
L 334.587026 -91.635114 
L 332.037917 -92.535781 
L 329.488808 -93.56188 
L 326.939698 -94.69874 
L 324.390589 -95.932953 
L 321.84148 -97.252485 
L 319.292371 -98.646697 
L 316.743262 -100.106284 
L 314.194153 -101.623133 
L 311.645043 -103.190116 
L 309.095934 -104.800818 
L 306.546825 -106.449236 
L 303.997716 -108.129437 
L 301.448607 -109.83522 
L 298.899497 -111.55978 
L 296.350388 -113.295395 
L 293.801279 -115.033161 
L 291.25217 -116.762776 
L 288.703061 -118.472398 
L 286.153952 -120.148574 
L 283.604842 -121.776253 
L 281.055733 -123.338888 
L 278.506624 -124.818614 
L 275.957515 -126.196513 
L 273.408406 -127.452945 
L 270.859296 -128.567941 
L 268.310187 -129.521641 
L 265.761078 -130.294764 
L 263.211969 -130.869094 
L 260.66286 -131.227957 
L 258.113751 -131.356682 
L 255.564641 -131.243027 
L 253.015532 -130.877545 
L 250.466423 -130.253894 
L 247.917314 -129.369065 
L 245.368205 -128.223532 
L 242.819095 -126.821308 
L 240.269986 -125.16992 
L 237.720877 -123.280292 
L 235.171768 -121.166545 
L 232.622659 -118.845725 
L 230.07355 -116.33746 
L 227.52444 -113.663572 
L 224.975331 -110.847637 
L 222.426222 -107.914525 
L 219.877113 -104.889921 
L 217.328004 -101.799847 
L 214.778894 -98.670198 
L 212.229785 -95.526297 
L 209.680676 -92.392491 
L 207.131567 -89.291789 
L 204.582458 -86.245539 
L 202.033349 -83.273179 
L 199.484239 -80.392028 
L 196.93513 -77.617146 
L 194.386021 -74.961248 
L 191.836912 -72.434676 
L 189.287803 -70.045417 
L 186.738693 -67.799172 
L 184.189584 -65.699469 
L 181.640475 -63.747801 
L 179.091366 -61.943802 
L 176.542257 -60.285433 
L 173.993148 -58.769191 
L 171.444038 -57.390321 
L 168.894929 -56.143027 
L 166.34582 -55.020689 
L 163.796711 -54.016057 
L 161.247602 -53.121446 
L 158.698492 -52.328909 
L 156.149383 -51.630394 
L 153.600274 -51.017885 
L 151.051165 -50.483514 
L 148.502056 -50.019669 
L 145.952947 -49.619069 
L 143.403837 -49.274826 
L 140.854728 -48.980492 
L 138.305619 -48.730088 
L 135.75651 -48.518118 
L 133.207401 -48.339576 
L 130.658291 -48.189936 
L 128.109182 -48.065142 
L 125.560073 -47.961583 
L 123.010964 -47.876072 
L 120.461855 -47.805812 
L 117.912746 -47.748368 
L 115.363636 -47.701635 
z
" style="stroke: #0000ff"/>
    </defs>
    <g clip-path="url(#p81977f2a75)">
     <use xlink:href="#m7c347d84b2" x="0" y="432" style="fill: #0000ff; fill-opacity: 0.5; stroke: #0000ff"/>
    </g>
   </g>
   <g id="PolyCollection_2">
    <defs>
     <path id="mbf1a4e932e" d="M 136.397387 -47.616808 
L 136.397387 -47.52 
L 138.690361 -47.52 
L 140.983334 -47.52 
L 143.276308 -47.52 
L 145.569282 -47.52 
L 147.862256 -47.52 
L 150.155229 -47.52 
L 152.448203 -47.52 
L 154.741177 -47.52 
L 157.034151 -47.52 
L 159.327125 -47.52 
L 161.620098 -47.52 
L 163.913072 -47.52 
L 166.206046 -47.52 
L 168.49902 -47.52 
L 170.791993 -47.52 
L 173.084967 -47.52 
L 175.377941 -47.52 
L 177.670915 -47.52 
L 179.963889 -47.52 
L 182.256862 -47.52 
L 184.549836 -47.52 
L 186.84281 -47.52 
L 189.135784 -47.52 
L 191.428757 -47.52 
L 193.721731 -47.52 
L 196.014705 -47.52 
L 198.307679 -47.52 
L 200.600653 -47.52 
L 202.893626 -47.52 
L 205.1866 -47.52 
L 207.479574 -47.52 
L 209.772548 -47.52 
L 212.065521 -47.52 
L 214.358495 -47.52 
L 216.651469 -47.52 
L 218.944443 -47.52 
L 221.237416 -47.52 
L 223.53039 -47.52 
L 225.823364 -47.52 
L 228.116338 -47.52 
L 230.409312 -47.52 
L 232.702285 -47.52 
L 234.995259 -47.52 
L 237.288233 -47.52 
L 239.581207 -47.52 
L 241.87418 -47.52 
L 244.167154 -47.52 
L 246.460128 -47.52 
L 248.753102 -47.52 
L 251.046076 -47.52 
L 253.339049 -47.52 
L 255.632023 -47.52 
L 257.924997 -47.52 
L 260.217971 -47.52 
L 262.510944 -47.52 
L 264.803918 -47.52 
L 267.096892 -47.52 
L 269.389866 -47.52 
L 271.68284 -47.52 
L 273.975813 -47.52 
L 276.268787 -47.52 
L 278.561761 -47.52 
L 280.854735 -47.52 
L 283.147708 -47.52 
L 285.440682 -47.52 
L 287.733656 -47.52 
L 290.02663 -47.52 
L 292.319603 -47.52 
L 294.612577 -47.52 
L 296.905551 -47.52 
L 299.198525 -47.52 
L 301.491499 -47.52 
L 303.784472 -47.52 
L 306.077446 -47.52 
L 308.37042 -47.52 
L 310.663394 -47.52 
L 312.956367 -47.52 
L 315.249341 -47.52 
L 317.542315 -47.52 
L 319.835289 -47.52 
L 322.128263 -47.52 
L 324.421236 -47.52 
L 326.71421 -47.52 
L 329.007184 -47.52 
L 331.300158 -47.52 
L 333.593131 -47.52 
L 335.886105 -47.52 
L 338.179079 -47.52 
L 340.472053 -47.52 
L 342.765027 -47.52 
L 345.058 -47.52 
L 347.350974 -47.52 
L 349.643948 -47.52 
L 351.936922 -47.52 
L 354.229895 -47.52 
L 356.522869 -47.52 
L 358.815843 -47.52 
L 361.108817 -47.52 
L 363.401791 -47.52 
L 365.694764 -47.52 
L 367.987738 -47.52 
L 370.280712 -47.52 
L 372.573686 -47.52 
L 374.866659 -47.52 
L 377.159633 -47.52 
L 379.452607 -47.52 
L 381.745581 -47.52 
L 384.038554 -47.52 
L 386.331528 -47.52 
L 388.624502 -47.52 
L 390.917476 -47.52 
L 393.21045 -47.52 
L 395.503423 -47.52 
L 397.796397 -47.52 
L 400.089371 -47.52 
L 402.382345 -47.52 
L 404.675318 -47.52 
L 406.968292 -47.52 
L 409.261266 -47.52 
L 411.55424 -47.52 
L 413.847214 -47.52 
L 416.140187 -47.52 
L 418.433161 -47.52 
L 420.726135 -47.52 
L 423.019109 -47.52 
L 425.312082 -47.52 
L 427.605056 -47.52 
L 429.89803 -47.52 
L 432.191004 -47.52 
L 434.483978 -47.52 
L 436.776951 -47.52 
L 439.069925 -47.52 
L 441.362899 -47.52 
L 443.655873 -47.52 
L 445.948846 -47.52 
L 448.24182 -47.52 
L 450.534794 -47.52 
L 452.827768 -47.52 
L 455.120741 -47.52 
L 457.413715 -47.52 
L 459.706689 -47.52 
L 461.999663 -47.52 
L 464.292637 -47.52 
L 466.58561 -47.52 
L 468.878584 -47.52 
L 471.171558 -47.52 
L 473.464532 -47.52 
L 475.757505 -47.52 
L 478.050479 -47.52 
L 480.343453 -47.52 
L 482.636427 -47.52 
L 484.929401 -47.52 
L 487.222374 -47.52 
L 489.515348 -47.52 
L 491.808322 -47.52 
L 494.101296 -47.52 
L 496.394269 -47.52 
L 498.687243 -47.52 
L 500.980217 -47.52 
L 503.273191 -47.52 
L 505.566165 -47.52 
L 507.859138 -47.52 
L 510.152112 -47.52 
L 512.445086 -47.52 
L 514.73806 -47.52 
L 517.031033 -47.52 
L 519.324007 -47.52 
L 521.616981 -47.52 
L 523.909955 -47.52 
L 526.202929 -47.52 
L 528.495902 -47.52 
L 530.788876 -47.52 
L 533.08185 -47.52 
L 535.374824 -47.52 
L 537.667797 -47.52 
L 539.960771 -47.52 
L 542.253745 -47.52 
L 544.546719 -47.52 
L 546.839692 -47.52 
L 549.132666 -47.52 
L 551.42564 -47.52 
L 553.718614 -47.52 
L 556.011588 -47.52 
L 558.304561 -47.52 
L 560.597535 -47.52 
L 562.890509 -47.52 
L 565.183483 -47.52 
L 567.476456 -47.52 
L 569.76943 -47.52 
L 572.062404 -47.52 
L 574.355378 -47.52 
L 576.648352 -47.52 
L 578.941325 -47.52 
L 581.234299 -47.52 
L 583.527273 -47.52 
L 585.820247 -47.52 
L 588.11322 -47.52 
L 590.406194 -47.52 
L 592.699168 -47.52 
L 592.699168 -49.879021 
L 592.699168 -49.879021 
L 590.406194 -50.590661 
L 588.11322 -51.487092 
L 585.820247 -52.606942 
L 583.527273 -53.994249 
L 581.234299 -55.698514 
L 578.941325 -57.774544 
L 576.648352 -60.282045 
L 574.355378 -63.284908 
L 572.062404 -66.850162 
L 569.76943 -71.046569 
L 567.476456 -75.942828 
L 565.183483 -81.605421 
L 562.890509 -88.096101 
L 560.597535 -95.469097 
L 558.304561 -103.768095 
L 556.011588 -113.023114 
L 553.718614 -123.247396 
L 551.42564 -134.434459 
L 549.132666 -146.555476 
L 546.839692 -159.557143 
L 544.546719 -173.360203 
L 542.253745 -187.858773 
L 539.960771 -202.920583 
L 537.667797 -218.388232 
L 535.374824 -234.081487 
L 533.08185 -249.800619 
L 530.788876 -265.330708 
L 528.495902 -280.446795 
L 526.202929 -294.919707 
L 523.909955 -308.522344 
L 521.616981 -321.036168 
L 519.324007 -332.257626 
L 517.031033 -342.00425 
L 514.73806 -350.12014 
L 512.445086 -356.480639 
L 510.152112 -360.995964 
L 507.859138 -363.613692 
L 505.566165 -364.32 
L 503.273191 -363.139642 
L 500.980217 -360.134721 
L 498.687243 -355.402337 
L 496.394269 -349.071277 
L 494.101296 -341.297905 
L 491.808322 -332.261473 
L 489.515348 -322.159047 
L 487.222374 -311.200263 
L 484.929401 -299.602086 
L 482.636427 -287.583741 
L 480.343453 -275.361934 
L 478.050479 -263.146468 
L 475.757505 -251.136304 
L 473.464532 -239.516101 
L 471.171558 -228.45324 
L 468.878584 -218.095327 
L 466.58561 -208.568147 
L 464.292637 -199.97405 
L 461.999663 -192.390757 
L 459.706689 -185.87057 
L 457.413715 -180.439985 
L 455.120741 -176.099734 
L 452.827768 -172.825255 
L 450.534794 -170.567638 
L 448.24182 -169.255055 
L 445.948846 -168.794695 
L 443.655873 -169.075215 
L 441.362899 -169.969681 
L 439.069925 -171.338969 
L 436.776951 -173.035557 
L 434.483978 -174.907619 
L 432.191004 -176.803308 
L 429.89803 -178.575086 
L 427.605056 -180.083957 
L 425.312082 -181.203447 
L 423.019109 -181.823169 
L 420.726135 -181.851843 
L 418.433161 -181.219645 
L 416.140187 -179.879784 
L 413.847214 -177.809266 
L 411.55424 -175.008809 
L 409.261266 -171.50194 
L 406.968292 -167.333328 
L 404.675318 -162.56645 
L 402.382345 -157.280711 
L 400.089371 -151.568158 
L 397.796397 -145.529956 
L 395.503423 -139.272772 
L 393.21045 -132.905218 
L 390.917476 -126.534512 
L 388.624502 -120.263442 
L 386.331528 -114.187748 
L 384.038554 -108.393975 
L 381.745581 -102.957824 
L 379.452607 -97.943007 
L 377.159633 -93.400594 
L 374.866659 -89.368792 
L 372.573686 -85.873116 
L 370.280712 -82.926878 
L 367.987738 -80.531923 
L 365.694764 -78.679559 
L 363.401791 -77.351597 
L 361.108817 -76.52148 
L 358.815843 -76.155434 
L 356.522869 -76.213632 
L 354.229895 -76.651346 
L 351.936922 -77.420085 
L 349.643948 -78.468714 
L 347.350974 -79.744565 
L 345.058 -81.19454 
L 342.765027 -82.766212 
L 340.472053 -84.408923 
L 338.179079 -86.074872 
L 335.886105 -87.720179 
L 333.593131 -89.305903 
L 331.300158 -90.798992 
L 329.007184 -92.173117 
L 326.71421 -93.409379 
L 324.421236 -94.49682 
L 322.128263 -95.43274 
L 319.835289 -96.222754 
L 317.542315 -96.880599 
L 315.249341 -97.427655 
L 312.956367 -97.892189 
L 310.663394 -98.308342 
L 308.37042 -98.714855 
L 306.077446 -99.153603 
L 303.784472 -99.667957 
L 301.491499 -100.301044 
L 299.198525 -101.093961 
L 296.905551 -102.084012 
L 294.612577 -103.303029 
L 292.319603 -104.775859 
L 290.02663 -106.519054 
L 287.733656 -108.539842 
L 285.440682 -110.835408 
L 283.147708 -113.392515 
L 280.854735 -116.187503 
L 278.561761 -119.186646 
L 276.268787 -122.346875 
L 273.975813 -125.616834 
L 271.68284 -128.938237 
L 269.389866 -132.247475 
L 267.096892 -135.477412 
L 264.803918 -138.559312 
L 262.510944 -141.424823 
L 260.217971 -144.007944 
L 257.924997 -146.246915 
L 255.632023 -148.085958 
L 253.339049 -149.476812 
L 251.046076 -150.380018 
L 248.753102 -150.765914 
L 246.460128 -150.615307 
L 244.167154 -149.919829 
L 241.87418 -148.681953 
L 239.581207 -146.914692 
L 237.288233 -144.641011 
L 234.995259 -141.892964 
L 232.702285 -138.71062 
L 230.409312 -135.140799 
L 228.116338 -131.235688 
L 225.823364 -127.051377 
L 223.53039 -122.646367 
L 221.237416 -118.0801 
L 218.944443 -113.411554 
L 216.651469 -108.697944 
L 214.358495 -103.993559 
L 212.065521 -99.348763 
L 209.772548 -94.809181 
L 207.479574 -90.415074 
L 205.1866 -86.200906 
L 202.893626 -82.195115 
L 200.600653 -78.420053 
L 198.307679 -74.892103 
L 196.014705 -71.621934 
L 193.721731 -68.614888 
L 191.428757 -65.871463 
L 189.135784 -63.387868 
L 186.84281 -61.156626 
L 184.549836 -59.167204 
L 182.256862 -57.406638 
L 179.963889 -55.860145 
L 177.670915 -54.511692 
L 175.377941 -53.344524 
L 173.084967 -52.341631 
L 170.791993 -51.486147 
L 168.49902 -50.761686 
L 166.206046 -50.15261 
L 163.913072 -49.644233 
L 161.620098 -49.222959 
L 159.327125 -48.876374 
L 157.034151 -48.593285 
L 154.741177 -48.363719 
L 152.448203 -48.178894 
L 150.155229 -48.031159 
L 147.862256 -47.913919 
L 145.569282 -47.821548 
L 143.276308 -47.749294 
L 140.983334 -47.693183 
L 138.690361 -47.649922 
L 136.397387 -47.616808 
z
" style="stroke: #ff0000"/>
    </defs>
    <g clip-path="url(#p81977f2a75)">
     <use xlink:href="#mbf1a4e932e" x="0" y="432" style="fill: #ff0000; fill-opacity: 0.5; stroke: #ff0000"/>
    </g>
   </g>
   <g id="matplotlib.axis_1">
    <g id="xtick_1">
     <g id="line2d_1">
      <path d="M 182.862465 384.48 
L 182.862465 51.84 
" clip-path="url(#p81977f2a75)" style="fill: none; stroke: #b0b0b0; stroke-opacity: 0.3; stroke-width: 0.8; stroke-linecap: square"/>
     </g>
     <g id="line2d_2">
      <defs>
       <path id="m5b98807726" d="M 0 0 
L 0 3.5 
" style="stroke: #000000; stroke-width: 0.8"/>
      </defs>
      <g>
       <use xlink:href="#m5b98807726" x="182.862465" y="384.48" style="stroke: #000000; stroke-width: 0.8"/>
      </g>
     </g>
     <g id="text_1">
      <text style="font: 10px 'DejaVu Sans', 'Bitstream Vera Sans', 'Computer Modern Sans Serif', 'Lucida Grande', 'Verdana', 'Geneva', 'Lucid', 'Arial', 'Helvetica', 'Avant Garde', sans-serif; text-anchor: middle" x="182.862465" y="399.078438" transform="rotate(-0 182.862465 399.078438)">−60</text>
     </g>
    </g>
    <g id="xtick_2">
     <g id="line2d_3">
      <path d="M 293.28846 384.48 
L 293.28846 51.84 
" clip-path="url(#p81977f2a75)" style="fill: none; stroke: #b0b0b0; stroke-opacity: 0.3; stroke-width: 0.8; stroke-linecap: square"/>
     </g>
     <g id="line2d_4">
      <g>
       <use xlink:href="#m5b98807726" x="293.28846" y="384.48" style="stroke: #000000; stroke-width: 0.8"/>
      </g>
     </g>
     <g id="text_2">
      <text style="font: 10px 'DejaVu Sans', 'Bitstream Vera Sans', 'Computer Modern Sans Serif', 'Lucida Grande', 'Verdana', 'Geneva', 'Lucid', 'Arial', 'Helvetica', 'Avant Garde', sans-serif; text-anchor: middle" x="293.28846" y="399.078438" transform="rotate(-0 293.28846 399.078438)">−40</text>
     </g>
    </g>
    <g id="xtick_3">
     <g id="line2d_5">
      <path d="M 403.714455 384.48 
L 403.714455 51.84 
" clip-path="url(#p81977f2a75)" style="fill: none; stroke: #b0b0b0; stroke-opacity: 0.3; stroke-width: 0.8; stroke-linecap: square"/>
     </g>
     <g id="line2d_6">
      <g>
       <use xlink:href="#m5b98807726" x="403.714455" y="384.48" style="stroke: #000000; stroke-width: 0.8"/>
      </g>
     </g>
     <g id="text_3">
      <text style="font: 10px 'DejaVu Sans', 'Bitstream Vera Sans', 'Computer Modern Sans Serif', 'Lucida Grande', 'Verdana', 'Geneva', 'Lucid', 'Arial', 'Helvetica', 'Avant Garde', sans-serif; text-anchor: middle" x="403.714455" y="399.078438" transform="rotate(-0 403.714455 399.078438)">−20</text>
     </g>
    </g>
    <g id="xtick_4">
     <g id="line2d_7">
      <path d="M 514.14045 384.48 
L 514.14045 51.84 
" clip-path="url(#p81977f2a75)" style="fill: none; stroke: #b0b0b0; stroke-opacity: 0.3; stroke-width: 0.8; stroke-linecap: square"/>
     </g>
     <g id="line2d_8">
      <g>
       <use xlink:href="#m5b98807726" x="514.14045" y="384.48" style="stroke: #000000; stroke-width: 0.8"/>
      </g>
     </g>
     <g id="text_4">
      <text style="font: 10px 'DejaVu Sans', 'Bitstream Vera Sans', 'Computer Modern Sans Serif', 'Lucida Grande', 'Verdana', 'Geneva', 'Lucid', 'Arial', 'Helvetica', 'Avant Garde', sans-serif; text-anchor: middle" x="514.14045" y="399.078438" transform="rotate(-0 514.14045 399.078438)">0</text>
     </g>
    </g>
    <g id="xtick_5">
     <g id="line2d_9">
      <path d="M 624.566445 384.48 
L 624.566445 51.84 
" clip-path="url(#p81977f2a75)" style="fill: none; stroke: #b0b0b0; stroke-opacity: 0.3; stroke-width: 0.8; stroke-linecap: square"/>
     </g>
     <g id="line2d_10">
      <g>
       <use xlink:href="#m5b98807726" x="624.566445" y="384.48" style="stroke: #000000; stroke-width: 0.8"/>
      </g>
     </g>
     <g id="text_5">
      <text style="font: 10px 'DejaVu Sans', 'Bitstream Vera Sans', 'Computer Modern Sans Serif', 'Lucida Grande', 'Verdana', 'Geneva', 'Lucid', 'Arial', 'Helvetica', 'Avant Garde', sans-serif; text-anchor: middle" x="624.566445" y="399.078438" transform="rotate(-0 624.566445 399.078438)">20</text>
     </g>
    </g>
    <g id="text_6">
     <text style="font: 10px 'DejaVu Sans', 'Bitstream Vera Sans', 'Computer Modern Sans Serif', 'Lucida Grande', 'Verdana', 'Geneva', 'Lucid', 'Arial', 'Helvetica', 'Avant Garde', sans-serif; text-anchor: middle" x="369" y="412.756563" transform="rotate(-0 369 412.756563)">score</text>
    </g>
   </g>
   <g id="matplotlib.axis_2">
    <g id="ytick_1">
     <g id="line2d_11">
      <path d="M 90 384.48 
L 648 384.48 
" clip-path="url(#p81977f2a75)" style="fill: none; stroke: #b0b0b0; stroke-opacity: 0.3; stroke-width: 0.8; stroke-linecap: square"/>
     </g>
     <g id="line2d_12">
      <defs>
       <path id="m87e1909965" d="M 0 0 
L -3.5 0 
" style="stroke: #000000; stroke-width: 0.8"/>
      </defs>
      <g>
       <use xlink:href="#m87e1909965" x="90" y="384.48" style="stroke: #000000; stroke-width: 0.8"/>
      </g>
     </g>
     <g id="text_7">
      <text style="font: 10px 'DejaVu Sans', 'Bitstream Vera Sans', 'Computer Modern Sans Serif', 'Lucida Grande', 'Verdana', 'Geneva', 'Lucid', 'Arial', 'Helvetica', 'Avant Garde', sans-serif; text-anchor: end" x="83" y="388.279219" transform="rotate(-0 83 388.279219)">0.000</text>
     </g>
    </g>
    <g id="ytick_2">
     <g id="line2d_13">
      <path d="M 90 345.940209 
L 648 345.940209 
" clip-path="url(#p81977f2a75)" style="fill: none; stroke: #b0b0b0; stroke-opacity: 0.3; stroke-width: 0.8; stroke-linecap: square"/>
     </g>
     <g id="line2d_14">
      <g>
       <use xlink:href="#m87e1909965" x="90" y="345.940209" style="stroke: #000000; stroke-width: 0.8"/>
      </g>
     </g>
     <g id="text_8">
      <text style="font: 10px 'DejaVu Sans', 'Bitstream Vera Sans', 'Computer Modern Sans Serif', 'Lucida Grande', 'Verdana', 'Geneva', 'Lucid', 'Arial', 'Helvetica', 'Avant Garde', sans-serif; text-anchor: end" x="83" y="349.739428" transform="rotate(-0 83 349.739428)">0.005</text>
     </g>
    </g>
    <g id="ytick_3">
     <g id="line2d_15">
      <path d="M 90 307.400418 
L 648 307.400418 
" clip-path="url(#p81977f2a75)" style="fill: none; stroke: #b0b0b0; stroke-opacity: 0.3; stroke-width: 0.8; stroke-linecap: square"/>
     </g>
     <g id="line2d_16">
      <g>
       <use xlink:href="#m87e1909965" x="90" y="307.400418" style="stroke: #000000; stroke-width: 0.8"/>
      </g>
     </g>
     <g id="text_9">
      <text style="font: 10px 'DejaVu Sans', 'Bitstream Vera Sans', 'Computer Modern Sans Serif', 'Lucida Grande', 'Verdana', 'Geneva', 'Lucid', 'Arial', 'Helvetica', 'Avant Garde', sans-serif; text-anchor: end" x="83" y="311.199637" transform="rotate(-0 83 311.199637)">0.010</text>
     </g>
    </g>
    <g id="ytick_4">
     <g id="line2d_17">
      <path d="M 90 268.860627 
L 648 268.860627 
" clip-path="url(#p81977f2a75)" style="fill: none; stroke: #b0b0b0; stroke-opacity: 0.3; stroke-width: 0.8; stroke-linecap: square"/>
     </g>
     <g id="line2d_18">
      <g>
       <use xlink:href="#m87e1909965" x="90" y="268.860627" style="stroke: #000000; stroke-width: 0.8"/>
      </g>
     </g>
     <g id="text_10">
      <text style="font: 10px 'DejaVu Sans', 'Bitstream Vera Sans', 'Computer Modern Sans Serif', 'Lucida Grande', 'Verdana', 'Geneva', 'Lucid', 'Arial', 'Helvetica', 'Avant Garde', sans-serif; text-anchor: end" x="83" y="272.659846" transform="rotate(-0 83 272.659846)">0.015</text>
     </g>
    </g>
    <g id="ytick_5">
     <g id="line2d_19">
      <path d="M 90 230.320836 
L 648 230.320836 
" clip-path="url(#p81977f2a75)" style="fill: none; stroke: #b0b0b0; stroke-opacity: 0.3; stroke-width: 0.8; stroke-linecap: square"/>
     </g>
     <g id="line2d_20">
      <g>
       <use xlink:href="#m87e1909965" x="90" y="230.320836" style="stroke: #000000; stroke-width: 0.8"/>
      </g>
     </g>
     <g id="text_11">
      <text style="font: 10px 'DejaVu Sans', 'Bitstream Vera Sans', 'Computer Modern Sans Serif', 'Lucida Grande', 'Verdana', 'Geneva', 'Lucid', 'Arial', 'Helvetica', 'Avant Garde', sans-serif; text-anchor: end" x="83" y="234.120055" transform="rotate(-0 83 234.120055)">0.020</text>
     </g>
    </g>
    <g id="ytick_6">
     <g id="line2d_21">
      <path d="M 90 191.781046 
L 648 191.781046 
" clip-path="url(#p81977f2a75)" style="fill: none; stroke: #b0b0b0; stroke-opacity: 0.3; stroke-width: 0.8; stroke-linecap: square"/>
     </g>
     <g id="line2d_22">
      <g>
       <use xlink:href="#m87e1909965" x="90" y="191.781046" style="stroke: #000000; stroke-width: 0.8"/>
      </g>
     </g>
     <g id="text_12">
      <text style="font: 10px 'DejaVu Sans', 'Bitstream Vera Sans', 'Computer Modern Sans Serif', 'Lucida Grande', 'Verdana', 'Geneva', 'Lucid', 'Arial', 'Helvetica', 'Avant Garde', sans-serif; text-anchor: end" x="83" y="195.580264" transform="rotate(-0 83 195.580264)">0.025</text>
     </g>
    </g>
    <g id="ytick_7">
     <g id="line2d_23">
      <path d="M 90 153.241255 
L 648 153.241255 
" clip-path="url(#p81977f2a75)" style="fill: none; stroke: #b0b0b0; stroke-opacity: 0.3; stroke-width: 0.8; stroke-linecap: square"/>
     </g>
     <g id="line2d_24">
      <g>
       <use xlink:href="#m87e1909965" x="90" y="153.241255" style="stroke: #000000; stroke-width: 0.8"/>
      </g>
     </g>
     <g id="text_13">
      <text style="font: 10px 'DejaVu Sans', 'Bitstream Vera Sans', 'Computer Modern Sans Serif', 'Lucida Grande', 'Verdana', 'Geneva', 'Lucid', 'Arial', 'Helvetica', 'Avant Garde', sans-serif; text-anchor: end" x="83" y="157.040473" transform="rotate(-0 83 157.040473)">0.030</text>
     </g>
    </g>
    <g id="ytick_8">
     <g id="line2d_25">
      <path d="M 90 114.701464 
L 648 114.701464 
" clip-path="url(#p81977f2a75)" style="fill: none; stroke: #b0b0b0; stroke-opacity: 0.3; stroke-width: 0.8; stroke-linecap: square"/>
     </g>
     <g id="line2d_26">
      <g>
       <use xlink:href="#m87e1909965" x="90" y="114.701464" style="stroke: #000000; stroke-width: 0.8"/>
      </g>
     </g>
     <g id="text_14">
      <text style="font: 10px 'DejaVu Sans', 'Bitstream Vera Sans', 'Computer Modern Sans Serif', 'Lucida Grande', 'Verdana', 'Geneva', 'Lucid', 'Arial', 'Helvetica', 'Avant Garde', sans-serif; text-anchor: end" x="83" y="118.500682" transform="rotate(-0 83 118.500682)">0.035</text>
     </g>
    </g>
    <g id="ytick_9">
     <g id="line2d_27">
      <path d="M 90 76.161673 
L 648 76.161673 
" clip-path="url(#p81977f2a75)" style="fill: none; stroke: #b0b0b0; stroke-opacity: 0.3; stroke-width: 0.8; stroke-linecap: square"/>
     </g>
     <g id="line2d_28">
      <g>
       <use xlink:href="#m87e1909965" x="90" y="76.161673" style="stroke: #000000; stroke-width: 0.8"/>
      </g>
     </g>
     <g id="text_15">
      <text style="font: 10px 'DejaVu Sans', 'Bitstream Vera Sans', 'Computer Modern Sans Serif', 'Lucida Grande', 'Verdana', 'Geneva', 'Lucid', 'Arial', 'Helvetica', 'Avant Garde', sans-serif; text-anchor: end" x="83" y="79.960892" transform="rotate(-0 83 79.960892)">0.040</text>
     </g>
    </g>
    <g id="text_16">
     <text style="font: 10px 'DejaVu Sans', 'Bitstream Vera Sans', 'Computer Modern Sans Serif', 'Lucida Grande', 'Verdana', 'Geneva', 'Lucid', 'Arial', 'Helvetica', 'Avant Garde', sans-serif; text-anchor: middle" x="48.292187" y="218.16" transform="rotate(-90 48.292187 218.16)">density</text>
    </g>
   </g>
   <g id="patch_3">
    <path d="M 90 384.48 
L 90 51.84 
" style="fill: none; stroke: #000000; stroke-width: 0.8; stroke-linejoin: miter; stroke-linecap: square"/>
   </g>
   <g id="patch_4">
    <path d="M 648 384.48 
L 648 51.84 
" style="fill: none; stroke: #000000; stroke-width: 0.8; stroke-linejoin: miter; stroke-linecap: square"/>
   </g>
   <g id="patch_5">
    <path d="M 90 384.48 
L 648 384.48 
" style="fill: none; stroke: #000000; stroke-width: 0.8; stroke-linejoin: miter; stroke-linecap: square"/>
   </g>
   <g id="patch_6">
    <path d="M 90 51.84 
L 648 51.84 
" style="fill: none; stroke: #000000; stroke-width: 0.8; stroke-linejoin: miter; stroke-linecap: square"/>
   </g>
   <g id="text_17">
    <text style="font: 12px 'DejaVu Sans', 'Bitstream Vera Sans', 'Computer Modern Sans Serif', 'Lucida Grande', 'Verdana', 'Geneva', 'Lucid', 'Arial', 'Helvetica', 'Avant Garde', sans-serif; text-anchor: middle" x="369" y="45.84" transform="rotate(-0 369 45.84)">TULIP_KDE</text>
   </g>
   <g id="legend_1">
    <g id="patch_7">
     <path d="M 565.2625 89.19625 
L 641 89.19625 
Q 643 89.19625 643 87.19625 
L 643 58.84 
Q 643 56.84 641 56.84 
L 565.2625 56.84 
Q 563.2625 56.84 563.2625 58.84 
L 563.2625 87.19625 
Q 563.2625 89.19625 565.2625 89.19625 
z
" style="fill: #ffffff; opacity: 0.8; stroke: #cccccc; stroke-linejoin: miter"/>
    </g>
    <g id="patch_8">
     <path d="M 567.2625 68.438437 
L 587.2625 68.438437 
L 587.2625 61.438437 
L 567.2625 61.438437 
z
" style="fill: #0000ff; fill-opacity: 0.5; stroke: #0000ff; stroke-linejoin: miter"/>
    </g>
    <g id="text_18">
     <text style="font: 10px 'DejaVu Sans', 'Bitstream Vera Sans', 'Computer Modern Sans Serif', 'Lucida Grande', 'Verdana', 'Geneva', 'Lucid', 'Arial', 'Helvetica', 'Avant Garde', sans-serif; text-anchor: start" x="595.2625" y="68.438437" transform="rotate(-0 595.2625 68.438437)">positive</text>
    </g>
    <g id="patch_9">
     <path d="M 567.2625 83.116562 
L 587.2625 83.116562 
L 587.2625 76.116562 
L 567.2625 76.116562 
z
" style="fill: #ff0000; fill-opacity: 0.5; stroke: #ff0000; stroke-linejoin: miter"/>
    </g>
    <g id="text_19">
     <text style="font: 10px 'DejaVu Sans', 'Bitstream Vera Sans', 'Computer Modern Sans Serif', 'Lucida Grande', 'Verdana', 'Geneva', 'Lucid', 'Arial', 'Helvetica', 'Avant Garde', sans-serif; text-anchor: start" x="595.2625" y="83.116562" transform="rotate(-0 595.2625 83.116562)">negative</text>
    </g>
   </g>
  </g>
 </g>
 <defs>
  <clipPath id="p81977f2a75">
   <rect x="90" y="51.84" width="558" height="332.64"/>
  </clipPath>
 </defs>
</svg>
