<?xml version="1.0" encoding="utf-8" standalone="no"?>
<!DOCTYPE svg PUBLIC "-//W3C//DTD SVG 1.1//EN"
  "http://www.w3.org/Graphics/SVG/1.1/DTD/svg11.dtd">
<svg xmlns:xlink="http://www.w3.org/1999/xlink" width="720pt" height="432pt" viewBox="0 0 720 432" xmlns="http://www.w3.org/2000/svg" version="1.1">
 <metadata>
  <rdf:RDF xmlns:dc="http://purl.org/dc/elements/1.1/" xmlns:cc="http://creativecommons.org/ns#" xmlns:rdf="http://www.w3.org/1999/02/22-rdf-syntax-ns#">
   <cc:Work>
    <dc:type rdf:resource="http://purl.org/dc/dcmitype/StillImage"/>
    <dc:date>2025-11-20T06:33:44.684235</dc:date>
    <dc:format>image/svg+xml</dc:format>
    <dc:creator>
     <cc:Agent>
      <dc:title>Matplotlib v3.9.4, https://matplotlib.org/</dc:title>
     </cc:Agent>
    </dc:creator>
   </cc:Work>
  </rdf:RDF>
 </metadata>
 <defs>
  <style type="text/css">*{stroke-linejoin: round; stroke-linecap: butt}</style>
 </defs>
 <g id="figure_1">
  <g id="patch_1">
   <path d="M 0 432 
L 720 432 
L 720 0 
L 0 0 
z
" style="fill: #ffffff"/>
  </g>
  <g id="axes_1">
   <g id="patch_2">
    <path d="M 90 384.48 
L 648 384.48 
L 648 51.84 
L 90 51.84 
z
" style="fill: #ffffff"/>
   </g>
   <g id="patch_3">
    <path d="M 115.363636 384.48 
L 125.509091 384.48 
L 125.509091 144.148966 
L 115.363636 144.148966 
z
" clip-path="url(#pb759f77fc9)" style="fill: #ff0000; fill-opacity: 0.7; stroke: #000000; stroke-linejoin: miter"/>
   </g>
   <g id="patch_4">
    <path d="M 125.509091 384.48 
L 135.654545 384.48 
L 135.654545 193.307586 
L 125.509091 193.307586 
z
" clip-path="url(#pb759f77fc9)" style="fill: #ff0000; fill-opacity: 0.7; stroke: #000000; stroke-linejoin: miter"/>
   </g>
   <g id="patch_5">
    <path d="M 135.654545 384.48 
L 145.8 384.48 
L 145.8 182.383448 
L 135.654545 182.383448 
z
" clip-path="url(#pb759f77fc9)" style="fill: #ff0000; fill-opacity: 0.7; stroke: #000000; stroke-linejoin: miter"/>
   </g>
   <g id="patch_6">
    <path d="M 145.8 384.48 
L 155.945455 384.48 
L 155.945455 209.693793 
L 145.8 209.693793 
z
" clip-path="url(#pb759f77fc9)" style="fill: #ff0000; fill-opacity: 0.7; stroke: #000000; stroke-linejoin: miter"/>
   </g>
   <g id="patch_7">
    <path d="M 155.945455 384.48 
L 166.090909 384.48 
L 166.090909 253.390345 
L 155.945455 253.390345 
z
" clip-path="url(#pb759f77fc9)" style="fill: #ff0000; fill-opacity: 0.7; stroke: #000000; stroke-linejoin: miter"/>
   </g>
   <g id="patch_8">
    <path d="M 166.090909 384.48 
L 176.236364 384.48 
L 176.236364 269.776552 
L 166.090909 269.776552 
z
" clip-path="url(#pb759f77fc9)" style="fill: #ff0000; fill-opacity: 0.7; stroke: #000000; stroke-linejoin: miter"/>
   </g>
   <g id="patch_9">
    <path d="M 176.236364 384.48 
L 186.381818 384.48 
L 186.381818 264.314483 
L 176.236364 264.314483 
z
" clip-path="url(#pb759f77fc9)" style="fill: #ff0000; fill-opacity: 0.7; stroke: #000000; stroke-linejoin: miter"/>
   </g>
   <g id="patch_10">
    <path d="M 186.381818 384.48 
L 196.527273 384.48 
L 196.527273 291.624828 
L 186.381818 291.624828 
z
" clip-path="url(#pb759f77fc9)" style="fill: #ff0000; fill-opacity: 0.7; stroke: #000000; stroke-linejoin: miter"/>
   </g>
   <g id="patch_11">
    <path d="M 196.527273 384.48 
L 206.672727 384.48 
L 206.672727 291.624828 
L 196.527273 291.624828 
z
" clip-path="url(#pb759f77fc9)" style="fill: #ff0000; fill-opacity: 0.7; stroke: #000000; stroke-linejoin: miter"/>
   </g>
   <g id="patch_12">
    <path d="M 206.672727 384.48 
L 216.818182 384.48 
L 216.818182 291.624828 
L 206.672727 291.624828 
z
" clip-path="url(#pb759f77fc9)" style="fill: #ff0000; fill-opacity: 0.7; stroke: #000000; stroke-linejoin: miter"/>
   </g>
   <g id="patch_13">
    <path d="M 216.818182 384.48 
L 226.963636 384.48 
L 226.963636 286.162759 
L 216.818182 286.162759 
z
" clip-path="url(#pb759f77fc9)" style="fill: #ff0000; fill-opacity: 0.7; stroke: #000000; stroke-linejoin: miter"/>
   </g>
   <g id="patch_14">
    <path d="M 226.963636 384.48 
L 237.109091 384.48 
L 237.109091 335.321379 
L 226.963636 335.321379 
z
" clip-path="url(#pb759f77fc9)" style="fill: #ff0000; fill-opacity: 0.7; stroke: #000000; stroke-linejoin: miter"/>
   </g>
   <g id="patch_15">
    <path d="M 237.109091 384.48 
L 247.254545 384.48 
L 247.254545 291.624828 
L 237.109091 291.624828 
z
" clip-path="url(#pb759f77fc9)" style="fill: #ff0000; fill-opacity: 0.7; stroke: #000000; stroke-linejoin: miter"/>
   </g>
   <g id="patch_16">
    <path d="M 247.254545 384.48 
L 257.4 384.48 
L 257.4 313.473103 
L 247.254545 313.473103 
z
" clip-path="url(#pb759f77fc9)" style="fill: #ff0000; fill-opacity: 0.7; stroke: #000000; stroke-linejoin: miter"/>
   </g>
   <g id="patch_17">
    <path d="M 257.4 384.48 
L 267.545455 384.48 
L 267.545455 324.397241 
L 257.4 324.397241 
z
" clip-path="url(#pb759f77fc9)" style="fill: #ff0000; fill-opacity: 0.7; stroke: #000000; stroke-linejoin: miter"/>
   </g>
   <g id="patch_18">
    <path d="M 267.545455 384.48 
L 277.690909 384.48 
L 277.690909 329.85931 
L 267.545455 329.85931 
z
" clip-path="url(#pb759f77fc9)" style="fill: #ff0000; fill-opacity: 0.7; stroke: #000000; stroke-linejoin: miter"/>
   </g>
   <g id="patch_19">
    <path d="M 277.690909 384.48 
L 287.836364 384.48 
L 287.836364 340.783448 
L 277.690909 340.783448 
z
" clip-path="url(#pb759f77fc9)" style="fill: #ff0000; fill-opacity: 0.7; stroke: #000000; stroke-linejoin: miter"/>
   </g>
   <g id="patch_20">
    <path d="M 287.836364 384.48 
L 297.981818 384.48 
L 297.981818 351.707586 
L 287.836364 351.707586 
z
" clip-path="url(#pb759f77fc9)" style="fill: #ff0000; fill-opacity: 0.7; stroke: #000000; stroke-linejoin: miter"/>
   </g>
   <g id="patch_21">
    <path d="M 297.981818 384.48 
L 308.127273 384.48 
L 308.127273 346.245517 
L 297.981818 346.245517 
z
" clip-path="url(#pb759f77fc9)" style="fill: #ff0000; fill-opacity: 0.7; stroke: #000000; stroke-linejoin: miter"/>
   </g>
   <g id="patch_22">
    <path d="M 308.127273 384.48 
L 318.272727 384.48 
L 318.272727 346.245517 
L 308.127273 346.245517 
z
" clip-path="url(#pb759f77fc9)" style="fill: #ff0000; fill-opacity: 0.7; stroke: #000000; stroke-linejoin: miter"/>
   </g>
   <g id="patch_23">
    <path d="M 318.272727 384.48 
L 328.418182 384.48 
L 328.418182 340.783448 
L 318.272727 340.783448 
z
" clip-path="url(#pb759f77fc9)" style="fill: #ff0000; fill-opacity: 0.7; stroke: #000000; stroke-linejoin: miter"/>
   </g>
   <g id="patch_24">
    <path d="M 328.418182 384.48 
L 338.563636 384.48 
L 338.563636 329.85931 
L 328.418182 329.85931 
z
" clip-path="url(#pb759f77fc9)" style="fill: #ff0000; fill-opacity: 0.7; stroke: #000000; stroke-linejoin: miter"/>
   </g>
   <g id="patch_25">
    <path d="M 338.563636 384.48 
L 348.709091 384.48 
L 348.709091 346.245517 
L 338.563636 346.245517 
z
" clip-path="url(#pb759f77fc9)" style="fill: #ff0000; fill-opacity: 0.7; stroke: #000000; stroke-linejoin: miter"/>
   </g>
   <g id="patch_26">
    <path d="M 348.709091 384.48 
L 358.854545 384.48 
L 358.854545 346.245517 
L 348.709091 346.245517 
z
" clip-path="url(#pb759f77fc9)" style="fill: #ff0000; fill-opacity: 0.7; stroke: #000000; stroke-linejoin: miter"/>
   </g>
   <g id="patch_27">
    <path d="M 358.854545 384.48 
L 369 384.48 
L 369 335.321379 
L 358.854545 335.321379 
z
" clip-path="url(#pb759f77fc9)" style="fill: #ff0000; fill-opacity: 0.7; stroke: #000000; stroke-linejoin: miter"/>
   </g>
   <g id="patch_28">
    <path d="M 369 384.48 
L 379.145455 384.48 
L 379.145455 351.707586 
L 369 351.707586 
z
" clip-path="url(#pb759f77fc9)" style="fill: #ff0000; fill-opacity: 0.7; stroke: #000000; stroke-linejoin: miter"/>
   </g>
   <g id="patch_29">
    <path d="M 379.145455 384.48 
L 389.290909 384.48 
L 389.290909 373.555862 
L 379.145455 373.555862 
z
" clip-path="url(#pb759f77fc9)" style="fill: #ff0000; fill-opacity: 0.7; stroke: #000000; stroke-linejoin: miter"/>
   </g>
   <g id="patch_30">
    <path d="M 389.290909 384.48 
L 399.436364 384.48 
L 399.436364 335.321379 
L 389.290909 335.321379 
z
" clip-path="url(#pb759f77fc9)" style="fill: #ff0000; fill-opacity: 0.7; stroke: #000000; stroke-linejoin: miter"/>
   </g>
   <g id="patch_31">
    <path d="M 399.436364 384.48 
L 409.581818 384.48 
L 409.581818 313.473103 
L 399.436364 313.473103 
z
" clip-path="url(#pb759f77fc9)" style="fill: #ff0000; fill-opacity: 0.7; stroke: #000000; stroke-linejoin: miter"/>
   </g>
   <g id="patch_32">
    <path d="M 409.581818 384.48 
L 419.727273 384.48 
L 419.727273 308.011034 
L 409.581818 308.011034 
z
" clip-path="url(#pb759f77fc9)" style="fill: #ff0000; fill-opacity: 0.7; stroke: #000000; stroke-linejoin: miter"/>
   </g>
   <g id="patch_33">
    <path d="M 419.727273 384.48 
L 429.872727 384.48 
L 429.872727 291.624828 
L 419.727273 291.624828 
z
" clip-path="url(#pb759f77fc9)" style="fill: #ff0000; fill-opacity: 0.7; stroke: #000000; stroke-linejoin: miter"/>
   </g>
   <g id="patch_34">
    <path d="M 429.872727 384.48 
L 440.018182 384.48 
L 440.018182 318.935172 
L 429.872727 318.935172 
z
" clip-path="url(#pb759f77fc9)" style="fill: #ff0000; fill-opacity: 0.7; stroke: #000000; stroke-linejoin: miter"/>
   </g>
   <g id="patch_35">
    <path d="M 440.018182 384.48 
L 450.163636 384.48 
L 450.163636 193.307586 
L 440.018182 193.307586 
z
" clip-path="url(#pb759f77fc9)" style="fill: #ff0000; fill-opacity: 0.7; stroke: #000000; stroke-linejoin: miter"/>
   </g>
   <g id="patch_36">
    <path d="M 450.163636 384.48 
L 460.309091 384.48 
L 460.309091 67.68 
L 450.163636 67.68 
z
" clip-path="url(#pb759f77fc9)" style="fill: #ff0000; fill-opacity: 0.7; stroke: #000000; stroke-linejoin: miter"/>
   </g>
   <g id="patch_37">
    <path d="M 460.309091 384.48 
L 470.454545 384.48 
L 470.454545 127.762759 
L 460.309091 127.762759 
z
" clip-path="url(#pb759f77fc9)" style="fill: #ff0000; fill-opacity: 0.7; stroke: #000000; stroke-linejoin: miter"/>
   </g>
   <g id="patch_38">
    <path d="M 470.454545 384.48 
L 480.6 384.48 
L 480.6 275.238621 
L 470.454545 275.238621 
z
" clip-path="url(#pb759f77fc9)" style="fill: #ff0000; fill-opacity: 0.7; stroke: #000000; stroke-linejoin: miter"/>
   </g>
   <g id="patch_39">
    <path d="M 480.6 384.48 
L 490.745455 384.48 
L 490.745455 237.004138 
L 480.6 237.004138 
z
" clip-path="url(#pb759f77fc9)" style="fill: #ff0000; fill-opacity: 0.7; stroke: #000000; stroke-linejoin: miter"/>
   </g>
   <g id="patch_40">
    <path d="M 490.745455 384.48 
L 500.890909 384.48 
L 500.890909 269.776552 
L 490.745455 269.776552 
z
" clip-path="url(#pb759f77fc9)" style="fill: #ff0000; fill-opacity: 0.7; stroke: #000000; stroke-linejoin: miter"/>
   </g>
   <g id="patch_41">
    <path d="M 500.890909 384.48 
L 511.036364 384.48 
L 511.036364 231.542069 
L 500.890909 231.542069 
z
" clip-path="url(#pb759f77fc9)" style="fill: #ff0000; fill-opacity: 0.7; stroke: #000000; stroke-linejoin: miter"/>
   </g>
   <g id="patch_42">
    <path d="M 511.036364 384.48 
L 521.181818 384.48 
L 521.181818 313.473103 
L 511.036364 313.473103 
z
" clip-path="url(#pb759f77fc9)" style="fill: #ff0000; fill-opacity: 0.7; stroke: #000000; stroke-linejoin: miter"/>
   </g>
   <g id="patch_43">
    <path d="M 521.181818 384.48 
L 531.327273 384.48 
L 531.327273 308.011034 
L 521.181818 308.011034 
z
" clip-path="url(#pb759f77fc9)" style="fill: #ff0000; fill-opacity: 0.7; stroke: #000000; stroke-linejoin: miter"/>
   </g>
   <g id="patch_44">
    <path d="M 531.327273 384.48 
L 541.472727 384.48 
L 541.472727 291.624828 
L 531.327273 291.624828 
z
" clip-path="url(#pb759f77fc9)" style="fill: #ff0000; fill-opacity: 0.7; stroke: #000000; stroke-linejoin: miter"/>
   </g>
   <g id="patch_45">
    <path d="M 541.472727 384.48 
L 551.618182 384.48 
L 551.618182 286.162759 
L 541.472727 286.162759 
z
" clip-path="url(#pb759f77fc9)" style="fill: #ff0000; fill-opacity: 0.7; stroke: #000000; stroke-linejoin: miter"/>
   </g>
   <g id="patch_46">
    <path d="M 551.618182 384.48 
L 561.763636 384.48 
L 561.763636 302.548966 
L 551.618182 302.548966 
z
" clip-path="url(#pb759f77fc9)" style="fill: #ff0000; fill-opacity: 0.7; stroke: #000000; stroke-linejoin: miter"/>
   </g>
   <g id="patch_47">
    <path d="M 561.763636 384.48 
L 571.909091 384.48 
L 571.909091 340.783448 
L 561.763636 340.783448 
z
" clip-path="url(#pb759f77fc9)" style="fill: #ff0000; fill-opacity: 0.7; stroke: #000000; stroke-linejoin: miter"/>
   </g>
   <g id="patch_48">
    <path d="M 571.909091 384.48 
L 582.054545 384.48 
L 582.054545 357.169655 
L 571.909091 357.169655 
z
" clip-path="url(#pb759f77fc9)" style="fill: #ff0000; fill-opacity: 0.7; stroke: #000000; stroke-linejoin: miter"/>
   </g>
   <g id="patch_49">
    <path d="M 582.054545 384.48 
L 592.2 384.48 
L 592.2 373.555862 
L 582.054545 373.555862 
z
" clip-path="url(#pb759f77fc9)" style="fill: #ff0000; fill-opacity: 0.7; stroke: #000000; stroke-linejoin: miter"/>
   </g>
   <g id="patch_50">
    <path d="M 592.2 384.48 
L 602.345455 384.48 
L 602.345455 373.555862 
L 592.2 373.555862 
z
" clip-path="url(#pb759f77fc9)" style="fill: #ff0000; fill-opacity: 0.7; stroke: #000000; stroke-linejoin: miter"/>
   </g>
   <g id="patch_51">
    <path d="M 602.345455 384.48 
L 612.490909 384.48 
L 612.490909 379.017931 
L 602.345455 379.017931 
z
" clip-path="url(#pb759f77fc9)" style="fill: #ff0000; fill-opacity: 0.7; stroke: #000000; stroke-linejoin: miter"/>
   </g>
   <g id="patch_52">
    <path d="M 612.490909 384.48 
L 622.636364 384.48 
L 622.636364 368.093793 
L 612.490909 368.093793 
z
" clip-path="url(#pb759f77fc9)" style="fill: #ff0000; fill-opacity: 0.7; stroke: #000000; stroke-linejoin: miter"/>
   </g>
   <g id="patch_53">
    <path d="M 115.363636 384.48 
L 125.509091 384.48 
L 125.509091 368.093793 
L 115.363636 368.093793 
z
" clip-path="url(#pb759f77fc9)" style="fill: #0000ff; fill-opacity: 0.7; stroke: #000000; stroke-linejoin: miter"/>
   </g>
   <g id="patch_54">
    <path d="M 125.509091 384.48 
L 135.654545 384.48 
L 135.654545 373.555862 
L 125.509091 373.555862 
z
" clip-path="url(#pb759f77fc9)" style="fill: #0000ff; fill-opacity: 0.7; stroke: #000000; stroke-linejoin: miter"/>
   </g>
   <g id="patch_55">
    <path d="M 135.654545 384.48 
L 145.8 384.48 
L 145.8 368.093793 
L 135.654545 368.093793 
z
" clip-path="url(#pb759f77fc9)" style="fill: #0000ff; fill-opacity: 0.7; stroke: #000000; stroke-linejoin: miter"/>
   </g>
   <g id="patch_56">
    <path d="M 145.8 384.48 
L 155.945455 384.48 
L 155.945455 351.707586 
L 145.8 351.707586 
z
" clip-path="url(#pb759f77fc9)" style="fill: #0000ff; fill-opacity: 0.7; stroke: #000000; stroke-linejoin: miter"/>
   </g>
   <g id="patch_57">
    <path d="M 155.945455 384.48 
L 166.090909 384.48 
L 166.090909 357.169655 
L 155.945455 357.169655 
z
" clip-path="url(#pb759f77fc9)" style="fill: #0000ff; fill-opacity: 0.7; stroke: #000000; stroke-linejoin: miter"/>
   </g>
   <g id="patch_58">
    <path d="M 166.090909 384.48 
L 176.236364 384.48 
L 176.236364 351.707586 
L 166.090909 351.707586 
z
" clip-path="url(#pb759f77fc9)" style="fill: #0000ff; fill-opacity: 0.7; stroke: #000000; stroke-linejoin: miter"/>
   </g>
   <g id="patch_59">
    <path d="M 176.236364 384.48 
L 186.381818 384.48 
L 186.381818 357.169655 
L 176.236364 357.169655 
z
" clip-path="url(#pb759f77fc9)" style="fill: #0000ff; fill-opacity: 0.7; stroke: #000000; stroke-linejoin: miter"/>
   </g>
   <g id="patch_60">
    <path d="M 186.381818 384.48 
L 196.527273 384.48 
L 196.527273 362.631724 
L 186.381818 362.631724 
z
" clip-path="url(#pb759f77fc9)" style="fill: #0000ff; fill-opacity: 0.7; stroke: #000000; stroke-linejoin: miter"/>
   </g>
   <g id="patch_61">
    <path d="M 196.527273 384.48 
L 206.672727 384.48 
L 206.672727 373.555862 
L 196.527273 373.555862 
z
" clip-path="url(#pb759f77fc9)" style="fill: #0000ff; fill-opacity: 0.7; stroke: #000000; stroke-linejoin: miter"/>
   </g>
   <g id="patch_62">
    <path d="M 206.672727 384.48 
L 216.818182 384.48 
L 216.818182 373.555862 
L 206.672727 373.555862 
z
" clip-path="url(#pb759f77fc9)" style="fill: #0000ff; fill-opacity: 0.7; stroke: #000000; stroke-linejoin: miter"/>
   </g>
   <g id="patch_63">
    <path d="M 216.818182 384.48 
L 226.963636 384.48 
L 226.963636 373.555862 
L 216.818182 373.555862 
z
" clip-path="url(#pb759f77fc9)" style="fill: #0000ff; fill-opacity: 0.7; stroke: #000000; stroke-linejoin: miter"/>
   </g>
   <g id="patch_64">
    <path d="M 226.963636 384.48 
L 237.109091 384.48 
L 237.109091 373.555862 
L 226.963636 373.555862 
z
" clip-path="url(#pb759f77fc9)" style="fill: #0000ff; fill-opacity: 0.7; stroke: #000000; stroke-linejoin: miter"/>
   </g>
   <g id="patch_65">
    <path d="M 237.109091 384.48 
L 247.254545 384.48 
L 247.254545 335.321379 
L 237.109091 335.321379 
z
" clip-path="url(#pb759f77fc9)" style="fill: #0000ff; fill-opacity: 0.7; stroke: #000000; stroke-linejoin: miter"/>
   </g>
   <g id="patch_66">
    <path d="M 247.254545 384.48 
L 257.4 384.48 
L 257.4 379.017931 
L 247.254545 379.017931 
z
" clip-path="url(#pb759f77fc9)" style="fill: #0000ff; fill-opacity: 0.7; stroke: #000000; stroke-linejoin: miter"/>
   </g>
   <g id="patch_67">
    <path d="M 257.4 384.48 
L 267.545455 384.48 
L 267.545455 362.631724 
L 257.4 362.631724 
z
" clip-path="url(#pb759f77fc9)" style="fill: #0000ff; fill-opacity: 0.7; stroke: #000000; stroke-linejoin: miter"/>
   </g>
   <g id="patch_68">
    <path d="M 267.545455 384.48 
L 277.690909 384.48 
L 277.690909 373.555862 
L 267.545455 373.555862 
z
" clip-path="url(#pb759f77fc9)" style="fill: #0000ff; fill-opacity: 0.7; stroke: #000000; stroke-linejoin: miter"/>
   </g>
   <g id="patch_69">
    <path d="M 277.690909 384.48 
L 287.836364 384.48 
L 287.836364 379.017931 
L 277.690909 379.017931 
z
" clip-path="url(#pb759f77fc9)" style="fill: #0000ff; fill-opacity: 0.7; stroke: #000000; stroke-linejoin: miter"/>
   </g>
   <g id="patch_70">
    <path d="M 287.836364 384.48 
L 297.981818 384.48 
L 297.981818 368.093793 
L 287.836364 368.093793 
z
" clip-path="url(#pb759f77fc9)" style="fill: #0000ff; fill-opacity: 0.7; stroke: #000000; stroke-linejoin: miter"/>
   </g>
   <g id="patch_71">
    <path d="M 297.981818 384.48 
L 308.127273 384.48 
L 308.127273 384.48 
L 297.981818 384.48 
z
" clip-path="url(#pb759f77fc9)" style="fill: #0000ff; fill-opacity: 0.7; stroke: #000000; stroke-linejoin: miter"/>
   </g>
   <g id="patch_72">
    <path d="M 308.127273 384.48 
L 318.272727 384.48 
L 318.272727 368.093793 
L 308.127273 368.093793 
z
" clip-path="url(#pb759f77fc9)" style="fill: #0000ff; fill-opacity: 0.7; stroke: #000000; stroke-linejoin: miter"/>
   </g>
   <g id="patch_73">
    <path d="M 318.272727 384.48 
L 328.418182 384.48 
L 328.418182 384.48 
L 318.272727 384.48 
z
" clip-path="url(#pb759f77fc9)" style="fill: #0000ff; fill-opacity: 0.7; stroke: #000000; stroke-linejoin: miter"/>
   </g>
   <g id="patch_74">
    <path d="M 328.418182 384.48 
L 338.563636 384.48 
L 338.563636 379.017931 
L 328.418182 379.017931 
z
" clip-path="url(#pb759f77fc9)" style="fill: #0000ff; fill-opacity: 0.7; stroke: #000000; stroke-linejoin: miter"/>
   </g>
   <g id="patch_75">
    <path d="M 338.563636 384.48 
L 348.709091 384.48 
L 348.709091 373.555862 
L 338.563636 373.555862 
z
" clip-path="url(#pb759f77fc9)" style="fill: #0000ff; fill-opacity: 0.7; stroke: #000000; stroke-linejoin: miter"/>
   </g>
   <g id="patch_76">
    <path d="M 348.709091 384.48 
L 358.854545 384.48 
L 358.854545 373.555862 
L 348.709091 373.555862 
z
" clip-path="url(#pb759f77fc9)" style="fill: #0000ff; fill-opacity: 0.7; stroke: #000000; stroke-linejoin: miter"/>
   </g>
   <g id="patch_77">
    <path d="M 358.854545 384.48 
L 369 384.48 
L 369 368.093793 
L 358.854545 368.093793 
z
" clip-path="url(#pb759f77fc9)" style="fill: #0000ff; fill-opacity: 0.7; stroke: #000000; stroke-linejoin: miter"/>
   </g>
   <g id="patch_78">
    <path d="M 369 384.48 
L 379.145455 384.48 
L 379.145455 368.093793 
L 369 368.093793 
z
" clip-path="url(#pb759f77fc9)" style="fill: #0000ff; fill-opacity: 0.7; stroke: #000000; stroke-linejoin: miter"/>
   </g>
   <g id="patch_79">
    <path d="M 379.145455 384.48 
L 389.290909 384.48 
L 389.290909 362.631724 
L 379.145455 362.631724 
z
" clip-path="url(#pb759f77fc9)" style="fill: #0000ff; fill-opacity: 0.7; stroke: #000000; stroke-linejoin: miter"/>
   </g>
   <g id="patch_80">
    <path d="M 389.290909 384.48 
L 399.436364 384.48 
L 399.436364 379.017931 
L 389.290909 379.017931 
z
" clip-path="url(#pb759f77fc9)" style="fill: #0000ff; fill-opacity: 0.7; stroke: #000000; stroke-linejoin: miter"/>
   </g>
   <g id="patch_81">
    <path d="M 399.436364 384.48 
L 409.581818 384.48 
L 409.581818 379.017931 
L 399.436364 379.017931 
z
" clip-path="url(#pb759f77fc9)" style="fill: #0000ff; fill-opacity: 0.7; stroke: #000000; stroke-linejoin: miter"/>
   </g>
   <g id="patch_82">
    <path d="M 409.581818 384.48 
L 419.727273 384.48 
L 419.727273 368.093793 
L 409.581818 368.093793 
z
" clip-path="url(#pb759f77fc9)" style="fill: #0000ff; fill-opacity: 0.7; stroke: #000000; stroke-linejoin: miter"/>
   </g>
   <g id="patch_83">
    <path d="M 419.727273 384.48 
L 429.872727 384.48 
L 429.872727 357.169655 
L 419.727273 357.169655 
z
" clip-path="url(#pb759f77fc9)" style="fill: #0000ff; fill-opacity: 0.7; stroke: #000000; stroke-linejoin: miter"/>
   </g>
   <g id="patch_84">
    <path d="M 429.872727 384.48 
L 440.018182 384.48 
L 440.018182 373.555862 
L 429.872727 373.555862 
z
" clip-path="url(#pb759f77fc9)" style="fill: #0000ff; fill-opacity: 0.7; stroke: #000000; stroke-linejoin: miter"/>
   </g>
   <g id="patch_85">
    <path d="M 440.018182 384.48 
L 450.163636 384.48 
L 450.163636 362.631724 
L 440.018182 362.631724 
z
" clip-path="url(#pb759f77fc9)" style="fill: #0000ff; fill-opacity: 0.7; stroke: #000000; stroke-linejoin: miter"/>
   </g>
   <g id="patch_86">
    <path d="M 450.163636 384.48 
L 460.309091 384.48 
L 460.309091 318.935172 
L 450.163636 318.935172 
z
" clip-path="url(#pb759f77fc9)" style="fill: #0000ff; fill-opacity: 0.7; stroke: #000000; stroke-linejoin: miter"/>
   </g>
   <g id="patch_87">
    <path d="M 460.309091 384.48 
L 470.454545 384.48 
L 470.454545 335.321379 
L 460.309091 335.321379 
z
" clip-path="url(#pb759f77fc9)" style="fill: #0000ff; fill-opacity: 0.7; stroke: #000000; stroke-linejoin: miter"/>
   </g>
   <g id="patch_88">
    <path d="M 470.454545 384.48 
L 480.6 384.48 
L 480.6 373.555862 
L 470.454545 373.555862 
z
" clip-path="url(#pb759f77fc9)" style="fill: #0000ff; fill-opacity: 0.7; stroke: #000000; stroke-linejoin: miter"/>
   </g>
   <g id="patch_89">
    <path d="M 480.6 384.48 
L 490.745455 384.48 
L 490.745455 368.093793 
L 480.6 368.093793 
z
" clip-path="url(#pb759f77fc9)" style="fill: #0000ff; fill-opacity: 0.7; stroke: #000000; stroke-linejoin: miter"/>
   </g>
   <g id="patch_90">
    <path d="M 490.745455 384.48 
L 500.890909 384.48 
L 500.890909 368.093793 
L 490.745455 368.093793 
z
" clip-path="url(#pb759f77fc9)" style="fill: #0000ff; fill-opacity: 0.7; stroke: #000000; stroke-linejoin: miter"/>
   </g>
   <g id="patch_91">
    <path d="M 500.890909 384.48 
L 511.036364 384.48 
L 511.036364 357.169655 
L 500.890909 357.169655 
z
" clip-path="url(#pb759f77fc9)" style="fill: #0000ff; fill-opacity: 0.7; stroke: #000000; stroke-linejoin: miter"/>
   </g>
   <g id="patch_92">
    <path d="M 511.036364 384.48 
L 521.181818 384.48 
L 521.181818 351.707586 
L 511.036364 351.707586 
z
" clip-path="url(#pb759f77fc9)" style="fill: #0000ff; fill-opacity: 0.7; stroke: #000000; stroke-linejoin: miter"/>
   </g>
   <g id="patch_93">
    <path d="M 521.181818 384.48 
L 531.327273 384.48 
L 531.327273 346.245517 
L 521.181818 346.245517 
z
" clip-path="url(#pb759f77fc9)" style="fill: #0000ff; fill-opacity: 0.7; stroke: #000000; stroke-linejoin: miter"/>
   </g>
   <g id="patch_94">
    <path d="M 531.327273 384.48 
L 541.472727 384.48 
L 541.472727 362.631724 
L 531.327273 362.631724 
z
" clip-path="url(#pb759f77fc9)" style="fill: #0000ff; fill-opacity: 0.7; stroke: #000000; stroke-linejoin: miter"/>
   </g>
   <g id="patch_95">
    <path d="M 541.472727 384.48 
L 551.618182 384.48 
L 551.618182 368.093793 
L 541.472727 368.093793 
z
" clip-path="url(#pb759f77fc9)" style="fill: #0000ff; fill-opacity: 0.7; stroke: #000000; stroke-linejoin: miter"/>
   </g>
   <g id="patch_96">
    <path d="M 551.618182 384.48 
L 561.763636 384.48 
L 561.763636 379.017931 
L 551.618182 379.017931 
z
" clip-path="url(#pb759f77fc9)" style="fill: #0000ff; fill-opacity: 0.7; stroke: #000000; stroke-linejoin: miter"/>
   </g>
   <g id="patch_97">
    <path d="M 561.763636 384.48 
L 571.909091 384.48 
L 571.909091 373.555862 
L 561.763636 373.555862 
z
" clip-path="url(#pb759f77fc9)" style="fill: #0000ff; fill-opacity: 0.7; stroke: #000000; stroke-linejoin: miter"/>
   </g>
   <g id="patch_98">
    <path d="M 571.909091 384.48 
L 582.054545 384.48 
L 582.054545 373.555862 
L 571.909091 373.555862 
z
" clip-path="url(#pb759f77fc9)" style="fill: #0000ff; fill-opacity: 0.7; stroke: #000000; stroke-linejoin: miter"/>
   </g>
   <g id="patch_99">
    <path d="M 582.054545 384.48 
L 592.2 384.48 
L 592.2 368.093793 
L 582.054545 368.093793 
z
" clip-path="url(#pb759f77fc9)" style="fill: #0000ff; fill-opacity: 0.7; stroke: #000000; stroke-linejoin: miter"/>
   </g>
   <g id="patch_100">
    <path d="M 592.2 384.48 
L 602.345455 384.48 
L 602.345455 368.093793 
L 592.2 368.093793 
z
" clip-path="url(#pb759f77fc9)" style="fill: #0000ff; fill-opacity: 0.7; stroke: #000000; stroke-linejoin: miter"/>
   </g>
   <g id="patch_101">
    <path d="M 602.345455 384.48 
L 612.490909 384.48 
L 612.490909 368.093793 
L 602.345455 368.093793 
z
" clip-path="url(#pb759f77fc9)" style="fill: #0000ff; fill-opacity: 0.7; stroke: #000000; stroke-linejoin: miter"/>
   </g>
   <g id="patch_102">
    <path d="M 612.490909 384.48 
L 622.636364 384.48 
L 622.636364 373.555862 
L 612.490909 373.555862 
z
" clip-path="url(#pb759f77fc9)" style="fill: #0000ff; fill-opacity: 0.7; stroke: #000000; stroke-linejoin: miter"/>
   </g>
   <g id="matplotlib.axis_1">
    <g id="xtick_1">
     <g id="line2d_1">
      <path d="M 114.882286 384.48 
L 114.882286 51.84 
" clip-path="url(#pb759f77fc9)" style="fill: none; stroke: #b0b0b0; stroke-opacity: 0.3; stroke-width: 0.8; stroke-linecap: square"/>
     </g>
     <g id="line2d_2">
      <defs>
       <path id="m7a45cd6578" d="M 0 0 
L 0 3.5 
" style="stroke: #000000; stroke-width: 0.8"/>
      </defs>
      <g>
       <use xlink:href="#m7a45cd6578" x="114.882286" y="384.48" style="stroke: #000000; stroke-width: 0.8"/>
      </g>
     </g>
     <g id="text_1">
      <text style="font: 10px 'DejaVu Sans', 'Bitstream Vera Sans', 'Computer Modern Sans Serif', 'Lucida Grande', 'Verdana', 'Geneva', 'Lucid', 'Arial', 'Helvetica', 'Avant Garde', sans-serif; text-anchor: middle" x="114.882286" y="399.078438" transform="rotate(-0 114.882286 399.078438)">0.0</text>
     </g>
    </g>
    <g id="xtick_2">
     <g id="line2d_3">
      <path d="M 223.09002 384.48 
L 223.09002 51.84 
" clip-path="url(#pb759f77fc9)" style="fill: none; stroke: #b0b0b0; stroke-opacity: 0.3; stroke-width: 0.8; stroke-linecap: square"/>
     </g>
     <g id="line2d_4">
      <g>
       <use xlink:href="#m7a45cd6578" x="223.09002" y="384.48" style="stroke: #000000; stroke-width: 0.8"/>
      </g>
     </g>
     <g id="text_2">
      <text style="font: 10px 'DejaVu Sans', 'Bitstream Vera Sans', 'Computer Modern Sans Serif', 'Lucida Grande', 'Verdana', 'Geneva', 'Lucid', 'Arial', 'Helvetica', 'Avant Garde', sans-serif; text-anchor: middle" x="223.09002" y="399.078438" transform="rotate(-0 223.09002 399.078438)">0.2</text>
     </g>
    </g>
    <g id="xtick_3">
     <g id="line2d_5">
      <path d="M 331.297754 384.48 
L 331.297754 51.84 
" clip-path="url(#pb759f77fc9)" style="fill: none; stroke: #b0b0b0; stroke-opacity: 0.3; stroke-width: 0.8; stroke-linecap: square"/>
     </g>
     <g id="line2d_6">
      <g>
       <use xlink:href="#m7a45cd6578" x="331.297754" y="384.48" style="stroke: #000000; stroke-width: 0.8"/>
      </g>
     </g>
     <g id="text_3">
      <text style="font: 10px 'DejaVu Sans', 'Bitstream Vera Sans', 'Computer Modern Sans Serif', 'Lucida Grande', 'Verdana', 'Geneva', 'Lucid', 'Arial', 'Helvetica', 'Avant Garde', sans-serif; text-anchor: middle" x="331.297754" y="399.078438" transform="rotate(-0 331.297754 399.078438)">0.4</text>
     </g>
    </g>
    <g id="xtick_4">
     <g id="line2d_7">
      <path d="M 439.505488 384.48 
L 439.505488 51.84 
" clip-path="url(#pb759f77fc9)" style="fill: none; stroke: #b0b0b0; stroke-opacity: 0.3; stroke-width: 0.8; stroke-linecap: square"/>
     </g>
     <g id="line2d_8">
      <g>
       <use xlink:href="#m7a45cd6578" x="439.505488" y="384.48" style="stroke: #000000; stroke-width: 0.8"/>
      </g>
     </g>
     <g id="text_4">
      <text style="font: 10px 'DejaVu Sans', 'Bitstream Vera Sans', 'Computer Modern Sans Serif', 'Lucida Grande', 'Verdana', 'Geneva', 'Lucid', 'Arial', 'Helvetica', 'Avant Garde', sans-serif; text-anchor: middle" x="439.505488" y="399.078438" transform="rotate(-0 439.505488 399.078438)">0.6</text>
     </g>
    </g>
    <g id="xtick_5">
     <g id="line2d_9">
      <path d="M 547.713221 384.48 
L 547.713221 51.84 
" clip-path="url(#pb759f77fc9)" style="fill: none; stroke: #b0b0b0; stroke-opacity: 0.3; stroke-width: 0.8; stroke-linecap: square"/>
     </g>
     <g id="line2d_10">
      <g>
       <use xlink:href="#m7a45cd6578" x="547.713221" y="384.48" style="stroke: #000000; stroke-width: 0.8"/>
      </g>
     </g>
     <g id="text_5">
      <text style="font: 10px 'DejaVu Sans', 'Bitstream Vera Sans', 'Computer Modern Sans Serif', 'Lucida Grande', 'Verdana', 'Geneva', 'Lucid', 'Arial', 'Helvetica', 'Avant Garde', sans-serif; text-anchor: middle" x="547.713221" y="399.078438" transform="rotate(-0 547.713221 399.078438)">0.8</text>
     </g>
    </g>
    <g id="text_6">
     <text style="font: 10px 'DejaVu Sans', 'Bitstream Vera Sans', 'Computer Modern Sans Serif', 'Lucida Grande', 'Verdana', 'Geneva', 'Lucid', 'Arial', 'Helvetica', 'Avant Garde', sans-serif; text-anchor: middle" x="369" y="412.756563" transform="rotate(-0 369 412.756563)">Score</text>
    </g>
   </g>
   <g id="matplotlib.axis_2">
    <g id="ytick_1">
     <g id="line2d_11">
      <path d="M 90 384.48 
L 648 384.48 
" clip-path="url(#pb759f77fc9)" style="fill: none; stroke: #b0b0b0; stroke-opacity: 0.3; stroke-width: 0.8; stroke-linecap: square"/>
     </g>
     <g id="line2d_12">
      <defs>
       <path id="m429485831d" d="M 0 0 
L -3.5 0 
" style="stroke: #000000; stroke-width: 0.8"/>
      </defs>
      <g>
       <use xlink:href="#m429485831d" x="90" y="384.48" style="stroke: #000000; stroke-width: 0.8"/>
      </g>
     </g>
     <g id="text_7">
      <text style="font: 10px 'DejaVu Sans', 'Bitstream Vera Sans', 'Computer Modern Sans Serif', 'Lucida Grande', 'Verdana', 'Geneva', 'Lucid', 'Arial', 'Helvetica', 'Avant Garde', sans-serif; text-anchor: end" x="83" y="388.279219" transform="rotate(-0 83 388.279219)">0</text>
     </g>
    </g>
    <g id="ytick_2">
     <g id="line2d_13">
      <path d="M 90 329.85931 
L 648 329.85931 
" clip-path="url(#pb759f77fc9)" style="fill: none; stroke: #b0b0b0; stroke-opacity: 0.3; stroke-width: 0.8; stroke-linecap: square"/>
     </g>
     <g id="line2d_14">
      <g>
       <use xlink:href="#m429485831d" x="90" y="329.85931" style="stroke: #000000; stroke-width: 0.8"/>
      </g>
     </g>
     <g id="text_8">
      <text style="font: 10px 'DejaVu Sans', 'Bitstream Vera Sans', 'Computer Modern Sans Serif', 'Lucida Grande', 'Verdana', 'Geneva', 'Lucid', 'Arial', 'Helvetica', 'Avant Garde', sans-serif; text-anchor: end" x="83" y="333.658529" transform="rotate(-0 83 333.658529)">10</text>
     </g>
    </g>
    <g id="ytick_3">
     <g id="line2d_15">
      <path d="M 90 275.238621 
L 648 275.238621 
" clip-path="url(#pb759f77fc9)" style="fill: none; stroke: #b0b0b0; stroke-opacity: 0.3; stroke-width: 0.8; stroke-linecap: square"/>
     </g>
     <g id="line2d_16">
      <g>
       <use xlink:href="#m429485831d" x="90" y="275.238621" style="stroke: #000000; stroke-width: 0.8"/>
      </g>
     </g>
     <g id="text_9">
      <text style="font: 10px 'DejaVu Sans', 'Bitstream Vera Sans', 'Computer Modern Sans Serif', 'Lucida Grande', 'Verdana', 'Geneva', 'Lucid', 'Arial', 'Helvetica', 'Avant Garde', sans-serif; text-anchor: end" x="83" y="279.037839" transform="rotate(-0 83 279.037839)">20</text>
     </g>
    </g>
    <g id="ytick_4">
     <g id="line2d_17">
      <path d="M 90 220.617931 
L 648 220.617931 
" clip-path="url(#pb759f77fc9)" style="fill: none; stroke: #b0b0b0; stroke-opacity: 0.3; stroke-width: 0.8; stroke-linecap: square"/>
     </g>
     <g id="line2d_18">
      <g>
       <use xlink:href="#m429485831d" x="90" y="220.617931" style="stroke: #000000; stroke-width: 0.8"/>
      </g>
     </g>
     <g id="text_10">
      <text style="font: 10px 'DejaVu Sans', 'Bitstream Vera Sans', 'Computer Modern Sans Serif', 'Lucida Grande', 'Verdana', 'Geneva', 'Lucid', 'Arial', 'Helvetica', 'Avant Garde', sans-serif; text-anchor: end" x="83" y="224.41715" transform="rotate(-0 83 224.41715)">30</text>
     </g>
    </g>
    <g id="ytick_5">
     <g id="line2d_19">
      <path d="M 90 165.997241 
L 648 165.997241 
" clip-path="url(#pb759f77fc9)" style="fill: none; stroke: #b0b0b0; stroke-opacity: 0.3; stroke-width: 0.8; stroke-linecap: square"/>
     </g>
     <g id="line2d_20">
      <g>
       <use xlink:href="#m429485831d" x="90" y="165.997241" style="stroke: #000000; stroke-width: 0.8"/>
      </g>
     </g>
     <g id="text_11">
      <text style="font: 10px 'DejaVu Sans', 'Bitstream Vera Sans', 'Computer Modern Sans Serif', 'Lucida Grande', 'Verdana', 'Geneva', 'Lucid', 'Arial', 'Helvetica', 'Avant Garde', sans-serif; text-anchor: end" x="83" y="169.79646" transform="rotate(-0 83 169.79646)">40</text>
     </g>
    </g>
    <g id="ytick_6">
     <g id="line2d_21">
      <path d="M 90 111.376552 
L 648 111.376552 
" clip-path="url(#pb759f77fc9)" style="fill: none; stroke: #b0b0b0; stroke-opacity: 0.3; stroke-width: 0.8; stroke-linecap: square"/>
     </g>
     <g id="line2d_22">
      <g>
       <use xlink:href="#m429485831d" x="90" y="111.376552" style="stroke: #000000; stroke-width: 0.8"/>
      </g>
     </g>
     <g id="text_12">
      <text style="font: 10px 'DejaVu Sans', 'Bitstream Vera Sans', 'Computer Modern Sans Serif', 'Lucida Grande', 'Verdana', 'Geneva', 'Lucid', 'Arial', 'Helvetica', 'Avant Garde', sans-serif; text-anchor: end" x="83" y="115.17577" transform="rotate(-0 83 115.17577)">50</text>
     </g>
    </g>
    <g id="ytick_7">
     <g id="line2d_23">
      <path d="M 90 56.755862 
L 648 56.755862 
" clip-path="url(#pb759f77fc9)" style="fill: none; stroke: #b0b0b0; stroke-opacity: 0.3; stroke-width: 0.8; stroke-linecap: square"/>
     </g>
     <g id="line2d_24">
      <g>
       <use xlink:href="#m429485831d" x="90" y="56.755862" style="stroke: #000000; stroke-width: 0.8"/>
      </g>
     </g>
     <g id="text_13">
      <text style="font: 10px 'DejaVu Sans', 'Bitstream Vera Sans', 'Computer Modern Sans Serif', 'Lucida Grande', 'Verdana', 'Geneva', 'Lucid', 'Arial', 'Helvetica', 'Avant Garde', sans-serif; text-anchor: end" x="83" y="60.555081" transform="rotate(-0 83 60.555081)">60</text>
     </g>
    </g>
    <g id="text_14">
     <text style="font: 10px 'DejaVu Sans', 'Bitstream Vera Sans', 'Computer Modern Sans Serif', 'Lucida Grande', 'Verdana', 'Geneva', 'Lucid', 'Arial', 'Helvetica', 'Avant Garde', sans-serif; text-anchor: middle" x="64.195312" y="218.16" transform="rotate(-90 64.195312 218.16)">Density</text>
    </g>
   </g>
   <g id="line2d_25">
    <path d="M 115.363636 295.315267 
L 120.461855 288.152134 
L 125.560073 281.622647 
L 128.109182 278.643962 
L 130.658291 275.878188 
L 133.207401 273.339317 
L 135.75651 271.039005 
L 138.305619 268.986449 
L 140.854728 267.188313 
L 143.403837 265.648694 
L 145.952947 264.36914 
L 148.502056 263.34871 
L 151.051165 262.584075 
L 153.600274 262.069658 
L 156.149383 261.797813 
L 158.698492 261.759023 
L 161.247602 261.942132 
L 163.796711 262.334586 
L 166.34582 262.922691 
L 168.894929 263.691873 
L 171.444038 264.62694 
L 173.993148 265.712333 
L 179.091366 268.271483 
L 184.189584 271.246372 
L 189.287803 274.521823 
L 196.93513 279.778079 
L 219.877113 295.854367 
L 227.52444 300.90166 
L 235.171768 305.721929 
L 242.819095 310.311023 
L 250.466423 314.666183 
L 258.113751 318.776117 
L 265.761078 322.61754 
L 273.408406 326.1572 
L 281.055733 329.357498 
L 286.153952 331.284868 
L 291.25217 333.037077 
L 296.350388 334.607631 
L 301.448607 335.992103 
L 306.546825 337.187717 
L 311.645043 338.192505 
L 316.743262 339.004098 
L 321.84148 339.618268 
L 326.939698 340.027368 
L 332.037917 340.218845 
L 337.136135 340.174009 
L 342.234354 339.867252 
L 347.332572 339.265862 
L 352.43079 338.330559 
L 357.529009 337.016835 
L 362.627227 335.277098 
L 365.176336 334.232467 
L 367.725445 333.063605 
L 370.274555 331.76511 
L 372.823664 330.332051 
L 375.372773 328.760098 
L 377.921882 327.045671 
L 380.470991 325.18607 
L 383.020101 323.179617 
L 385.56921 321.025786 
L 390.667428 316.280377 
L 395.765646 310.973082 
L 400.863865 305.152119 
L 405.962083 298.89233 
L 411.060302 292.295293 
L 431.453175 265.35738 
L 436.551393 259.315483 
L 439.100503 256.516171 
L 441.649612 253.890997 
L 444.198721 251.458192 
L 446.74783 249.234442 
L 449.296939 247.234668 
L 451.846048 245.471836 
L 454.395158 243.956793 
L 456.944267 242.69814 
L 459.493376 241.70215 
L 462.042485 240.97272 
L 464.591594 240.511363 
L 467.140704 240.317249 
L 469.689813 240.38728 
L 472.238922 240.716201 
L 474.788031 241.296753 
L 477.33714 242.119845 
L 479.886249 243.174766 
L 482.435359 244.449403 
L 484.984468 245.930486 
L 487.533577 247.603834 
L 490.082686 249.454607 
L 492.631795 251.467558 
L 497.730014 255.918387 
L 502.828232 260.834953 
L 507.92645 266.103039 
L 515.573778 274.44455 
L 528.319324 288.874221 
L 543.613979 306.132398 
L 553.810416 317.276978 
L 561.457743 325.343225 
L 569.105071 333.083063 
L 576.752398 340.415101 
L 581.850617 345.033286 
L 586.948835 349.405986 
L 592.047053 353.510551 
L 597.145272 357.328409 
L 602.24349 360.846234 
L 607.341709 364.056663 
L 612.439927 366.958535 
L 617.538145 369.55667 
L 622.636364 371.861262 
L 622.636364 371.861262 
" clip-path="url(#pb759f77fc9)" style="fill: none; stroke: #ff0000; stroke-width: 1.5; stroke-linecap: square"/>
   </g>
   <g id="line2d_26">
    <path d="M 115.363636 373.925759 
L 133.207401 371.079334 
L 143.403837 369.628398 
L 153.600274 368.39094 
L 163.796711 367.416027 
L 173.993148 366.731008 
L 184.189584 366.340836 
L 194.386021 366.230673 
L 204.582458 366.370738 
L 214.778894 366.721985 
L 227.52444 367.391997 
L 245.368205 368.608011 
L 283.604842 371.32903 
L 296.350388 371.986161 
L 309.095934 372.401777 
L 319.292371 372.526761 
L 329.488808 372.449725 
L 339.685244 372.163846 
L 349.881681 371.670724 
L 360.078118 370.979672 
L 372.823664 369.863499 
L 385.56921 368.5135 
L 403.412974 366.366902 
L 428.904066 363.277795 
L 441.649612 361.981743 
L 451.846048 361.168232 
L 462.042485 360.602643 
L 472.238922 360.314904 
L 482.435359 360.318099 
L 492.631795 360.608805 
L 502.828232 361.169355 
L 513.024669 361.971373 
L 523.221106 362.97983 
L 535.966651 364.473097 
L 551.261307 366.511495 
L 574.203289 369.848802 
L 612.439927 375.455593 
L 622.636364 376.837911 
L 622.636364 376.837911 
" clip-path="url(#pb759f77fc9)" style="fill: none; stroke: #0000ff; stroke-width: 1.5; stroke-linecap: square"/>
   </g>
   <g id="line2d_27">
    <path d="M 371.716832 384.48 
L 371.716832 51.84 
" clip-path="url(#pb759f77fc9)" style="fill: none; stroke-dasharray: 7.4,3.2; stroke-dashoffset: 0; stroke: #00008b; stroke-width: 2"/>
   </g>
   <g id="line2d_28">
    <path d="M 338.92382 384.48 
L 338.92382 51.84 
" clip-path="url(#pb759f77fc9)" style="fill: none; stroke-dasharray: 7.4,3.2; stroke-dashoffset: 0; stroke: #8b0000; stroke-width: 2"/>
   </g>
   <g id="patch_103">
    <path d="M 90 384.48 
L 90 51.84 
" style="fill: none; stroke: #000000; stroke-width: 0.8; stroke-linejoin: miter; stroke-linecap: square"/>
   </g>
   <g id="patch_104">
    <path d="M 648 384.48 
L 648 51.84 
" style="fill: none; stroke: #000000; stroke-width: 0.8; stroke-linejoin: miter; stroke-linecap: square"/>
   </g>
   <g id="patch_105">
    <path d="M 90 384.48 
L 648 384.48 
" style="fill: none; stroke: #000000; stroke-width: 0.8; stroke-linejoin: miter; stroke-linecap: square"/>
   </g>
   <g id="patch_106">
    <path d="M 90 51.84 
L 648 51.84 
" style="fill: none; stroke: #000000; stroke-width: 0.8; stroke-linejoin: miter; stroke-linecap: square"/>
   </g>
   <g id="text_15">
    <text style="font: 12px 'DejaVu Sans', 'Bitstream Vera Sans', 'Computer Modern Sans Serif', 'Lucida Grande', 'Verdana', 'Geneva', 'Lucid', 'Arial', 'Helvetica', 'Avant Garde', sans-serif; text-anchor: middle" x="369" y="45.84" transform="rotate(-0 369 45.84)">ERGO2</text>
   </g>
   <g id="legend_1">
    <g id="patch_107">
     <path d="M 565.2625 103.874375 
L 641 103.874375 
Q 643 103.874375 643 101.874375 
L 643 58.84 
Q 643 56.84 641 56.84 
L 565.2625 56.84 
Q 563.2625 56.84 563.2625 58.84 
L 563.2625 101.874375 
Q 563.2625 103.874375 565.2625 103.874375 
z
" style="fill: #ffffff; opacity: 0.8; stroke: #cccccc; stroke-linejoin: miter"/>
    </g>
    <g id="text_16">
     <text style="font: 10px 'DejaVu Sans', 'Bitstream Vera Sans', 'Computer Modern Sans Serif', 'Lucida Grande', 'Verdana', 'Geneva', 'Lucid', 'Arial', 'Helvetica', 'Avant Garde', sans-serif; text-anchor: start" x="591.038281" y="68.438437" transform="rotate(-0 591.038281 68.438437)">label</text>
    </g>
    <g id="patch_108">
     <path d="M 567.2625 83.116562 
L 587.2625 83.116562 
L 587.2625 76.116562 
L 567.2625 76.116562 
z
" style="fill: #0000ff; fill-opacity: 0.7; stroke: #000000; stroke-linejoin: miter"/>
    </g>
    <g id="text_17">
     <text style="font: 10px 'DejaVu Sans', 'Bitstream Vera Sans', 'Computer Modern Sans Serif', 'Lucida Grande', 'Verdana', 'Geneva', 'Lucid', 'Arial', 'Helvetica', 'Avant Garde', sans-serif; text-anchor: start" x="595.2625" y="83.116562" transform="rotate(-0 595.2625 83.116562)">positive</text>
    </g>
    <g id="patch_109">
     <path d="M 567.2625 97.794688 
L 587.2625 97.794688 
L 587.2625 90.794688 
L 567.2625 90.794688 
z
" style="fill: #ff0000; fill-opacity: 0.7; stroke: #000000; stroke-linejoin: miter"/>
    </g>
    <g id="text_18">
     <text style="font: 10px 'DejaVu Sans', 'Bitstream Vera Sans', 'Computer Modern Sans Serif', 'Lucida Grande', 'Verdana', 'Geneva', 'Lucid', 'Arial', 'Helvetica', 'Avant Garde', sans-serif; text-anchor: start" x="595.2625" y="97.794688" transform="rotate(-0 595.2625 97.794688)">negative</text>
    </g>
   </g>
  </g>
 </g>
 <defs>
  <clipPath id="pb759f77fc9">
   <rect x="90" y="51.84" width="558" height="332.64"/>
  </clipPath>
 </defs>
</svg>
