<?xml version="1.0" encoding="utf-8" standalone="no"?>
<!DOCTYPE svg PUBLIC "-//W3C//DTD SVG 1.1//EN"
  "http://www.w3.org/Graphics/SVG/1.1/DTD/svg11.dtd">
<svg xmlns:xlink="http://www.w3.org/1999/xlink" width="720pt" height="432pt" viewBox="0 0 720 432" xmlns="http://www.w3.org/2000/svg" version="1.1">
 <metadata>
  <rdf:RDF xmlns:dc="http://purl.org/dc/elements/1.1/" xmlns:cc="http://creativecommons.org/ns#" xmlns:rdf="http://www.w3.org/1999/02/22-rdf-syntax-ns#">
   <cc:Work>
    <dc:type rdf:resource="http://purl.org/dc/dcmitype/StillImage"/>
    <dc:date>2025-11-13T08:39:56.551594</dc:date>
    <dc:format>image/svg+xml</dc:format>
    <dc:creator>
     <cc:Agent>
      <dc:title>Matplotlib v3.9.4, https://matplotlib.org/</dc:title>
     </cc:Agent>
    </dc:creator>
   </cc:Work>
  </rdf:RDF>
 </metadata>
 <defs>
  <style type="text/css">*{stroke-linejoin: round; stroke-linecap: butt}</style>
 </defs>
 <g id="figure_1">
  <g id="patch_1">
   <path d="M 0 432 
L 720 432 
L 720 0 
L 0 0 
z
" style="fill: #ffffff"/>
  </g>
  <g id="axes_1">
   <g id="patch_2">
    <path d="M 90 384.48 
L 648 384.48 
L 648 51.84 
L 90 51.84 
z
" style="fill: #ffffff"/>
   </g>
   <g id="PolyCollection_1">
    <defs>
     <path id="m55c6a4d99d" d="M 115.363636 -47.721288 
L 115.363636 -47.52 
L 117.912746 -47.52 
L 120.461855 -47.52 
L 123.010964 -47.52 
L 125.560073 -47.52 
L 128.109182 -47.52 
L 130.658291 -47.52 
L 133.207401 -47.52 
L 135.75651 -47.52 
L 138.305619 -47.52 
L 140.854728 -47.52 
L 143.403837 -47.52 
L 145.952947 -47.52 
L 148.502056 -47.52 
L 151.051165 -47.52 
L 153.600274 -47.52 
L 156.149383 -47.52 
L 158.698492 -47.52 
L 161.247602 -47.52 
L 163.796711 -47.52 
L 166.34582 -47.52 
L 168.894929 -47.52 
L 171.444038 -47.52 
L 173.993148 -47.52 
L 176.542257 -47.52 
L 179.091366 -47.52 
L 181.640475 -47.52 
L 184.189584 -47.52 
L 186.738693 -47.52 
L 189.287803 -47.52 
L 191.836912 -47.52 
L 194.386021 -47.52 
L 196.93513 -47.52 
L 199.484239 -47.52 
L 202.033349 -47.52 
L 204.582458 -47.52 
L 207.131567 -47.52 
L 209.680676 -47.52 
L 212.229785 -47.52 
L 214.778894 -47.52 
L 217.328004 -47.52 
L 219.877113 -47.52 
L 222.426222 -47.52 
L 224.975331 -47.52 
L 227.52444 -47.52 
L 230.07355 -47.52 
L 232.622659 -47.52 
L 235.171768 -47.52 
L 237.720877 -47.52 
L 240.269986 -47.52 
L 242.819095 -47.52 
L 245.368205 -47.52 
L 247.917314 -47.52 
L 250.466423 -47.52 
L 253.015532 -47.52 
L 255.564641 -47.52 
L 258.113751 -47.52 
L 260.66286 -47.52 
L 263.211969 -47.52 
L 265.761078 -47.52 
L 268.310187 -47.52 
L 270.859296 -47.52 
L 273.408406 -47.52 
L 275.957515 -47.52 
L 278.506624 -47.52 
L 281.055733 -47.52 
L 283.604842 -47.52 
L 286.153952 -47.52 
L 288.703061 -47.52 
L 291.25217 -47.52 
L 293.801279 -47.52 
L 296.350388 -47.52 
L 298.899497 -47.52 
L 301.448607 -47.52 
L 303.997716 -47.52 
L 306.546825 -47.52 
L 309.095934 -47.52 
L 311.645043 -47.52 
L 314.194153 -47.52 
L 316.743262 -47.52 
L 319.292371 -47.52 
L 321.84148 -47.52 
L 324.390589 -47.52 
L 326.939698 -47.52 
L 329.488808 -47.52 
L 332.037917 -47.52 
L 334.587026 -47.52 
L 337.136135 -47.52 
L 339.685244 -47.52 
L 342.234354 -47.52 
L 344.783463 -47.52 
L 347.332572 -47.52 
L 349.881681 -47.52 
L 352.43079 -47.52 
L 354.979899 -47.52 
L 357.529009 -47.52 
L 360.078118 -47.52 
L 362.627227 -47.52 
L 365.176336 -47.52 
L 367.725445 -47.52 
L 370.274555 -47.52 
L 372.823664 -47.52 
L 375.372773 -47.52 
L 377.921882 -47.52 
L 380.470991 -47.52 
L 383.020101 -47.52 
L 385.56921 -47.52 
L 388.118319 -47.52 
L 390.667428 -47.52 
L 393.216537 -47.52 
L 395.765646 -47.52 
L 398.314756 -47.52 
L 400.863865 -47.52 
L 403.412974 -47.52 
L 405.962083 -47.52 
L 408.511192 -47.52 
L 411.060302 -47.52 
L 413.609411 -47.52 
L 416.15852 -47.52 
L 418.707629 -47.52 
L 421.256738 -47.52 
L 423.805847 -47.52 
L 426.354957 -47.52 
L 428.904066 -47.52 
L 431.453175 -47.52 
L 434.002284 -47.52 
L 436.551393 -47.52 
L 439.100503 -47.52 
L 441.649612 -47.52 
L 444.198721 -47.52 
L 446.74783 -47.52 
L 449.296939 -47.52 
L 451.846048 -47.52 
L 454.395158 -47.52 
L 456.944267 -47.52 
L 459.493376 -47.52 
L 462.042485 -47.52 
L 464.591594 -47.52 
L 467.140704 -47.52 
L 469.689813 -47.52 
L 472.238922 -47.52 
L 474.788031 -47.52 
L 477.33714 -47.52 
L 479.886249 -47.52 
L 482.435359 -47.52 
L 484.984468 -47.52 
L 487.533577 -47.52 
L 490.082686 -47.52 
L 492.631795 -47.52 
L 495.180905 -47.52 
L 497.730014 -47.52 
L 500.279123 -47.52 
L 502.828232 -47.52 
L 505.377341 -47.52 
L 507.92645 -47.52 
L 510.47556 -47.52 
L 513.024669 -47.52 
L 515.573778 -47.52 
L 518.122887 -47.52 
L 520.671996 -47.52 
L 523.221106 -47.52 
L 525.770215 -47.52 
L 528.319324 -47.52 
L 530.868433 -47.52 
L 533.417542 -47.52 
L 535.966651 -47.52 
L 538.515761 -47.52 
L 541.06487 -47.52 
L 543.613979 -47.52 
L 546.163088 -47.52 
L 548.712197 -47.52 
L 551.261307 -47.52 
L 553.810416 -47.52 
L 556.359525 -47.52 
L 558.908634 -47.52 
L 561.457743 -47.52 
L 564.006852 -47.52 
L 566.555962 -47.52 
L 569.105071 -47.52 
L 571.65418 -47.52 
L 574.203289 -47.52 
L 576.752398 -47.52 
L 579.301508 -47.52 
L 581.850617 -47.52 
L 584.399726 -47.52 
L 586.948835 -47.52 
L 589.497944 -47.52 
L 592.047053 -47.52 
L 594.596163 -47.52 
L 597.145272 -47.52 
L 599.694381 -47.52 
L 602.24349 -47.52 
L 604.792599 -47.52 
L 607.341709 -47.52 
L 609.890818 -47.52 
L 612.439927 -47.52 
L 614.989036 -47.52 
L 617.538145 -47.52 
L 620.087254 -47.52 
L 622.636364 -47.52 
L 622.636364 -47.588761 
L 622.636364 -47.588761 
L 620.087254 -47.61054 
L 617.538145 -47.638389 
L 614.989036 -47.673734 
L 612.439927 -47.718257 
L 609.890818 -47.773925 
L 607.341709 -47.843013 
L 604.792599 -47.928119 
L 602.24349 -48.032185 
L 599.694381 -48.158496 
L 597.145272 -48.310681 
L 594.596163 -48.492694 
L 592.047053 -48.708789 
L 589.497944 -48.963475 
L 586.948835 -49.261458 
L 584.399726 -49.607564 
L 581.850617 -50.006653 
L 579.301508 -50.463508 
L 576.752398 -50.982721 
L 574.203289 -51.568565 
L 571.65418 -52.224856 
L 569.105071 -52.954824 
L 566.555962 -53.760975 
L 564.006852 -54.644975 
L 561.457743 -55.607546 
L 558.908634 -56.648381 
L 556.359525 -57.766097 
L 553.810416 -58.958214 
L 551.261307 -60.221182 
L 548.712197 -61.550441 
L 546.163088 -62.940535 
L 543.613979 -64.38526 
L 541.06487 -65.87786 
L 538.515761 -67.411256 
L 535.966651 -68.978301 
L 533.417542 -70.572063 
L 530.868433 -72.186108 
L 528.319324 -73.814783 
L 525.770215 -75.453488 
L 523.221106 -77.098905 
L 520.671996 -78.749201 
L 518.122887 -80.40416 
L 515.573778 -82.065259 
L 513.024669 -83.73567 
L 510.47556 -85.420181 
L 507.92645 -87.125039 
L 505.377341 -88.857716 
L 502.828232 -90.626601 
L 500.279123 -92.440639 
L 497.730014 -94.308914 
L 495.180905 -96.240211 
L 492.631795 -98.242567 
L 490.082686 -100.322831 
L 487.533577 -102.486265 
L 484.984468 -104.736204 
L 482.435359 -107.073793 
L 479.886249 -109.497824 
L 477.33714 -112.004681 
L 474.788031 -114.588416 
L 472.238922 -117.240941 
L 469.689813 -119.952341 
L 467.140704 -122.711306 
L 464.591594 -125.505646 
L 462.042485 -128.322887 
L 459.493376 -131.150901 
L 456.944267 -133.978548 
L 454.395158 -136.796294 
L 451.846048 -139.596771 
L 449.296939 -142.375236 
L 446.74783 -145.129916 
L 444.198721 -147.862207 
L 441.649612 -150.5767 
L 439.100503 -153.28105 
L 436.551393 -155.985666 
L 434.002284 -158.703248 
L 431.453175 -161.448178 
L 428.904066 -164.235805 
L 426.354957 -167.081638 
L 423.805847 -170.000512 
L 421.256738 -173.005732 
L 418.707629 -176.108265 
L 416.15852 -179.316002 
L 413.609411 -182.63312 
L 411.060302 -186.059582 
L 408.511192 -189.590794 
L 405.962083 -193.217416 
L 403.412974 -196.925356 
L 400.863865 -200.695929 
L 398.314756 -204.506172 
L 395.765646 -208.329308 
L 393.216537 -212.135334 
L 390.667428 -215.891715 
L 388.118319 -219.564152 
L 385.56921 -223.117417 
L 383.020101 -226.516212 
L 380.470991 -229.726054 
L 377.921882 -232.714146 
L 375.372773 -235.450237 
L 372.823664 -237.90744 
L 370.274555 -240.06302 
L 367.725445 -241.899107 
L 365.176336 -243.403361 
L 362.627227 -244.569546 
L 360.078118 -245.398021 
L 357.529009 -245.896128 
L 354.979899 -246.078452 
L 352.43079 -245.966955 
L 349.881681 -245.590956 
L 347.332572 -244.986937 
L 344.783463 -244.198181 
L 342.234354 -243.274206 
L 339.685244 -242.270013 
L 337.136135 -241.245141 
L 334.587026 -240.262537 
L 332.037917 -239.387265 
L 329.488808 -238.685075 
L 326.939698 -238.22087 
L 324.390589 -238.057107 
L 321.84148 -238.252181 
L 319.292371 -238.858841 
L 316.743262 -239.922679 
L 314.194153 -241.480746 
L 311.645043 -243.560339 
L 309.095934 -246.177987 
L 306.546825 -249.338668 
L 303.997716 -253.035279 
L 301.448607 -257.248376 
L 298.899497 -261.946166 
L 296.350388 -267.084765 
L 293.801279 -272.60871 
L 291.25217 -278.451681 
L 288.703061 -284.537456 
L 286.153952 -290.781027 
L 283.604842 -297.089901 
L 281.055733 -303.365528 
L 278.506624 -309.504856 
L 275.957515 -315.401988 
L 273.408406 -320.949917 
L 270.859296 -326.042332 
L 268.310187 -330.575466 
L 265.761078 -334.449966 
L 263.211969 -337.572763 
L 260.66286 -339.8589 
L 258.113751 -341.233297 
L 255.564641 -341.632397 
L 253.015532 -341.005662 
L 250.466423 -339.316854 
L 247.917314 -336.545066 
L 245.368205 -332.685458 
L 242.819095 -327.749644 
L 240.269986 -321.765717 
L 237.720877 -314.777872 
L 235.171768 -306.845642 
L 232.622659 -298.04274 
L 230.07355 -288.455533 
L 227.52444 -278.181202 
L 224.975331 -267.325625 
L 222.426222 -256.001065 
L 219.877113 -244.323726 
L 217.328004 -232.411269 
L 214.778894 -220.380357 
L 212.229785 -208.344324 
L 209.680676 -196.411022 
L 207.131567 -184.68092 
L 204.582458 -173.245502 
L 202.033349 -162.185997 
L 199.484239 -151.572456 
L 196.93513 -141.463191 
L 194.386021 -131.904565 
L 191.836912 -122.931091 
L 189.287803 -114.565843 
L 186.738693 -106.821104 
L 184.189584 -99.699224 
L 181.640475 -93.193633 
L 179.091366 -87.289967 
L 176.542257 -81.967248 
L 173.993148 -77.199083 
L 171.444038 -72.95485 
L 168.894929 -69.200819 
L 166.34582 -65.901202 
L 163.796711 -63.019106 
L 161.247602 -60.517374 
L 158.698492 -58.359301 
L 156.149383 -56.509242 
L 153.600274 -54.933091 
L 151.051165 -53.598655 
L 148.502056 -52.475916 
L 145.952947 -51.537208 
L 143.403837 -50.757305 
L 140.854728 -50.11344 
L 138.305619 -49.585266 
L 135.75651 -49.15477 
L 133.207401 -48.806149 
L 130.658291 -48.525665 
L 128.109182 -48.301477 
L 125.560073 -48.123466 
L 123.010964 -47.98306 
L 120.461855 -47.873056 
L 117.912746 -47.787452 
L 115.363636 -47.721288 
z
" style="stroke: #0000ff"/>
    </defs>
    <g clip-path="url(#p33719a284d)">
     <use xlink:href="#m55c6a4d99d" x="0" y="432" style="fill: #0000ff; fill-opacity: 0.5; stroke: #0000ff"/>
    </g>
   </g>
   <g id="PolyCollection_2">
    <defs>
     <path id="mad686ad3e0" d="M 126.12651 -47.546713 
L 126.12651 -47.52 
L 128.416687 -47.52 
L 130.706865 -47.52 
L 132.997042 -47.52 
L 135.287219 -47.52 
L 137.577396 -47.52 
L 139.867573 -47.52 
L 142.15775 -47.52 
L 144.447927 -47.52 
L 146.738105 -47.52 
L 149.028282 -47.52 
L 151.318459 -47.52 
L 153.608636 -47.52 
L 155.898813 -47.52 
L 158.18899 -47.52 
L 160.479168 -47.52 
L 162.769345 -47.52 
L 165.059522 -47.52 
L 167.349699 -47.52 
L 169.639876 -47.52 
L 171.930053 -47.52 
L 174.22023 -47.52 
L 176.510408 -47.52 
L 178.800585 -47.52 
L 181.090762 -47.52 
L 183.380939 -47.52 
L 185.671116 -47.52 
L 187.961293 -47.52 
L 190.25147 -47.52 
L 192.541648 -47.52 
L 194.831825 -47.52 
L 197.122002 -47.52 
L 199.412179 -47.52 
L 201.702356 -47.52 
L 203.992533 -47.52 
L 206.282711 -47.52 
L 208.572888 -47.52 
L 210.863065 -47.52 
L 213.153242 -47.52 
L 215.443419 -47.52 
L 217.733596 -47.52 
L 220.023773 -47.52 
L 222.313951 -47.52 
L 224.604128 -47.52 
L 226.894305 -47.52 
L 229.184482 -47.52 
L 231.474659 -47.52 
L 233.764836 -47.52 
L 236.055013 -47.52 
L 238.345191 -47.52 
L 240.635368 -47.52 
L 242.925545 -47.52 
L 245.215722 -47.52 
L 247.505899 -47.52 
L 249.796076 -47.52 
L 252.086254 -47.52 
L 254.376431 -47.52 
L 256.666608 -47.52 
L 258.956785 -47.52 
L 261.246962 -47.52 
L 263.537139 -47.52 
L 265.827316 -47.52 
L 268.117494 -47.52 
L 270.407671 -47.52 
L 272.697848 -47.52 
L 274.988025 -47.52 
L 277.278202 -47.52 
L 279.568379 -47.52 
L 281.858557 -47.52 
L 284.148734 -47.52 
L 286.438911 -47.52 
L 288.729088 -47.52 
L 291.019265 -47.52 
L 293.309442 -47.52 
L 295.599619 -47.52 
L 297.889797 -47.52 
L 300.179974 -47.52 
L 302.470151 -47.52 
L 304.760328 -47.52 
L 307.050505 -47.52 
L 309.340682 -47.52 
L 311.630859 -47.52 
L 313.921037 -47.52 
L 316.211214 -47.52 
L 318.501391 -47.52 
L 320.791568 -47.52 
L 323.081745 -47.52 
L 325.371922 -47.52 
L 327.6621 -47.52 
L 329.952277 -47.52 
L 332.242454 -47.52 
L 334.532631 -47.52 
L 336.822808 -47.52 
L 339.112985 -47.52 
L 341.403162 -47.52 
L 343.69334 -47.52 
L 345.983517 -47.52 
L 348.273694 -47.52 
L 350.563871 -47.52 
L 352.854048 -47.52 
L 355.144225 -47.52 
L 357.434402 -47.52 
L 359.72458 -47.52 
L 362.014757 -47.52 
L 364.304934 -47.52 
L 366.595111 -47.52 
L 368.885288 -47.52 
L 371.175465 -47.52 
L 373.465643 -47.52 
L 375.75582 -47.52 
L 378.045997 -47.52 
L 380.336174 -47.52 
L 382.626351 -47.52 
L 384.916528 -47.52 
L 387.206705 -47.52 
L 389.496883 -47.52 
L 391.78706 -47.52 
L 394.077237 -47.52 
L 396.367414 -47.52 
L 398.657591 -47.52 
L 400.947768 -47.52 
L 403.237945 -47.52 
L 405.528123 -47.52 
L 407.8183 -47.52 
L 410.108477 -47.52 
L 412.398654 -47.52 
L 414.688831 -47.52 
L 416.979008 -47.52 
L 419.269186 -47.52 
L 421.559363 -47.52 
L 423.84954 -47.52 
L 426.139717 -47.52 
L 428.429894 -47.52 
L 430.720071 -47.52 
L 433.010248 -47.52 
L 435.300426 -47.52 
L 437.590603 -47.52 
L 439.88078 -47.52 
L 442.170957 -47.52 
L 444.461134 -47.52 
L 446.751311 -47.52 
L 449.041488 -47.52 
L 451.331666 -47.52 
L 453.621843 -47.52 
L 455.91202 -47.52 
L 458.202197 -47.52 
L 460.492374 -47.52 
L 462.782551 -47.52 
L 465.072729 -47.52 
L 467.362906 -47.52 
L 469.653083 -47.52 
L 471.94326 -47.52 
L 474.233437 -47.52 
L 476.523614 -47.52 
L 478.813791 -47.52 
L 481.103969 -47.52 
L 483.394146 -47.52 
L 485.684323 -47.52 
L 487.9745 -47.52 
L 490.264677 -47.52 
L 492.554854 -47.52 
L 494.845031 -47.52 
L 497.135209 -47.52 
L 499.425386 -47.52 
L 501.715563 -47.52 
L 504.00574 -47.52 
L 506.295917 -47.52 
L 508.586094 -47.52 
L 510.876272 -47.52 
L 513.166449 -47.52 
L 515.456626 -47.52 
L 517.746803 -47.52 
L 520.03698 -47.52 
L 522.327157 -47.52 
L 524.617334 -47.52 
L 526.907512 -47.52 
L 529.197689 -47.52 
L 531.487866 -47.52 
L 533.778043 -47.52 
L 536.06822 -47.52 
L 538.358397 -47.52 
L 540.648574 -47.52 
L 542.938752 -47.52 
L 545.228929 -47.52 
L 547.519106 -47.52 
L 549.809283 -47.52 
L 552.09946 -47.52 
L 554.389637 -47.52 
L 556.679815 -47.52 
L 558.969992 -47.52 
L 561.260169 -47.52 
L 563.550346 -47.52 
L 565.840523 -47.52 
L 568.1307 -47.52 
L 570.420877 -47.52 
L 572.711055 -47.52 
L 575.001232 -47.52 
L 577.291409 -47.52 
L 579.581586 -47.52 
L 581.871763 -47.52 
L 581.871763 -47.553698 
L 581.871763 -47.553698 
L 579.581586 -47.569419 
L 577.291409 -47.59158 
L 575.001232 -47.622415 
L 572.711055 -47.664764 
L 570.420877 -47.722186 
L 568.1307 -47.79906 
L 565.840523 -47.90069 
L 563.550346 -48.033385 
L 561.260169 -48.204521 
L 558.969992 -48.422567 
L 556.679815 -48.697064 
L 554.389637 -49.038551 
L 552.09946 -49.458425 
L 549.809283 -49.968735 
L 547.519106 -50.581899 
L 545.228929 -51.310353 
L 542.938752 -52.166135 
L 540.648574 -53.160411 
L 538.358397 -54.302968 
L 536.06822 -55.601695 
L 533.778043 -57.062077 
L 531.487866 -58.68674 
L 529.197689 -60.47508 
L 526.907512 -62.423012 
L 524.617334 -64.522871 
L 522.327157 -66.763482 
L 520.03698 -69.130429 
L 517.746803 -71.606494 
L 515.456626 -74.172276 
L 513.166449 -76.806933 
L 510.876272 -79.488996 
L 508.586094 -82.197212 
L 506.295917 -84.911316 
L 504.00574 -87.612695 
L 501.715563 -90.284875 
L 499.425386 -92.913796 
L 497.135209 -95.487879 
L 494.845031 -97.997875 
L 492.554854 -100.436574 
L 490.264677 -102.798395 
L 487.9745 -105.078969 
L 485.684323 -107.274751 
L 483.394146 -109.382767 
L 481.103969 -111.400496 
L 478.813791 -113.325953 
L 476.523614 -115.157934 
L 474.233437 -116.89641 
L 471.94326 -118.54302 
L 469.653083 -120.101591 
L 467.362906 -121.578629 
L 465.072729 -122.983712 
L 462.782551 -124.329738 
L 460.492374 -125.632983 
L 458.202197 -126.912951 
L 455.91202 -128.192015 
L 453.621843 -129.494847 
L 451.331666 -130.847666 
L 449.041488 -132.277334 
L 446.751311 -133.810349 
L 444.461134 -135.471777 
L 442.170957 -137.284185 
L 439.88078 -139.266639 
L 437.590603 -141.433828 
L 435.300426 -143.79537 
L 433.010248 -146.355357 
L 430.720071 -149.112184 
L 428.429894 -152.058669 
L 426.139717 -155.182478 
L 423.84954 -158.466832 
L 421.559363 -161.891442 
L 419.269186 -165.43362 
L 416.979008 -169.069485 
L 414.688831 -172.775168 
L 412.398654 -176.527932 
L 410.108477 -180.307124 
L 407.8183 -184.09489 
L 405.528123 -187.876597 
L 403.237945 -191.640945 
L 400.947768 -195.37977 
L 398.657591 -199.087577 
L 396.367414 -202.760855 
L 394.077237 -206.397261 
L 391.78706 -209.994774 
L 389.496883 -213.550909 
L 387.206705 -217.062087 
L 384.916528 -220.52324 
L 382.626351 -223.927695 
L 380.336174 -227.267356 
L 378.045997 -230.533169 
L 375.75582 -233.715821 
L 373.465643 -236.806593 
L 371.175465 -239.798289 
L 368.885288 -242.68613 
L 366.595111 -245.46854 
L 364.304934 -248.147729 
L 362.014757 -250.730049 
L 359.72458 -253.226076 
L 357.434402 -255.650428 
L 355.144225 -258.021353 
L 352.854048 -260.360121 
L 350.563871 -262.690268 
L 348.273694 -265.036762 
L 345.983517 -267.425112 
L 343.69334 -269.880485 
L 341.403162 -272.426827 
L 339.112985 -275.086029 
L 336.822808 -277.877115 
L 334.532631 -280.815473 
L 332.242454 -283.912139 
L 329.952277 -287.173126 
L 327.6621 -290.598864 
L 325.371922 -294.18377 
L 323.081745 -297.916024 
L 320.791568 -301.777613 
L 318.501391 -305.744699 
L 316.211214 -309.788358 
L 313.921037 -313.875696 
L 311.630859 -317.971307 
L 309.340682 -322.038981 
L 307.050505 -326.043523 
L 304.760328 -329.952497 
L 302.470151 -333.737701 
L 300.179974 -337.376137 
L 297.889797 -340.850338 
L 295.599619 -344.147899 
L 293.309442 -347.260212 
L 291.019265 -350.180453 
L 288.729088 -352.900997 
L 286.438911 -355.410529 
L 284.148734 -357.691147 
L 281.858557 -359.715832 
L 279.568379 -361.446593 
L 277.278202 -362.833566 
L 274.988025 -363.815258 
L 272.697848 -364.32 
L 270.407671 -364.268556 
L 268.117494 -363.577733 
L 265.827316 -362.164725 
L 263.537139 -359.95186 
L 261.246962 -356.871394 
L 258.956785 -352.86999 
L 256.666608 -347.912542 
L 254.376431 -341.985088 
L 252.086254 -335.096585 
L 249.796076 -327.279459 
L 247.505899 -318.588888 
L 245.215722 -309.100889 
L 242.925545 -298.909347 
L 240.635368 -288.122211 
L 238.345191 -276.857105 
L 236.055013 -265.236679 
L 233.764836 -253.383986 
L 231.474659 -241.418203 
L 229.184482 -229.450949 
L 226.894305 -217.583398 
L 224.604128 -205.90432 
L 222.313951 -194.489086 
L 220.023773 -183.399588 
L 217.733596 -172.684962 
L 215.443419 -162.382911 
L 213.153242 -152.521428 
L 210.863065 -143.120671 
L 208.572888 -134.194782 
L 206.282711 -125.753473 
L 203.992533 -117.80325 
L 201.702356 -110.348222 
L 199.412179 -103.39049 
L 197.122002 -96.930167 
L 194.831825 -90.965142 
L 192.541648 -85.490674 
L 190.25147 -80.498959 
L 187.961293 -75.97876 
L 185.671116 -71.915196 
L 183.380939 -68.289726 
L 181.090762 -65.080352 
L 178.800585 -62.262029 
L 176.510408 -59.807244 
L 174.22023 -57.686707 
L 171.930053 -55.870103 
L 169.639876 -54.326837 
L 167.349699 -53.026736 
L 165.059522 -51.940662 
L 162.769345 -51.041004 
L 160.479168 -50.302059 
L 158.18899 -49.700283 
L 155.898813 -49.214429 
L 153.608636 -48.825591 
L 151.318459 -48.517161 
L 149.028282 -48.274731 
L 146.738105 -48.085949 
L 144.447927 -47.940345 
L 142.15775 -47.829144 
L 139.867573 -47.745073 
L 137.577396 -47.682173 
L 135.287219 -47.635614 
L 132.997042 -47.601528 
L 130.706865 -47.576853 
L 128.416687 -47.559197 
L 126.12651 -47.546713 
z
" style="stroke: #ff0000"/>
    </defs>
    <g clip-path="url(#p33719a284d)">
     <use xlink:href="#mad686ad3e0" x="0" y="432" style="fill: #ff0000; fill-opacity: 0.5; stroke: #ff0000"/>
    </g>
   </g>
   <g id="matplotlib.axis_1">
    <g id="xtick_1">
     <g id="line2d_1">
      <path d="M 144.787096 384.48 
L 144.787096 51.84 
" clip-path="url(#p33719a284d)" style="fill: none; stroke: #b0b0b0; stroke-opacity: 0.3; stroke-width: 0.8; stroke-linecap: square"/>
     </g>
     <g id="line2d_2">
      <defs>
       <path id="m7e975c9b4c" d="M 0 0 
L 0 3.5 
" style="stroke: #000000; stroke-width: 0.8"/>
      </defs>
      <g>
       <use xlink:href="#m7e975c9b4c" x="144.787096" y="384.48" style="stroke: #000000; stroke-width: 0.8"/>
      </g>
     </g>
     <g id="text_1">
      <text style="font: 10px 'DejaVu Sans', 'Bitstream Vera Sans', 'Computer Modern Sans Serif', 'Lucida Grande', 'Verdana', 'Geneva', 'Lucid', 'Arial', 'Helvetica', 'Avant Garde', sans-serif; text-anchor: middle" x="144.787096" y="399.078438" transform="rotate(-0 144.787096 399.078438)">0.38</text>
     </g>
    </g>
    <g id="xtick_2">
     <g id="line2d_3">
      <path d="M 209.632349 384.48 
L 209.632349 51.84 
" clip-path="url(#p33719a284d)" style="fill: none; stroke: #b0b0b0; stroke-opacity: 0.3; stroke-width: 0.8; stroke-linecap: square"/>
     </g>
     <g id="line2d_4">
      <g>
       <use xlink:href="#m7e975c9b4c" x="209.632349" y="384.48" style="stroke: #000000; stroke-width: 0.8"/>
      </g>
     </g>
     <g id="text_2">
      <text style="font: 10px 'DejaVu Sans', 'Bitstream Vera Sans', 'Computer Modern Sans Serif', 'Lucida Grande', 'Verdana', 'Geneva', 'Lucid', 'Arial', 'Helvetica', 'Avant Garde', sans-serif; text-anchor: middle" x="209.632349" y="399.078438" transform="rotate(-0 209.632349 399.078438)">0.40</text>
     </g>
    </g>
    <g id="xtick_3">
     <g id="line2d_5">
      <path d="M 274.477603 384.48 
L 274.477603 51.84 
" clip-path="url(#p33719a284d)" style="fill: none; stroke: #b0b0b0; stroke-opacity: 0.3; stroke-width: 0.8; stroke-linecap: square"/>
     </g>
     <g id="line2d_6">
      <g>
       <use xlink:href="#m7e975c9b4c" x="274.477603" y="384.48" style="stroke: #000000; stroke-width: 0.8"/>
      </g>
     </g>
     <g id="text_3">
      <text style="font: 10px 'DejaVu Sans', 'Bitstream Vera Sans', 'Computer Modern Sans Serif', 'Lucida Grande', 'Verdana', 'Geneva', 'Lucid', 'Arial', 'Helvetica', 'Avant Garde', sans-serif; text-anchor: middle" x="274.477603" y="399.078438" transform="rotate(-0 274.477603 399.078438)">0.42</text>
     </g>
    </g>
    <g id="xtick_4">
     <g id="line2d_7">
      <path d="M 339.322856 384.48 
L 339.322856 51.84 
" clip-path="url(#p33719a284d)" style="fill: none; stroke: #b0b0b0; stroke-opacity: 0.3; stroke-width: 0.8; stroke-linecap: square"/>
     </g>
     <g id="line2d_8">
      <g>
       <use xlink:href="#m7e975c9b4c" x="339.322856" y="384.48" style="stroke: #000000; stroke-width: 0.8"/>
      </g>
     </g>
     <g id="text_4">
      <text style="font: 10px 'DejaVu Sans', 'Bitstream Vera Sans', 'Computer Modern Sans Serif', 'Lucida Grande', 'Verdana', 'Geneva', 'Lucid', 'Arial', 'Helvetica', 'Avant Garde', sans-serif; text-anchor: middle" x="339.322856" y="399.078438" transform="rotate(-0 339.322856 399.078438)">0.44</text>
     </g>
    </g>
    <g id="xtick_5">
     <g id="line2d_9">
      <path d="M 404.16811 384.48 
L 404.16811 51.84 
" clip-path="url(#p33719a284d)" style="fill: none; stroke: #b0b0b0; stroke-opacity: 0.3; stroke-width: 0.8; stroke-linecap: square"/>
     </g>
     <g id="line2d_10">
      <g>
       <use xlink:href="#m7e975c9b4c" x="404.16811" y="384.48" style="stroke: #000000; stroke-width: 0.8"/>
      </g>
     </g>
     <g id="text_5">
      <text style="font: 10px 'DejaVu Sans', 'Bitstream Vera Sans', 'Computer Modern Sans Serif', 'Lucida Grande', 'Verdana', 'Geneva', 'Lucid', 'Arial', 'Helvetica', 'Avant Garde', sans-serif; text-anchor: middle" x="404.16811" y="399.078438" transform="rotate(-0 404.16811 399.078438)">0.46</text>
     </g>
    </g>
    <g id="xtick_6">
     <g id="line2d_11">
      <path d="M 469.013364 384.48 
L 469.013364 51.84 
" clip-path="url(#p33719a284d)" style="fill: none; stroke: #b0b0b0; stroke-opacity: 0.3; stroke-width: 0.8; stroke-linecap: square"/>
     </g>
     <g id="line2d_12">
      <g>
       <use xlink:href="#m7e975c9b4c" x="469.013364" y="384.48" style="stroke: #000000; stroke-width: 0.8"/>
      </g>
     </g>
     <g id="text_6">
      <text style="font: 10px 'DejaVu Sans', 'Bitstream Vera Sans', 'Computer Modern Sans Serif', 'Lucida Grande', 'Verdana', 'Geneva', 'Lucid', 'Arial', 'Helvetica', 'Avant Garde', sans-serif; text-anchor: middle" x="469.013364" y="399.078438" transform="rotate(-0 469.013364 399.078438)">0.48</text>
     </g>
    </g>
    <g id="xtick_7">
     <g id="line2d_13">
      <path d="M 533.858617 384.48 
L 533.858617 51.84 
" clip-path="url(#p33719a284d)" style="fill: none; stroke: #b0b0b0; stroke-opacity: 0.3; stroke-width: 0.8; stroke-linecap: square"/>
     </g>
     <g id="line2d_14">
      <g>
       <use xlink:href="#m7e975c9b4c" x="533.858617" y="384.48" style="stroke: #000000; stroke-width: 0.8"/>
      </g>
     </g>
     <g id="text_7">
      <text style="font: 10px 'DejaVu Sans', 'Bitstream Vera Sans', 'Computer Modern Sans Serif', 'Lucida Grande', 'Verdana', 'Geneva', 'Lucid', 'Arial', 'Helvetica', 'Avant Garde', sans-serif; text-anchor: middle" x="533.858617" y="399.078438" transform="rotate(-0 533.858617 399.078438)">0.50</text>
     </g>
    </g>
    <g id="xtick_8">
     <g id="line2d_15">
      <path d="M 598.703871 384.48 
L 598.703871 51.84 
" clip-path="url(#p33719a284d)" style="fill: none; stroke: #b0b0b0; stroke-opacity: 0.3; stroke-width: 0.8; stroke-linecap: square"/>
     </g>
     <g id="line2d_16">
      <g>
       <use xlink:href="#m7e975c9b4c" x="598.703871" y="384.48" style="stroke: #000000; stroke-width: 0.8"/>
      </g>
     </g>
     <g id="text_8">
      <text style="font: 10px 'DejaVu Sans', 'Bitstream Vera Sans', 'Computer Modern Sans Serif', 'Lucida Grande', 'Verdana', 'Geneva', 'Lucid', 'Arial', 'Helvetica', 'Avant Garde', sans-serif; text-anchor: middle" x="598.703871" y="399.078438" transform="rotate(-0 598.703871 399.078438)">0.52</text>
     </g>
    </g>
    <g id="text_9">
     <text style="font: 10px 'DejaVu Sans', 'Bitstream Vera Sans', 'Computer Modern Sans Serif', 'Lucida Grande', 'Verdana', 'Geneva', 'Lucid', 'Arial', 'Helvetica', 'Avant Garde', sans-serif; text-anchor: middle" x="369" y="412.756563" transform="rotate(-0 369 412.756563)">score</text>
    </g>
   </g>
   <g id="matplotlib.axis_2">
    <g id="ytick_1">
     <g id="line2d_17">
      <path d="M 90 384.48 
L 648 384.48 
" clip-path="url(#p33719a284d)" style="fill: none; stroke: #b0b0b0; stroke-opacity: 0.3; stroke-width: 0.8; stroke-linecap: square"/>
     </g>
     <g id="line2d_18">
      <defs>
       <path id="m0728583976" d="M 0 0 
L -3.5 0 
" style="stroke: #000000; stroke-width: 0.8"/>
      </defs>
      <g>
       <use xlink:href="#m0728583976" x="90" y="384.48" style="stroke: #000000; stroke-width: 0.8"/>
      </g>
     </g>
     <g id="text_10">
      <text style="font: 10px 'DejaVu Sans', 'Bitstream Vera Sans', 'Computer Modern Sans Serif', 'Lucida Grande', 'Verdana', 'Geneva', 'Lucid', 'Arial', 'Helvetica', 'Avant Garde', sans-serif; text-anchor: end" x="83" y="388.279219" transform="rotate(-0 83 388.279219)">0.0</text>
     </g>
    </g>
    <g id="ytick_2">
     <g id="line2d_19">
      <path d="M 90 341.25429 
L 648 341.25429 
" clip-path="url(#p33719a284d)" style="fill: none; stroke: #b0b0b0; stroke-opacity: 0.3; stroke-width: 0.8; stroke-linecap: square"/>
     </g>
     <g id="line2d_20">
      <g>
       <use xlink:href="#m0728583976" x="90" y="341.25429" style="stroke: #000000; stroke-width: 0.8"/>
      </g>
     </g>
     <g id="text_11">
      <text style="font: 10px 'DejaVu Sans', 'Bitstream Vera Sans', 'Computer Modern Sans Serif', 'Lucida Grande', 'Verdana', 'Geneva', 'Lucid', 'Arial', 'Helvetica', 'Avant Garde', sans-serif; text-anchor: end" x="83" y="345.053509" transform="rotate(-0 83 345.053509)">2.5</text>
     </g>
    </g>
    <g id="ytick_3">
     <g id="line2d_21">
      <path d="M 90 298.02858 
L 648 298.02858 
" clip-path="url(#p33719a284d)" style="fill: none; stroke: #b0b0b0; stroke-opacity: 0.3; stroke-width: 0.8; stroke-linecap: square"/>
     </g>
     <g id="line2d_22">
      <g>
       <use xlink:href="#m0728583976" x="90" y="298.02858" style="stroke: #000000; stroke-width: 0.8"/>
      </g>
     </g>
     <g id="text_12">
      <text style="font: 10px 'DejaVu Sans', 'Bitstream Vera Sans', 'Computer Modern Sans Serif', 'Lucida Grande', 'Verdana', 'Geneva', 'Lucid', 'Arial', 'Helvetica', 'Avant Garde', sans-serif; text-anchor: end" x="83" y="301.827799" transform="rotate(-0 83 301.827799)">5.0</text>
     </g>
    </g>
    <g id="ytick_4">
     <g id="line2d_23">
      <path d="M 90 254.80287 
L 648 254.80287 
" clip-path="url(#p33719a284d)" style="fill: none; stroke: #b0b0b0; stroke-opacity: 0.3; stroke-width: 0.8; stroke-linecap: square"/>
     </g>
     <g id="line2d_24">
      <g>
       <use xlink:href="#m0728583976" x="90" y="254.80287" style="stroke: #000000; stroke-width: 0.8"/>
      </g>
     </g>
     <g id="text_13">
      <text style="font: 10px 'DejaVu Sans', 'Bitstream Vera Sans', 'Computer Modern Sans Serif', 'Lucida Grande', 'Verdana', 'Geneva', 'Lucid', 'Arial', 'Helvetica', 'Avant Garde', sans-serif; text-anchor: end" x="83" y="258.602089" transform="rotate(-0 83 258.602089)">7.5</text>
     </g>
    </g>
    <g id="ytick_5">
     <g id="line2d_25">
      <path d="M 90 211.57716 
L 648 211.57716 
" clip-path="url(#p33719a284d)" style="fill: none; stroke: #b0b0b0; stroke-opacity: 0.3; stroke-width: 0.8; stroke-linecap: square"/>
     </g>
     <g id="line2d_26">
      <g>
       <use xlink:href="#m0728583976" x="90" y="211.57716" style="stroke: #000000; stroke-width: 0.8"/>
      </g>
     </g>
     <g id="text_14">
      <text style="font: 10px 'DejaVu Sans', 'Bitstream Vera Sans', 'Computer Modern Sans Serif', 'Lucida Grande', 'Verdana', 'Geneva', 'Lucid', 'Arial', 'Helvetica', 'Avant Garde', sans-serif; text-anchor: end" x="83" y="215.376378" transform="rotate(-0 83 215.376378)">10.0</text>
     </g>
    </g>
    <g id="ytick_6">
     <g id="line2d_27">
      <path d="M 90 168.35145 
L 648 168.35145 
" clip-path="url(#p33719a284d)" style="fill: none; stroke: #b0b0b0; stroke-opacity: 0.3; stroke-width: 0.8; stroke-linecap: square"/>
     </g>
     <g id="line2d_28">
      <g>
       <use xlink:href="#m0728583976" x="90" y="168.35145" style="stroke: #000000; stroke-width: 0.8"/>
      </g>
     </g>
     <g id="text_15">
      <text style="font: 10px 'DejaVu Sans', 'Bitstream Vera Sans', 'Computer Modern Sans Serif', 'Lucida Grande', 'Verdana', 'Geneva', 'Lucid', 'Arial', 'Helvetica', 'Avant Garde', sans-serif; text-anchor: end" x="83" y="172.150668" transform="rotate(-0 83 172.150668)">12.5</text>
     </g>
    </g>
    <g id="ytick_7">
     <g id="line2d_29">
      <path d="M 90 125.12574 
L 648 125.12574 
" clip-path="url(#p33719a284d)" style="fill: none; stroke: #b0b0b0; stroke-opacity: 0.3; stroke-width: 0.8; stroke-linecap: square"/>
     </g>
     <g id="line2d_30">
      <g>
       <use xlink:href="#m0728583976" x="90" y="125.12574" style="stroke: #000000; stroke-width: 0.8"/>
      </g>
     </g>
     <g id="text_16">
      <text style="font: 10px 'DejaVu Sans', 'Bitstream Vera Sans', 'Computer Modern Sans Serif', 'Lucida Grande', 'Verdana', 'Geneva', 'Lucid', 'Arial', 'Helvetica', 'Avant Garde', sans-serif; text-anchor: end" x="83" y="128.924958" transform="rotate(-0 83 128.924958)">15.0</text>
     </g>
    </g>
    <g id="ytick_8">
     <g id="line2d_31">
      <path d="M 90 81.900029 
L 648 81.900029 
" clip-path="url(#p33719a284d)" style="fill: none; stroke: #b0b0b0; stroke-opacity: 0.3; stroke-width: 0.8; stroke-linecap: square"/>
     </g>
     <g id="line2d_32">
      <g>
       <use xlink:href="#m0728583976" x="90" y="81.900029" style="stroke: #000000; stroke-width: 0.8"/>
      </g>
     </g>
     <g id="text_17">
      <text style="font: 10px 'DejaVu Sans', 'Bitstream Vera Sans', 'Computer Modern Sans Serif', 'Lucida Grande', 'Verdana', 'Geneva', 'Lucid', 'Arial', 'Helvetica', 'Avant Garde', sans-serif; text-anchor: end" x="83" y="85.699248" transform="rotate(-0 83 85.699248)">17.5</text>
     </g>
    </g>
    <g id="text_18">
     <text style="font: 10px 'DejaVu Sans', 'Bitstream Vera Sans', 'Computer Modern Sans Serif', 'Lucida Grande', 'Verdana', 'Geneva', 'Lucid', 'Arial', 'Helvetica', 'Avant Garde', sans-serif; text-anchor: middle" x="54.654687" y="218.16" transform="rotate(-90 54.654687 218.16)">density</text>
    </g>
   </g>
   <g id="patch_3">
    <path d="M 90 384.48 
L 90 51.84 
" style="fill: none; stroke: #000000; stroke-width: 0.8; stroke-linejoin: miter; stroke-linecap: square"/>
   </g>
   <g id="patch_4">
    <path d="M 648 384.48 
L 648 51.84 
" style="fill: none; stroke: #000000; stroke-width: 0.8; stroke-linejoin: miter; stroke-linecap: square"/>
   </g>
   <g id="patch_5">
    <path d="M 90 384.48 
L 648 384.48 
" style="fill: none; stroke: #000000; stroke-width: 0.8; stroke-linejoin: miter; stroke-linecap: square"/>
   </g>
   <g id="patch_6">
    <path d="M 90 51.84 
L 648 51.84 
" style="fill: none; stroke: #000000; stroke-width: 0.8; stroke-linejoin: miter; stroke-linecap: square"/>
   </g>
   <g id="text_19">
    <text style="font: 12px 'DejaVu Sans', 'Bitstream Vera Sans', 'Computer Modern Sans Serif', 'Lucida Grande', 'Verdana', 'Geneva', 'Lucid', 'Arial', 'Helvetica', 'Avant Garde', sans-serif; text-anchor: middle" x="369" y="45.84" transform="rotate(-0 369 45.84)">EPACT_KDE</text>
   </g>
   <g id="legend_1">
    <g id="patch_7">
     <path d="M 565.2625 89.19625 
L 641 89.19625 
Q 643 89.19625 643 87.19625 
L 643 58.84 
Q 643 56.84 641 56.84 
L 565.2625 56.84 
Q 563.2625 56.84 563.2625 58.84 
L 563.2625 87.19625 
Q 563.2625 89.19625 565.2625 89.19625 
z
" style="fill: #ffffff; opacity: 0.8; stroke: #cccccc; stroke-linejoin: miter"/>
    </g>
    <g id="patch_8">
     <path d="M 567.2625 68.438437 
L 587.2625 68.438437 
L 587.2625 61.438437 
L 567.2625 61.438437 
z
" style="fill: #0000ff; fill-opacity: 0.5; stroke: #0000ff; stroke-linejoin: miter"/>
    </g>
    <g id="text_20">
     <text style="font: 10px 'DejaVu Sans', 'Bitstream Vera Sans', 'Computer Modern Sans Serif', 'Lucida Grande', 'Verdana', 'Geneva', 'Lucid', 'Arial', 'Helvetica', 'Avant Garde', sans-serif; text-anchor: start" x="595.2625" y="68.438437" transform="rotate(-0 595.2625 68.438437)">positive</text>
    </g>
    <g id="patch_9">
     <path d="M 567.2625 83.116562 
L 587.2625 83.116562 
L 587.2625 76.116562 
L 567.2625 76.116562 
z
" style="fill: #ff0000; fill-opacity: 0.5; stroke: #ff0000; stroke-linejoin: miter"/>
    </g>
    <g id="text_21">
     <text style="font: 10px 'DejaVu Sans', 'Bitstream Vera Sans', 'Computer Modern Sans Serif', 'Lucida Grande', 'Verdana', 'Geneva', 'Lucid', 'Arial', 'Helvetica', 'Avant Garde', sans-serif; text-anchor: start" x="595.2625" y="83.116562" transform="rotate(-0 595.2625 83.116562)">negative</text>
    </g>
   </g>
  </g>
 </g>
 <defs>
  <clipPath id="p33719a284d">
   <rect x="90" y="51.84" width="558" height="332.64"/>
  </clipPath>
 </defs>
</svg>
