<?xml version="1.0" encoding="utf-8" standalone="no"?>
<!DOCTYPE svg PUBLIC "-//W3C//DTD SVG 1.1//EN"
  "http://www.w3.org/Graphics/SVG/1.1/DTD/svg11.dtd">
<svg xmlns:xlink="http://www.w3.org/1999/xlink" width="720pt" height="432pt" viewBox="0 0 720 432" xmlns="http://www.w3.org/2000/svg" version="1.1">
 <metadata>
  <rdf:RDF xmlns:dc="http://purl.org/dc/elements/1.1/" xmlns:cc="http://creativecommons.org/ns#" xmlns:rdf="http://www.w3.org/1999/02/22-rdf-syntax-ns#">
   <cc:Work>
    <dc:type rdf:resource="http://purl.org/dc/dcmitype/StillImage"/>
    <dc:date>2025-11-13T08:35:01.424946</dc:date>
    <dc:format>image/svg+xml</dc:format>
    <dc:creator>
     <cc:Agent>
      <dc:title>Matplotlib v3.9.4, https://matplotlib.org/</dc:title>
     </cc:Agent>
    </dc:creator>
   </cc:Work>
  </rdf:RDF>
 </metadata>
 <defs>
  <style type="text/css">*{stroke-linejoin: round; stroke-linecap: butt}</style>
 </defs>
 <g id="figure_1">
  <g id="patch_1">
   <path d="M 0 432 
L 720 432 
L 720 0 
L 0 0 
z
" style="fill: #ffffff"/>
  </g>
  <g id="axes_1">
   <g id="patch_2">
    <path d="M 90 384.48 
L 648 384.48 
L 648 51.84 
L 90 51.84 
z
" style="fill: #ffffff"/>
   </g>
   <g id="PolyCollection_1">
    <defs>
     <path id="maf6e4efec0" d="M 115.363636 -47.73277 
L 115.363636 -47.52 
L 117.912746 -47.52 
L 120.461855 -47.52 
L 123.010964 -47.52 
L 125.560073 -47.52 
L 128.109182 -47.52 
L 130.658291 -47.52 
L 133.207401 -47.52 
L 135.75651 -47.52 
L 138.305619 -47.52 
L 140.854728 -47.52 
L 143.403837 -47.52 
L 145.952947 -47.52 
L 148.502056 -47.52 
L 151.051165 -47.52 
L 153.600274 -47.52 
L 156.149383 -47.52 
L 158.698492 -47.52 
L 161.247602 -47.52 
L 163.796711 -47.52 
L 166.34582 -47.52 
L 168.894929 -47.52 
L 171.444038 -47.52 
L 173.993148 -47.52 
L 176.542257 -47.52 
L 179.091366 -47.52 
L 181.640475 -47.52 
L 184.189584 -47.52 
L 186.738693 -47.52 
L 189.287803 -47.52 
L 191.836912 -47.52 
L 194.386021 -47.52 
L 196.93513 -47.52 
L 199.484239 -47.52 
L 202.033349 -47.52 
L 204.582458 -47.52 
L 207.131567 -47.52 
L 209.680676 -47.52 
L 212.229785 -47.52 
L 214.778894 -47.52 
L 217.328004 -47.52 
L 219.877113 -47.52 
L 222.426222 -47.52 
L 224.975331 -47.52 
L 227.52444 -47.52 
L 230.07355 -47.52 
L 232.622659 -47.52 
L 235.171768 -47.52 
L 237.720877 -47.52 
L 240.269986 -47.52 
L 242.819095 -47.52 
L 245.368205 -47.52 
L 247.917314 -47.52 
L 250.466423 -47.52 
L 253.015532 -47.52 
L 255.564641 -47.52 
L 258.113751 -47.52 
L 260.66286 -47.52 
L 263.211969 -47.52 
L 265.761078 -47.52 
L 268.310187 -47.52 
L 270.859296 -47.52 
L 273.408406 -47.52 
L 275.957515 -47.52 
L 278.506624 -47.52 
L 281.055733 -47.52 
L 283.604842 -47.52 
L 286.153952 -47.52 
L 288.703061 -47.52 
L 291.25217 -47.52 
L 293.801279 -47.52 
L 296.350388 -47.52 
L 298.899497 -47.52 
L 301.448607 -47.52 
L 303.997716 -47.52 
L 306.546825 -47.52 
L 309.095934 -47.52 
L 311.645043 -47.52 
L 314.194153 -47.52 
L 316.743262 -47.52 
L 319.292371 -47.52 
L 321.84148 -47.52 
L 324.390589 -47.52 
L 326.939698 -47.52 
L 329.488808 -47.52 
L 332.037917 -47.52 
L 334.587026 -47.52 
L 337.136135 -47.52 
L 339.685244 -47.52 
L 342.234354 -47.52 
L 344.783463 -47.52 
L 347.332572 -47.52 
L 349.881681 -47.52 
L 352.43079 -47.52 
L 354.979899 -47.52 
L 357.529009 -47.52 
L 360.078118 -47.52 
L 362.627227 -47.52 
L 365.176336 -47.52 
L 367.725445 -47.52 
L 370.274555 -47.52 
L 372.823664 -47.52 
L 375.372773 -47.52 
L 377.921882 -47.52 
L 380.470991 -47.52 
L 383.020101 -47.52 
L 385.56921 -47.52 
L 388.118319 -47.52 
L 390.667428 -47.52 
L 393.216537 -47.52 
L 395.765646 -47.52 
L 398.314756 -47.52 
L 400.863865 -47.52 
L 403.412974 -47.52 
L 405.962083 -47.52 
L 408.511192 -47.52 
L 411.060302 -47.52 
L 413.609411 -47.52 
L 416.15852 -47.52 
L 418.707629 -47.52 
L 421.256738 -47.52 
L 423.805847 -47.52 
L 426.354957 -47.52 
L 428.904066 -47.52 
L 431.453175 -47.52 
L 434.002284 -47.52 
L 436.551393 -47.52 
L 439.100503 -47.52 
L 441.649612 -47.52 
L 444.198721 -47.52 
L 446.74783 -47.52 
L 449.296939 -47.52 
L 451.846048 -47.52 
L 454.395158 -47.52 
L 456.944267 -47.52 
L 459.493376 -47.52 
L 462.042485 -47.52 
L 464.591594 -47.52 
L 467.140704 -47.52 
L 469.689813 -47.52 
L 472.238922 -47.52 
L 474.788031 -47.52 
L 477.33714 -47.52 
L 479.886249 -47.52 
L 482.435359 -47.52 
L 484.984468 -47.52 
L 487.533577 -47.52 
L 490.082686 -47.52 
L 492.631795 -47.52 
L 495.180905 -47.52 
L 497.730014 -47.52 
L 500.279123 -47.52 
L 502.828232 -47.52 
L 505.377341 -47.52 
L 507.92645 -47.52 
L 510.47556 -47.52 
L 513.024669 -47.52 
L 515.573778 -47.52 
L 518.122887 -47.52 
L 520.671996 -47.52 
L 523.221106 -47.52 
L 525.770215 -47.52 
L 528.319324 -47.52 
L 530.868433 -47.52 
L 533.417542 -47.52 
L 535.966651 -47.52 
L 538.515761 -47.52 
L 541.06487 -47.52 
L 543.613979 -47.52 
L 546.163088 -47.52 
L 548.712197 -47.52 
L 551.261307 -47.52 
L 553.810416 -47.52 
L 556.359525 -47.52 
L 558.908634 -47.52 
L 561.457743 -47.52 
L 564.006852 -47.52 
L 566.555962 -47.52 
L 569.105071 -47.52 
L 571.65418 -47.52 
L 574.203289 -47.52 
L 576.752398 -47.52 
L 579.301508 -47.52 
L 581.850617 -47.52 
L 584.399726 -47.52 
L 586.948835 -47.52 
L 589.497944 -47.52 
L 592.047053 -47.52 
L 594.596163 -47.52 
L 597.145272 -47.52 
L 599.694381 -47.52 
L 602.24349 -47.52 
L 604.792599 -47.52 
L 607.341709 -47.52 
L 609.890818 -47.52 
L 612.439927 -47.52 
L 614.989036 -47.52 
L 617.538145 -47.52 
L 620.087254 -47.52 
L 622.636364 -47.52 
L 622.636364 -47.576389 
L 622.636364 -47.576389 
L 620.087254 -47.594309 
L 617.538145 -47.617236 
L 614.989036 -47.64635 
L 612.439927 -47.683036 
L 609.890818 -47.728915 
L 607.341709 -47.785853 
L 604.792599 -47.855976 
L 602.24349 -47.941682 
L 599.694381 -48.045633 
L 597.145272 -48.170752 
L 594.596163 -48.320198 
L 592.047053 -48.497338 
L 589.497944 -48.7057 
L 586.948835 -48.948912 
L 584.399726 -49.230634 
L 581.850617 -49.554473 
L 579.301508 -49.923883 
L 576.752398 -50.34207 
L 574.203289 -50.811879 
L 571.65418 -51.335687 
L 569.105071 -51.915302 
L 566.555962 -52.551871 
L 564.006852 -53.2458 
L 561.457743 -53.996698 
L 558.908634 -54.803348 
L 556.359525 -55.663707 
L 553.810416 -56.574928 
L 551.261307 -57.533431 
L 548.712197 -58.534989 
L 546.163088 -59.574849 
L 543.613979 -60.647874 
L 541.06487 -61.748702 
L 538.515761 -62.871906 
L 535.966651 -64.012154 
L 533.417542 -65.16436 
L 530.868433 -66.323804 
L 528.319324 -67.486226 
L 525.770215 -68.647885 
L 523.221106 -69.805568 
L 520.671996 -70.956566 
L 518.122887 -72.0986 
L 515.573778 -73.229718 
L 513.024669 -74.348164 
L 510.47556 -75.452233 
L 507.92645 -76.540121 
L 505.377341 -77.609792 
L 502.828232 -78.658873 
L 500.279123 -79.684583 
L 497.730014 -80.683723 
L 495.180905 -81.652711 
L 492.631795 -82.587695 
L 490.082686 -83.484705 
L 487.533577 -84.339875 
L 484.984468 -85.149697 
L 482.435359 -85.911301 
L 479.886249 -86.622742 
L 477.33714 -87.28328 
L 474.788031 -87.893619 
L 472.238922 -88.456099 
L 469.689813 -88.974823 
L 467.140704 -89.455695 
L 464.591594 -89.906383 
L 462.042485 -90.336189 
L 459.493376 -90.755831 
L 456.944267 -91.177155 
L 454.395158 -91.612789 
L 451.846048 -92.075746 
L 449.296939 -92.579006 
L 446.74783 -93.135094 
L 444.198721 -93.755663 
L 441.649612 -94.45112 
L 439.100503 -95.230282 
L 436.551393 -96.100091 
L 434.002284 -97.065387 
L 431.453175 -98.128741 
L 428.904066 -99.29035 
L 426.354957 -100.547993 
L 423.805847 -101.897036 
L 421.256738 -103.330492 
L 418.707629 -104.839134 
L 416.15852 -106.411642 
L 413.609411 -108.034813 
L 411.060302 -109.693809 
L 408.511192 -111.37246 
L 405.962083 -113.053618 
L 403.412974 -114.719578 
L 400.863865 -116.352548 
L 398.314756 -117.935174 
L 395.765646 -119.451123 
L 393.216537 -120.885694 
L 390.667428 -122.226458 
L 388.118319 -123.463893 
L 385.56921 -124.591996 
L 383.020101 -125.608843 
L 380.470991 -126.517059 
L 377.921882 -127.324176 
L 375.372773 -128.042846 
L 372.823664 -128.69089 
L 370.274555 -129.291157 
L 367.725445 -129.871193 
L 365.176336 -130.46271 
L 362.627227 -131.100879 
L 360.078118 -131.823443 
L 357.529009 -132.669701 
L 354.979899 -133.679386 
L 352.43079 -134.891482 
L 349.881681 -136.343028 
L 347.332572 -138.06795 
L 344.783463 -140.095978 
L 342.234354 -142.451683 
L 339.685244 -145.153674 
L 337.136135 -148.213981 
L 334.587026 -151.637656 
L 332.037917 -155.422591 
L 329.488808 -159.559553 
L 326.939698 -164.032447 
L 324.390589 -168.818758 
L 321.84148 -173.890173 
L 319.292371 -179.21334 
L 316.743262 -184.750725 
L 314.194153 -190.461534 
L 311.645043 -196.302656 
L 309.095934 -202.229598 
L 306.546825 -208.197361 
L 303.997716 -214.161242 
L 301.448607 -220.077533 
L 298.899497 -225.904087 
L 296.350388 -231.600761 
L 293.801279 -237.129708 
L 291.25217 -242.455534 
L 288.703061 -247.545322 
L 286.153952 -252.368546 
L 283.604842 -256.896875 
L 281.055733 -261.10391 
L 278.506624 -264.964867 
L 275.957515 -268.456239 
L 273.408406 -271.555459 
L 270.859296 -274.240602 
L 268.310187 -276.490139 
L 265.761078 -278.282782 
L 263.211969 -279.597423 
L 260.66286 -280.413199 
L 258.113751 -280.709678 
L 255.564641 -280.467179 
L 253.015532 -279.667224 
L 250.466423 -278.293104 
L 247.917314 -276.330542 
L 245.368205 -273.76844 
L 242.819095 -270.599668 
L 240.269986 -266.821859 
L 237.720877 -262.438178 
L 235.171768 -257.458021 
L 232.622659 -251.897592 
L 230.07355 -245.780338 
L 227.52444 -239.137191 
L 224.975331 -232.006592 
L 222.426222 -224.434287 
L 219.877113 -216.472874 
L 217.328004 -208.181111 
L 214.778894 -199.623001 
L 212.229785 -190.866664 
L 209.680676 -181.983061 
L 207.131567 -173.044581 
L 204.582458 -164.123575 
L 202.033349 -155.290858 
L 199.484239 -146.614272 
L 196.93513 -138.157329 
L 194.386021 -129.97801 
L 191.836912 -122.127743 
L 189.287803 -114.650601 
L 186.738693 -107.582744 
L 184.189584 -100.952106 
L 181.640475 -94.778329 
L 179.091366 -89.072938 
L 176.542257 -83.839728 
L 173.993148 -79.075335 
L 171.444038 -74.769961 
L 168.894929 -70.908204 
L 166.34582 -67.469969 
L 163.796711 -64.431407 
L 161.247602 -61.765855 
L 158.698492 -59.444736 
L 156.149383 -57.438404 
L 153.600274 -55.716906 
L 151.051165 -54.250642 
L 148.502056 -53.010925 
L 145.952947 -51.97043 
L 143.403837 -51.103534 
L 140.854728 -50.386557 
L 138.305619 -49.797907 
L 135.75651 -49.318148 
L 133.207401 -48.929993 
L 130.658291 -48.618245 
L 128.109182 -48.369691 
L 125.560073 -48.172968 
L 123.010964 -48.018405 
L 120.461855 -47.897852 
L 117.912746 -47.804512 
L 115.363636 -47.73277 
z
" style="stroke: #0000ff"/>
    </defs>
    <g clip-path="url(#p41f443c1f6)">
     <use xlink:href="#maf6e4efec0" x="0" y="432" style="fill: #0000ff; fill-opacity: 0.5; stroke: #0000ff"/>
    </g>
   </g>
   <g id="PolyCollection_2">
    <defs>
     <path id="mb5d65ce5b9" d="M 138.570469 -47.823691 
L 138.570469 -47.52 
L 140.801009 -47.52 
L 143.031549 -47.52 
L 145.262088 -47.52 
L 147.492628 -47.52 
L 149.723167 -47.52 
L 151.953707 -47.52 
L 154.184246 -47.52 
L 156.414786 -47.52 
L 158.645325 -47.52 
L 160.875865 -47.52 
L 163.106405 -47.52 
L 165.336944 -47.52 
L 167.567484 -47.52 
L 169.798023 -47.52 
L 172.028563 -47.52 
L 174.259102 -47.52 
L 176.489642 -47.52 
L 178.720181 -47.52 
L 180.950721 -47.52 
L 183.181261 -47.52 
L 185.4118 -47.52 
L 187.64234 -47.52 
L 189.872879 -47.52 
L 192.103419 -47.52 
L 194.333958 -47.52 
L 196.564498 -47.52 
L 198.795037 -47.52 
L 201.025577 -47.52 
L 203.256117 -47.52 
L 205.486656 -47.52 
L 207.717196 -47.52 
L 209.947735 -47.52 
L 212.178275 -47.52 
L 214.408814 -47.52 
L 216.639354 -47.52 
L 218.869893 -47.52 
L 221.100433 -47.52 
L 223.330973 -47.52 
L 225.561512 -47.52 
L 227.792052 -47.52 
L 230.022591 -47.52 
L 232.253131 -47.52 
L 234.48367 -47.52 
L 236.71421 -47.52 
L 238.944749 -47.52 
L 241.175289 -47.52 
L 243.405829 -47.52 
L 245.636368 -47.52 
L 247.866908 -47.52 
L 250.097447 -47.52 
L 252.327987 -47.52 
L 254.558526 -47.52 
L 256.789066 -47.52 
L 259.019605 -47.52 
L 261.250145 -47.52 
L 263.480685 -47.52 
L 265.711224 -47.52 
L 267.941764 -47.52 
L 270.172303 -47.52 
L 272.402843 -47.52 
L 274.633382 -47.52 
L 276.863922 -47.52 
L 279.094461 -47.52 
L 281.325001 -47.52 
L 283.555541 -47.52 
L 285.78608 -47.52 
L 288.01662 -47.52 
L 290.247159 -47.52 
L 292.477699 -47.52 
L 294.708238 -47.52 
L 296.938778 -47.52 
L 299.169317 -47.52 
L 301.399857 -47.52 
L 303.630397 -47.52 
L 305.860936 -47.52 
L 308.091476 -47.52 
L 310.322015 -47.52 
L 312.552555 -47.52 
L 314.783094 -47.52 
L 317.013634 -47.52 
L 319.244173 -47.52 
L 321.474713 -47.52 
L 323.705253 -47.52 
L 325.935792 -47.52 
L 328.166332 -47.52 
L 330.396871 -47.52 
L 332.627411 -47.52 
L 334.85795 -47.52 
L 337.08849 -47.52 
L 339.319029 -47.52 
L 341.549569 -47.52 
L 343.780109 -47.52 
L 346.010648 -47.52 
L 348.241188 -47.52 
L 350.471727 -47.52 
L 352.702267 -47.52 
L 354.932806 -47.52 
L 357.163346 -47.52 
L 359.393885 -47.52 
L 361.624425 -47.52 
L 363.854965 -47.52 
L 366.085504 -47.52 
L 368.316044 -47.52 
L 370.546583 -47.52 
L 372.777123 -47.52 
L 375.007662 -47.52 
L 377.238202 -47.52 
L 379.468741 -47.52 
L 381.699281 -47.52 
L 383.929821 -47.52 
L 386.16036 -47.52 
L 388.3909 -47.52 
L 390.621439 -47.52 
L 392.851979 -47.52 
L 395.082518 -47.52 
L 397.313058 -47.52 
L 399.543597 -47.52 
L 401.774137 -47.52 
L 404.004677 -47.52 
L 406.235216 -47.52 
L 408.465756 -47.52 
L 410.696295 -47.52 
L 412.926835 -47.52 
L 415.157374 -47.52 
L 417.387914 -47.52 
L 419.618453 -47.52 
L 421.848993 -47.52 
L 424.079533 -47.52 
L 426.310072 -47.52 
L 428.540612 -47.52 
L 430.771151 -47.52 
L 433.001691 -47.52 
L 435.23223 -47.52 
L 437.46277 -47.52 
L 439.693309 -47.52 
L 441.923849 -47.52 
L 444.154389 -47.52 
L 446.384928 -47.52 
L 448.615468 -47.52 
L 450.846007 -47.52 
L 453.076547 -47.52 
L 455.307086 -47.52 
L 457.537626 -47.52 
L 459.768165 -47.52 
L 461.998705 -47.52 
L 464.229245 -47.52 
L 466.459784 -47.52 
L 468.690324 -47.52 
L 470.920863 -47.52 
L 473.151403 -47.52 
L 475.381942 -47.52 
L 477.612482 -47.52 
L 479.843021 -47.52 
L 482.073561 -47.52 
L 484.304101 -47.52 
L 486.53464 -47.52 
L 488.76518 -47.52 
L 490.995719 -47.52 
L 493.226259 -47.52 
L 495.456798 -47.52 
L 497.687338 -47.52 
L 499.917877 -47.52 
L 502.148417 -47.52 
L 504.378957 -47.52 
L 506.609496 -47.52 
L 508.840036 -47.52 
L 511.070575 -47.52 
L 513.301115 -47.52 
L 515.531654 -47.52 
L 517.762194 -47.52 
L 519.992733 -47.52 
L 522.223273 -47.52 
L 524.453813 -47.52 
L 526.684352 -47.52 
L 528.914892 -47.52 
L 531.145431 -47.52 
L 533.375971 -47.52 
L 535.60651 -47.52 
L 537.83705 -47.52 
L 540.067589 -47.52 
L 542.298129 -47.52 
L 544.528669 -47.52 
L 546.759208 -47.52 
L 548.989748 -47.52 
L 551.220287 -47.52 
L 553.450827 -47.52 
L 555.681366 -47.52 
L 557.911906 -47.52 
L 560.142445 -47.52 
L 562.372985 -47.52 
L 564.603525 -47.52 
L 566.834064 -47.52 
L 569.064604 -47.52 
L 571.295143 -47.52 
L 573.525683 -47.52 
L 575.756222 -47.52 
L 577.986762 -47.52 
L 580.217301 -47.52 
L 582.447841 -47.52 
L 582.447841 -47.542043 
L 582.447841 -47.542043 
L 580.217301 -47.552952 
L 577.986762 -47.568496 
L 575.756222 -47.590268 
L 573.525683 -47.620245 
L 571.295143 -47.660809 
L 569.064604 -47.71475 
L 566.834064 -47.785232 
L 564.603525 -47.875711 
L 562.372985 -47.989804 
L 560.142445 -48.1311 
L 557.911906 -48.302918 
L 555.681366 -48.508021 
L 553.450827 -48.748305 
L 551.220287 -49.024488 
L 548.989748 -49.335836 
L 546.759208 -49.679953 
L 544.528669 -50.052692 
L 542.298129 -50.448195 
L 540.067589 -50.859098 
L 537.83705 -51.276898 
L 535.60651 -51.692468 
L 533.375971 -52.096685 
L 531.145431 -52.481109 
L 528.914892 -52.838647 
L 526.684352 -53.164133 
L 524.453813 -53.454742 
L 522.223273 -53.710191 
L 519.992733 -53.93269 
L 517.762194 -54.126642 
L 515.531654 -54.298128 
L 513.301115 -54.45423 
L 511.070575 -54.602286 
L 508.840036 -54.749181 
L 506.609496 -54.900743 
L 504.378957 -55.061374 
L 502.148417 -55.233915 
L 499.917877 -55.419817 
L 497.687338 -55.619554 
L 495.456798 -55.833244 
L 493.226259 -56.061381 
L 490.995719 -56.305573 
L 488.76518 -56.569166 
L 486.53464 -56.857664 
L 484.304101 -57.178871 
L 482.073561 -57.542696 
L 479.843021 -57.960639 
L 477.612482 -58.444982 
L 475.381942 -59.007761 
L 473.151403 -59.659614 
L 470.920863 -60.408624 
L 468.690324 -61.259262 
L 466.459784 -62.211543 
L 464.229245 -63.260489 
L 461.998705 -64.395942 
L 459.768165 -65.602777 
L 457.537626 -66.861491 
L 455.307086 -68.14915 
L 453.076547 -69.440616 
L 450.846007 -70.70996 
L 448.615468 -71.931971 
L 446.384928 -73.083623 
L 444.154389 -74.145396 
L 441.923849 -75.102344 
L 439.693309 -75.944822 
L 437.46277 -76.668809 
L 435.23223 -77.275829 
L 433.001691 -77.772451 
L 430.771151 -78.169468 
L 428.540612 -78.48081 
L 426.310072 -78.722329 
L 424.079533 -78.910571 
L 421.848993 -79.061669 
L 419.618453 -79.190449 
L 417.387914 -79.309838 
L 415.157374 -79.430602 
L 412.926835 -79.561407 
L 410.696295 -79.709154 
L 408.465756 -79.879515 
L 406.235216 -80.077555 
L 404.004677 -80.308352 
L 401.774137 -80.577504 
L 399.543597 -80.891455 
L 397.313058 -81.257598 
L 395.082518 -81.684153 
L 392.851979 -82.179837 
L 390.621439 -82.753398 
L 388.3909 -83.413077 
L 386.16036 -84.166085 
L 383.929821 -85.018178 
L 381.699281 -85.973373 
L 379.468741 -87.03385 
L 377.238202 -88.200041 
L 375.007662 -89.470885 
L 372.777123 -90.84419 
L 370.546583 -92.317063 
L 368.316044 -93.886336 
L 366.085504 -95.548934 
L 363.854965 -97.302155 
L 361.624425 -99.143853 
L 359.393885 -101.072516 
L 357.163346 -103.087281 
L 354.932806 -105.187907 
L 352.702267 -107.374732 
L 350.471727 -109.648635 
L 348.241188 -112.011011 
L 346.010648 -114.463727 
L 343.780109 -117.009051 
L 341.549569 -119.64952 
L 339.319029 -122.387726 
L 337.08849 -125.226021 
L 334.85795 -128.166174 
L 332.627411 -131.209013 
L 330.396871 -134.354127 
L 328.166332 -137.599691 
L 325.935792 -140.942479 
L 323.705253 -144.378097 
L 321.474713 -147.901447 
L 319.244173 -151.507396 
L 317.013634 -155.191568 
L 314.783094 -158.951194 
L 312.552555 -162.785902 
L 310.322015 -166.698346 
L 308.091476 -170.694595 
L 305.860936 -174.784209 
L 303.630397 -178.979967 
L 301.399857 -183.297245 
L 299.169317 -187.753069 
L 296.938778 -192.364888 
L 294.708238 -197.149149 
L 292.477699 -202.119768 
L 290.247159 -207.286608 
L 288.01662 -212.654095 
L 285.78608 -218.220105 
L 283.555541 -223.975258 
L 281.325001 -229.902735 
L 279.094461 -235.978712 
L 276.863922 -242.173453 
L 274.633382 -248.453024 
L 272.402843 -254.781541 
L 270.172303 -261.12376 
L 267.941764 -267.447739 
L 265.711224 -273.727269 
L 263.480685 -279.943741 
L 261.250145 -286.087119 
L 259.019605 -292.155792 
L 256.789066 -298.155164 
L 254.558526 -304.094995 
L 252.327987 -309.985655 
L 250.097447 -315.833613 
L 247.866908 -321.636598 
L 245.636368 -327.378915 
L 243.405829 -333.027438 
L 241.175289 -338.5287 
L 238.944749 -343.807403 
L 236.71421 -348.766508 
L 234.48367 -353.2889 
L 232.253131 -357.240467 
L 230.022591 -360.474344 
L 227.792052 -362.835986 
L 225.561512 -364.168792 
L 223.330973 -364.32 
L 221.100433 -363.146691 
L 218.869893 -360.521787 
L 216.639354 -356.339998 
L 214.408814 -350.523639 
L 212.178275 -343.028203 
L 209.947735 -333.847486 
L 207.717196 -323.017892 
L 205.486656 -310.621511 
L 203.256117 -296.787444 
L 201.025577 -281.690905 
L 198.795037 -265.549745 
L 196.564498 -248.618222 
L 194.333958 -231.178147 
L 192.103419 -213.527805 
L 189.872879 -195.969354 
L 187.64234 -178.795605 
L 185.4118 -162.277227 
L 183.181261 -146.651378 
L 180.950721 -132.112653 
L 178.720181 -118.807007 
L 176.489642 -106.828979 
L 174.259102 -96.222226 
L 172.028563 -86.983071 
L 169.798023 -79.066477 
L 167.567484 -72.393752 
L 165.336944 -66.861152 
L 163.106405 -62.348634 
L 160.875865 -58.728084 
L 158.645325 -55.870502 
L 156.414786 -53.651822 
L 154.184246 -51.95723 
L 151.953707 -50.683981 
L 149.723167 -49.742866 
L 147.492628 -49.05855 
L 145.262088 -48.569044 
L 143.031549 -48.224575 
L 140.801009 -47.986103 
L 138.570469 -47.823691 
z
" style="stroke: #ff0000"/>
    </defs>
    <g clip-path="url(#p41f443c1f6)">
     <use xlink:href="#mb5d65ce5b9" x="0" y="432" style="fill: #ff0000; fill-opacity: 0.5; stroke: #ff0000"/>
    </g>
   </g>
   <g id="matplotlib.axis_1">
    <g id="xtick_1">
     <g id="line2d_1">
      <path d="M 113.63235 384.48 
L 113.63235 51.84 
" clip-path="url(#p41f443c1f6)" style="fill: none; stroke: #b0b0b0; stroke-opacity: 0.3; stroke-width: 0.8; stroke-linecap: square"/>
     </g>
     <g id="line2d_2">
      <defs>
       <path id="m1c25ac4a63" d="M 0 0 
L 0 3.5 
" style="stroke: #000000; stroke-width: 0.8"/>
      </defs>
      <g>
       <use xlink:href="#m1c25ac4a63" x="113.63235" y="384.48" style="stroke: #000000; stroke-width: 0.8"/>
      </g>
     </g>
     <g id="text_1">
      <text style="font: 10px 'DejaVu Sans', 'Bitstream Vera Sans', 'Computer Modern Sans Serif', 'Lucida Grande', 'Verdana', 'Geneva', 'Lucid', 'Arial', 'Helvetica', 'Avant Garde', sans-serif; text-anchor: middle" x="113.63235" y="399.078438" transform="rotate(-0 113.63235 399.078438)">−0.2</text>
     </g>
    </g>
    <g id="xtick_2">
     <g id="line2d_3">
      <path d="M 189.412396 384.48 
L 189.412396 51.84 
" clip-path="url(#p41f443c1f6)" style="fill: none; stroke: #b0b0b0; stroke-opacity: 0.3; stroke-width: 0.8; stroke-linecap: square"/>
     </g>
     <g id="line2d_4">
      <g>
       <use xlink:href="#m1c25ac4a63" x="189.412396" y="384.48" style="stroke: #000000; stroke-width: 0.8"/>
      </g>
     </g>
     <g id="text_2">
      <text style="font: 10px 'DejaVu Sans', 'Bitstream Vera Sans', 'Computer Modern Sans Serif', 'Lucida Grande', 'Verdana', 'Geneva', 'Lucid', 'Arial', 'Helvetica', 'Avant Garde', sans-serif; text-anchor: middle" x="189.412396" y="399.078438" transform="rotate(-0 189.412396 399.078438)">0.0</text>
     </g>
    </g>
    <g id="xtick_3">
     <g id="line2d_5">
      <path d="M 265.192441 384.48 
L 265.192441 51.84 
" clip-path="url(#p41f443c1f6)" style="fill: none; stroke: #b0b0b0; stroke-opacity: 0.3; stroke-width: 0.8; stroke-linecap: square"/>
     </g>
     <g id="line2d_6">
      <g>
       <use xlink:href="#m1c25ac4a63" x="265.192441" y="384.48" style="stroke: #000000; stroke-width: 0.8"/>
      </g>
     </g>
     <g id="text_3">
      <text style="font: 10px 'DejaVu Sans', 'Bitstream Vera Sans', 'Computer Modern Sans Serif', 'Lucida Grande', 'Verdana', 'Geneva', 'Lucid', 'Arial', 'Helvetica', 'Avant Garde', sans-serif; text-anchor: middle" x="265.192441" y="399.078438" transform="rotate(-0 265.192441 399.078438)">0.2</text>
     </g>
    </g>
    <g id="xtick_4">
     <g id="line2d_7">
      <path d="M 340.972486 384.48 
L 340.972486 51.84 
" clip-path="url(#p41f443c1f6)" style="fill: none; stroke: #b0b0b0; stroke-opacity: 0.3; stroke-width: 0.8; stroke-linecap: square"/>
     </g>
     <g id="line2d_8">
      <g>
       <use xlink:href="#m1c25ac4a63" x="340.972486" y="384.48" style="stroke: #000000; stroke-width: 0.8"/>
      </g>
     </g>
     <g id="text_4">
      <text style="font: 10px 'DejaVu Sans', 'Bitstream Vera Sans', 'Computer Modern Sans Serif', 'Lucida Grande', 'Verdana', 'Geneva', 'Lucid', 'Arial', 'Helvetica', 'Avant Garde', sans-serif; text-anchor: middle" x="340.972486" y="399.078438" transform="rotate(-0 340.972486 399.078438)">0.4</text>
     </g>
    </g>
    <g id="xtick_5">
     <g id="line2d_9">
      <path d="M 416.752531 384.48 
L 416.752531 51.84 
" clip-path="url(#p41f443c1f6)" style="fill: none; stroke: #b0b0b0; stroke-opacity: 0.3; stroke-width: 0.8; stroke-linecap: square"/>
     </g>
     <g id="line2d_10">
      <g>
       <use xlink:href="#m1c25ac4a63" x="416.752531" y="384.48" style="stroke: #000000; stroke-width: 0.8"/>
      </g>
     </g>
     <g id="text_5">
      <text style="font: 10px 'DejaVu Sans', 'Bitstream Vera Sans', 'Computer Modern Sans Serif', 'Lucida Grande', 'Verdana', 'Geneva', 'Lucid', 'Arial', 'Helvetica', 'Avant Garde', sans-serif; text-anchor: middle" x="416.752531" y="399.078438" transform="rotate(-0 416.752531 399.078438)">0.6</text>
     </g>
    </g>
    <g id="xtick_6">
     <g id="line2d_11">
      <path d="M 492.532576 384.48 
L 492.532576 51.84 
" clip-path="url(#p41f443c1f6)" style="fill: none; stroke: #b0b0b0; stroke-opacity: 0.3; stroke-width: 0.8; stroke-linecap: square"/>
     </g>
     <g id="line2d_12">
      <g>
       <use xlink:href="#m1c25ac4a63" x="492.532576" y="384.48" style="stroke: #000000; stroke-width: 0.8"/>
      </g>
     </g>
     <g id="text_6">
      <text style="font: 10px 'DejaVu Sans', 'Bitstream Vera Sans', 'Computer Modern Sans Serif', 'Lucida Grande', 'Verdana', 'Geneva', 'Lucid', 'Arial', 'Helvetica', 'Avant Garde', sans-serif; text-anchor: middle" x="492.532576" y="399.078438" transform="rotate(-0 492.532576 399.078438)">0.8</text>
     </g>
    </g>
    <g id="xtick_7">
     <g id="line2d_13">
      <path d="M 568.312621 384.48 
L 568.312621 51.84 
" clip-path="url(#p41f443c1f6)" style="fill: none; stroke: #b0b0b0; stroke-opacity: 0.3; stroke-width: 0.8; stroke-linecap: square"/>
     </g>
     <g id="line2d_14">
      <g>
       <use xlink:href="#m1c25ac4a63" x="568.312621" y="384.48" style="stroke: #000000; stroke-width: 0.8"/>
      </g>
     </g>
     <g id="text_7">
      <text style="font: 10px 'DejaVu Sans', 'Bitstream Vera Sans', 'Computer Modern Sans Serif', 'Lucida Grande', 'Verdana', 'Geneva', 'Lucid', 'Arial', 'Helvetica', 'Avant Garde', sans-serif; text-anchor: middle" x="568.312621" y="399.078438" transform="rotate(-0 568.312621 399.078438)">1.0</text>
     </g>
    </g>
    <g id="xtick_8">
     <g id="line2d_15">
      <path d="M 644.092666 384.48 
L 644.092666 51.84 
" clip-path="url(#p41f443c1f6)" style="fill: none; stroke: #b0b0b0; stroke-opacity: 0.3; stroke-width: 0.8; stroke-linecap: square"/>
     </g>
     <g id="line2d_16">
      <g>
       <use xlink:href="#m1c25ac4a63" x="644.092666" y="384.48" style="stroke: #000000; stroke-width: 0.8"/>
      </g>
     </g>
     <g id="text_8">
      <text style="font: 10px 'DejaVu Sans', 'Bitstream Vera Sans', 'Computer Modern Sans Serif', 'Lucida Grande', 'Verdana', 'Geneva', 'Lucid', 'Arial', 'Helvetica', 'Avant Garde', sans-serif; text-anchor: middle" x="644.092666" y="399.078438" transform="rotate(-0 644.092666 399.078438)">1.2</text>
     </g>
    </g>
    <g id="text_9">
     <text style="font: 10px 'DejaVu Sans', 'Bitstream Vera Sans', 'Computer Modern Sans Serif', 'Lucida Grande', 'Verdana', 'Geneva', 'Lucid', 'Arial', 'Helvetica', 'Avant Garde', sans-serif; text-anchor: middle" x="369" y="412.756563" transform="rotate(-0 369 412.756563)">score</text>
    </g>
   </g>
   <g id="matplotlib.axis_2">
    <g id="ytick_1">
     <g id="line2d_17">
      <path d="M 90 384.48 
L 648 384.48 
" clip-path="url(#p41f443c1f6)" style="fill: none; stroke: #b0b0b0; stroke-opacity: 0.3; stroke-width: 0.8; stroke-linecap: square"/>
     </g>
     <g id="line2d_18">
      <defs>
       <path id="m411fee335e" d="M 0 0 
L -3.5 0 
" style="stroke: #000000; stroke-width: 0.8"/>
      </defs>
      <g>
       <use xlink:href="#m411fee335e" x="90" y="384.48" style="stroke: #000000; stroke-width: 0.8"/>
      </g>
     </g>
     <g id="text_10">
      <text style="font: 10px 'DejaVu Sans', 'Bitstream Vera Sans', 'Computer Modern Sans Serif', 'Lucida Grande', 'Verdana', 'Geneva', 'Lucid', 'Arial', 'Helvetica', 'Avant Garde', sans-serif; text-anchor: end" x="83" y="388.279219" transform="rotate(-0 83 388.279219)">0.0</text>
     </g>
    </g>
    <g id="ytick_2">
     <g id="line2d_19">
      <path d="M 90 334.33796 
L 648 334.33796 
" clip-path="url(#p41f443c1f6)" style="fill: none; stroke: #b0b0b0; stroke-opacity: 0.3; stroke-width: 0.8; stroke-linecap: square"/>
     </g>
     <g id="line2d_20">
      <g>
       <use xlink:href="#m411fee335e" x="90" y="334.33796" style="stroke: #000000; stroke-width: 0.8"/>
      </g>
     </g>
     <g id="text_11">
      <text style="font: 10px 'DejaVu Sans', 'Bitstream Vera Sans', 'Computer Modern Sans Serif', 'Lucida Grande', 'Verdana', 'Geneva', 'Lucid', 'Arial', 'Helvetica', 'Avant Garde', sans-serif; text-anchor: end" x="83" y="338.137179" transform="rotate(-0 83 338.137179)">0.5</text>
     </g>
    </g>
    <g id="ytick_3">
     <g id="line2d_21">
      <path d="M 90 284.19592 
L 648 284.19592 
" clip-path="url(#p41f443c1f6)" style="fill: none; stroke: #b0b0b0; stroke-opacity: 0.3; stroke-width: 0.8; stroke-linecap: square"/>
     </g>
     <g id="line2d_22">
      <g>
       <use xlink:href="#m411fee335e" x="90" y="284.19592" style="stroke: #000000; stroke-width: 0.8"/>
      </g>
     </g>
     <g id="text_12">
      <text style="font: 10px 'DejaVu Sans', 'Bitstream Vera Sans', 'Computer Modern Sans Serif', 'Lucida Grande', 'Verdana', 'Geneva', 'Lucid', 'Arial', 'Helvetica', 'Avant Garde', sans-serif; text-anchor: end" x="83" y="287.995139" transform="rotate(-0 83 287.995139)">1.0</text>
     </g>
    </g>
    <g id="ytick_4">
     <g id="line2d_23">
      <path d="M 90 234.05388 
L 648 234.05388 
" clip-path="url(#p41f443c1f6)" style="fill: none; stroke: #b0b0b0; stroke-opacity: 0.3; stroke-width: 0.8; stroke-linecap: square"/>
     </g>
     <g id="line2d_24">
      <g>
       <use xlink:href="#m411fee335e" x="90" y="234.05388" style="stroke: #000000; stroke-width: 0.8"/>
      </g>
     </g>
     <g id="text_13">
      <text style="font: 10px 'DejaVu Sans', 'Bitstream Vera Sans', 'Computer Modern Sans Serif', 'Lucida Grande', 'Verdana', 'Geneva', 'Lucid', 'Arial', 'Helvetica', 'Avant Garde', sans-serif; text-anchor: end" x="83" y="237.853099" transform="rotate(-0 83 237.853099)">1.5</text>
     </g>
    </g>
    <g id="ytick_5">
     <g id="line2d_25">
      <path d="M 90 183.91184 
L 648 183.91184 
" clip-path="url(#p41f443c1f6)" style="fill: none; stroke: #b0b0b0; stroke-opacity: 0.3; stroke-width: 0.8; stroke-linecap: square"/>
     </g>
     <g id="line2d_26">
      <g>
       <use xlink:href="#m411fee335e" x="90" y="183.91184" style="stroke: #000000; stroke-width: 0.8"/>
      </g>
     </g>
     <g id="text_14">
      <text style="font: 10px 'DejaVu Sans', 'Bitstream Vera Sans', 'Computer Modern Sans Serif', 'Lucida Grande', 'Verdana', 'Geneva', 'Lucid', 'Arial', 'Helvetica', 'Avant Garde', sans-serif; text-anchor: end" x="83" y="187.711059" transform="rotate(-0 83 187.711059)">2.0</text>
     </g>
    </g>
    <g id="ytick_6">
     <g id="line2d_27">
      <path d="M 90 133.7698 
L 648 133.7698 
" clip-path="url(#p41f443c1f6)" style="fill: none; stroke: #b0b0b0; stroke-opacity: 0.3; stroke-width: 0.8; stroke-linecap: square"/>
     </g>
     <g id="line2d_28">
      <g>
       <use xlink:href="#m411fee335e" x="90" y="133.7698" style="stroke: #000000; stroke-width: 0.8"/>
      </g>
     </g>
     <g id="text_15">
      <text style="font: 10px 'DejaVu Sans', 'Bitstream Vera Sans', 'Computer Modern Sans Serif', 'Lucida Grande', 'Verdana', 'Geneva', 'Lucid', 'Arial', 'Helvetica', 'Avant Garde', sans-serif; text-anchor: end" x="83" y="137.569019" transform="rotate(-0 83 137.569019)">2.5</text>
     </g>
    </g>
    <g id="ytick_7">
     <g id="line2d_29">
      <path d="M 90 83.62776 
L 648 83.62776 
" clip-path="url(#p41f443c1f6)" style="fill: none; stroke: #b0b0b0; stroke-opacity: 0.3; stroke-width: 0.8; stroke-linecap: square"/>
     </g>
     <g id="line2d_30">
      <g>
       <use xlink:href="#m411fee335e" x="90" y="83.62776" style="stroke: #000000; stroke-width: 0.8"/>
      </g>
     </g>
     <g id="text_16">
      <text style="font: 10px 'DejaVu Sans', 'Bitstream Vera Sans', 'Computer Modern Sans Serif', 'Lucida Grande', 'Verdana', 'Geneva', 'Lucid', 'Arial', 'Helvetica', 'Avant Garde', sans-serif; text-anchor: end" x="83" y="87.426979" transform="rotate(-0 83 87.426979)">3.0</text>
     </g>
    </g>
    <g id="text_17">
     <text style="font: 10px 'DejaVu Sans', 'Bitstream Vera Sans', 'Computer Modern Sans Serif', 'Lucida Grande', 'Verdana', 'Geneva', 'Lucid', 'Arial', 'Helvetica', 'Avant Garde', sans-serif; text-anchor: middle" x="61.017187" y="218.16" transform="rotate(-90 61.017187 218.16)">density</text>
    </g>
   </g>
   <g id="patch_3">
    <path d="M 90 384.48 
L 90 51.84 
" style="fill: none; stroke: #000000; stroke-width: 0.8; stroke-linejoin: miter; stroke-linecap: square"/>
   </g>
   <g id="patch_4">
    <path d="M 648 384.48 
L 648 51.84 
" style="fill: none; stroke: #000000; stroke-width: 0.8; stroke-linejoin: miter; stroke-linecap: square"/>
   </g>
   <g id="patch_5">
    <path d="M 90 384.48 
L 648 384.48 
" style="fill: none; stroke: #000000; stroke-width: 0.8; stroke-linejoin: miter; stroke-linecap: square"/>
   </g>
   <g id="patch_6">
    <path d="M 90 51.84 
L 648 51.84 
" style="fill: none; stroke: #000000; stroke-width: 0.8; stroke-linejoin: miter; stroke-linecap: square"/>
   </g>
   <g id="text_18">
    <text style="font: 12px 'DejaVu Sans', 'Bitstream Vera Sans', 'Computer Modern Sans Serif', 'Lucida Grande', 'Verdana', 'Geneva', 'Lucid', 'Arial', 'Helvetica', 'Avant Garde', sans-serif; text-anchor: middle" x="369" y="45.84" transform="rotate(-0 369 45.84)">SimuTCR_KDE</text>
   </g>
   <g id="legend_1">
    <g id="patch_7">
     <path d="M 565.2625 89.19625 
L 641 89.19625 
Q 643 89.19625 643 87.19625 
L 643 58.84 
Q 643 56.84 641 56.84 
L 565.2625 56.84 
Q 563.2625 56.84 563.2625 58.84 
L 563.2625 87.19625 
Q 563.2625 89.19625 565.2625 89.19625 
z
" style="fill: #ffffff; opacity: 0.8; stroke: #cccccc; stroke-linejoin: miter"/>
    </g>
    <g id="patch_8">
     <path d="M 567.2625 68.438437 
L 587.2625 68.438437 
L 587.2625 61.438437 
L 567.2625 61.438437 
z
" style="fill: #0000ff; fill-opacity: 0.5; stroke: #0000ff; stroke-linejoin: miter"/>
    </g>
    <g id="text_19">
     <text style="font: 10px 'DejaVu Sans', 'Bitstream Vera Sans', 'Computer Modern Sans Serif', 'Lucida Grande', 'Verdana', 'Geneva', 'Lucid', 'Arial', 'Helvetica', 'Avant Garde', sans-serif; text-anchor: start" x="595.2625" y="68.438437" transform="rotate(-0 595.2625 68.438437)">positive</text>
    </g>
    <g id="patch_9">
     <path d="M 567.2625 83.116562 
L 587.2625 83.116562 
L 587.2625 76.116562 
L 567.2625 76.116562 
z
" style="fill: #ff0000; fill-opacity: 0.5; stroke: #ff0000; stroke-linejoin: miter"/>
    </g>
    <g id="text_20">
     <text style="font: 10px 'DejaVu Sans', 'Bitstream Vera Sans', 'Computer Modern Sans Serif', 'Lucida Grande', 'Verdana', 'Geneva', 'Lucid', 'Arial', 'Helvetica', 'Avant Garde', sans-serif; text-anchor: start" x="595.2625" y="83.116562" transform="rotate(-0 595.2625 83.116562)">negative</text>
    </g>
   </g>
  </g>
 </g>
 <defs>
  <clipPath id="p41f443c1f6">
   <rect x="90" y="51.84" width="558" height="332.64"/>
  </clipPath>
 </defs>
</svg>
