<?xml version="1.0" encoding="utf-8" standalone="no"?>
<!DOCTYPE svg PUBLIC "-//W3C//DTD SVG 1.1//EN"
  "http://www.w3.org/Graphics/SVG/1.1/DTD/svg11.dtd">
<svg xmlns:xlink="http://www.w3.org/1999/xlink" width="720pt" height="432pt" viewBox="0 0 720 432" xmlns="http://www.w3.org/2000/svg" version="1.1">
 <metadata>
  <rdf:RDF xmlns:dc="http://purl.org/dc/elements/1.1/" xmlns:cc="http://creativecommons.org/ns#" xmlns:rdf="http://www.w3.org/1999/02/22-rdf-syntax-ns#">
   <cc:Work>
    <dc:type rdf:resource="http://purl.org/dc/dcmitype/StillImage"/>
    <dc:date>2025-11-13T08:41:27.918295</dc:date>
    <dc:format>image/svg+xml</dc:format>
    <dc:creator>
     <cc:Agent>
      <dc:title>Matplotlib v3.9.4, https://matplotlib.org/</dc:title>
     </cc:Agent>
    </dc:creator>
   </cc:Work>
  </rdf:RDF>
 </metadata>
 <defs>
  <style type="text/css">*{stroke-linejoin: round; stroke-linecap: butt}</style>
 </defs>
 <g id="figure_1">
  <g id="patch_1">
   <path d="M 0 432 
L 720 432 
L 720 0 
L 0 0 
z
" style="fill: #ffffff"/>
  </g>
  <g id="axes_1">
   <g id="patch_2">
    <path d="M 90 384.48 
L 648 384.48 
L 648 51.84 
L 90 51.84 
z
" style="fill: #ffffff"/>
   </g>
   <g id="patch_3">
    <path d="M 115.363636 384.48 
L 125.509091 384.48 
L 125.509091 377.28 
L 115.363636 377.28 
z
" clip-path="url(#pc7c3ace06a)" style="fill: #ff0000; fill-opacity: 0.7; stroke: #000000; stroke-linejoin: miter"/>
   </g>
   <g id="patch_4">
    <path d="M 125.509091 384.48 
L 135.654545 384.48 
L 135.654545 377.28 
L 125.509091 377.28 
z
" clip-path="url(#pc7c3ace06a)" style="fill: #ff0000; fill-opacity: 0.7; stroke: #000000; stroke-linejoin: miter"/>
   </g>
   <g id="patch_5">
    <path d="M 135.654545 384.48 
L 145.8 384.48 
L 145.8 366.48 
L 135.654545 366.48 
z
" clip-path="url(#pc7c3ace06a)" style="fill: #ff0000; fill-opacity: 0.7; stroke: #000000; stroke-linejoin: miter"/>
   </g>
   <g id="patch_6">
    <path d="M 145.8 384.48 
L 155.945455 384.48 
L 155.945455 358.08 
L 145.8 358.08 
z
" clip-path="url(#pc7c3ace06a)" style="fill: #ff0000; fill-opacity: 0.7; stroke: #000000; stroke-linejoin: miter"/>
   </g>
   <g id="patch_7">
    <path d="M 155.945455 384.48 
L 166.090909 384.48 
L 166.090909 361.68 
L 155.945455 361.68 
z
" clip-path="url(#pc7c3ace06a)" style="fill: #ff0000; fill-opacity: 0.7; stroke: #000000; stroke-linejoin: miter"/>
   </g>
   <g id="patch_8">
    <path d="M 166.090909 384.48 
L 176.236364 384.48 
L 176.236364 370.08 
L 166.090909 370.08 
z
" clip-path="url(#pc7c3ace06a)" style="fill: #ff0000; fill-opacity: 0.7; stroke: #000000; stroke-linejoin: miter"/>
   </g>
   <g id="patch_9">
    <path d="M 176.236364 384.48 
L 186.381818 384.48 
L 186.381818 354.48 
L 176.236364 354.48 
z
" clip-path="url(#pc7c3ace06a)" style="fill: #ff0000; fill-opacity: 0.7; stroke: #000000; stroke-linejoin: miter"/>
   </g>
   <g id="patch_10">
    <path d="M 186.381818 384.48 
L 196.527273 384.48 
L 196.527273 355.68 
L 186.381818 355.68 
z
" clip-path="url(#pc7c3ace06a)" style="fill: #ff0000; fill-opacity: 0.7; stroke: #000000; stroke-linejoin: miter"/>
   </g>
   <g id="patch_11">
    <path d="M 196.527273 384.48 
L 206.672727 384.48 
L 206.672727 366.48 
L 196.527273 366.48 
z
" clip-path="url(#pc7c3ace06a)" style="fill: #ff0000; fill-opacity: 0.7; stroke: #000000; stroke-linejoin: miter"/>
   </g>
   <g id="patch_12">
    <path d="M 206.672727 384.48 
L 216.818182 384.48 
L 216.818182 383.28 
L 206.672727 383.28 
z
" clip-path="url(#pc7c3ace06a)" style="fill: #ff0000; fill-opacity: 0.7; stroke: #000000; stroke-linejoin: miter"/>
   </g>
   <g id="patch_13">
    <path d="M 216.818182 384.48 
L 226.963636 384.48 
L 226.963636 384.48 
L 216.818182 384.48 
z
" clip-path="url(#pc7c3ace06a)" style="fill: #ff0000; fill-opacity: 0.7; stroke: #000000; stroke-linejoin: miter"/>
   </g>
   <g id="patch_14">
    <path d="M 226.963636 384.48 
L 237.109091 384.48 
L 237.109091 383.28 
L 226.963636 383.28 
z
" clip-path="url(#pc7c3ace06a)" style="fill: #ff0000; fill-opacity: 0.7; stroke: #000000; stroke-linejoin: miter"/>
   </g>
   <g id="patch_15">
    <path d="M 237.109091 384.48 
L 247.254545 384.48 
L 247.254545 383.28 
L 237.109091 383.28 
z
" clip-path="url(#pc7c3ace06a)" style="fill: #ff0000; fill-opacity: 0.7; stroke: #000000; stroke-linejoin: miter"/>
   </g>
   <g id="patch_16">
    <path d="M 247.254545 384.48 
L 257.4 384.48 
L 257.4 382.08 
L 247.254545 382.08 
z
" clip-path="url(#pc7c3ace06a)" style="fill: #ff0000; fill-opacity: 0.7; stroke: #000000; stroke-linejoin: miter"/>
   </g>
   <g id="patch_17">
    <path d="M 257.4 384.48 
L 267.545455 384.48 
L 267.545455 382.08 
L 257.4 382.08 
z
" clip-path="url(#pc7c3ace06a)" style="fill: #ff0000; fill-opacity: 0.7; stroke: #000000; stroke-linejoin: miter"/>
   </g>
   <g id="patch_18">
    <path d="M 267.545455 384.48 
L 277.690909 384.48 
L 277.690909 382.08 
L 267.545455 382.08 
z
" clip-path="url(#pc7c3ace06a)" style="fill: #ff0000; fill-opacity: 0.7; stroke: #000000; stroke-linejoin: miter"/>
   </g>
   <g id="patch_19">
    <path d="M 277.690909 384.48 
L 287.836364 384.48 
L 287.836364 372.48 
L 277.690909 372.48 
z
" clip-path="url(#pc7c3ace06a)" style="fill: #ff0000; fill-opacity: 0.7; stroke: #000000; stroke-linejoin: miter"/>
   </g>
   <g id="patch_20">
    <path d="M 287.836364 384.48 
L 297.981818 384.48 
L 297.981818 364.08 
L 287.836364 364.08 
z
" clip-path="url(#pc7c3ace06a)" style="fill: #ff0000; fill-opacity: 0.7; stroke: #000000; stroke-linejoin: miter"/>
   </g>
   <g id="patch_21">
    <path d="M 297.981818 384.48 
L 308.127273 384.48 
L 308.127273 366.48 
L 297.981818 366.48 
z
" clip-path="url(#pc7c3ace06a)" style="fill: #ff0000; fill-opacity: 0.7; stroke: #000000; stroke-linejoin: miter"/>
   </g>
   <g id="patch_22">
    <path d="M 308.127273 384.48 
L 318.272727 384.48 
L 318.272727 376.08 
L 308.127273 376.08 
z
" clip-path="url(#pc7c3ace06a)" style="fill: #ff0000; fill-opacity: 0.7; stroke: #000000; stroke-linejoin: miter"/>
   </g>
   <g id="patch_23">
    <path d="M 318.272727 384.48 
L 328.418182 384.48 
L 328.418182 380.88 
L 318.272727 380.88 
z
" clip-path="url(#pc7c3ace06a)" style="fill: #ff0000; fill-opacity: 0.7; stroke: #000000; stroke-linejoin: miter"/>
   </g>
   <g id="patch_24">
    <path d="M 328.418182 384.48 
L 338.563636 384.48 
L 338.563636 384.48 
L 328.418182 384.48 
z
" clip-path="url(#pc7c3ace06a)" style="fill: #ff0000; fill-opacity: 0.7; stroke: #000000; stroke-linejoin: miter"/>
   </g>
   <g id="patch_25">
    <path d="M 338.563636 384.48 
L 348.709091 384.48 
L 348.709091 384.48 
L 338.563636 384.48 
z
" clip-path="url(#pc7c3ace06a)" style="fill: #ff0000; fill-opacity: 0.7; stroke: #000000; stroke-linejoin: miter"/>
   </g>
   <g id="patch_26">
    <path d="M 348.709091 384.48 
L 358.854545 384.48 
L 358.854545 384.48 
L 348.709091 384.48 
z
" clip-path="url(#pc7c3ace06a)" style="fill: #ff0000; fill-opacity: 0.7; stroke: #000000; stroke-linejoin: miter"/>
   </g>
   <g id="patch_27">
    <path d="M 358.854545 384.48 
L 369 384.48 
L 369 384.48 
L 358.854545 384.48 
z
" clip-path="url(#pc7c3ace06a)" style="fill: #ff0000; fill-opacity: 0.7; stroke: #000000; stroke-linejoin: miter"/>
   </g>
   <g id="patch_28">
    <path d="M 369 384.48 
L 379.145455 384.48 
L 379.145455 384.48 
L 369 384.48 
z
" clip-path="url(#pc7c3ace06a)" style="fill: #ff0000; fill-opacity: 0.7; stroke: #000000; stroke-linejoin: miter"/>
   </g>
   <g id="patch_29">
    <path d="M 379.145455 384.48 
L 389.290909 384.48 
L 389.290909 383.28 
L 379.145455 383.28 
z
" clip-path="url(#pc7c3ace06a)" style="fill: #ff0000; fill-opacity: 0.7; stroke: #000000; stroke-linejoin: miter"/>
   </g>
   <g id="patch_30">
    <path d="M 389.290909 384.48 
L 399.436364 384.48 
L 399.436364 384.48 
L 389.290909 384.48 
z
" clip-path="url(#pc7c3ace06a)" style="fill: #ff0000; fill-opacity: 0.7; stroke: #000000; stroke-linejoin: miter"/>
   </g>
   <g id="patch_31">
    <path d="M 399.436364 384.48 
L 409.581818 384.48 
L 409.581818 384.48 
L 399.436364 384.48 
z
" clip-path="url(#pc7c3ace06a)" style="fill: #ff0000; fill-opacity: 0.7; stroke: #000000; stroke-linejoin: miter"/>
   </g>
   <g id="patch_32">
    <path d="M 409.581818 384.48 
L 419.727273 384.48 
L 419.727273 384.48 
L 409.581818 384.48 
z
" clip-path="url(#pc7c3ace06a)" style="fill: #ff0000; fill-opacity: 0.7; stroke: #000000; stroke-linejoin: miter"/>
   </g>
   <g id="patch_33">
    <path d="M 419.727273 384.48 
L 429.872727 384.48 
L 429.872727 384.48 
L 419.727273 384.48 
z
" clip-path="url(#pc7c3ace06a)" style="fill: #ff0000; fill-opacity: 0.7; stroke: #000000; stroke-linejoin: miter"/>
   </g>
   <g id="patch_34">
    <path d="M 429.872727 384.48 
L 440.018182 384.48 
L 440.018182 382.08 
L 429.872727 382.08 
z
" clip-path="url(#pc7c3ace06a)" style="fill: #ff0000; fill-opacity: 0.7; stroke: #000000; stroke-linejoin: miter"/>
   </g>
   <g id="patch_35">
    <path d="M 440.018182 384.48 
L 450.163636 384.48 
L 450.163636 355.68 
L 440.018182 355.68 
z
" clip-path="url(#pc7c3ace06a)" style="fill: #ff0000; fill-opacity: 0.7; stroke: #000000; stroke-linejoin: miter"/>
   </g>
   <g id="patch_36">
    <path d="M 450.163636 384.48 
L 460.309091 384.48 
L 460.309091 320.88 
L 450.163636 320.88 
z
" clip-path="url(#pc7c3ace06a)" style="fill: #ff0000; fill-opacity: 0.7; stroke: #000000; stroke-linejoin: miter"/>
   </g>
   <g id="patch_37">
    <path d="M 460.309091 384.48 
L 470.454545 384.48 
L 470.454545 299.28 
L 460.309091 299.28 
z
" clip-path="url(#pc7c3ace06a)" style="fill: #ff0000; fill-opacity: 0.7; stroke: #000000; stroke-linejoin: miter"/>
   </g>
   <g id="patch_38">
    <path d="M 470.454545 384.48 
L 480.6 384.48 
L 480.6 367.68 
L 470.454545 367.68 
z
" clip-path="url(#pc7c3ace06a)" style="fill: #ff0000; fill-opacity: 0.7; stroke: #000000; stroke-linejoin: miter"/>
   </g>
   <g id="patch_39">
    <path d="M 480.6 384.48 
L 490.745455 384.48 
L 490.745455 384.48 
L 480.6 384.48 
z
" clip-path="url(#pc7c3ace06a)" style="fill: #ff0000; fill-opacity: 0.7; stroke: #000000; stroke-linejoin: miter"/>
   </g>
   <g id="patch_40">
    <path d="M 490.745455 384.48 
L 500.890909 384.48 
L 500.890909 384.48 
L 490.745455 384.48 
z
" clip-path="url(#pc7c3ace06a)" style="fill: #ff0000; fill-opacity: 0.7; stroke: #000000; stroke-linejoin: miter"/>
   </g>
   <g id="patch_41">
    <path d="M 500.890909 384.48 
L 511.036364 384.48 
L 511.036364 384.48 
L 500.890909 384.48 
z
" clip-path="url(#pc7c3ace06a)" style="fill: #ff0000; fill-opacity: 0.7; stroke: #000000; stroke-linejoin: miter"/>
   </g>
   <g id="patch_42">
    <path d="M 511.036364 384.48 
L 521.181818 384.48 
L 521.181818 384.48 
L 511.036364 384.48 
z
" clip-path="url(#pc7c3ace06a)" style="fill: #ff0000; fill-opacity: 0.7; stroke: #000000; stroke-linejoin: miter"/>
   </g>
   <g id="patch_43">
    <path d="M 521.181818 384.48 
L 531.327273 384.48 
L 531.327273 383.28 
L 521.181818 383.28 
z
" clip-path="url(#pc7c3ace06a)" style="fill: #ff0000; fill-opacity: 0.7; stroke: #000000; stroke-linejoin: miter"/>
   </g>
   <g id="patch_44">
    <path d="M 531.327273 384.48 
L 541.472727 384.48 
L 541.472727 382.08 
L 531.327273 382.08 
z
" clip-path="url(#pc7c3ace06a)" style="fill: #ff0000; fill-opacity: 0.7; stroke: #000000; stroke-linejoin: miter"/>
   </g>
   <g id="patch_45">
    <path d="M 541.472727 384.48 
L 551.618182 384.48 
L 551.618182 380.88 
L 541.472727 380.88 
z
" clip-path="url(#pc7c3ace06a)" style="fill: #ff0000; fill-opacity: 0.7; stroke: #000000; stroke-linejoin: miter"/>
   </g>
   <g id="patch_46">
    <path d="M 551.618182 384.48 
L 561.763636 384.48 
L 561.763636 356.88 
L 551.618182 356.88 
z
" clip-path="url(#pc7c3ace06a)" style="fill: #ff0000; fill-opacity: 0.7; stroke: #000000; stroke-linejoin: miter"/>
   </g>
   <g id="patch_47">
    <path d="M 561.763636 384.48 
L 571.909091 384.48 
L 571.909091 334.08 
L 561.763636 334.08 
z
" clip-path="url(#pc7c3ace06a)" style="fill: #ff0000; fill-opacity: 0.7; stroke: #000000; stroke-linejoin: miter"/>
   </g>
   <g id="patch_48">
    <path d="M 571.909091 384.48 
L 582.054545 384.48 
L 582.054545 352.08 
L 571.909091 352.08 
z
" clip-path="url(#pc7c3ace06a)" style="fill: #ff0000; fill-opacity: 0.7; stroke: #000000; stroke-linejoin: miter"/>
   </g>
   <g id="patch_49">
    <path d="M 582.054545 384.48 
L 592.2 384.48 
L 592.2 371.28 
L 582.054545 371.28 
z
" clip-path="url(#pc7c3ace06a)" style="fill: #ff0000; fill-opacity: 0.7; stroke: #000000; stroke-linejoin: miter"/>
   </g>
   <g id="patch_50">
    <path d="M 592.2 384.48 
L 602.345455 384.48 
L 602.345455 344.88 
L 592.2 344.88 
z
" clip-path="url(#pc7c3ace06a)" style="fill: #ff0000; fill-opacity: 0.7; stroke: #000000; stroke-linejoin: miter"/>
   </g>
   <g id="patch_51">
    <path d="M 602.345455 384.48 
L 612.490909 384.48 
L 612.490909 331.68 
L 602.345455 331.68 
z
" clip-path="url(#pc7c3ace06a)" style="fill: #ff0000; fill-opacity: 0.7; stroke: #000000; stroke-linejoin: miter"/>
   </g>
   <g id="patch_52">
    <path d="M 612.490909 384.48 
L 622.636364 384.48 
L 622.636364 67.68 
L 612.490909 67.68 
z
" clip-path="url(#pc7c3ace06a)" style="fill: #ff0000; fill-opacity: 0.7; stroke: #000000; stroke-linejoin: miter"/>
   </g>
   <g id="patch_53">
    <path d="M 115.363636 384.48 
L 125.509091 384.48 
L 125.509091 384.48 
L 115.363636 384.48 
z
" clip-path="url(#pc7c3ace06a)" style="fill: #0000ff; fill-opacity: 0.7; stroke: #000000; stroke-linejoin: miter"/>
   </g>
   <g id="patch_54">
    <path d="M 125.509091 384.48 
L 135.654545 384.48 
L 135.654545 383.28 
L 125.509091 383.28 
z
" clip-path="url(#pc7c3ace06a)" style="fill: #0000ff; fill-opacity: 0.7; stroke: #000000; stroke-linejoin: miter"/>
   </g>
   <g id="patch_55">
    <path d="M 135.654545 384.48 
L 145.8 384.48 
L 145.8 379.68 
L 135.654545 379.68 
z
" clip-path="url(#pc7c3ace06a)" style="fill: #0000ff; fill-opacity: 0.7; stroke: #000000; stroke-linejoin: miter"/>
   </g>
   <g id="patch_56">
    <path d="M 145.8 384.48 
L 155.945455 384.48 
L 155.945455 380.88 
L 145.8 380.88 
z
" clip-path="url(#pc7c3ace06a)" style="fill: #0000ff; fill-opacity: 0.7; stroke: #000000; stroke-linejoin: miter"/>
   </g>
   <g id="patch_57">
    <path d="M 155.945455 384.48 
L 166.090909 384.48 
L 166.090909 380.88 
L 155.945455 380.88 
z
" clip-path="url(#pc7c3ace06a)" style="fill: #0000ff; fill-opacity: 0.7; stroke: #000000; stroke-linejoin: miter"/>
   </g>
   <g id="patch_58">
    <path d="M 166.090909 384.48 
L 176.236364 384.48 
L 176.236364 384.48 
L 166.090909 384.48 
z
" clip-path="url(#pc7c3ace06a)" style="fill: #0000ff; fill-opacity: 0.7; stroke: #000000; stroke-linejoin: miter"/>
   </g>
   <g id="patch_59">
    <path d="M 176.236364 384.48 
L 186.381818 384.48 
L 186.381818 376.08 
L 176.236364 376.08 
z
" clip-path="url(#pc7c3ace06a)" style="fill: #0000ff; fill-opacity: 0.7; stroke: #000000; stroke-linejoin: miter"/>
   </g>
   <g id="patch_60">
    <path d="M 186.381818 384.48 
L 196.527273 384.48 
L 196.527273 376.08 
L 186.381818 376.08 
z
" clip-path="url(#pc7c3ace06a)" style="fill: #0000ff; fill-opacity: 0.7; stroke: #000000; stroke-linejoin: miter"/>
   </g>
   <g id="patch_61">
    <path d="M 196.527273 384.48 
L 206.672727 384.48 
L 206.672727 380.88 
L 196.527273 380.88 
z
" clip-path="url(#pc7c3ace06a)" style="fill: #0000ff; fill-opacity: 0.7; stroke: #000000; stroke-linejoin: miter"/>
   </g>
   <g id="patch_62">
    <path d="M 206.672727 384.48 
L 216.818182 384.48 
L 216.818182 383.28 
L 206.672727 383.28 
z
" clip-path="url(#pc7c3ace06a)" style="fill: #0000ff; fill-opacity: 0.7; stroke: #000000; stroke-linejoin: miter"/>
   </g>
   <g id="patch_63">
    <path d="M 216.818182 384.48 
L 226.963636 384.48 
L 226.963636 384.48 
L 216.818182 384.48 
z
" clip-path="url(#pc7c3ace06a)" style="fill: #0000ff; fill-opacity: 0.7; stroke: #000000; stroke-linejoin: miter"/>
   </g>
   <g id="patch_64">
    <path d="M 226.963636 384.48 
L 237.109091 384.48 
L 237.109091 384.48 
L 226.963636 384.48 
z
" clip-path="url(#pc7c3ace06a)" style="fill: #0000ff; fill-opacity: 0.7; stroke: #000000; stroke-linejoin: miter"/>
   </g>
   <g id="patch_65">
    <path d="M 237.109091 384.48 
L 247.254545 384.48 
L 247.254545 384.48 
L 237.109091 384.48 
z
" clip-path="url(#pc7c3ace06a)" style="fill: #0000ff; fill-opacity: 0.7; stroke: #000000; stroke-linejoin: miter"/>
   </g>
   <g id="patch_66">
    <path d="M 247.254545 384.48 
L 257.4 384.48 
L 257.4 384.48 
L 247.254545 384.48 
z
" clip-path="url(#pc7c3ace06a)" style="fill: #0000ff; fill-opacity: 0.7; stroke: #000000; stroke-linejoin: miter"/>
   </g>
   <g id="patch_67">
    <path d="M 257.4 384.48 
L 267.545455 384.48 
L 267.545455 384.48 
L 257.4 384.48 
z
" clip-path="url(#pc7c3ace06a)" style="fill: #0000ff; fill-opacity: 0.7; stroke: #000000; stroke-linejoin: miter"/>
   </g>
   <g id="patch_68">
    <path d="M 267.545455 384.48 
L 277.690909 384.48 
L 277.690909 383.28 
L 267.545455 383.28 
z
" clip-path="url(#pc7c3ace06a)" style="fill: #0000ff; fill-opacity: 0.7; stroke: #000000; stroke-linejoin: miter"/>
   </g>
   <g id="patch_69">
    <path d="M 277.690909 384.48 
L 287.836364 384.48 
L 287.836364 379.68 
L 277.690909 379.68 
z
" clip-path="url(#pc7c3ace06a)" style="fill: #0000ff; fill-opacity: 0.7; stroke: #000000; stroke-linejoin: miter"/>
   </g>
   <g id="patch_70">
    <path d="M 287.836364 384.48 
L 297.981818 384.48 
L 297.981818 379.68 
L 287.836364 379.68 
z
" clip-path="url(#pc7c3ace06a)" style="fill: #0000ff; fill-opacity: 0.7; stroke: #000000; stroke-linejoin: miter"/>
   </g>
   <g id="patch_71">
    <path d="M 297.981818 384.48 
L 308.127273 384.48 
L 308.127273 380.88 
L 297.981818 380.88 
z
" clip-path="url(#pc7c3ace06a)" style="fill: #0000ff; fill-opacity: 0.7; stroke: #000000; stroke-linejoin: miter"/>
   </g>
   <g id="patch_72">
    <path d="M 308.127273 384.48 
L 318.272727 384.48 
L 318.272727 384.48 
L 308.127273 384.48 
z
" clip-path="url(#pc7c3ace06a)" style="fill: #0000ff; fill-opacity: 0.7; stroke: #000000; stroke-linejoin: miter"/>
   </g>
   <g id="patch_73">
    <path d="M 318.272727 384.48 
L 328.418182 384.48 
L 328.418182 384.48 
L 318.272727 384.48 
z
" clip-path="url(#pc7c3ace06a)" style="fill: #0000ff; fill-opacity: 0.7; stroke: #000000; stroke-linejoin: miter"/>
   </g>
   <g id="patch_74">
    <path d="M 328.418182 384.48 
L 338.563636 384.48 
L 338.563636 384.48 
L 328.418182 384.48 
z
" clip-path="url(#pc7c3ace06a)" style="fill: #0000ff; fill-opacity: 0.7; stroke: #000000; stroke-linejoin: miter"/>
   </g>
   <g id="patch_75">
    <path d="M 338.563636 384.48 
L 348.709091 384.48 
L 348.709091 384.48 
L 338.563636 384.48 
z
" clip-path="url(#pc7c3ace06a)" style="fill: #0000ff; fill-opacity: 0.7; stroke: #000000; stroke-linejoin: miter"/>
   </g>
   <g id="patch_76">
    <path d="M 348.709091 384.48 
L 358.854545 384.48 
L 358.854545 384.48 
L 348.709091 384.48 
z
" clip-path="url(#pc7c3ace06a)" style="fill: #0000ff; fill-opacity: 0.7; stroke: #000000; stroke-linejoin: miter"/>
   </g>
   <g id="patch_77">
    <path d="M 358.854545 384.48 
L 369 384.48 
L 369 384.48 
L 358.854545 384.48 
z
" clip-path="url(#pc7c3ace06a)" style="fill: #0000ff; fill-opacity: 0.7; stroke: #000000; stroke-linejoin: miter"/>
   </g>
   <g id="patch_78">
    <path d="M 369 384.48 
L 379.145455 384.48 
L 379.145455 384.48 
L 369 384.48 
z
" clip-path="url(#pc7c3ace06a)" style="fill: #0000ff; fill-opacity: 0.7; stroke: #000000; stroke-linejoin: miter"/>
   </g>
   <g id="patch_79">
    <path d="M 379.145455 384.48 
L 389.290909 384.48 
L 389.290909 384.48 
L 379.145455 384.48 
z
" clip-path="url(#pc7c3ace06a)" style="fill: #0000ff; fill-opacity: 0.7; stroke: #000000; stroke-linejoin: miter"/>
   </g>
   <g id="patch_80">
    <path d="M 389.290909 384.48 
L 399.436364 384.48 
L 399.436364 384.48 
L 389.290909 384.48 
z
" clip-path="url(#pc7c3ace06a)" style="fill: #0000ff; fill-opacity: 0.7; stroke: #000000; stroke-linejoin: miter"/>
   </g>
   <g id="patch_81">
    <path d="M 399.436364 384.48 
L 409.581818 384.48 
L 409.581818 384.48 
L 399.436364 384.48 
z
" clip-path="url(#pc7c3ace06a)" style="fill: #0000ff; fill-opacity: 0.7; stroke: #000000; stroke-linejoin: miter"/>
   </g>
   <g id="patch_82">
    <path d="M 409.581818 384.48 
L 419.727273 384.48 
L 419.727273 384.48 
L 409.581818 384.48 
z
" clip-path="url(#pc7c3ace06a)" style="fill: #0000ff; fill-opacity: 0.7; stroke: #000000; stroke-linejoin: miter"/>
   </g>
   <g id="patch_83">
    <path d="M 419.727273 384.48 
L 429.872727 384.48 
L 429.872727 384.48 
L 419.727273 384.48 
z
" clip-path="url(#pc7c3ace06a)" style="fill: #0000ff; fill-opacity: 0.7; stroke: #000000; stroke-linejoin: miter"/>
   </g>
   <g id="patch_84">
    <path d="M 429.872727 384.48 
L 440.018182 384.48 
L 440.018182 384.48 
L 429.872727 384.48 
z
" clip-path="url(#pc7c3ace06a)" style="fill: #0000ff; fill-opacity: 0.7; stroke: #000000; stroke-linejoin: miter"/>
   </g>
   <g id="patch_85">
    <path d="M 440.018182 384.48 
L 450.163636 384.48 
L 450.163636 378.48 
L 440.018182 378.48 
z
" clip-path="url(#pc7c3ace06a)" style="fill: #0000ff; fill-opacity: 0.7; stroke: #000000; stroke-linejoin: miter"/>
   </g>
   <g id="patch_86">
    <path d="M 450.163636 384.48 
L 460.309091 384.48 
L 460.309091 367.68 
L 450.163636 367.68 
z
" clip-path="url(#pc7c3ace06a)" style="fill: #0000ff; fill-opacity: 0.7; stroke: #000000; stroke-linejoin: miter"/>
   </g>
   <g id="patch_87">
    <path d="M 460.309091 384.48 
L 470.454545 384.48 
L 470.454545 373.68 
L 460.309091 373.68 
z
" clip-path="url(#pc7c3ace06a)" style="fill: #0000ff; fill-opacity: 0.7; stroke: #000000; stroke-linejoin: miter"/>
   </g>
   <g id="patch_88">
    <path d="M 470.454545 384.48 
L 480.6 384.48 
L 480.6 378.48 
L 470.454545 378.48 
z
" clip-path="url(#pc7c3ace06a)" style="fill: #0000ff; fill-opacity: 0.7; stroke: #000000; stroke-linejoin: miter"/>
   </g>
   <g id="patch_89">
    <path d="M 480.6 384.48 
L 490.745455 384.48 
L 490.745455 384.48 
L 480.6 384.48 
z
" clip-path="url(#pc7c3ace06a)" style="fill: #0000ff; fill-opacity: 0.7; stroke: #000000; stroke-linejoin: miter"/>
   </g>
   <g id="patch_90">
    <path d="M 490.745455 384.48 
L 500.890909 384.48 
L 500.890909 384.48 
L 490.745455 384.48 
z
" clip-path="url(#pc7c3ace06a)" style="fill: #0000ff; fill-opacity: 0.7; stroke: #000000; stroke-linejoin: miter"/>
   </g>
   <g id="patch_91">
    <path d="M 500.890909 384.48 
L 511.036364 384.48 
L 511.036364 384.48 
L 500.890909 384.48 
z
" clip-path="url(#pc7c3ace06a)" style="fill: #0000ff; fill-opacity: 0.7; stroke: #000000; stroke-linejoin: miter"/>
   </g>
   <g id="patch_92">
    <path d="M 511.036364 384.48 
L 521.181818 384.48 
L 521.181818 384.48 
L 511.036364 384.48 
z
" clip-path="url(#pc7c3ace06a)" style="fill: #0000ff; fill-opacity: 0.7; stroke: #000000; stroke-linejoin: miter"/>
   </g>
   <g id="patch_93">
    <path d="M 521.181818 384.48 
L 531.327273 384.48 
L 531.327273 384.48 
L 521.181818 384.48 
z
" clip-path="url(#pc7c3ace06a)" style="fill: #0000ff; fill-opacity: 0.7; stroke: #000000; stroke-linejoin: miter"/>
   </g>
   <g id="patch_94">
    <path d="M 531.327273 384.48 
L 541.472727 384.48 
L 541.472727 384.48 
L 531.327273 384.48 
z
" clip-path="url(#pc7c3ace06a)" style="fill: #0000ff; fill-opacity: 0.7; stroke: #000000; stroke-linejoin: miter"/>
   </g>
   <g id="patch_95">
    <path d="M 541.472727 384.48 
L 551.618182 384.48 
L 551.618182 384.48 
L 541.472727 384.48 
z
" clip-path="url(#pc7c3ace06a)" style="fill: #0000ff; fill-opacity: 0.7; stroke: #000000; stroke-linejoin: miter"/>
   </g>
   <g id="patch_96">
    <path d="M 551.618182 384.48 
L 561.763636 384.48 
L 561.763636 382.08 
L 551.618182 382.08 
z
" clip-path="url(#pc7c3ace06a)" style="fill: #0000ff; fill-opacity: 0.7; stroke: #000000; stroke-linejoin: miter"/>
   </g>
   <g id="patch_97">
    <path d="M 561.763636 384.48 
L 571.909091 384.48 
L 571.909091 382.08 
L 561.763636 382.08 
z
" clip-path="url(#pc7c3ace06a)" style="fill: #0000ff; fill-opacity: 0.7; stroke: #000000; stroke-linejoin: miter"/>
   </g>
   <g id="patch_98">
    <path d="M 571.909091 384.48 
L 582.054545 384.48 
L 582.054545 380.88 
L 571.909091 380.88 
z
" clip-path="url(#pc7c3ace06a)" style="fill: #0000ff; fill-opacity: 0.7; stroke: #000000; stroke-linejoin: miter"/>
   </g>
   <g id="patch_99">
    <path d="M 582.054545 384.48 
L 592.2 384.48 
L 592.2 374.88 
L 582.054545 374.88 
z
" clip-path="url(#pc7c3ace06a)" style="fill: #0000ff; fill-opacity: 0.7; stroke: #000000; stroke-linejoin: miter"/>
   </g>
   <g id="patch_100">
    <path d="M 592.2 384.48 
L 602.345455 384.48 
L 602.345455 377.28 
L 592.2 377.28 
z
" clip-path="url(#pc7c3ace06a)" style="fill: #0000ff; fill-opacity: 0.7; stroke: #000000; stroke-linejoin: miter"/>
   </g>
   <g id="patch_101">
    <path d="M 602.345455 384.48 
L 612.490909 384.48 
L 612.490909 377.28 
L 602.345455 377.28 
z
" clip-path="url(#pc7c3ace06a)" style="fill: #0000ff; fill-opacity: 0.7; stroke: #000000; stroke-linejoin: miter"/>
   </g>
   <g id="patch_102">
    <path d="M 612.490909 384.48 
L 622.636364 384.48 
L 622.636364 306.48 
L 612.490909 306.48 
z
" clip-path="url(#pc7c3ace06a)" style="fill: #0000ff; fill-opacity: 0.7; stroke: #000000; stroke-linejoin: miter"/>
   </g>
   <g id="matplotlib.axis_1">
    <g id="xtick_1">
     <g id="line2d_1">
      <path d="M 154.511894 384.48 
L 154.511894 51.84 
" clip-path="url(#pc7c3ace06a)" style="fill: none; stroke: #b0b0b0; stroke-opacity: 0.3; stroke-width: 0.8; stroke-linecap: square"/>
     </g>
     <g id="line2d_2">
      <defs>
       <path id="m54483e6793" d="M 0 0 
L 0 3.5 
" style="stroke: #000000; stroke-width: 0.8"/>
      </defs>
      <g>
       <use xlink:href="#m54483e6793" x="154.511894" y="384.48" style="stroke: #000000; stroke-width: 0.8"/>
      </g>
     </g>
     <g id="text_1">
      <text style="font: 10px 'DejaVu Sans', 'Bitstream Vera Sans', 'Computer Modern Sans Serif', 'Lucida Grande', 'Verdana', 'Geneva', 'Lucid', 'Arial', 'Helvetica', 'Avant Garde', sans-serif; text-anchor: middle" x="154.511894" y="399.078438" transform="rotate(-0 154.511894 399.078438)">−50</text>
     </g>
    </g>
    <g id="xtick_2">
     <g id="line2d_3">
      <path d="M 248.148865 384.48 
L 248.148865 51.84 
" clip-path="url(#pc7c3ace06a)" style="fill: none; stroke: #b0b0b0; stroke-opacity: 0.3; stroke-width: 0.8; stroke-linecap: square"/>
     </g>
     <g id="line2d_4">
      <g>
       <use xlink:href="#m54483e6793" x="248.148865" y="384.48" style="stroke: #000000; stroke-width: 0.8"/>
      </g>
     </g>
     <g id="text_2">
      <text style="font: 10px 'DejaVu Sans', 'Bitstream Vera Sans', 'Computer Modern Sans Serif', 'Lucida Grande', 'Verdana', 'Geneva', 'Lucid', 'Arial', 'Helvetica', 'Avant Garde', sans-serif; text-anchor: middle" x="248.148865" y="399.078438" transform="rotate(-0 248.148865 399.078438)">−40</text>
     </g>
    </g>
    <g id="xtick_3">
     <g id="line2d_5">
      <path d="M 341.785836 384.48 
L 341.785836 51.84 
" clip-path="url(#pc7c3ace06a)" style="fill: none; stroke: #b0b0b0; stroke-opacity: 0.3; stroke-width: 0.8; stroke-linecap: square"/>
     </g>
     <g id="line2d_6">
      <g>
       <use xlink:href="#m54483e6793" x="341.785836" y="384.48" style="stroke: #000000; stroke-width: 0.8"/>
      </g>
     </g>
     <g id="text_3">
      <text style="font: 10px 'DejaVu Sans', 'Bitstream Vera Sans', 'Computer Modern Sans Serif', 'Lucida Grande', 'Verdana', 'Geneva', 'Lucid', 'Arial', 'Helvetica', 'Avant Garde', sans-serif; text-anchor: middle" x="341.785836" y="399.078438" transform="rotate(-0 341.785836 399.078438)">−30</text>
     </g>
    </g>
    <g id="xtick_4">
     <g id="line2d_7">
      <path d="M 435.422807 384.48 
L 435.422807 51.84 
" clip-path="url(#pc7c3ace06a)" style="fill: none; stroke: #b0b0b0; stroke-opacity: 0.3; stroke-width: 0.8; stroke-linecap: square"/>
     </g>
     <g id="line2d_8">
      <g>
       <use xlink:href="#m54483e6793" x="435.422807" y="384.48" style="stroke: #000000; stroke-width: 0.8"/>
      </g>
     </g>
     <g id="text_4">
      <text style="font: 10px 'DejaVu Sans', 'Bitstream Vera Sans', 'Computer Modern Sans Serif', 'Lucida Grande', 'Verdana', 'Geneva', 'Lucid', 'Arial', 'Helvetica', 'Avant Garde', sans-serif; text-anchor: middle" x="435.422807" y="399.078438" transform="rotate(-0 435.422807 399.078438)">−20</text>
     </g>
    </g>
    <g id="xtick_5">
     <g id="line2d_9">
      <path d="M 529.059777 384.48 
L 529.059777 51.84 
" clip-path="url(#pc7c3ace06a)" style="fill: none; stroke: #b0b0b0; stroke-opacity: 0.3; stroke-width: 0.8; stroke-linecap: square"/>
     </g>
     <g id="line2d_10">
      <g>
       <use xlink:href="#m54483e6793" x="529.059777" y="384.48" style="stroke: #000000; stroke-width: 0.8"/>
      </g>
     </g>
     <g id="text_5">
      <text style="font: 10px 'DejaVu Sans', 'Bitstream Vera Sans', 'Computer Modern Sans Serif', 'Lucida Grande', 'Verdana', 'Geneva', 'Lucid', 'Arial', 'Helvetica', 'Avant Garde', sans-serif; text-anchor: middle" x="529.059777" y="399.078438" transform="rotate(-0 529.059777 399.078438)">−10</text>
     </g>
    </g>
    <g id="xtick_6">
     <g id="line2d_11">
      <path d="M 622.696748 384.48 
L 622.696748 51.84 
" clip-path="url(#pc7c3ace06a)" style="fill: none; stroke: #b0b0b0; stroke-opacity: 0.3; stroke-width: 0.8; stroke-linecap: square"/>
     </g>
     <g id="line2d_12">
      <g>
       <use xlink:href="#m54483e6793" x="622.696748" y="384.48" style="stroke: #000000; stroke-width: 0.8"/>
      </g>
     </g>
     <g id="text_6">
      <text style="font: 10px 'DejaVu Sans', 'Bitstream Vera Sans', 'Computer Modern Sans Serif', 'Lucida Grande', 'Verdana', 'Geneva', 'Lucid', 'Arial', 'Helvetica', 'Avant Garde', sans-serif; text-anchor: middle" x="622.696748" y="399.078438" transform="rotate(-0 622.696748 399.078438)">0</text>
     </g>
    </g>
    <g id="text_7">
     <text style="font: 10px 'DejaVu Sans', 'Bitstream Vera Sans', 'Computer Modern Sans Serif', 'Lucida Grande', 'Verdana', 'Geneva', 'Lucid', 'Arial', 'Helvetica', 'Avant Garde', sans-serif; text-anchor: middle" x="369" y="412.756563" transform="rotate(-0 369 412.756563)">score</text>
    </g>
   </g>
   <g id="matplotlib.axis_2">
    <g id="ytick_1">
     <g id="line2d_13">
      <path d="M 90 384.48 
L 648 384.48 
" clip-path="url(#pc7c3ace06a)" style="fill: none; stroke: #b0b0b0; stroke-opacity: 0.3; stroke-width: 0.8; stroke-linecap: square"/>
     </g>
     <g id="line2d_14">
      <defs>
       <path id="m9cc7241a36" d="M 0 0 
L -3.5 0 
" style="stroke: #000000; stroke-width: 0.8"/>
      </defs>
      <g>
       <use xlink:href="#m9cc7241a36" x="90" y="384.48" style="stroke: #000000; stroke-width: 0.8"/>
      </g>
     </g>
     <g id="text_8">
      <text style="font: 10px 'DejaVu Sans', 'Bitstream Vera Sans', 'Computer Modern Sans Serif', 'Lucida Grande', 'Verdana', 'Geneva', 'Lucid', 'Arial', 'Helvetica', 'Avant Garde', sans-serif; text-anchor: end" x="83" y="388.279219" transform="rotate(-0 83 388.279219)">0</text>
     </g>
    </g>
    <g id="ytick_2">
     <g id="line2d_15">
      <path d="M 90 324.48 
L 648 324.48 
" clip-path="url(#pc7c3ace06a)" style="fill: none; stroke: #b0b0b0; stroke-opacity: 0.3; stroke-width: 0.8; stroke-linecap: square"/>
     </g>
     <g id="line2d_16">
      <g>
       <use xlink:href="#m9cc7241a36" x="90" y="324.48" style="stroke: #000000; stroke-width: 0.8"/>
      </g>
     </g>
     <g id="text_9">
      <text style="font: 10px 'DejaVu Sans', 'Bitstream Vera Sans', 'Computer Modern Sans Serif', 'Lucida Grande', 'Verdana', 'Geneva', 'Lucid', 'Arial', 'Helvetica', 'Avant Garde', sans-serif; text-anchor: end" x="83" y="328.279219" transform="rotate(-0 83 328.279219)">50</text>
     </g>
    </g>
    <g id="ytick_3">
     <g id="line2d_17">
      <path d="M 90 264.48 
L 648 264.48 
" clip-path="url(#pc7c3ace06a)" style="fill: none; stroke: #b0b0b0; stroke-opacity: 0.3; stroke-width: 0.8; stroke-linecap: square"/>
     </g>
     <g id="line2d_18">
      <g>
       <use xlink:href="#m9cc7241a36" x="90" y="264.48" style="stroke: #000000; stroke-width: 0.8"/>
      </g>
     </g>
     <g id="text_10">
      <text style="font: 10px 'DejaVu Sans', 'Bitstream Vera Sans', 'Computer Modern Sans Serif', 'Lucida Grande', 'Verdana', 'Geneva', 'Lucid', 'Arial', 'Helvetica', 'Avant Garde', sans-serif; text-anchor: end" x="83" y="268.279219" transform="rotate(-0 83 268.279219)">100</text>
     </g>
    </g>
    <g id="ytick_4">
     <g id="line2d_19">
      <path d="M 90 204.48 
L 648 204.48 
" clip-path="url(#pc7c3ace06a)" style="fill: none; stroke: #b0b0b0; stroke-opacity: 0.3; stroke-width: 0.8; stroke-linecap: square"/>
     </g>
     <g id="line2d_20">
      <g>
       <use xlink:href="#m9cc7241a36" x="90" y="204.48" style="stroke: #000000; stroke-width: 0.8"/>
      </g>
     </g>
     <g id="text_11">
      <text style="font: 10px 'DejaVu Sans', 'Bitstream Vera Sans', 'Computer Modern Sans Serif', 'Lucida Grande', 'Verdana', 'Geneva', 'Lucid', 'Arial', 'Helvetica', 'Avant Garde', sans-serif; text-anchor: end" x="83" y="208.279219" transform="rotate(-0 83 208.279219)">150</text>
     </g>
    </g>
    <g id="ytick_5">
     <g id="line2d_21">
      <path d="M 90 144.48 
L 648 144.48 
" clip-path="url(#pc7c3ace06a)" style="fill: none; stroke: #b0b0b0; stroke-opacity: 0.3; stroke-width: 0.8; stroke-linecap: square"/>
     </g>
     <g id="line2d_22">
      <g>
       <use xlink:href="#m9cc7241a36" x="90" y="144.48" style="stroke: #000000; stroke-width: 0.8"/>
      </g>
     </g>
     <g id="text_12">
      <text style="font: 10px 'DejaVu Sans', 'Bitstream Vera Sans', 'Computer Modern Sans Serif', 'Lucida Grande', 'Verdana', 'Geneva', 'Lucid', 'Arial', 'Helvetica', 'Avant Garde', sans-serif; text-anchor: end" x="83" y="148.279219" transform="rotate(-0 83 148.279219)">200</text>
     </g>
    </g>
    <g id="ytick_6">
     <g id="line2d_23">
      <path d="M 90 84.48 
L 648 84.48 
" clip-path="url(#pc7c3ace06a)" style="fill: none; stroke: #b0b0b0; stroke-opacity: 0.3; stroke-width: 0.8; stroke-linecap: square"/>
     </g>
     <g id="line2d_24">
      <g>
       <use xlink:href="#m9cc7241a36" x="90" y="84.48" style="stroke: #000000; stroke-width: 0.8"/>
      </g>
     </g>
     <g id="text_13">
      <text style="font: 10px 'DejaVu Sans', 'Bitstream Vera Sans', 'Computer Modern Sans Serif', 'Lucida Grande', 'Verdana', 'Geneva', 'Lucid', 'Arial', 'Helvetica', 'Avant Garde', sans-serif; text-anchor: end" x="83" y="88.279219" transform="rotate(-0 83 88.279219)">250</text>
     </g>
    </g>
    <g id="text_14">
     <text style="font: 10px 'DejaVu Sans', 'Bitstream Vera Sans', 'Computer Modern Sans Serif', 'Lucida Grande', 'Verdana', 'Geneva', 'Lucid', 'Arial', 'Helvetica', 'Avant Garde', sans-serif; text-anchor: middle" x="57.832812" y="218.16" transform="rotate(-90 57.832812 218.16)">density</text>
    </g>
   </g>
   <g id="line2d_25">
    <path d="M 115.363636 376.489513 
L 135.75651 373.173899 
L 145.952947 371.800572 
L 153.600274 371.008859 
L 161.247602 370.47194 
L 168.894929 370.217636 
L 176.542257 370.253337 
L 184.189584 370.564308 
L 191.836912 371.114482 
L 202.033349 372.124807 
L 235.171768 375.750883 
L 245.368205 376.493869 
L 255.564641 376.981223 
L 268.310187 377.311753 
L 298.899497 377.91147 
L 311.645043 378.444713 
L 332.037917 379.603688 
L 344.783463 380.242188 
L 354.979899 380.507126 
L 362.627227 380.479309 
L 370.274555 380.20678 
L 377.921882 379.656928 
L 385.56921 378.814017 
L 393.216537 377.683577 
L 400.863865 376.295829 
L 411.060302 374.146448 
L 431.453175 369.639161 
L 439.100503 368.21 
L 446.74783 367.079877 
L 451.846048 366.526528 
L 456.944267 366.145716 
L 462.042485 365.937932 
L 467.140704 365.893997 
L 474.788031 366.091774 
L 484.984468 366.682306 
L 497.730014 367.474614 
L 505.377341 367.700377 
L 510.47556 367.655267 
L 515.573778 367.410735 
L 520.671996 366.93815 
L 525.770215 366.217594 
L 530.868433 365.238815 
L 535.966651 364.00181 
L 541.06487 362.517101 
L 546.163088 360.805682 
L 551.261307 358.898692 
L 558.908634 355.762835 
L 579.301508 347.116185 
L 584.399726 345.240539 
L 589.497944 343.612848 
L 594.596163 342.294167 
L 599.694381 341.337853 
L 604.792599 340.786924 
L 607.341709 340.673521 
L 609.890818 340.671765 
L 612.439927 340.783189 
L 614.989036 341.00835 
L 620.087254 341.797168 
L 622.636364 342.356997 
L 622.636364 342.356997 
" clip-path="url(#pc7c3ace06a)" style="fill: none; stroke: #ff0000; stroke-width: 1.5; stroke-linecap: square"/>
   </g>
   <g id="line2d_26">
    <path d="M 115.363636 383.0404 
L 153.600274 382.362677 
L 179.091366 382.148437 
L 204.582458 382.177303 
L 237.720877 382.464336 
L 319.292371 383.250558 
L 347.332572 383.288374 
L 370.274555 383.113219 
L 395.765646 382.691438 
L 464.591594 381.389511 
L 507.92645 380.744883 
L 525.770215 380.253218 
L 546.163088 379.453925 
L 586.948835 377.715319 
L 599.694381 377.412326 
L 612.439927 377.334447 
L 622.636364 377.454317 
L 622.636364 377.454317 
" clip-path="url(#pc7c3ace06a)" style="fill: none; stroke: #0000ff; stroke-width: 1.5; stroke-linecap: square"/>
   </g>
   <g id="line2d_27">
    <path d="M 482.042454 384.48 
L 482.042454 51.84 
" clip-path="url(#pc7c3ace06a)" style="fill: none; stroke-dasharray: 7.4,3.2; stroke-dashoffset: 0; stroke: #00008b; stroke-width: 2"/>
   </g>
   <g id="line2d_28">
    <path d="M 475.767166 384.48 
L 475.767166 51.84 
" clip-path="url(#pc7c3ace06a)" style="fill: none; stroke-dasharray: 7.4,3.2; stroke-dashoffset: 0; stroke: #8b0000; stroke-width: 2"/>
   </g>
   <g id="patch_103">
    <path d="M 90 384.48 
L 90 51.84 
" style="fill: none; stroke: #000000; stroke-width: 0.8; stroke-linejoin: miter; stroke-linecap: square"/>
   </g>
   <g id="patch_104">
    <path d="M 648 384.48 
L 648 51.84 
" style="fill: none; stroke: #000000; stroke-width: 0.8; stroke-linejoin: miter; stroke-linecap: square"/>
   </g>
   <g id="patch_105">
    <path d="M 90 384.48 
L 648 384.48 
" style="fill: none; stroke: #000000; stroke-width: 0.8; stroke-linejoin: miter; stroke-linecap: square"/>
   </g>
   <g id="patch_106">
    <path d="M 90 51.84 
L 648 51.84 
" style="fill: none; stroke: #000000; stroke-width: 0.8; stroke-linejoin: miter; stroke-linecap: square"/>
   </g>
   <g id="text_15">
    <text style="font: 12px 'DejaVu Sans', 'Bitstream Vera Sans', 'Computer Modern Sans Serif', 'Lucida Grande', 'Verdana', 'Geneva', 'Lucid', 'Arial', 'Helvetica', 'Avant Garde', sans-serif; text-anchor: middle" x="369" y="45.84" transform="rotate(-0 369 45.84)">TULIP</text>
   </g>
   <g id="legend_1">
    <g id="patch_107">
     <path d="M 97 103.874375 
L 172.7375 103.874375 
Q 174.7375 103.874375 174.7375 101.874375 
L 174.7375 58.84 
Q 174.7375 56.84 172.7375 56.84 
L 97 56.84 
Q 95 56.84 95 58.84 
L 95 101.874375 
Q 95 103.874375 97 103.874375 
z
" style="fill: #ffffff; opacity: 0.8; stroke: #cccccc; stroke-linejoin: miter"/>
    </g>
    <g id="text_16">
     <text style="font: 10px 'DejaVu Sans', 'Bitstream Vera Sans', 'Computer Modern Sans Serif', 'Lucida Grande', 'Verdana', 'Geneva', 'Lucid', 'Arial', 'Helvetica', 'Avant Garde', sans-serif; text-anchor: start" x="122.775781" y="68.438437" transform="rotate(-0 122.775781 68.438437)">label</text>
    </g>
    <g id="patch_108">
     <path d="M 99 83.116562 
L 119 83.116562 
L 119 76.116562 
L 99 76.116562 
z
" style="fill: #0000ff; fill-opacity: 0.7; stroke: #000000; stroke-linejoin: miter"/>
    </g>
    <g id="text_17">
     <text style="font: 10px 'DejaVu Sans', 'Bitstream Vera Sans', 'Computer Modern Sans Serif', 'Lucida Grande', 'Verdana', 'Geneva', 'Lucid', 'Arial', 'Helvetica', 'Avant Garde', sans-serif; text-anchor: start" x="127" y="83.116562" transform="rotate(-0 127 83.116562)">positive</text>
    </g>
    <g id="patch_109">
     <path d="M 99 97.794688 
L 119 97.794688 
L 119 90.794688 
L 99 90.794688 
z
" style="fill: #ff0000; fill-opacity: 0.7; stroke: #000000; stroke-linejoin: miter"/>
    </g>
    <g id="text_18">
     <text style="font: 10px 'DejaVu Sans', 'Bitstream Vera Sans', 'Computer Modern Sans Serif', 'Lucida Grande', 'Verdana', 'Geneva', 'Lucid', 'Arial', 'Helvetica', 'Avant Garde', sans-serif; text-anchor: start" x="127" y="97.794688" transform="rotate(-0 127 97.794688)">negative</text>
    </g>
   </g>
  </g>
 </g>
 <defs>
  <clipPath id="pc7c3ace06a">
   <rect x="90" y="51.84" width="558" height="332.64"/>
  </clipPath>
 </defs>
</svg>
