<?xml version="1.0" encoding="utf-8" standalone="no"?>
<!DOCTYPE svg PUBLIC "-//W3C//DTD SVG 1.1//EN"
  "http://www.w3.org/Graphics/SVG/1.1/DTD/svg11.dtd">
<svg xmlns:xlink="http://www.w3.org/1999/xlink" width="720pt" height="432pt" viewBox="0 0 720 432" xmlns="http://www.w3.org/2000/svg" version="1.1">
 <metadata>
  <rdf:RDF xmlns:dc="http://purl.org/dc/elements/1.1/" xmlns:cc="http://creativecommons.org/ns#" xmlns:rdf="http://www.w3.org/1999/02/22-rdf-syntax-ns#">
   <cc:Work>
    <dc:type rdf:resource="http://purl.org/dc/dcmitype/StillImage"/>
    <dc:date>2025-11-13T08:39:56.398125</dc:date>
    <dc:format>image/svg+xml</dc:format>
    <dc:creator>
     <cc:Agent>
      <dc:title>Matplotlib v3.9.4, https://matplotlib.org/</dc:title>
     </cc:Agent>
    </dc:creator>
   </cc:Work>
  </rdf:RDF>
 </metadata>
 <defs>
  <style type="text/css">*{stroke-linejoin: round; stroke-linecap: butt}</style>
 </defs>
 <g id="figure_1">
  <g id="patch_1">
   <path d="M 0 432 
L 720 432 
L 720 0 
L 0 0 
z
" style="fill: #ffffff"/>
  </g>
  <g id="axes_1">
   <g id="patch_2">
    <path d="M 90 384.48 
L 648 384.48 
L 648 51.84 
L 90 51.84 
z
" style="fill: #ffffff"/>
   </g>
   <g id="patch_3">
    <path d="M 115.363636 384.48 
L 125.509091 384.48 
L 125.509091 368.64 
L 115.363636 368.64 
z
" clip-path="url(#p9c865ef8a9)" style="fill: #ff0000; fill-opacity: 0.7; stroke: #000000; stroke-linejoin: miter"/>
   </g>
   <g id="patch_4">
    <path d="M 125.509091 384.48 
L 135.654545 384.48 
L 135.654545 384.48 
L 125.509091 384.48 
z
" clip-path="url(#p9c865ef8a9)" style="fill: #ff0000; fill-opacity: 0.7; stroke: #000000; stroke-linejoin: miter"/>
   </g>
   <g id="patch_5">
    <path d="M 135.654545 384.48 
L 145.8 384.48 
L 145.8 344.88 
L 135.654545 344.88 
z
" clip-path="url(#p9c865ef8a9)" style="fill: #ff0000; fill-opacity: 0.7; stroke: #000000; stroke-linejoin: miter"/>
   </g>
   <g id="patch_6">
    <path d="M 145.8 384.48 
L 155.945455 384.48 
L 155.945455 336.96 
L 145.8 336.96 
z
" clip-path="url(#p9c865ef8a9)" style="fill: #ff0000; fill-opacity: 0.7; stroke: #000000; stroke-linejoin: miter"/>
   </g>
   <g id="patch_7">
    <path d="M 155.945455 384.48 
L 166.090909 384.48 
L 166.090909 297.36 
L 155.945455 297.36 
z
" clip-path="url(#p9c865ef8a9)" style="fill: #ff0000; fill-opacity: 0.7; stroke: #000000; stroke-linejoin: miter"/>
   </g>
   <g id="patch_8">
    <path d="M 166.090909 384.48 
L 176.236364 384.48 
L 176.236364 265.68 
L 166.090909 265.68 
z
" clip-path="url(#p9c865ef8a9)" style="fill: #ff0000; fill-opacity: 0.7; stroke: #000000; stroke-linejoin: miter"/>
   </g>
   <g id="patch_9">
    <path d="M 176.236364 384.48 
L 186.381818 384.48 
L 186.381818 273.6 
L 176.236364 273.6 
z
" clip-path="url(#p9c865ef8a9)" style="fill: #ff0000; fill-opacity: 0.7; stroke: #000000; stroke-linejoin: miter"/>
   </g>
   <g id="patch_10">
    <path d="M 186.381818 384.48 
L 196.527273 384.48 
L 196.527273 194.4 
L 186.381818 194.4 
z
" clip-path="url(#p9c865ef8a9)" style="fill: #ff0000; fill-opacity: 0.7; stroke: #000000; stroke-linejoin: miter"/>
   </g>
   <g id="patch_11">
    <path d="M 196.527273 384.48 
L 206.672727 384.48 
L 206.672727 146.88 
L 196.527273 146.88 
z
" clip-path="url(#p9c865ef8a9)" style="fill: #ff0000; fill-opacity: 0.7; stroke: #000000; stroke-linejoin: miter"/>
   </g>
   <g id="patch_12">
    <path d="M 206.672727 384.48 
L 216.818182 384.48 
L 216.818182 83.52 
L 206.672727 83.52 
z
" clip-path="url(#p9c865ef8a9)" style="fill: #ff0000; fill-opacity: 0.7; stroke: #000000; stroke-linejoin: miter"/>
   </g>
   <g id="patch_13">
    <path d="M 216.818182 384.48 
L 226.963636 384.48 
L 226.963636 138.96 
L 216.818182 138.96 
z
" clip-path="url(#p9c865ef8a9)" style="fill: #ff0000; fill-opacity: 0.7; stroke: #000000; stroke-linejoin: miter"/>
   </g>
   <g id="patch_14">
    <path d="M 226.963636 384.48 
L 237.109091 384.48 
L 237.109091 67.68 
L 226.963636 67.68 
z
" clip-path="url(#p9c865ef8a9)" style="fill: #ff0000; fill-opacity: 0.7; stroke: #000000; stroke-linejoin: miter"/>
   </g>
   <g id="patch_15">
    <path d="M 237.109091 384.48 
L 247.254545 384.48 
L 247.254545 75.6 
L 237.109091 75.6 
z
" clip-path="url(#p9c865ef8a9)" style="fill: #ff0000; fill-opacity: 0.7; stroke: #000000; stroke-linejoin: miter"/>
   </g>
   <g id="patch_16">
    <path d="M 247.254545 384.48 
L 257.4 384.48 
L 257.4 186.48 
L 247.254545 186.48 
z
" clip-path="url(#p9c865ef8a9)" style="fill: #ff0000; fill-opacity: 0.7; stroke: #000000; stroke-linejoin: miter"/>
   </g>
   <g id="patch_17">
    <path d="M 257.4 384.48 
L 267.545455 384.48 
L 267.545455 170.64 
L 257.4 170.64 
z
" clip-path="url(#p9c865ef8a9)" style="fill: #ff0000; fill-opacity: 0.7; stroke: #000000; stroke-linejoin: miter"/>
   </g>
   <g id="patch_18">
    <path d="M 267.545455 384.48 
L 277.690909 384.48 
L 277.690909 123.12 
L 267.545455 123.12 
z
" clip-path="url(#p9c865ef8a9)" style="fill: #ff0000; fill-opacity: 0.7; stroke: #000000; stroke-linejoin: miter"/>
   </g>
   <g id="patch_19">
    <path d="M 277.690909 384.48 
L 287.836364 384.48 
L 287.836364 75.6 
L 277.690909 75.6 
z
" clip-path="url(#p9c865ef8a9)" style="fill: #ff0000; fill-opacity: 0.7; stroke: #000000; stroke-linejoin: miter"/>
   </g>
   <g id="patch_20">
    <path d="M 287.836364 384.48 
L 297.981818 384.48 
L 297.981818 194.4 
L 287.836364 194.4 
z
" clip-path="url(#p9c865ef8a9)" style="fill: #ff0000; fill-opacity: 0.7; stroke: #000000; stroke-linejoin: miter"/>
   </g>
   <g id="patch_21">
    <path d="M 297.981818 384.48 
L 308.127273 384.48 
L 308.127273 154.8 
L 297.981818 154.8 
z
" clip-path="url(#p9c865ef8a9)" style="fill: #ff0000; fill-opacity: 0.7; stroke: #000000; stroke-linejoin: miter"/>
   </g>
   <g id="patch_22">
    <path d="M 308.127273 384.48 
L 318.272727 384.48 
L 318.272727 162.72 
L 308.127273 162.72 
z
" clip-path="url(#p9c865ef8a9)" style="fill: #ff0000; fill-opacity: 0.7; stroke: #000000; stroke-linejoin: miter"/>
   </g>
   <g id="patch_23">
    <path d="M 318.272727 384.48 
L 328.418182 384.48 
L 328.418182 210.24 
L 318.272727 210.24 
z
" clip-path="url(#p9c865ef8a9)" style="fill: #ff0000; fill-opacity: 0.7; stroke: #000000; stroke-linejoin: miter"/>
   </g>
   <g id="patch_24">
    <path d="M 328.418182 384.48 
L 338.563636 384.48 
L 338.563636 210.24 
L 328.418182 210.24 
z
" clip-path="url(#p9c865ef8a9)" style="fill: #ff0000; fill-opacity: 0.7; stroke: #000000; stroke-linejoin: miter"/>
   </g>
   <g id="patch_25">
    <path d="M 338.563636 384.48 
L 348.709091 384.48 
L 348.709091 218.16 
L 338.563636 218.16 
z
" clip-path="url(#p9c865ef8a9)" style="fill: #ff0000; fill-opacity: 0.7; stroke: #000000; stroke-linejoin: miter"/>
   </g>
   <g id="patch_26">
    <path d="M 348.709091 384.48 
L 358.854545 384.48 
L 358.854545 186.48 
L 348.709091 186.48 
z
" clip-path="url(#p9c865ef8a9)" style="fill: #ff0000; fill-opacity: 0.7; stroke: #000000; stroke-linejoin: miter"/>
   </g>
   <g id="patch_27">
    <path d="M 358.854545 384.48 
L 369 384.48 
L 369 210.24 
L 358.854545 210.24 
z
" clip-path="url(#p9c865ef8a9)" style="fill: #ff0000; fill-opacity: 0.7; stroke: #000000; stroke-linejoin: miter"/>
   </g>
   <g id="patch_28">
    <path d="M 369 384.48 
L 379.145455 384.48 
L 379.145455 226.08 
L 369 226.08 
z
" clip-path="url(#p9c865ef8a9)" style="fill: #ff0000; fill-opacity: 0.7; stroke: #000000; stroke-linejoin: miter"/>
   </g>
   <g id="patch_29">
    <path d="M 379.145455 384.48 
L 389.290909 384.48 
L 389.290909 194.4 
L 379.145455 194.4 
z
" clip-path="url(#p9c865ef8a9)" style="fill: #ff0000; fill-opacity: 0.7; stroke: #000000; stroke-linejoin: miter"/>
   </g>
   <g id="patch_30">
    <path d="M 389.290909 384.48 
L 399.436364 384.48 
L 399.436364 241.92 
L 389.290909 241.92 
z
" clip-path="url(#p9c865ef8a9)" style="fill: #ff0000; fill-opacity: 0.7; stroke: #000000; stroke-linejoin: miter"/>
   </g>
   <g id="patch_31">
    <path d="M 399.436364 384.48 
L 409.581818 384.48 
L 409.581818 257.76 
L 399.436364 257.76 
z
" clip-path="url(#p9c865ef8a9)" style="fill: #ff0000; fill-opacity: 0.7; stroke: #000000; stroke-linejoin: miter"/>
   </g>
   <g id="patch_32">
    <path d="M 409.581818 384.48 
L 419.727273 384.48 
L 419.727273 249.84 
L 409.581818 249.84 
z
" clip-path="url(#p9c865ef8a9)" style="fill: #ff0000; fill-opacity: 0.7; stroke: #000000; stroke-linejoin: miter"/>
   </g>
   <g id="patch_33">
    <path d="M 419.727273 384.48 
L 429.872727 384.48 
L 429.872727 265.68 
L 419.727273 265.68 
z
" clip-path="url(#p9c865ef8a9)" style="fill: #ff0000; fill-opacity: 0.7; stroke: #000000; stroke-linejoin: miter"/>
   </g>
   <g id="patch_34">
    <path d="M 429.872727 384.48 
L 440.018182 384.48 
L 440.018182 234 
L 429.872727 234 
z
" clip-path="url(#p9c865ef8a9)" style="fill: #ff0000; fill-opacity: 0.7; stroke: #000000; stroke-linejoin: miter"/>
   </g>
   <g id="patch_35">
    <path d="M 440.018182 384.48 
L 450.163636 384.48 
L 450.163636 305.28 
L 440.018182 305.28 
z
" clip-path="url(#p9c865ef8a9)" style="fill: #ff0000; fill-opacity: 0.7; stroke: #000000; stroke-linejoin: miter"/>
   </g>
   <g id="patch_36">
    <path d="M 450.163636 384.48 
L 460.309091 384.48 
L 460.309091 273.6 
L 450.163636 273.6 
z
" clip-path="url(#p9c865ef8a9)" style="fill: #ff0000; fill-opacity: 0.7; stroke: #000000; stroke-linejoin: miter"/>
   </g>
   <g id="patch_37">
    <path d="M 460.309091 384.48 
L 470.454545 384.48 
L 470.454545 305.28 
L 460.309091 305.28 
z
" clip-path="url(#p9c865ef8a9)" style="fill: #ff0000; fill-opacity: 0.7; stroke: #000000; stroke-linejoin: miter"/>
   </g>
   <g id="patch_38">
    <path d="M 470.454545 384.48 
L 480.6 384.48 
L 480.6 321.12 
L 470.454545 321.12 
z
" clip-path="url(#p9c865ef8a9)" style="fill: #ff0000; fill-opacity: 0.7; stroke: #000000; stroke-linejoin: miter"/>
   </g>
   <g id="patch_39">
    <path d="M 480.6 384.48 
L 490.745455 384.48 
L 490.745455 336.96 
L 480.6 336.96 
z
" clip-path="url(#p9c865ef8a9)" style="fill: #ff0000; fill-opacity: 0.7; stroke: #000000; stroke-linejoin: miter"/>
   </g>
   <g id="patch_40">
    <path d="M 490.745455 384.48 
L 500.890909 384.48 
L 500.890909 289.44 
L 490.745455 289.44 
z
" clip-path="url(#p9c865ef8a9)" style="fill: #ff0000; fill-opacity: 0.7; stroke: #000000; stroke-linejoin: miter"/>
   </g>
   <g id="patch_41">
    <path d="M 500.890909 384.48 
L 511.036364 384.48 
L 511.036364 336.96 
L 500.890909 336.96 
z
" clip-path="url(#p9c865ef8a9)" style="fill: #ff0000; fill-opacity: 0.7; stroke: #000000; stroke-linejoin: miter"/>
   </g>
   <g id="patch_42">
    <path d="M 511.036364 384.48 
L 521.181818 384.48 
L 521.181818 321.12 
L 511.036364 321.12 
z
" clip-path="url(#p9c865ef8a9)" style="fill: #ff0000; fill-opacity: 0.7; stroke: #000000; stroke-linejoin: miter"/>
   </g>
   <g id="patch_43">
    <path d="M 521.181818 384.48 
L 531.327273 384.48 
L 531.327273 313.2 
L 521.181818 313.2 
z
" clip-path="url(#p9c865ef8a9)" style="fill: #ff0000; fill-opacity: 0.7; stroke: #000000; stroke-linejoin: miter"/>
   </g>
   <g id="patch_44">
    <path d="M 531.327273 384.48 
L 541.472727 384.48 
L 541.472727 289.44 
L 531.327273 289.44 
z
" clip-path="url(#p9c865ef8a9)" style="fill: #ff0000; fill-opacity: 0.7; stroke: #000000; stroke-linejoin: miter"/>
   </g>
   <g id="patch_45">
    <path d="M 541.472727 384.48 
L 551.618182 384.48 
L 551.618182 376.56 
L 541.472727 376.56 
z
" clip-path="url(#p9c865ef8a9)" style="fill: #ff0000; fill-opacity: 0.7; stroke: #000000; stroke-linejoin: miter"/>
   </g>
   <g id="patch_46">
    <path d="M 551.618182 384.48 
L 561.763636 384.48 
L 561.763636 329.04 
L 551.618182 329.04 
z
" clip-path="url(#p9c865ef8a9)" style="fill: #ff0000; fill-opacity: 0.7; stroke: #000000; stroke-linejoin: miter"/>
   </g>
   <g id="patch_47">
    <path d="M 561.763636 384.48 
L 571.909091 384.48 
L 571.909091 344.88 
L 561.763636 344.88 
z
" clip-path="url(#p9c865ef8a9)" style="fill: #ff0000; fill-opacity: 0.7; stroke: #000000; stroke-linejoin: miter"/>
   </g>
   <g id="patch_48">
    <path d="M 571.909091 384.48 
L 582.054545 384.48 
L 582.054545 336.96 
L 571.909091 336.96 
z
" clip-path="url(#p9c865ef8a9)" style="fill: #ff0000; fill-opacity: 0.7; stroke: #000000; stroke-linejoin: miter"/>
   </g>
   <g id="patch_49">
    <path d="M 582.054545 384.48 
L 592.2 384.48 
L 592.2 368.64 
L 582.054545 368.64 
z
" clip-path="url(#p9c865ef8a9)" style="fill: #ff0000; fill-opacity: 0.7; stroke: #000000; stroke-linejoin: miter"/>
   </g>
   <g id="patch_50">
    <path d="M 592.2 384.48 
L 602.345455 384.48 
L 602.345455 368.64 
L 592.2 368.64 
z
" clip-path="url(#p9c865ef8a9)" style="fill: #ff0000; fill-opacity: 0.7; stroke: #000000; stroke-linejoin: miter"/>
   </g>
   <g id="patch_51">
    <path d="M 602.345455 384.48 
L 612.490909 384.48 
L 612.490909 376.56 
L 602.345455 376.56 
z
" clip-path="url(#p9c865ef8a9)" style="fill: #ff0000; fill-opacity: 0.7; stroke: #000000; stroke-linejoin: miter"/>
   </g>
   <g id="patch_52">
    <path d="M 612.490909 384.48 
L 622.636364 384.48 
L 622.636364 384.48 
L 612.490909 384.48 
z
" clip-path="url(#p9c865ef8a9)" style="fill: #ff0000; fill-opacity: 0.7; stroke: #000000; stroke-linejoin: miter"/>
   </g>
   <g id="patch_53">
    <path d="M 115.363636 384.48 
L 125.509091 384.48 
L 125.509091 384.48 
L 115.363636 384.48 
z
" clip-path="url(#p9c865ef8a9)" style="fill: #0000ff; fill-opacity: 0.7; stroke: #000000; stroke-linejoin: miter"/>
   </g>
   <g id="patch_54">
    <path d="M 125.509091 384.48 
L 135.654545 384.48 
L 135.654545 384.48 
L 125.509091 384.48 
z
" clip-path="url(#p9c865ef8a9)" style="fill: #0000ff; fill-opacity: 0.7; stroke: #000000; stroke-linejoin: miter"/>
   </g>
   <g id="patch_55">
    <path d="M 135.654545 384.48 
L 145.8 384.48 
L 145.8 368.64 
L 135.654545 368.64 
z
" clip-path="url(#p9c865ef8a9)" style="fill: #0000ff; fill-opacity: 0.7; stroke: #000000; stroke-linejoin: miter"/>
   </g>
   <g id="patch_56">
    <path d="M 145.8 384.48 
L 155.945455 384.48 
L 155.945455 376.56 
L 145.8 376.56 
z
" clip-path="url(#p9c865ef8a9)" style="fill: #0000ff; fill-opacity: 0.7; stroke: #000000; stroke-linejoin: miter"/>
   </g>
   <g id="patch_57">
    <path d="M 155.945455 384.48 
L 166.090909 384.48 
L 166.090909 376.56 
L 155.945455 376.56 
z
" clip-path="url(#p9c865ef8a9)" style="fill: #0000ff; fill-opacity: 0.7; stroke: #000000; stroke-linejoin: miter"/>
   </g>
   <g id="patch_58">
    <path d="M 166.090909 384.48 
L 176.236364 384.48 
L 176.236364 344.88 
L 166.090909 344.88 
z
" clip-path="url(#p9c865ef8a9)" style="fill: #0000ff; fill-opacity: 0.7; stroke: #000000; stroke-linejoin: miter"/>
   </g>
   <g id="patch_59">
    <path d="M 176.236364 384.48 
L 186.381818 384.48 
L 186.381818 336.96 
L 176.236364 336.96 
z
" clip-path="url(#p9c865ef8a9)" style="fill: #0000ff; fill-opacity: 0.7; stroke: #000000; stroke-linejoin: miter"/>
   </g>
   <g id="patch_60">
    <path d="M 186.381818 384.48 
L 196.527273 384.48 
L 196.527273 313.2 
L 186.381818 313.2 
z
" clip-path="url(#p9c865ef8a9)" style="fill: #0000ff; fill-opacity: 0.7; stroke: #000000; stroke-linejoin: miter"/>
   </g>
   <g id="patch_61">
    <path d="M 196.527273 384.48 
L 206.672727 384.48 
L 206.672727 297.36 
L 196.527273 297.36 
z
" clip-path="url(#p9c865ef8a9)" style="fill: #0000ff; fill-opacity: 0.7; stroke: #000000; stroke-linejoin: miter"/>
   </g>
   <g id="patch_62">
    <path d="M 206.672727 384.48 
L 216.818182 384.48 
L 216.818182 313.2 
L 206.672727 313.2 
z
" clip-path="url(#p9c865ef8a9)" style="fill: #0000ff; fill-opacity: 0.7; stroke: #000000; stroke-linejoin: miter"/>
   </g>
   <g id="patch_63">
    <path d="M 216.818182 384.48 
L 226.963636 384.48 
L 226.963636 336.96 
L 216.818182 336.96 
z
" clip-path="url(#p9c865ef8a9)" style="fill: #0000ff; fill-opacity: 0.7; stroke: #000000; stroke-linejoin: miter"/>
   </g>
   <g id="patch_64">
    <path d="M 226.963636 384.48 
L 237.109091 384.48 
L 237.109091 336.96 
L 226.963636 336.96 
z
" clip-path="url(#p9c865ef8a9)" style="fill: #0000ff; fill-opacity: 0.7; stroke: #000000; stroke-linejoin: miter"/>
   </g>
   <g id="patch_65">
    <path d="M 237.109091 384.48 
L 247.254545 384.48 
L 247.254545 305.28 
L 237.109091 305.28 
z
" clip-path="url(#p9c865ef8a9)" style="fill: #0000ff; fill-opacity: 0.7; stroke: #000000; stroke-linejoin: miter"/>
   </g>
   <g id="patch_66">
    <path d="M 247.254545 384.48 
L 257.4 384.48 
L 257.4 344.88 
L 247.254545 344.88 
z
" clip-path="url(#p9c865ef8a9)" style="fill: #0000ff; fill-opacity: 0.7; stroke: #000000; stroke-linejoin: miter"/>
   </g>
   <g id="patch_67">
    <path d="M 257.4 384.48 
L 267.545455 384.48 
L 267.545455 360.72 
L 257.4 360.72 
z
" clip-path="url(#p9c865ef8a9)" style="fill: #0000ff; fill-opacity: 0.7; stroke: #000000; stroke-linejoin: miter"/>
   </g>
   <g id="patch_68">
    <path d="M 267.545455 384.48 
L 277.690909 384.48 
L 277.690909 352.8 
L 267.545455 352.8 
z
" clip-path="url(#p9c865ef8a9)" style="fill: #0000ff; fill-opacity: 0.7; stroke: #000000; stroke-linejoin: miter"/>
   </g>
   <g id="patch_69">
    <path d="M 277.690909 384.48 
L 287.836364 384.48 
L 287.836364 352.8 
L 277.690909 352.8 
z
" clip-path="url(#p9c865ef8a9)" style="fill: #0000ff; fill-opacity: 0.7; stroke: #000000; stroke-linejoin: miter"/>
   </g>
   <g id="patch_70">
    <path d="M 287.836364 384.48 
L 297.981818 384.48 
L 297.981818 376.56 
L 287.836364 376.56 
z
" clip-path="url(#p9c865ef8a9)" style="fill: #0000ff; fill-opacity: 0.7; stroke: #000000; stroke-linejoin: miter"/>
   </g>
   <g id="patch_71">
    <path d="M 297.981818 384.48 
L 308.127273 384.48 
L 308.127273 344.88 
L 297.981818 344.88 
z
" clip-path="url(#p9c865ef8a9)" style="fill: #0000ff; fill-opacity: 0.7; stroke: #000000; stroke-linejoin: miter"/>
   </g>
   <g id="patch_72">
    <path d="M 308.127273 384.48 
L 318.272727 384.48 
L 318.272727 376.56 
L 308.127273 376.56 
z
" clip-path="url(#p9c865ef8a9)" style="fill: #0000ff; fill-opacity: 0.7; stroke: #000000; stroke-linejoin: miter"/>
   </g>
   <g id="patch_73">
    <path d="M 318.272727 384.48 
L 328.418182 384.48 
L 328.418182 360.72 
L 318.272727 360.72 
z
" clip-path="url(#p9c865ef8a9)" style="fill: #0000ff; fill-opacity: 0.7; stroke: #000000; stroke-linejoin: miter"/>
   </g>
   <g id="patch_74">
    <path d="M 328.418182 384.48 
L 338.563636 384.48 
L 338.563636 360.72 
L 328.418182 360.72 
z
" clip-path="url(#p9c865ef8a9)" style="fill: #0000ff; fill-opacity: 0.7; stroke: #000000; stroke-linejoin: miter"/>
   </g>
   <g id="patch_75">
    <path d="M 338.563636 384.48 
L 348.709091 384.48 
L 348.709091 313.2 
L 338.563636 313.2 
z
" clip-path="url(#p9c865ef8a9)" style="fill: #0000ff; fill-opacity: 0.7; stroke: #000000; stroke-linejoin: miter"/>
   </g>
   <g id="patch_76">
    <path d="M 348.709091 384.48 
L 358.854545 384.48 
L 358.854545 344.88 
L 348.709091 344.88 
z
" clip-path="url(#p9c865ef8a9)" style="fill: #0000ff; fill-opacity: 0.7; stroke: #000000; stroke-linejoin: miter"/>
   </g>
   <g id="patch_77">
    <path d="M 358.854545 384.48 
L 369 384.48 
L 369 384.48 
L 358.854545 384.48 
z
" clip-path="url(#p9c865ef8a9)" style="fill: #0000ff; fill-opacity: 0.7; stroke: #000000; stroke-linejoin: miter"/>
   </g>
   <g id="patch_78">
    <path d="M 369 384.48 
L 379.145455 384.48 
L 379.145455 336.96 
L 369 336.96 
z
" clip-path="url(#p9c865ef8a9)" style="fill: #0000ff; fill-opacity: 0.7; stroke: #000000; stroke-linejoin: miter"/>
   </g>
   <g id="patch_79">
    <path d="M 379.145455 384.48 
L 389.290909 384.48 
L 389.290909 321.12 
L 379.145455 321.12 
z
" clip-path="url(#p9c865ef8a9)" style="fill: #0000ff; fill-opacity: 0.7; stroke: #000000; stroke-linejoin: miter"/>
   </g>
   <g id="patch_80">
    <path d="M 389.290909 384.48 
L 399.436364 384.48 
L 399.436364 368.64 
L 389.290909 368.64 
z
" clip-path="url(#p9c865ef8a9)" style="fill: #0000ff; fill-opacity: 0.7; stroke: #000000; stroke-linejoin: miter"/>
   </g>
   <g id="patch_81">
    <path d="M 399.436364 384.48 
L 409.581818 384.48 
L 409.581818 336.96 
L 399.436364 336.96 
z
" clip-path="url(#p9c865ef8a9)" style="fill: #0000ff; fill-opacity: 0.7; stroke: #000000; stroke-linejoin: miter"/>
   </g>
   <g id="patch_82">
    <path d="M 409.581818 384.48 
L 419.727273 384.48 
L 419.727273 368.64 
L 409.581818 368.64 
z
" clip-path="url(#p9c865ef8a9)" style="fill: #0000ff; fill-opacity: 0.7; stroke: #000000; stroke-linejoin: miter"/>
   </g>
   <g id="patch_83">
    <path d="M 419.727273 384.48 
L 429.872727 384.48 
L 429.872727 352.8 
L 419.727273 352.8 
z
" clip-path="url(#p9c865ef8a9)" style="fill: #0000ff; fill-opacity: 0.7; stroke: #000000; stroke-linejoin: miter"/>
   </g>
   <g id="patch_84">
    <path d="M 429.872727 384.48 
L 440.018182 384.48 
L 440.018182 368.64 
L 429.872727 368.64 
z
" clip-path="url(#p9c865ef8a9)" style="fill: #0000ff; fill-opacity: 0.7; stroke: #000000; stroke-linejoin: miter"/>
   </g>
   <g id="patch_85">
    <path d="M 440.018182 384.48 
L 450.163636 384.48 
L 450.163636 360.72 
L 440.018182 360.72 
z
" clip-path="url(#p9c865ef8a9)" style="fill: #0000ff; fill-opacity: 0.7; stroke: #000000; stroke-linejoin: miter"/>
   </g>
   <g id="patch_86">
    <path d="M 450.163636 384.48 
L 460.309091 384.48 
L 460.309091 384.48 
L 450.163636 384.48 
z
" clip-path="url(#p9c865ef8a9)" style="fill: #0000ff; fill-opacity: 0.7; stroke: #000000; stroke-linejoin: miter"/>
   </g>
   <g id="patch_87">
    <path d="M 460.309091 384.48 
L 470.454545 384.48 
L 470.454545 360.72 
L 460.309091 360.72 
z
" clip-path="url(#p9c865ef8a9)" style="fill: #0000ff; fill-opacity: 0.7; stroke: #000000; stroke-linejoin: miter"/>
   </g>
   <g id="patch_88">
    <path d="M 470.454545 384.48 
L 480.6 384.48 
L 480.6 368.64 
L 470.454545 368.64 
z
" clip-path="url(#p9c865ef8a9)" style="fill: #0000ff; fill-opacity: 0.7; stroke: #000000; stroke-linejoin: miter"/>
   </g>
   <g id="patch_89">
    <path d="M 480.6 384.48 
L 490.745455 384.48 
L 490.745455 360.72 
L 480.6 360.72 
z
" clip-path="url(#p9c865ef8a9)" style="fill: #0000ff; fill-opacity: 0.7; stroke: #000000; stroke-linejoin: miter"/>
   </g>
   <g id="patch_90">
    <path d="M 490.745455 384.48 
L 500.890909 384.48 
L 500.890909 360.72 
L 490.745455 360.72 
z
" clip-path="url(#p9c865ef8a9)" style="fill: #0000ff; fill-opacity: 0.7; stroke: #000000; stroke-linejoin: miter"/>
   </g>
   <g id="patch_91">
    <path d="M 500.890909 384.48 
L 511.036364 384.48 
L 511.036364 360.72 
L 500.890909 360.72 
z
" clip-path="url(#p9c865ef8a9)" style="fill: #0000ff; fill-opacity: 0.7; stroke: #000000; stroke-linejoin: miter"/>
   </g>
   <g id="patch_92">
    <path d="M 511.036364 384.48 
L 521.181818 384.48 
L 521.181818 376.56 
L 511.036364 376.56 
z
" clip-path="url(#p9c865ef8a9)" style="fill: #0000ff; fill-opacity: 0.7; stroke: #000000; stroke-linejoin: miter"/>
   </g>
   <g id="patch_93">
    <path d="M 521.181818 384.48 
L 531.327273 384.48 
L 531.327273 384.48 
L 521.181818 384.48 
z
" clip-path="url(#p9c865ef8a9)" style="fill: #0000ff; fill-opacity: 0.7; stroke: #000000; stroke-linejoin: miter"/>
   </g>
   <g id="patch_94">
    <path d="M 531.327273 384.48 
L 541.472727 384.48 
L 541.472727 368.64 
L 531.327273 368.64 
z
" clip-path="url(#p9c865ef8a9)" style="fill: #0000ff; fill-opacity: 0.7; stroke: #000000; stroke-linejoin: miter"/>
   </g>
   <g id="patch_95">
    <path d="M 541.472727 384.48 
L 551.618182 384.48 
L 551.618182 376.56 
L 541.472727 376.56 
z
" clip-path="url(#p9c865ef8a9)" style="fill: #0000ff; fill-opacity: 0.7; stroke: #000000; stroke-linejoin: miter"/>
   </g>
   <g id="patch_96">
    <path d="M 551.618182 384.48 
L 561.763636 384.48 
L 561.763636 376.56 
L 551.618182 376.56 
z
" clip-path="url(#p9c865ef8a9)" style="fill: #0000ff; fill-opacity: 0.7; stroke: #000000; stroke-linejoin: miter"/>
   </g>
   <g id="patch_97">
    <path d="M 561.763636 384.48 
L 571.909091 384.48 
L 571.909091 384.48 
L 561.763636 384.48 
z
" clip-path="url(#p9c865ef8a9)" style="fill: #0000ff; fill-opacity: 0.7; stroke: #000000; stroke-linejoin: miter"/>
   </g>
   <g id="patch_98">
    <path d="M 571.909091 384.48 
L 582.054545 384.48 
L 582.054545 368.64 
L 571.909091 368.64 
z
" clip-path="url(#p9c865ef8a9)" style="fill: #0000ff; fill-opacity: 0.7; stroke: #000000; stroke-linejoin: miter"/>
   </g>
   <g id="patch_99">
    <path d="M 582.054545 384.48 
L 592.2 384.48 
L 592.2 384.48 
L 582.054545 384.48 
z
" clip-path="url(#p9c865ef8a9)" style="fill: #0000ff; fill-opacity: 0.7; stroke: #000000; stroke-linejoin: miter"/>
   </g>
   <g id="patch_100">
    <path d="M 592.2 384.48 
L 602.345455 384.48 
L 602.345455 368.64 
L 592.2 368.64 
z
" clip-path="url(#p9c865ef8a9)" style="fill: #0000ff; fill-opacity: 0.7; stroke: #000000; stroke-linejoin: miter"/>
   </g>
   <g id="patch_101">
    <path d="M 602.345455 384.48 
L 612.490909 384.48 
L 612.490909 384.48 
L 602.345455 384.48 
z
" clip-path="url(#p9c865ef8a9)" style="fill: #0000ff; fill-opacity: 0.7; stroke: #000000; stroke-linejoin: miter"/>
   </g>
   <g id="patch_102">
    <path d="M 612.490909 384.48 
L 622.636364 384.48 
L 622.636364 376.56 
L 612.490909 376.56 
z
" clip-path="url(#p9c865ef8a9)" style="fill: #0000ff; fill-opacity: 0.7; stroke: #000000; stroke-linejoin: miter"/>
   </g>
   <g id="matplotlib.axis_1">
    <g id="xtick_1">
     <g id="line2d_1">
      <path d="M 152.773377 384.48 
L 152.773377 51.84 
" clip-path="url(#p9c865ef8a9)" style="fill: none; stroke: #b0b0b0; stroke-opacity: 0.3; stroke-width: 0.8; stroke-linecap: square"/>
     </g>
     <g id="line2d_2">
      <defs>
       <path id="m58ee741ef5" d="M 0 0 
L 0 3.5 
" style="stroke: #000000; stroke-width: 0.8"/>
      </defs>
      <g>
       <use xlink:href="#m58ee741ef5" x="152.773377" y="384.48" style="stroke: #000000; stroke-width: 0.8"/>
      </g>
     </g>
     <g id="text_1">
      <text style="font: 10px 'DejaVu Sans', 'Bitstream Vera Sans', 'Computer Modern Sans Serif', 'Lucida Grande', 'Verdana', 'Geneva', 'Lucid', 'Arial', 'Helvetica', 'Avant Garde', sans-serif; text-anchor: middle" x="152.773377" y="399.078438" transform="rotate(-0 152.773377 399.078438)">0.40</text>
     </g>
    </g>
    <g id="xtick_2">
     <g id="line2d_3">
      <path d="M 246.208498 384.48 
L 246.208498 51.84 
" clip-path="url(#p9c865ef8a9)" style="fill: none; stroke: #b0b0b0; stroke-opacity: 0.3; stroke-width: 0.8; stroke-linecap: square"/>
     </g>
     <g id="line2d_4">
      <g>
       <use xlink:href="#m58ee741ef5" x="246.208498" y="384.48" style="stroke: #000000; stroke-width: 0.8"/>
      </g>
     </g>
     <g id="text_2">
      <text style="font: 10px 'DejaVu Sans', 'Bitstream Vera Sans', 'Computer Modern Sans Serif', 'Lucida Grande', 'Verdana', 'Geneva', 'Lucid', 'Arial', 'Helvetica', 'Avant Garde', sans-serif; text-anchor: middle" x="246.208498" y="399.078438" transform="rotate(-0 246.208498 399.078438)">0.42</text>
     </g>
    </g>
    <g id="xtick_3">
     <g id="line2d_5">
      <path d="M 339.643619 384.48 
L 339.643619 51.84 
" clip-path="url(#p9c865ef8a9)" style="fill: none; stroke: #b0b0b0; stroke-opacity: 0.3; stroke-width: 0.8; stroke-linecap: square"/>
     </g>
     <g id="line2d_6">
      <g>
       <use xlink:href="#m58ee741ef5" x="339.643619" y="384.48" style="stroke: #000000; stroke-width: 0.8"/>
      </g>
     </g>
     <g id="text_3">
      <text style="font: 10px 'DejaVu Sans', 'Bitstream Vera Sans', 'Computer Modern Sans Serif', 'Lucida Grande', 'Verdana', 'Geneva', 'Lucid', 'Arial', 'Helvetica', 'Avant Garde', sans-serif; text-anchor: middle" x="339.643619" y="399.078438" transform="rotate(-0 339.643619 399.078438)">0.44</text>
     </g>
    </g>
    <g id="xtick_4">
     <g id="line2d_7">
      <path d="M 433.07874 384.48 
L 433.07874 51.84 
" clip-path="url(#p9c865ef8a9)" style="fill: none; stroke: #b0b0b0; stroke-opacity: 0.3; stroke-width: 0.8; stroke-linecap: square"/>
     </g>
     <g id="line2d_8">
      <g>
       <use xlink:href="#m58ee741ef5" x="433.07874" y="384.48" style="stroke: #000000; stroke-width: 0.8"/>
      </g>
     </g>
     <g id="text_4">
      <text style="font: 10px 'DejaVu Sans', 'Bitstream Vera Sans', 'Computer Modern Sans Serif', 'Lucida Grande', 'Verdana', 'Geneva', 'Lucid', 'Arial', 'Helvetica', 'Avant Garde', sans-serif; text-anchor: middle" x="433.07874" y="399.078438" transform="rotate(-0 433.07874 399.078438)">0.46</text>
     </g>
    </g>
    <g id="xtick_5">
     <g id="line2d_9">
      <path d="M 526.513862 384.48 
L 526.513862 51.84 
" clip-path="url(#p9c865ef8a9)" style="fill: none; stroke: #b0b0b0; stroke-opacity: 0.3; stroke-width: 0.8; stroke-linecap: square"/>
     </g>
     <g id="line2d_10">
      <g>
       <use xlink:href="#m58ee741ef5" x="526.513862" y="384.48" style="stroke: #000000; stroke-width: 0.8"/>
      </g>
     </g>
     <g id="text_5">
      <text style="font: 10px 'DejaVu Sans', 'Bitstream Vera Sans', 'Computer Modern Sans Serif', 'Lucida Grande', 'Verdana', 'Geneva', 'Lucid', 'Arial', 'Helvetica', 'Avant Garde', sans-serif; text-anchor: middle" x="526.513862" y="399.078438" transform="rotate(-0 526.513862 399.078438)">0.48</text>
     </g>
    </g>
    <g id="xtick_6">
     <g id="line2d_11">
      <path d="M 619.948983 384.48 
L 619.948983 51.84 
" clip-path="url(#p9c865ef8a9)" style="fill: none; stroke: #b0b0b0; stroke-opacity: 0.3; stroke-width: 0.8; stroke-linecap: square"/>
     </g>
     <g id="line2d_12">
      <g>
       <use xlink:href="#m58ee741ef5" x="619.948983" y="384.48" style="stroke: #000000; stroke-width: 0.8"/>
      </g>
     </g>
     <g id="text_6">
      <text style="font: 10px 'DejaVu Sans', 'Bitstream Vera Sans', 'Computer Modern Sans Serif', 'Lucida Grande', 'Verdana', 'Geneva', 'Lucid', 'Arial', 'Helvetica', 'Avant Garde', sans-serif; text-anchor: middle" x="619.948983" y="399.078438" transform="rotate(-0 619.948983 399.078438)">0.50</text>
     </g>
    </g>
    <g id="text_7">
     <text style="font: 10px 'DejaVu Sans', 'Bitstream Vera Sans', 'Computer Modern Sans Serif', 'Lucida Grande', 'Verdana', 'Geneva', 'Lucid', 'Arial', 'Helvetica', 'Avant Garde', sans-serif; text-anchor: middle" x="369" y="412.756563" transform="rotate(-0 369 412.756563)">score</text>
    </g>
   </g>
   <g id="matplotlib.axis_2">
    <g id="ytick_1">
     <g id="line2d_13">
      <path d="M 90 384.48 
L 648 384.48 
" clip-path="url(#p9c865ef8a9)" style="fill: none; stroke: #b0b0b0; stroke-opacity: 0.3; stroke-width: 0.8; stroke-linecap: square"/>
     </g>
     <g id="line2d_14">
      <defs>
       <path id="m163a3450bd" d="M 0 0 
L -3.5 0 
" style="stroke: #000000; stroke-width: 0.8"/>
      </defs>
      <g>
       <use xlink:href="#m163a3450bd" x="90" y="384.48" style="stroke: #000000; stroke-width: 0.8"/>
      </g>
     </g>
     <g id="text_8">
      <text style="font: 10px 'DejaVu Sans', 'Bitstream Vera Sans', 'Computer Modern Sans Serif', 'Lucida Grande', 'Verdana', 'Geneva', 'Lucid', 'Arial', 'Helvetica', 'Avant Garde', sans-serif; text-anchor: end" x="83" y="388.279219" transform="rotate(-0 83 388.279219)">0</text>
     </g>
    </g>
    <g id="ytick_2">
     <g id="line2d_15">
      <path d="M 90 344.88 
L 648 344.88 
" clip-path="url(#p9c865ef8a9)" style="fill: none; stroke: #b0b0b0; stroke-opacity: 0.3; stroke-width: 0.8; stroke-linecap: square"/>
     </g>
     <g id="line2d_16">
      <g>
       <use xlink:href="#m163a3450bd" x="90" y="344.88" style="stroke: #000000; stroke-width: 0.8"/>
      </g>
     </g>
     <g id="text_9">
      <text style="font: 10px 'DejaVu Sans', 'Bitstream Vera Sans', 'Computer Modern Sans Serif', 'Lucida Grande', 'Verdana', 'Geneva', 'Lucid', 'Arial', 'Helvetica', 'Avant Garde', sans-serif; text-anchor: end" x="83" y="348.679219" transform="rotate(-0 83 348.679219)">5</text>
     </g>
    </g>
    <g id="ytick_3">
     <g id="line2d_17">
      <path d="M 90 305.28 
L 648 305.28 
" clip-path="url(#p9c865ef8a9)" style="fill: none; stroke: #b0b0b0; stroke-opacity: 0.3; stroke-width: 0.8; stroke-linecap: square"/>
     </g>
     <g id="line2d_18">
      <g>
       <use xlink:href="#m163a3450bd" x="90" y="305.28" style="stroke: #000000; stroke-width: 0.8"/>
      </g>
     </g>
     <g id="text_10">
      <text style="font: 10px 'DejaVu Sans', 'Bitstream Vera Sans', 'Computer Modern Sans Serif', 'Lucida Grande', 'Verdana', 'Geneva', 'Lucid', 'Arial', 'Helvetica', 'Avant Garde', sans-serif; text-anchor: end" x="83" y="309.079219" transform="rotate(-0 83 309.079219)">10</text>
     </g>
    </g>
    <g id="ytick_4">
     <g id="line2d_19">
      <path d="M 90 265.68 
L 648 265.68 
" clip-path="url(#p9c865ef8a9)" style="fill: none; stroke: #b0b0b0; stroke-opacity: 0.3; stroke-width: 0.8; stroke-linecap: square"/>
     </g>
     <g id="line2d_20">
      <g>
       <use xlink:href="#m163a3450bd" x="90" y="265.68" style="stroke: #000000; stroke-width: 0.8"/>
      </g>
     </g>
     <g id="text_11">
      <text style="font: 10px 'DejaVu Sans', 'Bitstream Vera Sans', 'Computer Modern Sans Serif', 'Lucida Grande', 'Verdana', 'Geneva', 'Lucid', 'Arial', 'Helvetica', 'Avant Garde', sans-serif; text-anchor: end" x="83" y="269.479219" transform="rotate(-0 83 269.479219)">15</text>
     </g>
    </g>
    <g id="ytick_5">
     <g id="line2d_21">
      <path d="M 90 226.08 
L 648 226.08 
" clip-path="url(#p9c865ef8a9)" style="fill: none; stroke: #b0b0b0; stroke-opacity: 0.3; stroke-width: 0.8; stroke-linecap: square"/>
     </g>
     <g id="line2d_22">
      <g>
       <use xlink:href="#m163a3450bd" x="90" y="226.08" style="stroke: #000000; stroke-width: 0.8"/>
      </g>
     </g>
     <g id="text_12">
      <text style="font: 10px 'DejaVu Sans', 'Bitstream Vera Sans', 'Computer Modern Sans Serif', 'Lucida Grande', 'Verdana', 'Geneva', 'Lucid', 'Arial', 'Helvetica', 'Avant Garde', sans-serif; text-anchor: end" x="83" y="229.879219" transform="rotate(-0 83 229.879219)">20</text>
     </g>
    </g>
    <g id="ytick_6">
     <g id="line2d_23">
      <path d="M 90 186.48 
L 648 186.48 
" clip-path="url(#p9c865ef8a9)" style="fill: none; stroke: #b0b0b0; stroke-opacity: 0.3; stroke-width: 0.8; stroke-linecap: square"/>
     </g>
     <g id="line2d_24">
      <g>
       <use xlink:href="#m163a3450bd" x="90" y="186.48" style="stroke: #000000; stroke-width: 0.8"/>
      </g>
     </g>
     <g id="text_13">
      <text style="font: 10px 'DejaVu Sans', 'Bitstream Vera Sans', 'Computer Modern Sans Serif', 'Lucida Grande', 'Verdana', 'Geneva', 'Lucid', 'Arial', 'Helvetica', 'Avant Garde', sans-serif; text-anchor: end" x="83" y="190.279219" transform="rotate(-0 83 190.279219)">25</text>
     </g>
    </g>
    <g id="ytick_7">
     <g id="line2d_25">
      <path d="M 90 146.88 
L 648 146.88 
" clip-path="url(#p9c865ef8a9)" style="fill: none; stroke: #b0b0b0; stroke-opacity: 0.3; stroke-width: 0.8; stroke-linecap: square"/>
     </g>
     <g id="line2d_26">
      <g>
       <use xlink:href="#m163a3450bd" x="90" y="146.88" style="stroke: #000000; stroke-width: 0.8"/>
      </g>
     </g>
     <g id="text_14">
      <text style="font: 10px 'DejaVu Sans', 'Bitstream Vera Sans', 'Computer Modern Sans Serif', 'Lucida Grande', 'Verdana', 'Geneva', 'Lucid', 'Arial', 'Helvetica', 'Avant Garde', sans-serif; text-anchor: end" x="83" y="150.679219" transform="rotate(-0 83 150.679219)">30</text>
     </g>
    </g>
    <g id="ytick_8">
     <g id="line2d_27">
      <path d="M 90 107.28 
L 648 107.28 
" clip-path="url(#p9c865ef8a9)" style="fill: none; stroke: #b0b0b0; stroke-opacity: 0.3; stroke-width: 0.8; stroke-linecap: square"/>
     </g>
     <g id="line2d_28">
      <g>
       <use xlink:href="#m163a3450bd" x="90" y="107.28" style="stroke: #000000; stroke-width: 0.8"/>
      </g>
     </g>
     <g id="text_15">
      <text style="font: 10px 'DejaVu Sans', 'Bitstream Vera Sans', 'Computer Modern Sans Serif', 'Lucida Grande', 'Verdana', 'Geneva', 'Lucid', 'Arial', 'Helvetica', 'Avant Garde', sans-serif; text-anchor: end" x="83" y="111.079219" transform="rotate(-0 83 111.079219)">35</text>
     </g>
    </g>
    <g id="ytick_9">
     <g id="line2d_29">
      <path d="M 90 67.68 
L 648 67.68 
" clip-path="url(#p9c865ef8a9)" style="fill: none; stroke: #b0b0b0; stroke-opacity: 0.3; stroke-width: 0.8; stroke-linecap: square"/>
     </g>
     <g id="line2d_30">
      <g>
       <use xlink:href="#m163a3450bd" x="90" y="67.68" style="stroke: #000000; stroke-width: 0.8"/>
      </g>
     </g>
     <g id="text_16">
      <text style="font: 10px 'DejaVu Sans', 'Bitstream Vera Sans', 'Computer Modern Sans Serif', 'Lucida Grande', 'Verdana', 'Geneva', 'Lucid', 'Arial', 'Helvetica', 'Avant Garde', sans-serif; text-anchor: end" x="83" y="71.479219" transform="rotate(-0 83 71.479219)">40</text>
     </g>
    </g>
    <g id="text_17">
     <text style="font: 10px 'DejaVu Sans', 'Bitstream Vera Sans', 'Computer Modern Sans Serif', 'Lucida Grande', 'Verdana', 'Geneva', 'Lucid', 'Arial', 'Helvetica', 'Avant Garde', sans-serif; text-anchor: middle" x="64.195312" y="218.16" transform="rotate(-90 64.195312 218.16)">density</text>
    </g>
   </g>
   <g id="line2d_31">
    <path d="M 115.363636 367.184718 
L 117.912746 364.897213 
L 120.461855 362.397425 
L 123.010964 359.678087 
L 125.560073 356.732988 
L 128.109182 353.556992 
L 130.658291 350.146015 
L 133.207401 346.496975 
L 135.75651 342.607707 
L 138.305619 338.476875 
L 140.854728 334.103861 
L 143.403837 329.488686 
L 145.952947 324.631951 
L 151.051165 314.199046 
L 156.149383 302.822468 
L 161.247602 290.534605 
L 166.34582 277.392162 
L 171.444038 263.488576 
L 176.542257 248.966861 
L 186.738693 218.939732 
L 194.386021 196.729993 
L 199.484239 182.733127 
L 202.033349 176.115077 
L 204.582458 169.80831 
L 207.131567 163.85219 
L 209.680676 158.281795 
L 212.229785 153.127056 
L 214.778894 148.412058 
L 217.328004 144.154503 
L 219.877113 140.365372 
L 222.426222 137.048805 
L 224.975331 134.202198 
L 227.52444 131.816519 
L 230.07355 129.876829 
L 232.622659 128.36299 
L 235.171768 127.250534 
L 237.720877 126.511638 
L 240.269986 126.116194 
L 242.819095 126.032889 
L 245.368205 126.230276 
L 247.917314 126.677774 
L 250.466423 127.346546 
L 253.015532 128.21023 
L 255.564641 129.245484 
L 258.113751 130.432323 
L 263.211969 133.198162 
L 268.310187 136.414848 
L 273.408406 140.031831 
L 278.506624 144.02268 
L 283.604842 148.364764 
L 288.703061 153.022224 
L 296.350388 160.464004 
L 314.194153 178.289626 
L 319.292371 183.051309 
L 324.390589 187.529735 
L 329.488808 191.693054 
L 334.587026 195.537792 
L 339.685244 199.086247 
L 344.783463 202.382284 
L 352.43079 206.988182 
L 370.274555 217.440351 
L 375.372773 220.65528 
L 380.470991 224.056494 
L 385.56921 227.660742 
L 390.667428 231.466415 
L 398.314756 237.514443 
L 405.962083 243.891477 
L 416.15852 252.764434 
L 426.354957 261.95856 
L 439.100503 273.790045 
L 451.846048 285.612255 
L 459.493376 292.348001 
L 464.591594 296.544369 
L 469.689813 300.430558 
L 474.788031 303.959385 
L 479.886249 307.105844 
L 484.984468 309.870578 
L 490.082686 312.280087 
L 495.180905 314.38381 
L 500.279123 316.24868 
L 507.92645 318.768408 
L 520.671996 322.869015 
L 528.319324 325.609166 
L 533.417542 327.63282 
L 538.515761 329.83378 
L 543.613979 332.21676 
L 548.712197 334.779517 
L 553.810416 337.515871 
L 561.457743 341.926391 
L 569.105071 346.664626 
L 579.301508 353.355678 
L 594.596163 363.484439 
L 599.694381 366.648768 
L 604.792599 369.60483 
L 609.890818 372.302456 
L 614.989036 374.705311 
L 620.087254 376.793147 
L 622.636364 377.717099 
L 622.636364 377.717099 
" clip-path="url(#p9c865ef8a9)" style="fill: none; stroke: #ff0000; stroke-width: 1.5; stroke-linecap: square"/>
   </g>
   <g id="line2d_32">
    <path d="M 115.363636 376.091104 
L 120.461855 374.460114 
L 125.560073 372.631105 
L 130.658291 370.606774 
L 135.75651 368.396202 
L 143.403837 364.768254 
L 151.051165 360.843929 
L 176.542257 347.362298 
L 181.640475 344.95837 
L 186.738693 342.767626 
L 191.836912 340.832725 
L 196.93513 339.189448 
L 202.033349 337.865252 
L 207.131567 336.87823 
L 212.229785 336.236521 
L 217.328004 335.938191 
L 222.426222 335.971553 
L 227.52444 336.315877 
L 232.622659 336.942431 
L 237.720877 337.815756 
L 242.819095 338.895123 
L 250.466423 340.802628 
L 263.211969 344.361278 
L 273.408406 347.145843 
L 281.055733 348.996002 
L 286.153952 350.061577 
L 291.25217 350.969864 
L 296.350388 351.709489 
L 301.448607 352.276637 
L 306.546825 352.674855 
L 314.194153 352.979875 
L 321.84148 352.989222 
L 332.037917 352.6853 
L 354.979899 351.770099 
L 362.627227 351.693223 
L 370.274555 351.827285 
L 377.921882 352.197841 
L 385.56921 352.80832 
L 393.216537 353.642253 
L 403.412974 355.043314 
L 416.15852 357.103602 
L 444.198721 361.788258 
L 456.944267 363.654434 
L 472.238922 365.647964 
L 543.613979 374.403567 
L 558.908634 375.952811 
L 574.203289 377.278339 
L 599.694381 379.229949 
L 622.636364 380.911709 
L 622.636364 380.911709 
" clip-path="url(#p9c865ef8a9)" style="fill: none; stroke: #0000ff; stroke-width: 1.5; stroke-linecap: square"/>
   </g>
   <g id="line2d_33">
    <path d="M 316.334465 384.48 
L 316.334465 51.84 
" clip-path="url(#p9c865ef8a9)" style="fill: none; stroke-dasharray: 7.4,3.2; stroke-dashoffset: 0; stroke: #00008b; stroke-width: 2"/>
   </g>
   <g id="line2d_34">
    <path d="M 319.214644 384.48 
L 319.214644 51.84 
" clip-path="url(#p9c865ef8a9)" style="fill: none; stroke-dasharray: 7.4,3.2; stroke-dashoffset: 0; stroke: #8b0000; stroke-width: 2"/>
   </g>
   <g id="patch_103">
    <path d="M 90 384.48 
L 90 51.84 
" style="fill: none; stroke: #000000; stroke-width: 0.8; stroke-linejoin: miter; stroke-linecap: square"/>
   </g>
   <g id="patch_104">
    <path d="M 648 384.48 
L 648 51.84 
" style="fill: none; stroke: #000000; stroke-width: 0.8; stroke-linejoin: miter; stroke-linecap: square"/>
   </g>
   <g id="patch_105">
    <path d="M 90 384.48 
L 648 384.48 
" style="fill: none; stroke: #000000; stroke-width: 0.8; stroke-linejoin: miter; stroke-linecap: square"/>
   </g>
   <g id="patch_106">
    <path d="M 90 51.84 
L 648 51.84 
" style="fill: none; stroke: #000000; stroke-width: 0.8; stroke-linejoin: miter; stroke-linecap: square"/>
   </g>
   <g id="text_18">
    <text style="font: 12px 'DejaVu Sans', 'Bitstream Vera Sans', 'Computer Modern Sans Serif', 'Lucida Grande', 'Verdana', 'Geneva', 'Lucid', 'Arial', 'Helvetica', 'Avant Garde', sans-serif; text-anchor: middle" x="369" y="45.84" transform="rotate(-0 369 45.84)">EPACT</text>
   </g>
   <g id="legend_1">
    <g id="patch_107">
     <path d="M 565.2625 103.874375 
L 641 103.874375 
Q 643 103.874375 643 101.874375 
L 643 58.84 
Q 643 56.84 641 56.84 
L 565.2625 56.84 
Q 563.2625 56.84 563.2625 58.84 
L 563.2625 101.874375 
Q 563.2625 103.874375 565.2625 103.874375 
z
" style="fill: #ffffff; opacity: 0.8; stroke: #cccccc; stroke-linejoin: miter"/>
    </g>
    <g id="text_19">
     <text style="font: 10px 'DejaVu Sans', 'Bitstream Vera Sans', 'Computer Modern Sans Serif', 'Lucida Grande', 'Verdana', 'Geneva', 'Lucid', 'Arial', 'Helvetica', 'Avant Garde', sans-serif; text-anchor: start" x="591.038281" y="68.438437" transform="rotate(-0 591.038281 68.438437)">label</text>
    </g>
    <g id="patch_108">
     <path d="M 567.2625 83.116562 
L 587.2625 83.116562 
L 587.2625 76.116562 
L 567.2625 76.116562 
z
" style="fill: #0000ff; fill-opacity: 0.7; stroke: #000000; stroke-linejoin: miter"/>
    </g>
    <g id="text_20">
     <text style="font: 10px 'DejaVu Sans', 'Bitstream Vera Sans', 'Computer Modern Sans Serif', 'Lucida Grande', 'Verdana', 'Geneva', 'Lucid', 'Arial', 'Helvetica', 'Avant Garde', sans-serif; text-anchor: start" x="595.2625" y="83.116562" transform="rotate(-0 595.2625 83.116562)">positive</text>
    </g>
    <g id="patch_109">
     <path d="M 567.2625 97.794688 
L 587.2625 97.794688 
L 587.2625 90.794688 
L 567.2625 90.794688 
z
" style="fill: #ff0000; fill-opacity: 0.7; stroke: #000000; stroke-linejoin: miter"/>
    </g>
    <g id="text_21">
     <text style="font: 10px 'DejaVu Sans', 'Bitstream Vera Sans', 'Computer Modern Sans Serif', 'Lucida Grande', 'Verdana', 'Geneva', 'Lucid', 'Arial', 'Helvetica', 'Avant Garde', sans-serif; text-anchor: start" x="595.2625" y="97.794688" transform="rotate(-0 595.2625 97.794688)">negative</text>
    </g>
   </g>
  </g>
 </g>
 <defs>
  <clipPath id="p9c865ef8a9">
   <rect x="90" y="51.84" width="558" height="332.64"/>
  </clipPath>
 </defs>
</svg>
