<?xml version="1.0" encoding="utf-8" standalone="no"?>
<!DOCTYPE svg PUBLIC "-//W3C//DTD SVG 1.1//EN"
  "http://www.w3.org/Graphics/SVG/1.1/DTD/svg11.dtd">
<svg xmlns:xlink="http://www.w3.org/1999/xlink" width="720pt" height="432pt" viewBox="0 0 720 432" xmlns="http://www.w3.org/2000/svg" version="1.1">
 <metadata>
  <rdf:RDF xmlns:dc="http://purl.org/dc/elements/1.1/" xmlns:cc="http://creativecommons.org/ns#" xmlns:rdf="http://www.w3.org/1999/02/22-rdf-syntax-ns#">
   <cc:Work>
    <dc:type rdf:resource="http://purl.org/dc/dcmitype/StillImage"/>
    <dc:date>2025-11-20T03:03:06.357300</dc:date>
    <dc:format>image/svg+xml</dc:format>
    <dc:creator>
     <cc:Agent>
      <dc:title>Matplotlib v3.9.4, https://matplotlib.org/</dc:title>
     </cc:Agent>
    </dc:creator>
   </cc:Work>
  </rdf:RDF>
 </metadata>
 <defs>
  <style type="text/css">*{stroke-linejoin: round; stroke-linecap: butt}</style>
 </defs>
 <g id="figure_1">
  <g id="patch_1">
   <path d="M 0 432 
L 720 432 
L 720 0 
L 0 0 
z
" style="fill: #ffffff"/>
  </g>
  <g id="axes_1">
   <g id="patch_2">
    <path d="M 90 384.48 
L 648 384.48 
L 648 51.84 
L 90 51.84 
z
" style="fill: #ffffff"/>
   </g>
   <g id="patch_3">
    <path d="M 115.363636 384.48 
L 125.509091 384.48 
L 125.509091 67.68 
L 115.363636 67.68 
z
" clip-path="url(#pdeb2e6f313)" style="fill: #ff0000; fill-opacity: 0.7; stroke: #000000; stroke-linejoin: miter"/>
   </g>
   <g id="patch_4">
    <path d="M 125.509091 384.48 
L 135.654545 384.48 
L 135.654545 328.700316 
L 125.509091 328.700316 
z
" clip-path="url(#pdeb2e6f313)" style="fill: #ff0000; fill-opacity: 0.7; stroke: #000000; stroke-linejoin: miter"/>
   </g>
   <g id="patch_5">
    <path d="M 135.654545 384.48 
L 145.8 384.48 
L 145.8 350.154041 
L 135.654545 350.154041 
z
" clip-path="url(#pdeb2e6f313)" style="fill: #ff0000; fill-opacity: 0.7; stroke: #000000; stroke-linejoin: miter"/>
   </g>
   <g id="patch_6">
    <path d="M 145.8 384.48 
L 155.945455 384.48 
L 155.945455 363.7414 
L 145.8 363.7414 
z
" clip-path="url(#pdeb2e6f313)" style="fill: #ff0000; fill-opacity: 0.7; stroke: #000000; stroke-linejoin: miter"/>
   </g>
   <g id="patch_7">
    <path d="M 155.945455 384.48 
L 166.090909 384.48 
L 166.090909 363.026275 
L 155.945455 363.026275 
z
" clip-path="url(#pdeb2e6f313)" style="fill: #ff0000; fill-opacity: 0.7; stroke: #000000; stroke-linejoin: miter"/>
   </g>
   <g id="patch_8">
    <path d="M 166.090909 384.48 
L 176.236364 384.48 
L 176.236364 368.747269 
L 166.090909 368.747269 
z
" clip-path="url(#pdeb2e6f313)" style="fill: #ff0000; fill-opacity: 0.7; stroke: #000000; stroke-linejoin: miter"/>
   </g>
   <g id="patch_9">
    <path d="M 176.236364 384.48 
L 186.381818 384.48 
L 186.381818 375.183386 
L 176.236364 375.183386 
z
" clip-path="url(#pdeb2e6f313)" style="fill: #ff0000; fill-opacity: 0.7; stroke: #000000; stroke-linejoin: miter"/>
   </g>
   <g id="patch_10">
    <path d="M 186.381818 384.48 
L 196.527273 384.48 
L 196.527273 376.613634 
L 186.381818 376.613634 
z
" clip-path="url(#pdeb2e6f313)" style="fill: #ff0000; fill-opacity: 0.7; stroke: #000000; stroke-linejoin: miter"/>
   </g>
   <g id="patch_11">
    <path d="M 196.527273 384.48 
L 206.672727 384.48 
L 206.672727 375.89851 
L 196.527273 375.89851 
z
" clip-path="url(#pdeb2e6f313)" style="fill: #ff0000; fill-opacity: 0.7; stroke: #000000; stroke-linejoin: miter"/>
   </g>
   <g id="patch_12">
    <path d="M 206.672727 384.48 
L 216.818182 384.48 
L 216.818182 378.043883 
L 206.672727 378.043883 
z
" clip-path="url(#pdeb2e6f313)" style="fill: #ff0000; fill-opacity: 0.7; stroke: #000000; stroke-linejoin: miter"/>
   </g>
   <g id="patch_13">
    <path d="M 216.818182 384.48 
L 226.963636 384.48 
L 226.963636 376.613634 
L 216.818182 376.613634 
z
" clip-path="url(#pdeb2e6f313)" style="fill: #ff0000; fill-opacity: 0.7; stroke: #000000; stroke-linejoin: miter"/>
   </g>
   <g id="patch_14">
    <path d="M 226.963636 384.48 
L 237.109091 384.48 
L 237.109091 378.043883 
L 226.963636 378.043883 
z
" clip-path="url(#pdeb2e6f313)" style="fill: #ff0000; fill-opacity: 0.7; stroke: #000000; stroke-linejoin: miter"/>
   </g>
   <g id="patch_15">
    <path d="M 237.109091 384.48 
L 247.254545 384.48 
L 247.254545 379.474131 
L 237.109091 379.474131 
z
" clip-path="url(#pdeb2e6f313)" style="fill: #ff0000; fill-opacity: 0.7; stroke: #000000; stroke-linejoin: miter"/>
   </g>
   <g id="patch_16">
    <path d="M 247.254545 384.48 
L 257.4 384.48 
L 257.4 375.183386 
L 247.254545 375.183386 
z
" clip-path="url(#pdeb2e6f313)" style="fill: #ff0000; fill-opacity: 0.7; stroke: #000000; stroke-linejoin: miter"/>
   </g>
   <g id="patch_17">
    <path d="M 257.4 384.48 
L 267.545455 384.48 
L 267.545455 383.049752 
L 257.4 383.049752 
z
" clip-path="url(#pdeb2e6f313)" style="fill: #ff0000; fill-opacity: 0.7; stroke: #000000; stroke-linejoin: miter"/>
   </g>
   <g id="patch_18">
    <path d="M 267.545455 384.48 
L 277.690909 384.48 
L 277.690909 382.334628 
L 267.545455 382.334628 
z
" clip-path="url(#pdeb2e6f313)" style="fill: #ff0000; fill-opacity: 0.7; stroke: #000000; stroke-linejoin: miter"/>
   </g>
   <g id="patch_19">
    <path d="M 277.690909 384.48 
L 287.836364 384.48 
L 287.836364 381.619503 
L 277.690909 381.619503 
z
" clip-path="url(#pdeb2e6f313)" style="fill: #ff0000; fill-opacity: 0.7; stroke: #000000; stroke-linejoin: miter"/>
   </g>
   <g id="patch_20">
    <path d="M 287.836364 384.48 
L 297.981818 384.48 
L 297.981818 383.764876 
L 287.836364 383.764876 
z
" clip-path="url(#pdeb2e6f313)" style="fill: #ff0000; fill-opacity: 0.7; stroke: #000000; stroke-linejoin: miter"/>
   </g>
   <g id="patch_21">
    <path d="M 297.981818 384.48 
L 308.127273 384.48 
L 308.127273 383.764876 
L 297.981818 383.764876 
z
" clip-path="url(#pdeb2e6f313)" style="fill: #ff0000; fill-opacity: 0.7; stroke: #000000; stroke-linejoin: miter"/>
   </g>
   <g id="patch_22">
    <path d="M 308.127273 384.48 
L 318.272727 384.48 
L 318.272727 382.334628 
L 308.127273 382.334628 
z
" clip-path="url(#pdeb2e6f313)" style="fill: #ff0000; fill-opacity: 0.7; stroke: #000000; stroke-linejoin: miter"/>
   </g>
   <g id="patch_23">
    <path d="M 318.272727 384.48 
L 328.418182 384.48 
L 328.418182 383.764876 
L 318.272727 383.764876 
z
" clip-path="url(#pdeb2e6f313)" style="fill: #ff0000; fill-opacity: 0.7; stroke: #000000; stroke-linejoin: miter"/>
   </g>
   <g id="patch_24">
    <path d="M 328.418182 384.48 
L 338.563636 384.48 
L 338.563636 379.474131 
L 328.418182 379.474131 
z
" clip-path="url(#pdeb2e6f313)" style="fill: #ff0000; fill-opacity: 0.7; stroke: #000000; stroke-linejoin: miter"/>
   </g>
   <g id="patch_25">
    <path d="M 338.563636 384.48 
L 348.709091 384.48 
L 348.709091 378.759007 
L 338.563636 378.759007 
z
" clip-path="url(#pdeb2e6f313)" style="fill: #ff0000; fill-opacity: 0.7; stroke: #000000; stroke-linejoin: miter"/>
   </g>
   <g id="patch_26">
    <path d="M 348.709091 384.48 
L 358.854545 384.48 
L 358.854545 382.334628 
L 348.709091 382.334628 
z
" clip-path="url(#pdeb2e6f313)" style="fill: #ff0000; fill-opacity: 0.7; stroke: #000000; stroke-linejoin: miter"/>
   </g>
   <g id="patch_27">
    <path d="M 358.854545 384.48 
L 369 384.48 
L 369 382.334628 
L 358.854545 382.334628 
z
" clip-path="url(#pdeb2e6f313)" style="fill: #ff0000; fill-opacity: 0.7; stroke: #000000; stroke-linejoin: miter"/>
   </g>
   <g id="patch_28">
    <path d="M 369 384.48 
L 379.145455 384.48 
L 379.145455 383.764876 
L 369 383.764876 
z
" clip-path="url(#pdeb2e6f313)" style="fill: #ff0000; fill-opacity: 0.7; stroke: #000000; stroke-linejoin: miter"/>
   </g>
   <g id="patch_29">
    <path d="M 379.145455 384.48 
L 389.290909 384.48 
L 389.290909 380.189255 
L 379.145455 380.189255 
z
" clip-path="url(#pdeb2e6f313)" style="fill: #ff0000; fill-opacity: 0.7; stroke: #000000; stroke-linejoin: miter"/>
   </g>
   <g id="patch_30">
    <path d="M 389.290909 384.48 
L 399.436364 384.48 
L 399.436364 380.904379 
L 389.290909 380.904379 
z
" clip-path="url(#pdeb2e6f313)" style="fill: #ff0000; fill-opacity: 0.7; stroke: #000000; stroke-linejoin: miter"/>
   </g>
   <g id="patch_31">
    <path d="M 399.436364 384.48 
L 409.581818 384.48 
L 409.581818 383.049752 
L 399.436364 383.049752 
z
" clip-path="url(#pdeb2e6f313)" style="fill: #ff0000; fill-opacity: 0.7; stroke: #000000; stroke-linejoin: miter"/>
   </g>
   <g id="patch_32">
    <path d="M 409.581818 384.48 
L 419.727273 384.48 
L 419.727273 384.48 
L 409.581818 384.48 
z
" clip-path="url(#pdeb2e6f313)" style="fill: #ff0000; fill-opacity: 0.7; stroke: #000000; stroke-linejoin: miter"/>
   </g>
   <g id="patch_33">
    <path d="M 419.727273 384.48 
L 429.872727 384.48 
L 429.872727 383.764876 
L 419.727273 383.764876 
z
" clip-path="url(#pdeb2e6f313)" style="fill: #ff0000; fill-opacity: 0.7; stroke: #000000; stroke-linejoin: miter"/>
   </g>
   <g id="patch_34">
    <path d="M 429.872727 384.48 
L 440.018182 384.48 
L 440.018182 383.049752 
L 429.872727 383.049752 
z
" clip-path="url(#pdeb2e6f313)" style="fill: #ff0000; fill-opacity: 0.7; stroke: #000000; stroke-linejoin: miter"/>
   </g>
   <g id="patch_35">
    <path d="M 440.018182 384.48 
L 450.163636 384.48 
L 450.163636 383.049752 
L 440.018182 383.049752 
z
" clip-path="url(#pdeb2e6f313)" style="fill: #ff0000; fill-opacity: 0.7; stroke: #000000; stroke-linejoin: miter"/>
   </g>
   <g id="patch_36">
    <path d="M 450.163636 384.48 
L 460.309091 384.48 
L 460.309091 381.619503 
L 450.163636 381.619503 
z
" clip-path="url(#pdeb2e6f313)" style="fill: #ff0000; fill-opacity: 0.7; stroke: #000000; stroke-linejoin: miter"/>
   </g>
   <g id="patch_37">
    <path d="M 460.309091 384.48 
L 470.454545 384.48 
L 470.454545 383.049752 
L 460.309091 383.049752 
z
" clip-path="url(#pdeb2e6f313)" style="fill: #ff0000; fill-opacity: 0.7; stroke: #000000; stroke-linejoin: miter"/>
   </g>
   <g id="patch_38">
    <path d="M 470.454545 384.48 
L 480.6 384.48 
L 480.6 382.334628 
L 470.454545 382.334628 
z
" clip-path="url(#pdeb2e6f313)" style="fill: #ff0000; fill-opacity: 0.7; stroke: #000000; stroke-linejoin: miter"/>
   </g>
   <g id="patch_39">
    <path d="M 480.6 384.48 
L 490.745455 384.48 
L 490.745455 383.764876 
L 480.6 383.764876 
z
" clip-path="url(#pdeb2e6f313)" style="fill: #ff0000; fill-opacity: 0.7; stroke: #000000; stroke-linejoin: miter"/>
   </g>
   <g id="patch_40">
    <path d="M 490.745455 384.48 
L 500.890909 384.48 
L 500.890909 380.904379 
L 490.745455 380.904379 
z
" clip-path="url(#pdeb2e6f313)" style="fill: #ff0000; fill-opacity: 0.7; stroke: #000000; stroke-linejoin: miter"/>
   </g>
   <g id="patch_41">
    <path d="M 500.890909 384.48 
L 511.036364 384.48 
L 511.036364 383.049752 
L 500.890909 383.049752 
z
" clip-path="url(#pdeb2e6f313)" style="fill: #ff0000; fill-opacity: 0.7; stroke: #000000; stroke-linejoin: miter"/>
   </g>
   <g id="patch_42">
    <path d="M 511.036364 384.48 
L 521.181818 384.48 
L 521.181818 383.049752 
L 511.036364 383.049752 
z
" clip-path="url(#pdeb2e6f313)" style="fill: #ff0000; fill-opacity: 0.7; stroke: #000000; stroke-linejoin: miter"/>
   </g>
   <g id="patch_43">
    <path d="M 521.181818 384.48 
L 531.327273 384.48 
L 531.327273 383.764876 
L 521.181818 383.764876 
z
" clip-path="url(#pdeb2e6f313)" style="fill: #ff0000; fill-opacity: 0.7; stroke: #000000; stroke-linejoin: miter"/>
   </g>
   <g id="patch_44">
    <path d="M 531.327273 384.48 
L 541.472727 384.48 
L 541.472727 383.764876 
L 531.327273 383.764876 
z
" clip-path="url(#pdeb2e6f313)" style="fill: #ff0000; fill-opacity: 0.7; stroke: #000000; stroke-linejoin: miter"/>
   </g>
   <g id="patch_45">
    <path d="M 541.472727 384.48 
L 551.618182 384.48 
L 551.618182 383.049752 
L 541.472727 383.049752 
z
" clip-path="url(#pdeb2e6f313)" style="fill: #ff0000; fill-opacity: 0.7; stroke: #000000; stroke-linejoin: miter"/>
   </g>
   <g id="patch_46">
    <path d="M 551.618182 384.48 
L 561.763636 384.48 
L 561.763636 384.48 
L 551.618182 384.48 
z
" clip-path="url(#pdeb2e6f313)" style="fill: #ff0000; fill-opacity: 0.7; stroke: #000000; stroke-linejoin: miter"/>
   </g>
   <g id="patch_47">
    <path d="M 561.763636 384.48 
L 571.909091 384.48 
L 571.909091 383.049752 
L 561.763636 383.049752 
z
" clip-path="url(#pdeb2e6f313)" style="fill: #ff0000; fill-opacity: 0.7; stroke: #000000; stroke-linejoin: miter"/>
   </g>
   <g id="patch_48">
    <path d="M 571.909091 384.48 
L 582.054545 384.48 
L 582.054545 384.48 
L 571.909091 384.48 
z
" clip-path="url(#pdeb2e6f313)" style="fill: #ff0000; fill-opacity: 0.7; stroke: #000000; stroke-linejoin: miter"/>
   </g>
   <g id="patch_49">
    <path d="M 582.054545 384.48 
L 592.2 384.48 
L 592.2 381.619503 
L 582.054545 381.619503 
z
" clip-path="url(#pdeb2e6f313)" style="fill: #ff0000; fill-opacity: 0.7; stroke: #000000; stroke-linejoin: miter"/>
   </g>
   <g id="patch_50">
    <path d="M 592.2 384.48 
L 602.345455 384.48 
L 602.345455 384.48 
L 592.2 384.48 
z
" clip-path="url(#pdeb2e6f313)" style="fill: #ff0000; fill-opacity: 0.7; stroke: #000000; stroke-linejoin: miter"/>
   </g>
   <g id="patch_51">
    <path d="M 602.345455 384.48 
L 612.490909 384.48 
L 612.490909 384.48 
L 602.345455 384.48 
z
" clip-path="url(#pdeb2e6f313)" style="fill: #ff0000; fill-opacity: 0.7; stroke: #000000; stroke-linejoin: miter"/>
   </g>
   <g id="patch_52">
    <path d="M 612.490909 384.48 
L 622.636364 384.48 
L 622.636364 383.764876 
L 612.490909 383.764876 
z
" clip-path="url(#pdeb2e6f313)" style="fill: #ff0000; fill-opacity: 0.7; stroke: #000000; stroke-linejoin: miter"/>
   </g>
   <g id="patch_53">
    <path d="M 115.363636 384.48 
L 125.509091 384.48 
L 125.509091 340.142302 
L 115.363636 340.142302 
z
" clip-path="url(#pdeb2e6f313)" style="fill: #0000ff; fill-opacity: 0.7; stroke: #000000; stroke-linejoin: miter"/>
   </g>
   <g id="patch_54">
    <path d="M 125.509091 384.48 
L 135.654545 384.48 
L 135.654545 377.328758 
L 125.509091 377.328758 
z
" clip-path="url(#pdeb2e6f313)" style="fill: #0000ff; fill-opacity: 0.7; stroke: #000000; stroke-linejoin: miter"/>
   </g>
   <g id="patch_55">
    <path d="M 135.654545 384.48 
L 145.8 384.48 
L 145.8 378.759007 
L 135.654545 378.759007 
z
" clip-path="url(#pdeb2e6f313)" style="fill: #0000ff; fill-opacity: 0.7; stroke: #000000; stroke-linejoin: miter"/>
   </g>
   <g id="patch_56">
    <path d="M 145.8 384.48 
L 155.945455 384.48 
L 155.945455 377.328758 
L 145.8 377.328758 
z
" clip-path="url(#pdeb2e6f313)" style="fill: #0000ff; fill-opacity: 0.7; stroke: #000000; stroke-linejoin: miter"/>
   </g>
   <g id="patch_57">
    <path d="M 155.945455 384.48 
L 166.090909 384.48 
L 166.090909 380.189255 
L 155.945455 380.189255 
z
" clip-path="url(#pdeb2e6f313)" style="fill: #0000ff; fill-opacity: 0.7; stroke: #000000; stroke-linejoin: miter"/>
   </g>
   <g id="patch_58">
    <path d="M 166.090909 384.48 
L 176.236364 384.48 
L 176.236364 380.904379 
L 166.090909 380.904379 
z
" clip-path="url(#pdeb2e6f313)" style="fill: #0000ff; fill-opacity: 0.7; stroke: #000000; stroke-linejoin: miter"/>
   </g>
   <g id="patch_59">
    <path d="M 176.236364 384.48 
L 186.381818 384.48 
L 186.381818 383.049752 
L 176.236364 383.049752 
z
" clip-path="url(#pdeb2e6f313)" style="fill: #0000ff; fill-opacity: 0.7; stroke: #000000; stroke-linejoin: miter"/>
   </g>
   <g id="patch_60">
    <path d="M 186.381818 384.48 
L 196.527273 384.48 
L 196.527273 380.904379 
L 186.381818 380.904379 
z
" clip-path="url(#pdeb2e6f313)" style="fill: #0000ff; fill-opacity: 0.7; stroke: #000000; stroke-linejoin: miter"/>
   </g>
   <g id="patch_61">
    <path d="M 196.527273 384.48 
L 206.672727 384.48 
L 206.672727 383.764876 
L 196.527273 383.764876 
z
" clip-path="url(#pdeb2e6f313)" style="fill: #0000ff; fill-opacity: 0.7; stroke: #000000; stroke-linejoin: miter"/>
   </g>
   <g id="patch_62">
    <path d="M 206.672727 384.48 
L 216.818182 384.48 
L 216.818182 384.48 
L 206.672727 384.48 
z
" clip-path="url(#pdeb2e6f313)" style="fill: #0000ff; fill-opacity: 0.7; stroke: #000000; stroke-linejoin: miter"/>
   </g>
   <g id="patch_63">
    <path d="M 216.818182 384.48 
L 226.963636 384.48 
L 226.963636 383.049752 
L 216.818182 383.049752 
z
" clip-path="url(#pdeb2e6f313)" style="fill: #0000ff; fill-opacity: 0.7; stroke: #000000; stroke-linejoin: miter"/>
   </g>
   <g id="patch_64">
    <path d="M 226.963636 384.48 
L 237.109091 384.48 
L 237.109091 382.334628 
L 226.963636 382.334628 
z
" clip-path="url(#pdeb2e6f313)" style="fill: #0000ff; fill-opacity: 0.7; stroke: #000000; stroke-linejoin: miter"/>
   </g>
   <g id="patch_65">
    <path d="M 237.109091 384.48 
L 247.254545 384.48 
L 247.254545 383.764876 
L 237.109091 383.764876 
z
" clip-path="url(#pdeb2e6f313)" style="fill: #0000ff; fill-opacity: 0.7; stroke: #000000; stroke-linejoin: miter"/>
   </g>
   <g id="patch_66">
    <path d="M 247.254545 384.48 
L 257.4 384.48 
L 257.4 383.049752 
L 247.254545 383.049752 
z
" clip-path="url(#pdeb2e6f313)" style="fill: #0000ff; fill-opacity: 0.7; stroke: #000000; stroke-linejoin: miter"/>
   </g>
   <g id="patch_67">
    <path d="M 257.4 384.48 
L 267.545455 384.48 
L 267.545455 384.48 
L 257.4 384.48 
z
" clip-path="url(#pdeb2e6f313)" style="fill: #0000ff; fill-opacity: 0.7; stroke: #000000; stroke-linejoin: miter"/>
   </g>
   <g id="patch_68">
    <path d="M 267.545455 384.48 
L 277.690909 384.48 
L 277.690909 384.48 
L 267.545455 384.48 
z
" clip-path="url(#pdeb2e6f313)" style="fill: #0000ff; fill-opacity: 0.7; stroke: #000000; stroke-linejoin: miter"/>
   </g>
   <g id="patch_69">
    <path d="M 277.690909 384.48 
L 287.836364 384.48 
L 287.836364 383.764876 
L 277.690909 383.764876 
z
" clip-path="url(#pdeb2e6f313)" style="fill: #0000ff; fill-opacity: 0.7; stroke: #000000; stroke-linejoin: miter"/>
   </g>
   <g id="patch_70">
    <path d="M 287.836364 384.48 
L 297.981818 384.48 
L 297.981818 384.48 
L 287.836364 384.48 
z
" clip-path="url(#pdeb2e6f313)" style="fill: #0000ff; fill-opacity: 0.7; stroke: #000000; stroke-linejoin: miter"/>
   </g>
   <g id="patch_71">
    <path d="M 297.981818 384.48 
L 308.127273 384.48 
L 308.127273 384.48 
L 297.981818 384.48 
z
" clip-path="url(#pdeb2e6f313)" style="fill: #0000ff; fill-opacity: 0.7; stroke: #000000; stroke-linejoin: miter"/>
   </g>
   <g id="patch_72">
    <path d="M 308.127273 384.48 
L 318.272727 384.48 
L 318.272727 384.48 
L 308.127273 384.48 
z
" clip-path="url(#pdeb2e6f313)" style="fill: #0000ff; fill-opacity: 0.7; stroke: #000000; stroke-linejoin: miter"/>
   </g>
   <g id="patch_73">
    <path d="M 318.272727 384.48 
L 328.418182 384.48 
L 328.418182 383.764876 
L 318.272727 383.764876 
z
" clip-path="url(#pdeb2e6f313)" style="fill: #0000ff; fill-opacity: 0.7; stroke: #000000; stroke-linejoin: miter"/>
   </g>
   <g id="patch_74">
    <path d="M 328.418182 384.48 
L 338.563636 384.48 
L 338.563636 384.48 
L 328.418182 384.48 
z
" clip-path="url(#pdeb2e6f313)" style="fill: #0000ff; fill-opacity: 0.7; stroke: #000000; stroke-linejoin: miter"/>
   </g>
   <g id="patch_75">
    <path d="M 338.563636 384.48 
L 348.709091 384.48 
L 348.709091 383.764876 
L 338.563636 383.764876 
z
" clip-path="url(#pdeb2e6f313)" style="fill: #0000ff; fill-opacity: 0.7; stroke: #000000; stroke-linejoin: miter"/>
   </g>
   <g id="patch_76">
    <path d="M 348.709091 384.48 
L 358.854545 384.48 
L 358.854545 383.764876 
L 348.709091 383.764876 
z
" clip-path="url(#pdeb2e6f313)" style="fill: #0000ff; fill-opacity: 0.7; stroke: #000000; stroke-linejoin: miter"/>
   </g>
   <g id="patch_77">
    <path d="M 358.854545 384.48 
L 369 384.48 
L 369 383.764876 
L 358.854545 383.764876 
z
" clip-path="url(#pdeb2e6f313)" style="fill: #0000ff; fill-opacity: 0.7; stroke: #000000; stroke-linejoin: miter"/>
   </g>
   <g id="patch_78">
    <path d="M 369 384.48 
L 379.145455 384.48 
L 379.145455 383.764876 
L 369 383.764876 
z
" clip-path="url(#pdeb2e6f313)" style="fill: #0000ff; fill-opacity: 0.7; stroke: #000000; stroke-linejoin: miter"/>
   </g>
   <g id="patch_79">
    <path d="M 379.145455 384.48 
L 389.290909 384.48 
L 389.290909 383.764876 
L 379.145455 383.764876 
z
" clip-path="url(#pdeb2e6f313)" style="fill: #0000ff; fill-opacity: 0.7; stroke: #000000; stroke-linejoin: miter"/>
   </g>
   <g id="patch_80">
    <path d="M 389.290909 384.48 
L 399.436364 384.48 
L 399.436364 384.48 
L 389.290909 384.48 
z
" clip-path="url(#pdeb2e6f313)" style="fill: #0000ff; fill-opacity: 0.7; stroke: #000000; stroke-linejoin: miter"/>
   </g>
   <g id="patch_81">
    <path d="M 399.436364 384.48 
L 409.581818 384.48 
L 409.581818 382.334628 
L 399.436364 382.334628 
z
" clip-path="url(#pdeb2e6f313)" style="fill: #0000ff; fill-opacity: 0.7; stroke: #000000; stroke-linejoin: miter"/>
   </g>
   <g id="patch_82">
    <path d="M 409.581818 384.48 
L 419.727273 384.48 
L 419.727273 384.48 
L 409.581818 384.48 
z
" clip-path="url(#pdeb2e6f313)" style="fill: #0000ff; fill-opacity: 0.7; stroke: #000000; stroke-linejoin: miter"/>
   </g>
   <g id="patch_83">
    <path d="M 419.727273 384.48 
L 429.872727 384.48 
L 429.872727 383.049752 
L 419.727273 383.049752 
z
" clip-path="url(#pdeb2e6f313)" style="fill: #0000ff; fill-opacity: 0.7; stroke: #000000; stroke-linejoin: miter"/>
   </g>
   <g id="patch_84">
    <path d="M 429.872727 384.48 
L 440.018182 384.48 
L 440.018182 383.764876 
L 429.872727 383.764876 
z
" clip-path="url(#pdeb2e6f313)" style="fill: #0000ff; fill-opacity: 0.7; stroke: #000000; stroke-linejoin: miter"/>
   </g>
   <g id="patch_85">
    <path d="M 440.018182 384.48 
L 450.163636 384.48 
L 450.163636 382.334628 
L 440.018182 382.334628 
z
" clip-path="url(#pdeb2e6f313)" style="fill: #0000ff; fill-opacity: 0.7; stroke: #000000; stroke-linejoin: miter"/>
   </g>
   <g id="patch_86">
    <path d="M 450.163636 384.48 
L 460.309091 384.48 
L 460.309091 383.764876 
L 450.163636 383.764876 
z
" clip-path="url(#pdeb2e6f313)" style="fill: #0000ff; fill-opacity: 0.7; stroke: #000000; stroke-linejoin: miter"/>
   </g>
   <g id="patch_87">
    <path d="M 460.309091 384.48 
L 470.454545 384.48 
L 470.454545 384.48 
L 460.309091 384.48 
z
" clip-path="url(#pdeb2e6f313)" style="fill: #0000ff; fill-opacity: 0.7; stroke: #000000; stroke-linejoin: miter"/>
   </g>
   <g id="patch_88">
    <path d="M 470.454545 384.48 
L 480.6 384.48 
L 480.6 382.334628 
L 470.454545 382.334628 
z
" clip-path="url(#pdeb2e6f313)" style="fill: #0000ff; fill-opacity: 0.7; stroke: #000000; stroke-linejoin: miter"/>
   </g>
   <g id="patch_89">
    <path d="M 480.6 384.48 
L 490.745455 384.48 
L 490.745455 383.049752 
L 480.6 383.049752 
z
" clip-path="url(#pdeb2e6f313)" style="fill: #0000ff; fill-opacity: 0.7; stroke: #000000; stroke-linejoin: miter"/>
   </g>
   <g id="patch_90">
    <path d="M 490.745455 384.48 
L 500.890909 384.48 
L 500.890909 384.48 
L 490.745455 384.48 
z
" clip-path="url(#pdeb2e6f313)" style="fill: #0000ff; fill-opacity: 0.7; stroke: #000000; stroke-linejoin: miter"/>
   </g>
   <g id="patch_91">
    <path d="M 500.890909 384.48 
L 511.036364 384.48 
L 511.036364 384.48 
L 500.890909 384.48 
z
" clip-path="url(#pdeb2e6f313)" style="fill: #0000ff; fill-opacity: 0.7; stroke: #000000; stroke-linejoin: miter"/>
   </g>
   <g id="patch_92">
    <path d="M 511.036364 384.48 
L 521.181818 384.48 
L 521.181818 384.48 
L 511.036364 384.48 
z
" clip-path="url(#pdeb2e6f313)" style="fill: #0000ff; fill-opacity: 0.7; stroke: #000000; stroke-linejoin: miter"/>
   </g>
   <g id="patch_93">
    <path d="M 521.181818 384.48 
L 531.327273 384.48 
L 531.327273 383.049752 
L 521.181818 383.049752 
z
" clip-path="url(#pdeb2e6f313)" style="fill: #0000ff; fill-opacity: 0.7; stroke: #000000; stroke-linejoin: miter"/>
   </g>
   <g id="patch_94">
    <path d="M 531.327273 384.48 
L 541.472727 384.48 
L 541.472727 384.48 
L 531.327273 384.48 
z
" clip-path="url(#pdeb2e6f313)" style="fill: #0000ff; fill-opacity: 0.7; stroke: #000000; stroke-linejoin: miter"/>
   </g>
   <g id="patch_95">
    <path d="M 541.472727 384.48 
L 551.618182 384.48 
L 551.618182 383.764876 
L 541.472727 383.764876 
z
" clip-path="url(#pdeb2e6f313)" style="fill: #0000ff; fill-opacity: 0.7; stroke: #000000; stroke-linejoin: miter"/>
   </g>
   <g id="patch_96">
    <path d="M 551.618182 384.48 
L 561.763636 384.48 
L 561.763636 383.764876 
L 551.618182 383.764876 
z
" clip-path="url(#pdeb2e6f313)" style="fill: #0000ff; fill-opacity: 0.7; stroke: #000000; stroke-linejoin: miter"/>
   </g>
   <g id="patch_97">
    <path d="M 561.763636 384.48 
L 571.909091 384.48 
L 571.909091 384.48 
L 561.763636 384.48 
z
" clip-path="url(#pdeb2e6f313)" style="fill: #0000ff; fill-opacity: 0.7; stroke: #000000; stroke-linejoin: miter"/>
   </g>
   <g id="patch_98">
    <path d="M 571.909091 384.48 
L 582.054545 384.48 
L 582.054545 384.48 
L 571.909091 384.48 
z
" clip-path="url(#pdeb2e6f313)" style="fill: #0000ff; fill-opacity: 0.7; stroke: #000000; stroke-linejoin: miter"/>
   </g>
   <g id="patch_99">
    <path d="M 582.054545 384.48 
L 592.2 384.48 
L 592.2 382.334628 
L 582.054545 382.334628 
z
" clip-path="url(#pdeb2e6f313)" style="fill: #0000ff; fill-opacity: 0.7; stroke: #000000; stroke-linejoin: miter"/>
   </g>
   <g id="patch_100">
    <path d="M 592.2 384.48 
L 602.345455 384.48 
L 602.345455 383.764876 
L 592.2 383.764876 
z
" clip-path="url(#pdeb2e6f313)" style="fill: #0000ff; fill-opacity: 0.7; stroke: #000000; stroke-linejoin: miter"/>
   </g>
   <g id="patch_101">
    <path d="M 602.345455 384.48 
L 612.490909 384.48 
L 612.490909 383.049752 
L 602.345455 383.049752 
z
" clip-path="url(#pdeb2e6f313)" style="fill: #0000ff; fill-opacity: 0.7; stroke: #000000; stroke-linejoin: miter"/>
   </g>
   <g id="patch_102">
    <path d="M 612.490909 384.48 
L 622.636364 384.48 
L 622.636364 372.322889 
L 612.490909 372.322889 
z
" clip-path="url(#pdeb2e6f313)" style="fill: #0000ff; fill-opacity: 0.7; stroke: #000000; stroke-linejoin: miter"/>
   </g>
   <g id="matplotlib.axis_1">
    <g id="xtick_1">
     <g id="line2d_1">
      <path d="M 115.361099 384.48 
L 115.361099 51.84 
" clip-path="url(#pdeb2e6f313)" style="fill: none; stroke: #b0b0b0; stroke-opacity: 0.3; stroke-width: 0.8; stroke-linecap: square"/>
     </g>
     <g id="line2d_2">
      <defs>
       <path id="m7706bc94cf" d="M 0 0 
L 0 3.5 
" style="stroke: #000000; stroke-width: 0.8"/>
      </defs>
      <g>
       <use xlink:href="#m7706bc94cf" x="115.361099" y="384.48" style="stroke: #000000; stroke-width: 0.8"/>
      </g>
     </g>
     <g id="text_1">
      <text style="font: 10px 'DejaVu Sans', 'Bitstream Vera Sans', 'Computer Modern Sans Serif', 'Lucida Grande', 'Verdana', 'Geneva', 'Lucid', 'Arial', 'Helvetica', 'Avant Garde', sans-serif; text-anchor: middle" x="115.361099" y="399.078438" transform="rotate(-0 115.361099 399.078438)">0.0</text>
     </g>
    </g>
    <g id="xtick_2">
     <g id="line2d_3">
      <path d="M 216.875522 384.48 
L 216.875522 51.84 
" clip-path="url(#pdeb2e6f313)" style="fill: none; stroke: #b0b0b0; stroke-opacity: 0.3; stroke-width: 0.8; stroke-linecap: square"/>
     </g>
     <g id="line2d_4">
      <g>
       <use xlink:href="#m7706bc94cf" x="216.875522" y="384.48" style="stroke: #000000; stroke-width: 0.8"/>
      </g>
     </g>
     <g id="text_2">
      <text style="font: 10px 'DejaVu Sans', 'Bitstream Vera Sans', 'Computer Modern Sans Serif', 'Lucida Grande', 'Verdana', 'Geneva', 'Lucid', 'Arial', 'Helvetica', 'Avant Garde', sans-serif; text-anchor: middle" x="216.875522" y="399.078438" transform="rotate(-0 216.875522 399.078438)">0.2</text>
     </g>
    </g>
    <g id="xtick_3">
     <g id="line2d_5">
      <path d="M 318.389945 384.48 
L 318.389945 51.84 
" clip-path="url(#pdeb2e6f313)" style="fill: none; stroke: #b0b0b0; stroke-opacity: 0.3; stroke-width: 0.8; stroke-linecap: square"/>
     </g>
     <g id="line2d_6">
      <g>
       <use xlink:href="#m7706bc94cf" x="318.389945" y="384.48" style="stroke: #000000; stroke-width: 0.8"/>
      </g>
     </g>
     <g id="text_3">
      <text style="font: 10px 'DejaVu Sans', 'Bitstream Vera Sans', 'Computer Modern Sans Serif', 'Lucida Grande', 'Verdana', 'Geneva', 'Lucid', 'Arial', 'Helvetica', 'Avant Garde', sans-serif; text-anchor: middle" x="318.389945" y="399.078438" transform="rotate(-0 318.389945 399.078438)">0.4</text>
     </g>
    </g>
    <g id="xtick_4">
     <g id="line2d_7">
      <path d="M 419.904367 384.48 
L 419.904367 51.84 
" clip-path="url(#pdeb2e6f313)" style="fill: none; stroke: #b0b0b0; stroke-opacity: 0.3; stroke-width: 0.8; stroke-linecap: square"/>
     </g>
     <g id="line2d_8">
      <g>
       <use xlink:href="#m7706bc94cf" x="419.904367" y="384.48" style="stroke: #000000; stroke-width: 0.8"/>
      </g>
     </g>
     <g id="text_4">
      <text style="font: 10px 'DejaVu Sans', 'Bitstream Vera Sans', 'Computer Modern Sans Serif', 'Lucida Grande', 'Verdana', 'Geneva', 'Lucid', 'Arial', 'Helvetica', 'Avant Garde', sans-serif; text-anchor: middle" x="419.904367" y="399.078438" transform="rotate(-0 419.904367 399.078438)">0.6</text>
     </g>
    </g>
    <g id="xtick_5">
     <g id="line2d_9">
      <path d="M 521.41879 384.48 
L 521.41879 51.84 
" clip-path="url(#pdeb2e6f313)" style="fill: none; stroke: #b0b0b0; stroke-opacity: 0.3; stroke-width: 0.8; stroke-linecap: square"/>
     </g>
     <g id="line2d_10">
      <g>
       <use xlink:href="#m7706bc94cf" x="521.41879" y="384.48" style="stroke: #000000; stroke-width: 0.8"/>
      </g>
     </g>
     <g id="text_5">
      <text style="font: 10px 'DejaVu Sans', 'Bitstream Vera Sans', 'Computer Modern Sans Serif', 'Lucida Grande', 'Verdana', 'Geneva', 'Lucid', 'Arial', 'Helvetica', 'Avant Garde', sans-serif; text-anchor: middle" x="521.41879" y="399.078438" transform="rotate(-0 521.41879 399.078438)">0.8</text>
     </g>
    </g>
    <g id="xtick_6">
     <g id="line2d_11">
      <path d="M 622.933212 384.48 
L 622.933212 51.84 
" clip-path="url(#pdeb2e6f313)" style="fill: none; stroke: #b0b0b0; stroke-opacity: 0.3; stroke-width: 0.8; stroke-linecap: square"/>
     </g>
     <g id="line2d_12">
      <g>
       <use xlink:href="#m7706bc94cf" x="622.933212" y="384.48" style="stroke: #000000; stroke-width: 0.8"/>
      </g>
     </g>
     <g id="text_6">
      <text style="font: 10px 'DejaVu Sans', 'Bitstream Vera Sans', 'Computer Modern Sans Serif', 'Lucida Grande', 'Verdana', 'Geneva', 'Lucid', 'Arial', 'Helvetica', 'Avant Garde', sans-serif; text-anchor: middle" x="622.933212" y="399.078438" transform="rotate(-0 622.933212 399.078438)">1.0</text>
     </g>
    </g>
    <g id="text_7">
     <text style="font: 10px 'DejaVu Sans', 'Bitstream Vera Sans', 'Computer Modern Sans Serif', 'Lucida Grande', 'Verdana', 'Geneva', 'Lucid', 'Arial', 'Helvetica', 'Avant Garde', sans-serif; text-anchor: middle" x="369" y="412.756563" transform="rotate(-0 369 412.756563)">Score</text>
    </g>
   </g>
   <g id="matplotlib.axis_2">
    <g id="ytick_1">
     <g id="line2d_13">
      <path d="M 90 384.48 
L 648 384.48 
" clip-path="url(#pdeb2e6f313)" style="fill: none; stroke: #b0b0b0; stroke-opacity: 0.3; stroke-width: 0.8; stroke-linecap: square"/>
     </g>
     <g id="line2d_14">
      <defs>
       <path id="meb021703bd" d="M 0 0 
L -3.5 0 
" style="stroke: #000000; stroke-width: 0.8"/>
      </defs>
      <g>
       <use xlink:href="#meb021703bd" x="90" y="384.48" style="stroke: #000000; stroke-width: 0.8"/>
      </g>
     </g>
     <g id="text_8">
      <text style="font: 10px 'DejaVu Sans', 'Bitstream Vera Sans', 'Computer Modern Sans Serif', 'Lucida Grande', 'Verdana', 'Geneva', 'Lucid', 'Arial', 'Helvetica', 'Avant Garde', sans-serif; text-anchor: end" x="83" y="388.279219" transform="rotate(-0 83 388.279219)">0</text>
     </g>
    </g>
    <g id="ytick_2">
     <g id="line2d_15">
      <path d="M 90 312.967585 
L 648 312.967585 
" clip-path="url(#pdeb2e6f313)" style="fill: none; stroke: #b0b0b0; stroke-opacity: 0.3; stroke-width: 0.8; stroke-linecap: square"/>
     </g>
     <g id="line2d_16">
      <g>
       <use xlink:href="#meb021703bd" x="90" y="312.967585" style="stroke: #000000; stroke-width: 0.8"/>
      </g>
     </g>
     <g id="text_9">
      <text style="font: 10px 'DejaVu Sans', 'Bitstream Vera Sans', 'Computer Modern Sans Serif', 'Lucida Grande', 'Verdana', 'Geneva', 'Lucid', 'Arial', 'Helvetica', 'Avant Garde', sans-serif; text-anchor: end" x="83" y="316.766803" transform="rotate(-0 83 316.766803)">100</text>
     </g>
    </g>
    <g id="ytick_3">
     <g id="line2d_17">
      <path d="M 90 241.455169 
L 648 241.455169 
" clip-path="url(#pdeb2e6f313)" style="fill: none; stroke: #b0b0b0; stroke-opacity: 0.3; stroke-width: 0.8; stroke-linecap: square"/>
     </g>
     <g id="line2d_18">
      <g>
       <use xlink:href="#meb021703bd" x="90" y="241.455169" style="stroke: #000000; stroke-width: 0.8"/>
      </g>
     </g>
     <g id="text_10">
      <text style="font: 10px 'DejaVu Sans', 'Bitstream Vera Sans', 'Computer Modern Sans Serif', 'Lucida Grande', 'Verdana', 'Geneva', 'Lucid', 'Arial', 'Helvetica', 'Avant Garde', sans-serif; text-anchor: end" x="83" y="245.254388" transform="rotate(-0 83 245.254388)">200</text>
     </g>
    </g>
    <g id="ytick_4">
     <g id="line2d_19">
      <path d="M 90 169.942754 
L 648 169.942754 
" clip-path="url(#pdeb2e6f313)" style="fill: none; stroke: #b0b0b0; stroke-opacity: 0.3; stroke-width: 0.8; stroke-linecap: square"/>
     </g>
     <g id="line2d_20">
      <g>
       <use xlink:href="#meb021703bd" x="90" y="169.942754" style="stroke: #000000; stroke-width: 0.8"/>
      </g>
     </g>
     <g id="text_11">
      <text style="font: 10px 'DejaVu Sans', 'Bitstream Vera Sans', 'Computer Modern Sans Serif', 'Lucida Grande', 'Verdana', 'Geneva', 'Lucid', 'Arial', 'Helvetica', 'Avant Garde', sans-serif; text-anchor: end" x="83" y="173.741973" transform="rotate(-0 83 173.741973)">300</text>
     </g>
    </g>
    <g id="ytick_5">
     <g id="line2d_21">
      <path d="M 90 98.430339 
L 648 98.430339 
" clip-path="url(#pdeb2e6f313)" style="fill: none; stroke: #b0b0b0; stroke-opacity: 0.3; stroke-width: 0.8; stroke-linecap: square"/>
     </g>
     <g id="line2d_22">
      <g>
       <use xlink:href="#meb021703bd" x="90" y="98.430339" style="stroke: #000000; stroke-width: 0.8"/>
      </g>
     </g>
     <g id="text_12">
      <text style="font: 10px 'DejaVu Sans', 'Bitstream Vera Sans', 'Computer Modern Sans Serif', 'Lucida Grande', 'Verdana', 'Geneva', 'Lucid', 'Arial', 'Helvetica', 'Avant Garde', sans-serif; text-anchor: end" x="83" y="102.229557" transform="rotate(-0 83 102.229557)">400</text>
     </g>
    </g>
    <g id="text_13">
     <text style="font: 10px 'DejaVu Sans', 'Bitstream Vera Sans', 'Computer Modern Sans Serif', 'Lucida Grande', 'Verdana', 'Geneva', 'Lucid', 'Arial', 'Helvetica', 'Avant Garde', sans-serif; text-anchor: middle" x="57.832812" y="218.16" transform="rotate(-90 57.832812 218.16)">Density</text>
    </g>
   </g>
   <g id="line2d_23">
    <path d="M 115.363636 319.229539 
L 117.912746 317.82931 
L 120.461855 317.020677 
L 123.010964 316.813139 
L 125.560073 317.198242 
L 128.109182 318.150362 
L 130.658291 319.628321 
L 133.207401 321.577728 
L 135.75651 323.933866 
L 138.305619 326.624901 
L 140.854728 329.575225 
L 145.952947 335.951644 
L 153.600274 345.686631 
L 158.698492 351.67454 
L 161.247602 354.414261 
L 163.796711 356.959607 
L 166.34582 359.301837 
L 168.894929 361.438844 
L 171.444038 363.373947 
L 173.993148 365.114677 
L 176.542257 366.671634 
L 179.091366 368.057459 
L 181.640475 369.285958 
L 184.189584 370.37139 
L 189.287803 372.169215 
L 194.386021 373.55688 
L 199.484239 374.626529 
L 204.582458 375.455038 
L 212.229785 376.380346 
L 222.426222 377.267999 
L 255.564641 379.831792 
L 273.408406 381.30508 
L 283.604842 381.926583 
L 293.801279 382.273537 
L 303.997716 382.327734 
L 314.194153 382.148436 
L 339.685244 381.541827 
L 352.43079 381.536408 
L 370.274555 381.81684 
L 398.314756 382.504772 
L 418.707629 382.955966 
L 431.453175 383.022335 
L 451.846048 382.851578 
L 477.33714 382.660675 
L 495.180905 382.727127 
L 515.573778 383.060423 
L 543.613979 383.524545 
L 566.555962 383.607013 
L 592.047053 383.737682 
L 622.636364 384.160464 
L 622.636364 384.160464 
" clip-path="url(#pdeb2e6f313)" style="fill: none; stroke: #ff0000; stroke-width: 1.5; stroke-linecap: square"/>
   </g>
   <g id="line2d_24">
    <path d="M 115.363636 380.012922 
L 130.658291 379.840914 
L 145.952947 379.877145 
L 163.796711 380.164816 
L 184.189584 380.737649 
L 258.113751 383.068143 
L 283.604842 383.511322 
L 311.645043 383.758419 
L 347.332572 383.825202 
L 513.024669 383.592046 
L 622.636364 383.384808 
L 622.636364 383.384808 
" clip-path="url(#pdeb2e6f313)" style="fill: none; stroke: #0000ff; stroke-width: 1.5; stroke-linecap: square"/>
   </g>
   <g id="line2d_25">
    <path d="M 252.383056 384.48 
L 252.383056 51.84 
" clip-path="url(#pdeb2e6f313)" style="fill: none; stroke-dasharray: 7.4,3.2; stroke-dashoffset: 0; stroke: #00008b; stroke-width: 2"/>
   </g>
   <g id="line2d_26">
    <path d="M 164.479651 384.48 
L 164.479651 51.84 
" clip-path="url(#pdeb2e6f313)" style="fill: none; stroke-dasharray: 7.4,3.2; stroke-dashoffset: 0; stroke: #8b0000; stroke-width: 2"/>
   </g>
   <g id="patch_103">
    <path d="M 90 384.48 
L 90 51.84 
" style="fill: none; stroke: #000000; stroke-width: 0.8; stroke-linejoin: miter; stroke-linecap: square"/>
   </g>
   <g id="patch_104">
    <path d="M 648 384.48 
L 648 51.84 
" style="fill: none; stroke: #000000; stroke-width: 0.8; stroke-linejoin: miter; stroke-linecap: square"/>
   </g>
   <g id="patch_105">
    <path d="M 90 384.48 
L 648 384.48 
" style="fill: none; stroke: #000000; stroke-width: 0.8; stroke-linejoin: miter; stroke-linecap: square"/>
   </g>
   <g id="patch_106">
    <path d="M 90 51.84 
L 648 51.84 
" style="fill: none; stroke: #000000; stroke-width: 0.8; stroke-linejoin: miter; stroke-linecap: square"/>
   </g>
   <g id="text_14">
    <text style="font: 12px 'DejaVu Sans', 'Bitstream Vera Sans', 'Computer Modern Sans Serif', 'Lucida Grande', 'Verdana', 'Geneva', 'Lucid', 'Arial', 'Helvetica', 'Avant Garde', sans-serif; text-anchor: middle" x="369" y="45.84" transform="rotate(-0 369 45.84)">EPACT</text>
   </g>
   <g id="legend_1">
    <g id="patch_107">
     <path d="M 565.2625 103.874375 
L 641 103.874375 
Q 643 103.874375 643 101.874375 
L 643 58.84 
Q 643 56.84 641 56.84 
L 565.2625 56.84 
Q 563.2625 56.84 563.2625 58.84 
L 563.2625 101.874375 
Q 563.2625 103.874375 565.2625 103.874375 
z
" style="fill: #ffffff; opacity: 0.8; stroke: #cccccc; stroke-linejoin: miter"/>
    </g>
    <g id="text_15">
     <text style="font: 10px 'DejaVu Sans', 'Bitstream Vera Sans', 'Computer Modern Sans Serif', 'Lucida Grande', 'Verdana', 'Geneva', 'Lucid', 'Arial', 'Helvetica', 'Avant Garde', sans-serif; text-anchor: start" x="591.038281" y="68.438437" transform="rotate(-0 591.038281 68.438437)">label</text>
    </g>
    <g id="patch_108">
     <path d="M 567.2625 83.116562 
L 587.2625 83.116562 
L 587.2625 76.116562 
L 567.2625 76.116562 
z
" style="fill: #0000ff; fill-opacity: 0.7; stroke: #000000; stroke-linejoin: miter"/>
    </g>
    <g id="text_16">
     <text style="font: 10px 'DejaVu Sans', 'Bitstream Vera Sans', 'Computer Modern Sans Serif', 'Lucida Grande', 'Verdana', 'Geneva', 'Lucid', 'Arial', 'Helvetica', 'Avant Garde', sans-serif; text-anchor: start" x="595.2625" y="83.116562" transform="rotate(-0 595.2625 83.116562)">positive</text>
    </g>
    <g id="patch_109">
     <path d="M 567.2625 97.794688 
L 587.2625 97.794688 
L 587.2625 90.794688 
L 567.2625 90.794688 
z
" style="fill: #ff0000; fill-opacity: 0.7; stroke: #000000; stroke-linejoin: miter"/>
    </g>
    <g id="text_17">
     <text style="font: 10px 'DejaVu Sans', 'Bitstream Vera Sans', 'Computer Modern Sans Serif', 'Lucida Grande', 'Verdana', 'Geneva', 'Lucid', 'Arial', 'Helvetica', 'Avant Garde', sans-serif; text-anchor: start" x="595.2625" y="97.794688" transform="rotate(-0 595.2625 97.794688)">negative</text>
    </g>
   </g>
  </g>
 </g>
 <defs>
  <clipPath id="pdeb2e6f313">
   <rect x="90" y="51.84" width="558" height="332.64"/>
  </clipPath>
 </defs>
</svg>
