<?xml version="1.0" encoding="utf-8" standalone="no"?>
<!DOCTYPE svg PUBLIC "-//W3C//DTD SVG 1.1//EN"
  "http://www.w3.org/Graphics/SVG/1.1/DTD/svg11.dtd">
<svg xmlns:xlink="http://www.w3.org/1999/xlink" width="720pt" height="432pt" viewBox="0 0 720 432" xmlns="http://www.w3.org/2000/svg" version="1.1">
 <metadata>
  <rdf:RDF xmlns:dc="http://purl.org/dc/elements/1.1/" xmlns:cc="http://creativecommons.org/ns#" xmlns:rdf="http://www.w3.org/1999/02/22-rdf-syntax-ns#">
   <cc:Work>
    <dc:type rdf:resource="http://purl.org/dc/dcmitype/StillImage"/>
    <dc:date>2025-11-20T02:42:48.567676</dc:date>
    <dc:format>image/svg+xml</dc:format>
    <dc:creator>
     <cc:Agent>
      <dc:title>Matplotlib v3.9.4, https://matplotlib.org/</dc:title>
     </cc:Agent>
    </dc:creator>
   </cc:Work>
  </rdf:RDF>
 </metadata>
 <defs>
  <style type="text/css">*{stroke-linejoin: round; stroke-linecap: butt}</style>
 </defs>
 <g id="figure_1">
  <g id="patch_1">
   <path d="M 0 432 
L 720 432 
L 720 0 
L 0 0 
z
" style="fill: #ffffff"/>
  </g>
  <g id="axes_1">
   <g id="patch_2">
    <path d="M 90 384.48 
L 648 384.48 
L 648 51.84 
L 90 51.84 
z
" style="fill: #ffffff"/>
   </g>
   <g id="patch_3">
    <path d="M 115.363636 384.48 
L 125.509091 384.48 
L 125.509091 67.68 
L 115.363636 67.68 
z
" clip-path="url(#pfdd912d174)" style="fill: #ff0000; fill-opacity: 0.7; stroke: #000000; stroke-linejoin: miter"/>
   </g>
   <g id="patch_4">
    <path d="M 125.509091 384.48 
L 135.654545 384.48 
L 135.654545 341.652167 
L 125.509091 341.652167 
z
" clip-path="url(#pfdd912d174)" style="fill: #ff0000; fill-opacity: 0.7; stroke: #000000; stroke-linejoin: miter"/>
   </g>
   <g id="patch_5">
    <path d="M 135.654545 384.48 
L 145.8 384.48 
L 145.8 359.916978 
L 135.654545 359.916978 
z
" clip-path="url(#pfdd912d174)" style="fill: #ff0000; fill-opacity: 0.7; stroke: #000000; stroke-linejoin: miter"/>
   </g>
   <g id="patch_6">
    <path d="M 145.8 384.48 
L 155.945455 384.48 
L 155.945455 363.695905 
L 145.8 363.695905 
z
" clip-path="url(#pfdd912d174)" style="fill: #ff0000; fill-opacity: 0.7; stroke: #000000; stroke-linejoin: miter"/>
   </g>
   <g id="patch_7">
    <path d="M 155.945455 384.48 
L 166.090909 384.48 
L 166.090909 376.292326 
L 155.945455 376.292326 
z
" clip-path="url(#pfdd912d174)" style="fill: #ff0000; fill-opacity: 0.7; stroke: #000000; stroke-linejoin: miter"/>
   </g>
   <g id="patch_8">
    <path d="M 166.090909 384.48 
L 176.236364 384.48 
L 176.236364 378.81161 
L 166.090909 378.81161 
z
" clip-path="url(#pfdd912d174)" style="fill: #ff0000; fill-opacity: 0.7; stroke: #000000; stroke-linejoin: miter"/>
   </g>
   <g id="patch_9">
    <path d="M 176.236364 384.48 
L 186.381818 384.48 
L 186.381818 375.032684 
L 176.236364 375.032684 
z
" clip-path="url(#pfdd912d174)" style="fill: #ff0000; fill-opacity: 0.7; stroke: #000000; stroke-linejoin: miter"/>
   </g>
   <g id="patch_10">
    <path d="M 186.381818 384.48 
L 196.527273 384.48 
L 196.527273 379.441431 
L 186.381818 379.441431 
z
" clip-path="url(#pfdd912d174)" style="fill: #ff0000; fill-opacity: 0.7; stroke: #000000; stroke-linejoin: miter"/>
   </g>
   <g id="patch_11">
    <path d="M 196.527273 384.48 
L 206.672727 384.48 
L 206.672727 378.81161 
L 196.527273 378.81161 
z
" clip-path="url(#pfdd912d174)" style="fill: #ff0000; fill-opacity: 0.7; stroke: #000000; stroke-linejoin: miter"/>
   </g>
   <g id="patch_12">
    <path d="M 206.672727 384.48 
L 216.818182 384.48 
L 216.818182 378.181789 
L 206.672727 378.181789 
z
" clip-path="url(#pfdd912d174)" style="fill: #ff0000; fill-opacity: 0.7; stroke: #000000; stroke-linejoin: miter"/>
   </g>
   <g id="patch_13">
    <path d="M 216.818182 384.48 
L 226.963636 384.48 
L 226.963636 382.590537 
L 216.818182 382.590537 
z
" clip-path="url(#pfdd912d174)" style="fill: #ff0000; fill-opacity: 0.7; stroke: #000000; stroke-linejoin: miter"/>
   </g>
   <g id="patch_14">
    <path d="M 226.963636 384.48 
L 237.109091 384.48 
L 237.109091 381.960716 
L 226.963636 381.960716 
z
" clip-path="url(#pfdd912d174)" style="fill: #ff0000; fill-opacity: 0.7; stroke: #000000; stroke-linejoin: miter"/>
   </g>
   <g id="patch_15">
    <path d="M 237.109091 384.48 
L 247.254545 384.48 
L 247.254545 381.330895 
L 237.109091 381.330895 
z
" clip-path="url(#pfdd912d174)" style="fill: #ff0000; fill-opacity: 0.7; stroke: #000000; stroke-linejoin: miter"/>
   </g>
   <g id="patch_16">
    <path d="M 247.254545 384.48 
L 257.4 384.48 
L 257.4 380.701074 
L 247.254545 380.701074 
z
" clip-path="url(#pfdd912d174)" style="fill: #ff0000; fill-opacity: 0.7; stroke: #000000; stroke-linejoin: miter"/>
   </g>
   <g id="patch_17">
    <path d="M 257.4 384.48 
L 267.545455 384.48 
L 267.545455 382.590537 
L 257.4 382.590537 
z
" clip-path="url(#pfdd912d174)" style="fill: #ff0000; fill-opacity: 0.7; stroke: #000000; stroke-linejoin: miter"/>
   </g>
   <g id="patch_18">
    <path d="M 267.545455 384.48 
L 277.690909 384.48 
L 277.690909 380.701074 
L 267.545455 380.701074 
z
" clip-path="url(#pfdd912d174)" style="fill: #ff0000; fill-opacity: 0.7; stroke: #000000; stroke-linejoin: miter"/>
   </g>
   <g id="patch_19">
    <path d="M 277.690909 384.48 
L 287.836364 384.48 
L 287.836364 381.330895 
L 277.690909 381.330895 
z
" clip-path="url(#pfdd912d174)" style="fill: #ff0000; fill-opacity: 0.7; stroke: #000000; stroke-linejoin: miter"/>
   </g>
   <g id="patch_20">
    <path d="M 287.836364 384.48 
L 297.981818 384.48 
L 297.981818 378.81161 
L 287.836364 378.81161 
z
" clip-path="url(#pfdd912d174)" style="fill: #ff0000; fill-opacity: 0.7; stroke: #000000; stroke-linejoin: miter"/>
   </g>
   <g id="patch_21">
    <path d="M 297.981818 384.48 
L 308.127273 384.48 
L 308.127273 381.960716 
L 297.981818 381.960716 
z
" clip-path="url(#pfdd912d174)" style="fill: #ff0000; fill-opacity: 0.7; stroke: #000000; stroke-linejoin: miter"/>
   </g>
   <g id="patch_22">
    <path d="M 308.127273 384.48 
L 318.272727 384.48 
L 318.272727 383.220358 
L 308.127273 383.220358 
z
" clip-path="url(#pfdd912d174)" style="fill: #ff0000; fill-opacity: 0.7; stroke: #000000; stroke-linejoin: miter"/>
   </g>
   <g id="patch_23">
    <path d="M 318.272727 384.48 
L 328.418182 384.48 
L 328.418182 382.590537 
L 318.272727 382.590537 
z
" clip-path="url(#pfdd912d174)" style="fill: #ff0000; fill-opacity: 0.7; stroke: #000000; stroke-linejoin: miter"/>
   </g>
   <g id="patch_24">
    <path d="M 328.418182 384.48 
L 338.563636 384.48 
L 338.563636 383.220358 
L 328.418182 383.220358 
z
" clip-path="url(#pfdd912d174)" style="fill: #ff0000; fill-opacity: 0.7; stroke: #000000; stroke-linejoin: miter"/>
   </g>
   <g id="patch_25">
    <path d="M 338.563636 384.48 
L 348.709091 384.48 
L 348.709091 383.220358 
L 338.563636 383.220358 
z
" clip-path="url(#pfdd912d174)" style="fill: #ff0000; fill-opacity: 0.7; stroke: #000000; stroke-linejoin: miter"/>
   </g>
   <g id="patch_26">
    <path d="M 348.709091 384.48 
L 358.854545 384.48 
L 358.854545 381.960716 
L 348.709091 381.960716 
z
" clip-path="url(#pfdd912d174)" style="fill: #ff0000; fill-opacity: 0.7; stroke: #000000; stroke-linejoin: miter"/>
   </g>
   <g id="patch_27">
    <path d="M 358.854545 384.48 
L 369 384.48 
L 369 382.590537 
L 358.854545 382.590537 
z
" clip-path="url(#pfdd912d174)" style="fill: #ff0000; fill-opacity: 0.7; stroke: #000000; stroke-linejoin: miter"/>
   </g>
   <g id="patch_28">
    <path d="M 369 384.48 
L 379.145455 384.48 
L 379.145455 383.220358 
L 369 383.220358 
z
" clip-path="url(#pfdd912d174)" style="fill: #ff0000; fill-opacity: 0.7; stroke: #000000; stroke-linejoin: miter"/>
   </g>
   <g id="patch_29">
    <path d="M 379.145455 384.48 
L 389.290909 384.48 
L 389.290909 382.590537 
L 379.145455 382.590537 
z
" clip-path="url(#pfdd912d174)" style="fill: #ff0000; fill-opacity: 0.7; stroke: #000000; stroke-linejoin: miter"/>
   </g>
   <g id="patch_30">
    <path d="M 389.290909 384.48 
L 399.436364 384.48 
L 399.436364 383.220358 
L 389.290909 383.220358 
z
" clip-path="url(#pfdd912d174)" style="fill: #ff0000; fill-opacity: 0.7; stroke: #000000; stroke-linejoin: miter"/>
   </g>
   <g id="patch_31">
    <path d="M 399.436364 384.48 
L 409.581818 384.48 
L 409.581818 381.960716 
L 399.436364 381.960716 
z
" clip-path="url(#pfdd912d174)" style="fill: #ff0000; fill-opacity: 0.7; stroke: #000000; stroke-linejoin: miter"/>
   </g>
   <g id="patch_32">
    <path d="M 409.581818 384.48 
L 419.727273 384.48 
L 419.727273 381.960716 
L 409.581818 381.960716 
z
" clip-path="url(#pfdd912d174)" style="fill: #ff0000; fill-opacity: 0.7; stroke: #000000; stroke-linejoin: miter"/>
   </g>
   <g id="patch_33">
    <path d="M 419.727273 384.48 
L 429.872727 384.48 
L 429.872727 384.48 
L 419.727273 384.48 
z
" clip-path="url(#pfdd912d174)" style="fill: #ff0000; fill-opacity: 0.7; stroke: #000000; stroke-linejoin: miter"/>
   </g>
   <g id="patch_34">
    <path d="M 429.872727 384.48 
L 440.018182 384.48 
L 440.018182 384.48 
L 429.872727 384.48 
z
" clip-path="url(#pfdd912d174)" style="fill: #ff0000; fill-opacity: 0.7; stroke: #000000; stroke-linejoin: miter"/>
   </g>
   <g id="patch_35">
    <path d="M 440.018182 384.48 
L 450.163636 384.48 
L 450.163636 384.48 
L 440.018182 384.48 
z
" clip-path="url(#pfdd912d174)" style="fill: #ff0000; fill-opacity: 0.7; stroke: #000000; stroke-linejoin: miter"/>
   </g>
   <g id="patch_36">
    <path d="M 450.163636 384.48 
L 460.309091 384.48 
L 460.309091 381.960716 
L 450.163636 381.960716 
z
" clip-path="url(#pfdd912d174)" style="fill: #ff0000; fill-opacity: 0.7; stroke: #000000; stroke-linejoin: miter"/>
   </g>
   <g id="patch_37">
    <path d="M 460.309091 384.48 
L 470.454545 384.48 
L 470.454545 381.330895 
L 460.309091 381.330895 
z
" clip-path="url(#pfdd912d174)" style="fill: #ff0000; fill-opacity: 0.7; stroke: #000000; stroke-linejoin: miter"/>
   </g>
   <g id="patch_38">
    <path d="M 470.454545 384.48 
L 480.6 384.48 
L 480.6 383.220358 
L 470.454545 383.220358 
z
" clip-path="url(#pfdd912d174)" style="fill: #ff0000; fill-opacity: 0.7; stroke: #000000; stroke-linejoin: miter"/>
   </g>
   <g id="patch_39">
    <path d="M 480.6 384.48 
L 490.745455 384.48 
L 490.745455 381.960716 
L 480.6 381.960716 
z
" clip-path="url(#pfdd912d174)" style="fill: #ff0000; fill-opacity: 0.7; stroke: #000000; stroke-linejoin: miter"/>
   </g>
   <g id="patch_40">
    <path d="M 490.745455 384.48 
L 500.890909 384.48 
L 500.890909 382.590537 
L 490.745455 382.590537 
z
" clip-path="url(#pfdd912d174)" style="fill: #ff0000; fill-opacity: 0.7; stroke: #000000; stroke-linejoin: miter"/>
   </g>
   <g id="patch_41">
    <path d="M 500.890909 384.48 
L 511.036364 384.48 
L 511.036364 384.48 
L 500.890909 384.48 
z
" clip-path="url(#pfdd912d174)" style="fill: #ff0000; fill-opacity: 0.7; stroke: #000000; stroke-linejoin: miter"/>
   </g>
   <g id="patch_42">
    <path d="M 511.036364 384.48 
L 521.181818 384.48 
L 521.181818 383.850179 
L 511.036364 383.850179 
z
" clip-path="url(#pfdd912d174)" style="fill: #ff0000; fill-opacity: 0.7; stroke: #000000; stroke-linejoin: miter"/>
   </g>
   <g id="patch_43">
    <path d="M 521.181818 384.48 
L 531.327273 384.48 
L 531.327273 383.850179 
L 521.181818 383.850179 
z
" clip-path="url(#pfdd912d174)" style="fill: #ff0000; fill-opacity: 0.7; stroke: #000000; stroke-linejoin: miter"/>
   </g>
   <g id="patch_44">
    <path d="M 531.327273 384.48 
L 541.472727 384.48 
L 541.472727 383.850179 
L 531.327273 383.850179 
z
" clip-path="url(#pfdd912d174)" style="fill: #ff0000; fill-opacity: 0.7; stroke: #000000; stroke-linejoin: miter"/>
   </g>
   <g id="patch_45">
    <path d="M 541.472727 384.48 
L 551.618182 384.48 
L 551.618182 383.220358 
L 541.472727 383.220358 
z
" clip-path="url(#pfdd912d174)" style="fill: #ff0000; fill-opacity: 0.7; stroke: #000000; stroke-linejoin: miter"/>
   </g>
   <g id="patch_46">
    <path d="M 551.618182 384.48 
L 561.763636 384.48 
L 561.763636 383.220358 
L 551.618182 383.220358 
z
" clip-path="url(#pfdd912d174)" style="fill: #ff0000; fill-opacity: 0.7; stroke: #000000; stroke-linejoin: miter"/>
   </g>
   <g id="patch_47">
    <path d="M 561.763636 384.48 
L 571.909091 384.48 
L 571.909091 383.220358 
L 561.763636 383.220358 
z
" clip-path="url(#pfdd912d174)" style="fill: #ff0000; fill-opacity: 0.7; stroke: #000000; stroke-linejoin: miter"/>
   </g>
   <g id="patch_48">
    <path d="M 571.909091 384.48 
L 582.054545 384.48 
L 582.054545 382.590537 
L 571.909091 382.590537 
z
" clip-path="url(#pfdd912d174)" style="fill: #ff0000; fill-opacity: 0.7; stroke: #000000; stroke-linejoin: miter"/>
   </g>
   <g id="patch_49">
    <path d="M 582.054545 384.48 
L 592.2 384.48 
L 592.2 383.220358 
L 582.054545 383.220358 
z
" clip-path="url(#pfdd912d174)" style="fill: #ff0000; fill-opacity: 0.7; stroke: #000000; stroke-linejoin: miter"/>
   </g>
   <g id="patch_50">
    <path d="M 592.2 384.48 
L 602.345455 384.48 
L 602.345455 383.220358 
L 592.2 383.220358 
z
" clip-path="url(#pfdd912d174)" style="fill: #ff0000; fill-opacity: 0.7; stroke: #000000; stroke-linejoin: miter"/>
   </g>
   <g id="patch_51">
    <path d="M 602.345455 384.48 
L 612.490909 384.48 
L 612.490909 382.590537 
L 602.345455 382.590537 
z
" clip-path="url(#pfdd912d174)" style="fill: #ff0000; fill-opacity: 0.7; stroke: #000000; stroke-linejoin: miter"/>
   </g>
   <g id="patch_52">
    <path d="M 612.490909 384.48 
L 622.636364 384.48 
L 622.636364 384.48 
L 612.490909 384.48 
z
" clip-path="url(#pfdd912d174)" style="fill: #ff0000; fill-opacity: 0.7; stroke: #000000; stroke-linejoin: miter"/>
   </g>
   <g id="patch_53">
    <path d="M 115.363636 384.48 
L 125.509091 384.48 
L 125.509091 345.431093 
L 115.363636 345.431093 
z
" clip-path="url(#pfdd912d174)" style="fill: #0000ff; fill-opacity: 0.7; stroke: #000000; stroke-linejoin: miter"/>
   </g>
   <g id="patch_54">
    <path d="M 125.509091 384.48 
L 135.654545 384.48 
L 135.654545 378.181789 
L 125.509091 378.181789 
z
" clip-path="url(#pfdd912d174)" style="fill: #0000ff; fill-opacity: 0.7; stroke: #000000; stroke-linejoin: miter"/>
   </g>
   <g id="patch_55">
    <path d="M 135.654545 384.48 
L 145.8 384.48 
L 145.8 379.441431 
L 135.654545 379.441431 
z
" clip-path="url(#pfdd912d174)" style="fill: #0000ff; fill-opacity: 0.7; stroke: #000000; stroke-linejoin: miter"/>
   </g>
   <g id="patch_56">
    <path d="M 145.8 384.48 
L 155.945455 384.48 
L 155.945455 378.81161 
L 145.8 378.81161 
z
" clip-path="url(#pfdd912d174)" style="fill: #0000ff; fill-opacity: 0.7; stroke: #000000; stroke-linejoin: miter"/>
   </g>
   <g id="patch_57">
    <path d="M 155.945455 384.48 
L 166.090909 384.48 
L 166.090909 380.071252 
L 155.945455 380.071252 
z
" clip-path="url(#pfdd912d174)" style="fill: #0000ff; fill-opacity: 0.7; stroke: #000000; stroke-linejoin: miter"/>
   </g>
   <g id="patch_58">
    <path d="M 166.090909 384.48 
L 176.236364 384.48 
L 176.236364 381.330895 
L 166.090909 381.330895 
z
" clip-path="url(#pfdd912d174)" style="fill: #0000ff; fill-opacity: 0.7; stroke: #000000; stroke-linejoin: miter"/>
   </g>
   <g id="patch_59">
    <path d="M 176.236364 384.48 
L 186.381818 384.48 
L 186.381818 383.220358 
L 176.236364 383.220358 
z
" clip-path="url(#pfdd912d174)" style="fill: #0000ff; fill-opacity: 0.7; stroke: #000000; stroke-linejoin: miter"/>
   </g>
   <g id="patch_60">
    <path d="M 186.381818 384.48 
L 196.527273 384.48 
L 196.527273 381.330895 
L 186.381818 381.330895 
z
" clip-path="url(#pfdd912d174)" style="fill: #0000ff; fill-opacity: 0.7; stroke: #000000; stroke-linejoin: miter"/>
   </g>
   <g id="patch_61">
    <path d="M 196.527273 384.48 
L 206.672727 384.48 
L 206.672727 383.850179 
L 196.527273 383.850179 
z
" clip-path="url(#pfdd912d174)" style="fill: #0000ff; fill-opacity: 0.7; stroke: #000000; stroke-linejoin: miter"/>
   </g>
   <g id="patch_62">
    <path d="M 206.672727 384.48 
L 216.818182 384.48 
L 216.818182 384.48 
L 206.672727 384.48 
z
" clip-path="url(#pfdd912d174)" style="fill: #0000ff; fill-opacity: 0.7; stroke: #000000; stroke-linejoin: miter"/>
   </g>
   <g id="patch_63">
    <path d="M 216.818182 384.48 
L 226.963636 384.48 
L 226.963636 383.220358 
L 216.818182 383.220358 
z
" clip-path="url(#pfdd912d174)" style="fill: #0000ff; fill-opacity: 0.7; stroke: #000000; stroke-linejoin: miter"/>
   </g>
   <g id="patch_64">
    <path d="M 226.963636 384.48 
L 237.109091 384.48 
L 237.109091 382.590537 
L 226.963636 382.590537 
z
" clip-path="url(#pfdd912d174)" style="fill: #0000ff; fill-opacity: 0.7; stroke: #000000; stroke-linejoin: miter"/>
   </g>
   <g id="patch_65">
    <path d="M 237.109091 384.48 
L 247.254545 384.48 
L 247.254545 383.850179 
L 237.109091 383.850179 
z
" clip-path="url(#pfdd912d174)" style="fill: #0000ff; fill-opacity: 0.7; stroke: #000000; stroke-linejoin: miter"/>
   </g>
   <g id="patch_66">
    <path d="M 247.254545 384.48 
L 257.4 384.48 
L 257.4 383.220358 
L 247.254545 383.220358 
z
" clip-path="url(#pfdd912d174)" style="fill: #0000ff; fill-opacity: 0.7; stroke: #000000; stroke-linejoin: miter"/>
   </g>
   <g id="patch_67">
    <path d="M 257.4 384.48 
L 267.545455 384.48 
L 267.545455 384.48 
L 257.4 384.48 
z
" clip-path="url(#pfdd912d174)" style="fill: #0000ff; fill-opacity: 0.7; stroke: #000000; stroke-linejoin: miter"/>
   </g>
   <g id="patch_68">
    <path d="M 267.545455 384.48 
L 277.690909 384.48 
L 277.690909 384.48 
L 267.545455 384.48 
z
" clip-path="url(#pfdd912d174)" style="fill: #0000ff; fill-opacity: 0.7; stroke: #000000; stroke-linejoin: miter"/>
   </g>
   <g id="patch_69">
    <path d="M 277.690909 384.48 
L 287.836364 384.48 
L 287.836364 383.850179 
L 277.690909 383.850179 
z
" clip-path="url(#pfdd912d174)" style="fill: #0000ff; fill-opacity: 0.7; stroke: #000000; stroke-linejoin: miter"/>
   </g>
   <g id="patch_70">
    <path d="M 287.836364 384.48 
L 297.981818 384.48 
L 297.981818 384.48 
L 287.836364 384.48 
z
" clip-path="url(#pfdd912d174)" style="fill: #0000ff; fill-opacity: 0.7; stroke: #000000; stroke-linejoin: miter"/>
   </g>
   <g id="patch_71">
    <path d="M 297.981818 384.48 
L 308.127273 384.48 
L 308.127273 384.48 
L 297.981818 384.48 
z
" clip-path="url(#pfdd912d174)" style="fill: #0000ff; fill-opacity: 0.7; stroke: #000000; stroke-linejoin: miter"/>
   </g>
   <g id="patch_72">
    <path d="M 308.127273 384.48 
L 318.272727 384.48 
L 318.272727 384.48 
L 308.127273 384.48 
z
" clip-path="url(#pfdd912d174)" style="fill: #0000ff; fill-opacity: 0.7; stroke: #000000; stroke-linejoin: miter"/>
   </g>
   <g id="patch_73">
    <path d="M 318.272727 384.48 
L 328.418182 384.48 
L 328.418182 383.850179 
L 318.272727 383.850179 
z
" clip-path="url(#pfdd912d174)" style="fill: #0000ff; fill-opacity: 0.7; stroke: #000000; stroke-linejoin: miter"/>
   </g>
   <g id="patch_74">
    <path d="M 328.418182 384.48 
L 338.563636 384.48 
L 338.563636 384.48 
L 328.418182 384.48 
z
" clip-path="url(#pfdd912d174)" style="fill: #0000ff; fill-opacity: 0.7; stroke: #000000; stroke-linejoin: miter"/>
   </g>
   <g id="patch_75">
    <path d="M 338.563636 384.48 
L 348.709091 384.48 
L 348.709091 383.850179 
L 338.563636 383.850179 
z
" clip-path="url(#pfdd912d174)" style="fill: #0000ff; fill-opacity: 0.7; stroke: #000000; stroke-linejoin: miter"/>
   </g>
   <g id="patch_76">
    <path d="M 348.709091 384.48 
L 358.854545 384.48 
L 358.854545 383.850179 
L 348.709091 383.850179 
z
" clip-path="url(#pfdd912d174)" style="fill: #0000ff; fill-opacity: 0.7; stroke: #000000; stroke-linejoin: miter"/>
   </g>
   <g id="patch_77">
    <path d="M 358.854545 384.48 
L 369 384.48 
L 369 383.850179 
L 358.854545 383.850179 
z
" clip-path="url(#pfdd912d174)" style="fill: #0000ff; fill-opacity: 0.7; stroke: #000000; stroke-linejoin: miter"/>
   </g>
   <g id="patch_78">
    <path d="M 369 384.48 
L 379.145455 384.48 
L 379.145455 383.850179 
L 369 383.850179 
z
" clip-path="url(#pfdd912d174)" style="fill: #0000ff; fill-opacity: 0.7; stroke: #000000; stroke-linejoin: miter"/>
   </g>
   <g id="patch_79">
    <path d="M 379.145455 384.48 
L 389.290909 384.48 
L 389.290909 383.850179 
L 379.145455 383.850179 
z
" clip-path="url(#pfdd912d174)" style="fill: #0000ff; fill-opacity: 0.7; stroke: #000000; stroke-linejoin: miter"/>
   </g>
   <g id="patch_80">
    <path d="M 389.290909 384.48 
L 399.436364 384.48 
L 399.436364 384.48 
L 389.290909 384.48 
z
" clip-path="url(#pfdd912d174)" style="fill: #0000ff; fill-opacity: 0.7; stroke: #000000; stroke-linejoin: miter"/>
   </g>
   <g id="patch_81">
    <path d="M 399.436364 384.48 
L 409.581818 384.48 
L 409.581818 382.590537 
L 399.436364 382.590537 
z
" clip-path="url(#pfdd912d174)" style="fill: #0000ff; fill-opacity: 0.7; stroke: #000000; stroke-linejoin: miter"/>
   </g>
   <g id="patch_82">
    <path d="M 409.581818 384.48 
L 419.727273 384.48 
L 419.727273 384.48 
L 409.581818 384.48 
z
" clip-path="url(#pfdd912d174)" style="fill: #0000ff; fill-opacity: 0.7; stroke: #000000; stroke-linejoin: miter"/>
   </g>
   <g id="patch_83">
    <path d="M 419.727273 384.48 
L 429.872727 384.48 
L 429.872727 383.220358 
L 419.727273 383.220358 
z
" clip-path="url(#pfdd912d174)" style="fill: #0000ff; fill-opacity: 0.7; stroke: #000000; stroke-linejoin: miter"/>
   </g>
   <g id="patch_84">
    <path d="M 429.872727 384.48 
L 440.018182 384.48 
L 440.018182 383.850179 
L 429.872727 383.850179 
z
" clip-path="url(#pfdd912d174)" style="fill: #0000ff; fill-opacity: 0.7; stroke: #000000; stroke-linejoin: miter"/>
   </g>
   <g id="patch_85">
    <path d="M 440.018182 384.48 
L 450.163636 384.48 
L 450.163636 382.590537 
L 440.018182 382.590537 
z
" clip-path="url(#pfdd912d174)" style="fill: #0000ff; fill-opacity: 0.7; stroke: #000000; stroke-linejoin: miter"/>
   </g>
   <g id="patch_86">
    <path d="M 450.163636 384.48 
L 460.309091 384.48 
L 460.309091 383.850179 
L 450.163636 383.850179 
z
" clip-path="url(#pfdd912d174)" style="fill: #0000ff; fill-opacity: 0.7; stroke: #000000; stroke-linejoin: miter"/>
   </g>
   <g id="patch_87">
    <path d="M 460.309091 384.48 
L 470.454545 384.48 
L 470.454545 384.48 
L 460.309091 384.48 
z
" clip-path="url(#pfdd912d174)" style="fill: #0000ff; fill-opacity: 0.7; stroke: #000000; stroke-linejoin: miter"/>
   </g>
   <g id="patch_88">
    <path d="M 470.454545 384.48 
L 480.6 384.48 
L 480.6 382.590537 
L 470.454545 382.590537 
z
" clip-path="url(#pfdd912d174)" style="fill: #0000ff; fill-opacity: 0.7; stroke: #000000; stroke-linejoin: miter"/>
   </g>
   <g id="patch_89">
    <path d="M 480.6 384.48 
L 490.745455 384.48 
L 490.745455 383.220358 
L 480.6 383.220358 
z
" clip-path="url(#pfdd912d174)" style="fill: #0000ff; fill-opacity: 0.7; stroke: #000000; stroke-linejoin: miter"/>
   </g>
   <g id="patch_90">
    <path d="M 490.745455 384.48 
L 500.890909 384.48 
L 500.890909 384.48 
L 490.745455 384.48 
z
" clip-path="url(#pfdd912d174)" style="fill: #0000ff; fill-opacity: 0.7; stroke: #000000; stroke-linejoin: miter"/>
   </g>
   <g id="patch_91">
    <path d="M 500.890909 384.48 
L 511.036364 384.48 
L 511.036364 384.48 
L 500.890909 384.48 
z
" clip-path="url(#pfdd912d174)" style="fill: #0000ff; fill-opacity: 0.7; stroke: #000000; stroke-linejoin: miter"/>
   </g>
   <g id="patch_92">
    <path d="M 511.036364 384.48 
L 521.181818 384.48 
L 521.181818 384.48 
L 511.036364 384.48 
z
" clip-path="url(#pfdd912d174)" style="fill: #0000ff; fill-opacity: 0.7; stroke: #000000; stroke-linejoin: miter"/>
   </g>
   <g id="patch_93">
    <path d="M 521.181818 384.48 
L 531.327273 384.48 
L 531.327273 383.220358 
L 521.181818 383.220358 
z
" clip-path="url(#pfdd912d174)" style="fill: #0000ff; fill-opacity: 0.7; stroke: #000000; stroke-linejoin: miter"/>
   </g>
   <g id="patch_94">
    <path d="M 531.327273 384.48 
L 541.472727 384.48 
L 541.472727 384.48 
L 531.327273 384.48 
z
" clip-path="url(#pfdd912d174)" style="fill: #0000ff; fill-opacity: 0.7; stroke: #000000; stroke-linejoin: miter"/>
   </g>
   <g id="patch_95">
    <path d="M 541.472727 384.48 
L 551.618182 384.48 
L 551.618182 383.850179 
L 541.472727 383.850179 
z
" clip-path="url(#pfdd912d174)" style="fill: #0000ff; fill-opacity: 0.7; stroke: #000000; stroke-linejoin: miter"/>
   </g>
   <g id="patch_96">
    <path d="M 551.618182 384.48 
L 561.763636 384.48 
L 561.763636 383.850179 
L 551.618182 383.850179 
z
" clip-path="url(#pfdd912d174)" style="fill: #0000ff; fill-opacity: 0.7; stroke: #000000; stroke-linejoin: miter"/>
   </g>
   <g id="patch_97">
    <path d="M 561.763636 384.48 
L 571.909091 384.48 
L 571.909091 384.48 
L 561.763636 384.48 
z
" clip-path="url(#pfdd912d174)" style="fill: #0000ff; fill-opacity: 0.7; stroke: #000000; stroke-linejoin: miter"/>
   </g>
   <g id="patch_98">
    <path d="M 571.909091 384.48 
L 582.054545 384.48 
L 582.054545 384.48 
L 571.909091 384.48 
z
" clip-path="url(#pfdd912d174)" style="fill: #0000ff; fill-opacity: 0.7; stroke: #000000; stroke-linejoin: miter"/>
   </g>
   <g id="patch_99">
    <path d="M 582.054545 384.48 
L 592.2 384.48 
L 592.2 382.590537 
L 582.054545 382.590537 
z
" clip-path="url(#pfdd912d174)" style="fill: #0000ff; fill-opacity: 0.7; stroke: #000000; stroke-linejoin: miter"/>
   </g>
   <g id="patch_100">
    <path d="M 592.2 384.48 
L 602.345455 384.48 
L 602.345455 383.850179 
L 592.2 383.850179 
z
" clip-path="url(#pfdd912d174)" style="fill: #0000ff; fill-opacity: 0.7; stroke: #000000; stroke-linejoin: miter"/>
   </g>
   <g id="patch_101">
    <path d="M 602.345455 384.48 
L 612.490909 384.48 
L 612.490909 383.220358 
L 602.345455 383.220358 
z
" clip-path="url(#pfdd912d174)" style="fill: #0000ff; fill-opacity: 0.7; stroke: #000000; stroke-linejoin: miter"/>
   </g>
   <g id="patch_102">
    <path d="M 612.490909 384.48 
L 622.636364 384.48 
L 622.636364 373.773042 
L 612.490909 373.773042 
z
" clip-path="url(#pfdd912d174)" style="fill: #0000ff; fill-opacity: 0.7; stroke: #000000; stroke-linejoin: miter"/>
   </g>
   <g id="matplotlib.axis_1">
    <g id="xtick_1">
     <g id="line2d_1">
      <path d="M 115.363594 384.48 
L 115.363594 51.84 
" clip-path="url(#pfdd912d174)" style="fill: none; stroke: #b0b0b0; stroke-opacity: 0.3; stroke-width: 0.8; stroke-linecap: square"/>
     </g>
     <g id="line2d_2">
      <defs>
       <path id="mc5a5944c15" d="M 0 0 
L 0 3.5 
" style="stroke: #000000; stroke-width: 0.8"/>
      </defs>
      <g>
       <use xlink:href="#mc5a5944c15" x="115.363594" y="384.48" style="stroke: #000000; stroke-width: 0.8"/>
      </g>
     </g>
     <g id="text_1">
      <text style="font: 10px 'DejaVu Sans', 'Bitstream Vera Sans', 'Computer Modern Sans Serif', 'Lucida Grande', 'Verdana', 'Geneva', 'Lucid', 'Arial', 'Helvetica', 'Avant Garde', sans-serif; text-anchor: middle" x="115.363594" y="399.078438" transform="rotate(-0 115.363594 399.078438)">0.0</text>
     </g>
    </g>
    <g id="xtick_2">
     <g id="line2d_3">
      <path d="M 216.877518 384.48 
L 216.877518 51.84 
" clip-path="url(#pfdd912d174)" style="fill: none; stroke: #b0b0b0; stroke-opacity: 0.3; stroke-width: 0.8; stroke-linecap: square"/>
     </g>
     <g id="line2d_4">
      <g>
       <use xlink:href="#mc5a5944c15" x="216.877518" y="384.48" style="stroke: #000000; stroke-width: 0.8"/>
      </g>
     </g>
     <g id="text_2">
      <text style="font: 10px 'DejaVu Sans', 'Bitstream Vera Sans', 'Computer Modern Sans Serif', 'Lucida Grande', 'Verdana', 'Geneva', 'Lucid', 'Arial', 'Helvetica', 'Avant Garde', sans-serif; text-anchor: middle" x="216.877518" y="399.078438" transform="rotate(-0 216.877518 399.078438)">0.2</text>
     </g>
    </g>
    <g id="xtick_3">
     <g id="line2d_5">
      <path d="M 318.391441 384.48 
L 318.391441 51.84 
" clip-path="url(#pfdd912d174)" style="fill: none; stroke: #b0b0b0; stroke-opacity: 0.3; stroke-width: 0.8; stroke-linecap: square"/>
     </g>
     <g id="line2d_6">
      <g>
       <use xlink:href="#mc5a5944c15" x="318.391441" y="384.48" style="stroke: #000000; stroke-width: 0.8"/>
      </g>
     </g>
     <g id="text_3">
      <text style="font: 10px 'DejaVu Sans', 'Bitstream Vera Sans', 'Computer Modern Sans Serif', 'Lucida Grande', 'Verdana', 'Geneva', 'Lucid', 'Arial', 'Helvetica', 'Avant Garde', sans-serif; text-anchor: middle" x="318.391441" y="399.078438" transform="rotate(-0 318.391441 399.078438)">0.4</text>
     </g>
    </g>
    <g id="xtick_4">
     <g id="line2d_7">
      <path d="M 419.905364 384.48 
L 419.905364 51.84 
" clip-path="url(#pfdd912d174)" style="fill: none; stroke: #b0b0b0; stroke-opacity: 0.3; stroke-width: 0.8; stroke-linecap: square"/>
     </g>
     <g id="line2d_8">
      <g>
       <use xlink:href="#mc5a5944c15" x="419.905364" y="384.48" style="stroke: #000000; stroke-width: 0.8"/>
      </g>
     </g>
     <g id="text_4">
      <text style="font: 10px 'DejaVu Sans', 'Bitstream Vera Sans', 'Computer Modern Sans Serif', 'Lucida Grande', 'Verdana', 'Geneva', 'Lucid', 'Arial', 'Helvetica', 'Avant Garde', sans-serif; text-anchor: middle" x="419.905364" y="399.078438" transform="rotate(-0 419.905364 399.078438)">0.6</text>
     </g>
    </g>
    <g id="xtick_5">
     <g id="line2d_9">
      <path d="M 521.419287 384.48 
L 521.419287 51.84 
" clip-path="url(#pfdd912d174)" style="fill: none; stroke: #b0b0b0; stroke-opacity: 0.3; stroke-width: 0.8; stroke-linecap: square"/>
     </g>
     <g id="line2d_10">
      <g>
       <use xlink:href="#mc5a5944c15" x="521.419287" y="384.48" style="stroke: #000000; stroke-width: 0.8"/>
      </g>
     </g>
     <g id="text_5">
      <text style="font: 10px 'DejaVu Sans', 'Bitstream Vera Sans', 'Computer Modern Sans Serif', 'Lucida Grande', 'Verdana', 'Geneva', 'Lucid', 'Arial', 'Helvetica', 'Avant Garde', sans-serif; text-anchor: middle" x="521.419287" y="399.078438" transform="rotate(-0 521.419287 399.078438)">0.8</text>
     </g>
    </g>
    <g id="xtick_6">
     <g id="line2d_11">
      <path d="M 622.933211 384.48 
L 622.933211 51.84 
" clip-path="url(#pfdd912d174)" style="fill: none; stroke: #b0b0b0; stroke-opacity: 0.3; stroke-width: 0.8; stroke-linecap: square"/>
     </g>
     <g id="line2d_12">
      <g>
       <use xlink:href="#mc5a5944c15" x="622.933211" y="384.48" style="stroke: #000000; stroke-width: 0.8"/>
      </g>
     </g>
     <g id="text_6">
      <text style="font: 10px 'DejaVu Sans', 'Bitstream Vera Sans', 'Computer Modern Sans Serif', 'Lucida Grande', 'Verdana', 'Geneva', 'Lucid', 'Arial', 'Helvetica', 'Avant Garde', sans-serif; text-anchor: middle" x="622.933211" y="399.078438" transform="rotate(-0 622.933211 399.078438)">1.0</text>
     </g>
    </g>
    <g id="text_7">
     <text style="font: 10px 'DejaVu Sans', 'Bitstream Vera Sans', 'Computer Modern Sans Serif', 'Lucida Grande', 'Verdana', 'Geneva', 'Lucid', 'Arial', 'Helvetica', 'Avant Garde', sans-serif; text-anchor: middle" x="369" y="412.756563" transform="rotate(-0 369 412.756563)">Score</text>
    </g>
   </g>
   <g id="matplotlib.axis_2">
    <g id="ytick_1">
     <g id="line2d_13">
      <path d="M 90 384.48 
L 648 384.48 
" clip-path="url(#pfdd912d174)" style="fill: none; stroke: #b0b0b0; stroke-opacity: 0.3; stroke-width: 0.8; stroke-linecap: square"/>
     </g>
     <g id="line2d_14">
      <defs>
       <path id="mf6e9eaab39" d="M 0 0 
L -3.5 0 
" style="stroke: #000000; stroke-width: 0.8"/>
      </defs>
      <g>
       <use xlink:href="#mf6e9eaab39" x="90" y="384.48" style="stroke: #000000; stroke-width: 0.8"/>
      </g>
     </g>
     <g id="text_8">
      <text style="font: 10px 'DejaVu Sans', 'Bitstream Vera Sans', 'Computer Modern Sans Serif', 'Lucida Grande', 'Verdana', 'Geneva', 'Lucid', 'Arial', 'Helvetica', 'Avant Garde', sans-serif; text-anchor: end" x="83" y="388.279219" transform="rotate(-0 83 388.279219)">0</text>
     </g>
    </g>
    <g id="ytick_2">
     <g id="line2d_15">
      <path d="M 90 321.497893 
L 648 321.497893 
" clip-path="url(#pfdd912d174)" style="fill: none; stroke: #b0b0b0; stroke-opacity: 0.3; stroke-width: 0.8; stroke-linecap: square"/>
     </g>
     <g id="line2d_16">
      <g>
       <use xlink:href="#mf6e9eaab39" x="90" y="321.497893" style="stroke: #000000; stroke-width: 0.8"/>
      </g>
     </g>
     <g id="text_9">
      <text style="font: 10px 'DejaVu Sans', 'Bitstream Vera Sans', 'Computer Modern Sans Serif', 'Lucida Grande', 'Verdana', 'Geneva', 'Lucid', 'Arial', 'Helvetica', 'Avant Garde', sans-serif; text-anchor: end" x="83" y="325.297111" transform="rotate(-0 83 325.297111)">100</text>
     </g>
    </g>
    <g id="ytick_3">
     <g id="line2d_17">
      <path d="M 90 258.515785 
L 648 258.515785 
" clip-path="url(#pfdd912d174)" style="fill: none; stroke: #b0b0b0; stroke-opacity: 0.3; stroke-width: 0.8; stroke-linecap: square"/>
     </g>
     <g id="line2d_18">
      <g>
       <use xlink:href="#mf6e9eaab39" x="90" y="258.515785" style="stroke: #000000; stroke-width: 0.8"/>
      </g>
     </g>
     <g id="text_10">
      <text style="font: 10px 'DejaVu Sans', 'Bitstream Vera Sans', 'Computer Modern Sans Serif', 'Lucida Grande', 'Verdana', 'Geneva', 'Lucid', 'Arial', 'Helvetica', 'Avant Garde', sans-serif; text-anchor: end" x="83" y="262.315004" transform="rotate(-0 83 262.315004)">200</text>
     </g>
    </g>
    <g id="ytick_4">
     <g id="line2d_19">
      <path d="M 90 195.533678 
L 648 195.533678 
" clip-path="url(#pfdd912d174)" style="fill: none; stroke: #b0b0b0; stroke-opacity: 0.3; stroke-width: 0.8; stroke-linecap: square"/>
     </g>
     <g id="line2d_20">
      <g>
       <use xlink:href="#mf6e9eaab39" x="90" y="195.533678" style="stroke: #000000; stroke-width: 0.8"/>
      </g>
     </g>
     <g id="text_11">
      <text style="font: 10px 'DejaVu Sans', 'Bitstream Vera Sans', 'Computer Modern Sans Serif', 'Lucida Grande', 'Verdana', 'Geneva', 'Lucid', 'Arial', 'Helvetica', 'Avant Garde', sans-serif; text-anchor: end" x="83" y="199.332897" transform="rotate(-0 83 199.332897)">300</text>
     </g>
    </g>
    <g id="ytick_5">
     <g id="line2d_21">
      <path d="M 90 132.551571 
L 648 132.551571 
" clip-path="url(#pfdd912d174)" style="fill: none; stroke: #b0b0b0; stroke-opacity: 0.3; stroke-width: 0.8; stroke-linecap: square"/>
     </g>
     <g id="line2d_22">
      <g>
       <use xlink:href="#mf6e9eaab39" x="90" y="132.551571" style="stroke: #000000; stroke-width: 0.8"/>
      </g>
     </g>
     <g id="text_12">
      <text style="font: 10px 'DejaVu Sans', 'Bitstream Vera Sans', 'Computer Modern Sans Serif', 'Lucida Grande', 'Verdana', 'Geneva', 'Lucid', 'Arial', 'Helvetica', 'Avant Garde', sans-serif; text-anchor: end" x="83" y="136.350789" transform="rotate(-0 83 136.350789)">400</text>
     </g>
    </g>
    <g id="ytick_6">
     <g id="line2d_23">
      <path d="M 90 69.569463 
L 648 69.569463 
" clip-path="url(#pfdd912d174)" style="fill: none; stroke: #b0b0b0; stroke-opacity: 0.3; stroke-width: 0.8; stroke-linecap: square"/>
     </g>
     <g id="line2d_24">
      <g>
       <use xlink:href="#mf6e9eaab39" x="90" y="69.569463" style="stroke: #000000; stroke-width: 0.8"/>
      </g>
     </g>
     <g id="text_13">
      <text style="font: 10px 'DejaVu Sans', 'Bitstream Vera Sans', 'Computer Modern Sans Serif', 'Lucida Grande', 'Verdana', 'Geneva', 'Lucid', 'Arial', 'Helvetica', 'Avant Garde', sans-serif; text-anchor: end" x="83" y="73.368682" transform="rotate(-0 83 73.368682)">500</text>
     </g>
    </g>
    <g id="text_14">
     <text style="font: 10px 'DejaVu Sans', 'Bitstream Vera Sans', 'Computer Modern Sans Serif', 'Lucida Grande', 'Verdana', 'Geneva', 'Lucid', 'Arial', 'Helvetica', 'Avant Garde', sans-serif; text-anchor: middle" x="57.832812" y="218.16" transform="rotate(-90 57.832812 218.16)">Density</text>
    </g>
   </g>
   <g id="line2d_25">
    <path d="M 115.363636 325.287106 
L 117.912746 324.397768 
L 120.461855 324.014386 
L 123.010964 324.139479 
L 125.560073 324.761834 
L 128.109182 325.857196 
L 130.658291 327.389528 
L 133.207401 329.312761 
L 135.75651 331.572913 
L 138.305619 334.11045 
L 143.403837 339.766467 
L 153.600274 351.723585 
L 158.698492 357.24041 
L 161.247602 359.76629 
L 163.796711 362.112647 
L 166.34582 364.269837 
L 168.894929 366.234336 
L 171.444038 368.007869 
L 173.993148 369.59646 
L 176.542257 371.009481 
L 179.091366 372.258736 
L 181.640475 373.357622 
L 184.189584 374.320389 
L 189.287803 375.895176 
L 194.386021 377.093232 
L 199.484239 378.010141 
L 204.582458 378.722137 
L 212.229785 379.524747 
L 219.877113 380.110872 
L 230.07355 380.657474 
L 240.269986 380.992423 
L 253.015532 381.17883 
L 293.801279 381.513911 
L 342.234354 382.653055 
L 367.725445 382.739494 
L 398.314756 382.882967 
L 436.551393 383.163672 
L 456.944267 382.956162 
L 474.788031 382.857546 
L 490.082686 383.01937 
L 523.221106 383.508674 
L 541.06487 383.447362 
L 576.752398 383.1958 
L 594.596163 383.3712 
L 620.087254 383.917011 
L 622.636364 383.972584 
L 622.636364 383.972584 
" clip-path="url(#pfdd912d174)" style="fill: none; stroke: #ff0000; stroke-width: 1.5; stroke-linecap: square"/>
   </g>
   <g id="line2d_26">
    <path d="M 115.363636 380.545795 
L 133.207401 380.386818 
L 151.051165 380.476387 
L 168.894929 380.787947 
L 194.386021 381.487494 
L 245.368205 382.96333 
L 270.859296 383.457154 
L 298.899497 383.76938 
L 332.037917 383.899756 
L 385.56921 383.842586 
L 492.631795 383.731857 
L 561.457743 383.54134 
L 609.890818 383.478559 
L 622.636364 383.515453 
L 622.636364 383.515453 
" clip-path="url(#pfdd912d174)" style="fill: none; stroke: #0000ff; stroke-width: 1.5; stroke-linecap: square"/>
   </g>
   <g id="line2d_27">
    <path d="M 252.384389 384.48 
L 252.384389 51.84 
" clip-path="url(#pfdd912d174)" style="fill: none; stroke-dasharray: 7.4,3.2; stroke-dashoffset: 0; stroke: #00008b; stroke-width: 2"/>
   </g>
   <g id="line2d_28">
    <path d="M 161.992146 384.48 
L 161.992146 51.84 
" clip-path="url(#pfdd912d174)" style="fill: none; stroke-dasharray: 7.4,3.2; stroke-dashoffset: 0; stroke: #8b0000; stroke-width: 2"/>
   </g>
   <g id="patch_103">
    <path d="M 90 384.48 
L 90 51.84 
" style="fill: none; stroke: #000000; stroke-width: 0.8; stroke-linejoin: miter; stroke-linecap: square"/>
   </g>
   <g id="patch_104">
    <path d="M 648 384.48 
L 648 51.84 
" style="fill: none; stroke: #000000; stroke-width: 0.8; stroke-linejoin: miter; stroke-linecap: square"/>
   </g>
   <g id="patch_105">
    <path d="M 90 384.48 
L 648 384.48 
" style="fill: none; stroke: #000000; stroke-width: 0.8; stroke-linejoin: miter; stroke-linecap: square"/>
   </g>
   <g id="patch_106">
    <path d="M 90 51.84 
L 648 51.84 
" style="fill: none; stroke: #000000; stroke-width: 0.8; stroke-linejoin: miter; stroke-linecap: square"/>
   </g>
   <g id="text_15">
    <text style="font: 12px 'DejaVu Sans', 'Bitstream Vera Sans', 'Computer Modern Sans Serif', 'Lucida Grande', 'Verdana', 'Geneva', 'Lucid', 'Arial', 'Helvetica', 'Avant Garde', sans-serif; text-anchor: middle" x="369" y="45.84" transform="rotate(-0 369 45.84)">epact</text>
   </g>
   <g id="legend_1">
    <g id="patch_107">
     <path d="M 565.2625 103.874375 
L 641 103.874375 
Q 643 103.874375 643 101.874375 
L 643 58.84 
Q 643 56.84 641 56.84 
L 565.2625 56.84 
Q 563.2625 56.84 563.2625 58.84 
L 563.2625 101.874375 
Q 563.2625 103.874375 565.2625 103.874375 
z
" style="fill: #ffffff; opacity: 0.8; stroke: #cccccc; stroke-linejoin: miter"/>
    </g>
    <g id="text_16">
     <text style="font: 10px 'DejaVu Sans', 'Bitstream Vera Sans', 'Computer Modern Sans Serif', 'Lucida Grande', 'Verdana', 'Geneva', 'Lucid', 'Arial', 'Helvetica', 'Avant Garde', sans-serif; text-anchor: start" x="591.038281" y="68.438437" transform="rotate(-0 591.038281 68.438437)">label</text>
    </g>
    <g id="patch_108">
     <path d="M 567.2625 83.116562 
L 587.2625 83.116562 
L 587.2625 76.116562 
L 567.2625 76.116562 
z
" style="fill: #0000ff; fill-opacity: 0.7; stroke: #000000; stroke-linejoin: miter"/>
    </g>
    <g id="text_17">
     <text style="font: 10px 'DejaVu Sans', 'Bitstream Vera Sans', 'Computer Modern Sans Serif', 'Lucida Grande', 'Verdana', 'Geneva', 'Lucid', 'Arial', 'Helvetica', 'Avant Garde', sans-serif; text-anchor: start" x="595.2625" y="83.116562" transform="rotate(-0 595.2625 83.116562)">positive</text>
    </g>
    <g id="patch_109">
     <path d="M 567.2625 97.794688 
L 587.2625 97.794688 
L 587.2625 90.794688 
L 567.2625 90.794688 
z
" style="fill: #ff0000; fill-opacity: 0.7; stroke: #000000; stroke-linejoin: miter"/>
    </g>
    <g id="text_18">
     <text style="font: 10px 'DejaVu Sans', 'Bitstream Vera Sans', 'Computer Modern Sans Serif', 'Lucida Grande', 'Verdana', 'Geneva', 'Lucid', 'Arial', 'Helvetica', 'Avant Garde', sans-serif; text-anchor: start" x="595.2625" y="97.794688" transform="rotate(-0 595.2625 97.794688)">negative</text>
    </g>
   </g>
  </g>
 </g>
 <defs>
  <clipPath id="pfdd912d174">
   <rect x="90" y="51.84" width="558" height="332.64"/>
  </clipPath>
 </defs>
</svg>
